M48
; DRILL file {KiCad (5.1.9)-1} date 06/24/22 16:27:58
; FORMAT={-:-/ absolute / metric / decimal}
; #@! TF.CreationDate,2022-06-24T16:27:58+09:00
; #@! TF.GenerationSoftware,Kicad,Pcbnew,(5.1.9)-1
FMAT,2
METRIC
T1C0.300
T2C0.800
T3C1.000
T4C3.200
%
G90
G05
T1
X19.919Y49.176
X22.662Y35.093
X24.149Y19.729
X27.329Y25.487
X27.904Y17.508
X29.996Y21.055
X30.965Y23.586
X31.574Y24.558
X37.041Y64.649
X37.687Y65.652
X38.25Y65.129
X41.177Y61.773
X41.915Y61.717
X44.88Y42.943
X46.75Y64.942
X47.807Y39.633
X49.079Y61.692
X51.453Y57.991
X51.781Y59.641
X51.902Y48.149
X65.105Y25.036
X77.248Y22.583
X79.146Y22.583
T2
X14.335Y8.57
X14.335Y6.07
X25.885Y31.395
X25.885Y28.855
X25.885Y26.315
X25.885Y23.775
X25.885Y21.235
X25.885Y18.695
X25.885Y16.155
X26.035Y60.96
X26.035Y58.42
X26.035Y55.88
X26.035Y53.34
X26.035Y50.8
X26.035Y48.26
X26.035Y45.72
X26.08Y89.285
X26.08Y86.745
X26.08Y84.205
X26.08Y81.665
X26.08Y79.125
X26.08Y76.585
X26.08Y74.045
X28.465Y12.345
X28.488Y41.974
X28.615Y70.485
X30.965Y12.345
X30.988Y41.974
X31.115Y70.485
X33.505Y31.395
X33.505Y28.855
X33.505Y26.315
X33.505Y23.775
X33.505Y21.235
X33.505Y18.695
X33.505Y16.155
X33.655Y60.96
X33.655Y58.42
X33.655Y55.88
X33.655Y53.34
X33.655Y50.8
X33.655Y48.26
X33.655Y45.72
X33.7Y89.285
X33.7Y86.745
X33.7Y84.205
X33.7Y81.665
X33.7Y79.125
X33.7Y76.585
X33.7Y74.045
X42.455Y56.49
X42.455Y53.95
X42.455Y51.41
X42.455Y48.87
X42.455Y46.33
X42.455Y43.79
X42.455Y41.25
X42.455Y38.71
X42.455Y36.17
X42.455Y33.63
X42.455Y31.09
X42.455Y28.55
X42.455Y26.01
X42.455Y23.47
X42.455Y20.93
X42.455Y18.39
X42.455Y15.85
X42.455Y13.31
X42.455Y10.77
X42.455Y8.23
X42.67Y85.06
X42.67Y82.56
X46.48Y91.075
X46.48Y75.835
X48.17Y60.3
X49.02Y91.075
X49.02Y75.835
X50.67Y60.3
X51.56Y91.075
X51.56Y75.835
X54.1Y91.075
X54.1Y75.835
X56.64Y91.075
X56.64Y75.835
X57.695Y56.49
X57.695Y53.95
X57.695Y51.41
X57.695Y48.87
X57.695Y46.33
X57.695Y43.79
X57.695Y41.25
X57.695Y38.71
X57.695Y36.17
X57.695Y33.63
X57.695Y31.09
X57.695Y28.55
X57.695Y26.01
X57.695Y23.47
X57.695Y20.93
X57.695Y18.39
X57.695Y15.85
X57.695Y13.31
X57.695Y10.77
X57.695Y8.23
X59.18Y91.075
X59.18Y75.835
X61.72Y91.075
X61.72Y75.835
X63.995Y31.71
X63.995Y16.47
X64.26Y91.075
X64.26Y75.835
X66.535Y31.71
X66.535Y16.47
X66.8Y91.075
X66.8Y75.835
X69.075Y31.71
X69.075Y16.47
X69.34Y91.075
X69.34Y75.835
X70.345Y19.01
X71.615Y31.71
X71.615Y16.47
X71.88Y91.075
X71.88Y75.835
X72.885Y19.01
X74.155Y31.71
X74.155Y16.47
X74.42Y91.075
X74.42Y75.835
X76.695Y31.71
X76.695Y16.47
X76.96Y91.075
X76.96Y75.835
X79.235Y31.71
X79.235Y16.47
X79.5Y91.075
X79.5Y75.835
X80.505Y19.01
X81.775Y31.71
X81.775Y16.47
X83.045Y19.01
X84.315Y31.71
X84.315Y16.47
X86.855Y31.71
X86.855Y16.47
X89.395Y31.71
X89.395Y16.47
X91.935Y31.71
X91.935Y16.47
T3
X5.715Y80.01
X5.715Y77.47
X5.715Y74.93
X5.715Y72.39
X5.715Y69.85
X5.715Y67.31
X5.715Y64.77
X5.715Y62.23
X5.715Y59.69
X5.715Y57.15
X5.715Y54.61
X5.715Y52.07
X5.715Y49.53
X5.715Y46.99
X5.715Y44.45
X5.715Y41.91
X5.715Y39.37
X5.715Y36.83
X5.715Y34.29
X5.715Y31.75
X5.715Y29.21
X5.715Y26.67
X5.715Y24.13
X5.715Y21.59
X5.715Y19.05
X8.255Y80.01
X8.255Y77.47
X8.255Y74.93
X8.255Y72.39
X8.255Y69.85
X8.255Y67.31
X8.255Y64.77
X8.255Y62.23
X8.255Y59.69
X8.255Y57.15
X8.255Y54.61
X8.255Y52.07
X8.255Y49.53
X8.255Y46.99
X8.255Y44.45
X8.255Y41.91
X8.255Y39.37
X8.255Y36.83
X8.255Y34.29
X8.255Y31.75
X8.255Y29.21
X8.255Y26.67
X8.255Y24.13
X8.255Y21.59
X8.255Y19.05
X10.795Y80.01
X10.795Y77.47
X10.795Y74.93
X10.795Y72.39
X10.795Y69.85
X10.795Y67.31
X10.795Y64.77
X10.795Y62.23
X10.795Y59.69
X10.795Y57.15
X10.795Y54.61
X10.795Y52.07
X10.795Y49.53
X10.795Y46.99
X10.795Y44.45
X10.795Y41.91
X10.795Y39.37
X10.795Y36.83
X10.795Y34.29
X10.795Y31.75
X10.795Y29.21
X10.795Y26.67
X10.795Y24.13
X10.795Y21.59
X10.795Y19.05
X68.58Y62.23
X68.58Y59.69
X68.58Y57.15
X68.58Y54.61
X68.58Y52.07
X68.58Y49.53
X68.58Y46.99
X68.58Y44.45
X68.58Y41.91
X79.248Y2.604
X81.788Y2.604
X84.328Y2.604
X93.98Y62.23
X93.98Y41.91
X96.52Y62.23
X96.52Y41.91
T4
X5.0Y95.0
X5.0Y5.0
X95.0Y95.0
X95.0Y5.0
T0
M30
