G04 #@! TF.GenerationSoftware,KiCad,Pcbnew,(5.1.9)-1*
G04 #@! TF.CreationDate,2022-06-24T16:27:56+09:00*
G04 #@! TF.ProjectId,PC-8001_SD,50432d38-3030-4315-9f53-442e6b696361,rev?*
G04 #@! TF.SameCoordinates,PX53920b0PY93c3260*
G04 #@! TF.FileFunction,Soldermask,Bot*
G04 #@! TF.FilePolarity,Negative*
%FSLAX46Y46*%
G04 Gerber Fmt 4.6, Leading zero omitted, Abs format (unit mm)*
G04 Created by KiCad (PCBNEW (5.1.9)-1) date 2022-06-24 16:27:56*
%MOMM*%
%LPD*%
G01*
G04 APERTURE LIST*
%ADD10R,1.700000X1.700000*%
%ADD11O,1.700000X1.700000*%
%ADD12C,1.600000*%
%ADD13R,1.600000X2.400000*%
%ADD14O,1.600000X2.400000*%
%ADD15R,2.400000X1.600000*%
%ADD16O,2.400000X1.600000*%
%ADD17C,3.200000*%
%ADD18R,1.600000X1.600000*%
%ADD19O,1.600000X1.600000*%
G04 APERTURE END LIST*
D10*
X68580000Y62230000D03*
D11*
X68580000Y59690000D03*
X68580000Y57150000D03*
X68580000Y54610000D03*
X68580000Y52070000D03*
X68580000Y49530000D03*
X68580000Y46990000D03*
X68580000Y44450000D03*
X68580000Y41910000D03*
X96520000Y41910000D03*
X93980000Y41910000D03*
X96520000Y62230000D03*
X93980000Y62230000D03*
D12*
X48170000Y60300000D03*
X50670000Y60300000D03*
D13*
X46480000Y75835000D03*
D14*
X79500000Y91075000D03*
X49020000Y75835000D03*
X76960000Y91075000D03*
X51560000Y75835000D03*
X74420000Y91075000D03*
X54100000Y75835000D03*
X71880000Y91075000D03*
X56640000Y75835000D03*
X69340000Y91075000D03*
X59180000Y75835000D03*
X66800000Y91075000D03*
X61720000Y75835000D03*
X64260000Y91075000D03*
X64260000Y75835000D03*
X61720000Y91075000D03*
X66800000Y75835000D03*
X59180000Y91075000D03*
X69340000Y75835000D03*
X56640000Y91075000D03*
X71880000Y75835000D03*
X54100000Y91075000D03*
X74420000Y75835000D03*
X51560000Y91075000D03*
X76960000Y75835000D03*
X49020000Y91075000D03*
X79500000Y75835000D03*
X46480000Y91075000D03*
D15*
X57695000Y8230000D03*
D16*
X42455000Y56490000D03*
X57695000Y10770000D03*
X42455000Y53950000D03*
X57695000Y13310000D03*
X42455000Y51410000D03*
X57695000Y15850000D03*
X42455000Y48870000D03*
X57695000Y18390000D03*
X42455000Y46330000D03*
X57695000Y20930000D03*
X42455000Y43790000D03*
X57695000Y23470000D03*
X42455000Y41250000D03*
X57695000Y26010000D03*
X42455000Y38710000D03*
X57695000Y28550000D03*
X42455000Y36170000D03*
X57695000Y31090000D03*
X42455000Y33630000D03*
X57695000Y33630000D03*
X42455000Y31090000D03*
X57695000Y36170000D03*
X42455000Y28550000D03*
X57695000Y38710000D03*
X42455000Y26010000D03*
X57695000Y41250000D03*
X42455000Y23470000D03*
X57695000Y43790000D03*
X42455000Y20930000D03*
X57695000Y46330000D03*
X42455000Y18390000D03*
X57695000Y48870000D03*
X42455000Y15850000D03*
X57695000Y51410000D03*
X42455000Y13310000D03*
X57695000Y53950000D03*
X42455000Y10770000D03*
X57695000Y56490000D03*
X42455000Y8230000D03*
D12*
X42670000Y85060000D03*
X42670000Y82560000D03*
D17*
X5000000Y95000000D03*
X95000000Y95000000D03*
X95000000Y5000000D03*
X5000000Y5000000D03*
D18*
X14335000Y8570000D03*
D12*
X14335000Y6070000D03*
D18*
X91935000Y31710000D03*
D19*
X89395000Y31710000D03*
X86855000Y31710000D03*
X63995000Y16470000D03*
X84315000Y31710000D03*
X66535000Y16470000D03*
X81775000Y31710000D03*
X69075000Y16470000D03*
X79235000Y31710000D03*
X71615000Y16470000D03*
X76695000Y31710000D03*
X74155000Y16470000D03*
X74155000Y31710000D03*
X76695000Y16470000D03*
X71615000Y31710000D03*
X79235000Y16470000D03*
X69075000Y31710000D03*
X81775000Y16470000D03*
X66535000Y31710000D03*
X84315000Y16470000D03*
X63995000Y31710000D03*
X86855000Y16470000D03*
X89395000Y16470000D03*
X91935000Y16470000D03*
X83045000Y19010000D03*
X80505000Y19010000D03*
X72885000Y19010000D03*
X70345000Y19010000D03*
D12*
X30965000Y12345000D03*
X28465000Y12345000D03*
X28488000Y41974000D03*
X30988000Y41974000D03*
X31115000Y70485000D03*
X28615000Y70485000D03*
D16*
X25885000Y16155000D03*
X33505000Y31395000D03*
X25885000Y18695000D03*
X33505000Y28855000D03*
X25885000Y21235000D03*
X33505000Y26315000D03*
X25885000Y23775000D03*
X33505000Y23775000D03*
X25885000Y26315000D03*
X33505000Y21235000D03*
X25885000Y28855000D03*
X33505000Y18695000D03*
X25885000Y31395000D03*
D15*
X33505000Y16155000D03*
X33700000Y74045000D03*
D16*
X26080000Y89285000D03*
X33700000Y76585000D03*
X26080000Y86745000D03*
X33700000Y79125000D03*
X26080000Y84205000D03*
X33700000Y81665000D03*
X26080000Y81665000D03*
X33700000Y84205000D03*
X26080000Y79125000D03*
X33700000Y86745000D03*
X26080000Y76585000D03*
X33700000Y89285000D03*
X26080000Y74045000D03*
D10*
X8255000Y19050000D03*
D11*
X5715000Y19050000D03*
X8255000Y21590000D03*
X5715000Y21590000D03*
X8255000Y24130000D03*
X5715000Y24130000D03*
X8255000Y26670000D03*
X5715000Y26670000D03*
X8255000Y29210000D03*
X5715000Y29210000D03*
X8255000Y31750000D03*
X5715000Y31750000D03*
X8255000Y34290000D03*
X5715000Y34290000D03*
X8255000Y36830000D03*
X5715000Y36830000D03*
X8255000Y39370000D03*
X5715000Y39370000D03*
X8255000Y41910000D03*
X5715000Y41910000D03*
X8255000Y44450000D03*
X5715000Y44450000D03*
X8255000Y46990000D03*
X5715000Y46990000D03*
X8255000Y49530000D03*
X5715000Y49530000D03*
X8255000Y52070000D03*
X5715000Y52070000D03*
X8255000Y54610000D03*
X5715000Y54610000D03*
X8255000Y57150000D03*
X5715000Y57150000D03*
X8255000Y59690000D03*
X5715000Y59690000D03*
X8255000Y62230000D03*
X5715000Y62230000D03*
X8255000Y64770000D03*
X5715000Y64770000D03*
X8255000Y67310000D03*
X5715000Y67310000D03*
X8255000Y69850000D03*
X5715000Y69850000D03*
X8255000Y72390000D03*
X5715000Y72390000D03*
X8255000Y74930000D03*
X5715000Y74930000D03*
X8255000Y77470000D03*
X5715000Y77470000D03*
X8255000Y80010000D03*
X5715000Y80010000D03*
D10*
X10795000Y19050000D03*
D11*
X10795000Y21590000D03*
X10795000Y24130000D03*
X10795000Y26670000D03*
X10795000Y29210000D03*
X10795000Y31750000D03*
X10795000Y34290000D03*
X10795000Y36830000D03*
X10795000Y39370000D03*
X10795000Y41910000D03*
X10795000Y44450000D03*
X10795000Y46990000D03*
X10795000Y49530000D03*
X10795000Y52070000D03*
X10795000Y54610000D03*
X10795000Y57150000D03*
X10795000Y59690000D03*
X10795000Y62230000D03*
X10795000Y64770000D03*
X10795000Y67310000D03*
X10795000Y69850000D03*
X10795000Y72390000D03*
X10795000Y74930000D03*
X10795000Y77470000D03*
X10795000Y80010000D03*
D10*
X79248000Y2604000D03*
D11*
X81788000Y2604000D03*
X84328000Y2604000D03*
D15*
X33655000Y45720000D03*
D16*
X26035000Y60960000D03*
X33655000Y48260000D03*
X26035000Y58420000D03*
X33655000Y50800000D03*
X26035000Y55880000D03*
X33655000Y53340000D03*
X26035000Y53340000D03*
X33655000Y55880000D03*
X26035000Y50800000D03*
X33655000Y58420000D03*
X26035000Y48260000D03*
X33655000Y60960000D03*
X26035000Y45720000D03*
M02*
