M48
; DRILL file {KiCad (5.1.9)-1} date 09/08/22 13:00:39
; FORMAT={-:-/ absolute / metric / decimal}
; #@! TF.CreationDate,2022-09-08T13:00:39+09:00
; #@! TF.GenerationSoftware,Kicad,Pcbnew,(5.1.9)-1
FMAT,2
METRIC
T1C0.300
T2C0.800
T3C0.900
T4C1.000
T5C3.200
%
G90
G05
T1
X18.09Y17.78
X20.767Y33.948
X22.293Y51.733
X22.707Y51.058
X23.65Y42.642
X23.683Y49.356
X23.77Y24.11
X24.767Y55.774
X25.984Y42.498
X30.91Y36.984
X34.676Y43.282
X35.171Y45.805
X36.244Y37.972
X36.591Y45.373
X37.927Y43.27
X41.892Y37.427
X49.22Y58.991
X49.346Y57.832
X50.41Y57.831
X51.686Y58.928
T2
X14.335Y8.57
X14.335Y6.07
X19.154Y34.824
X19.154Y32.284
X19.154Y29.744
X19.154Y27.204
X19.154Y24.664
X19.154Y22.124
X19.154Y19.584
X19.304Y64.389
X19.304Y61.849
X19.304Y59.309
X19.304Y56.769
X19.304Y54.229
X19.304Y51.689
X19.304Y49.149
X19.349Y92.714
X19.349Y90.174
X19.349Y87.634
X19.349Y85.094
X19.349Y82.554
X19.349Y80.014
X19.349Y77.474
X21.734Y15.774
X21.757Y45.403
X21.884Y73.914
X24.234Y15.774
X24.257Y45.403
X24.384Y73.914
X26.774Y34.824
X26.774Y32.284
X26.774Y29.744
X26.774Y27.204
X26.774Y24.664
X26.774Y22.124
X26.774Y19.584
X26.924Y64.389
X26.924Y61.849
X26.924Y59.309
X26.924Y56.769
X26.924Y54.229
X26.924Y51.689
X26.924Y49.149
X26.969Y92.714
X26.969Y90.174
X26.969Y87.634
X26.969Y85.094
X26.969Y82.554
X26.969Y80.014
X26.969Y77.474
X34.327Y54.712
X34.327Y52.172
X34.327Y49.632
X34.327Y47.092
X34.327Y44.552
X34.327Y42.012
X34.327Y39.472
X34.327Y36.932
X34.327Y34.392
X34.327Y31.852
X34.327Y29.312
X34.327Y26.772
X34.327Y24.232
X34.327Y21.692
X34.327Y19.152
X34.327Y16.612
X34.327Y14.072
X34.327Y11.532
X34.327Y8.992
X34.327Y6.452
X40.042Y58.522
X40.257Y86.711
X40.257Y84.211
X42.542Y58.522
X44.067Y92.726
X44.067Y77.486
X46.607Y92.726
X46.607Y77.486
X49.147Y92.726
X49.147Y77.486
X49.567Y54.712
X49.567Y52.172
X49.567Y49.632
X49.567Y47.092
X49.567Y44.552
X49.567Y42.012
X49.567Y39.472
X49.567Y36.932
X49.567Y34.392
X49.567Y31.852
X49.567Y29.312
X49.567Y26.772
X49.567Y24.232
X49.567Y21.692
X49.567Y19.152
X49.567Y16.612
X49.567Y14.072
X49.567Y11.532
X49.567Y8.992
X49.567Y6.452
X51.687Y92.726
X51.687Y77.486
X54.227Y92.726
X54.227Y77.486
X56.767Y92.726
X56.767Y77.486
X59.307Y92.726
X59.307Y77.486
X61.847Y92.726
X61.847Y77.486
X63.995Y31.71
X63.995Y16.47
X64.387Y92.726
X64.387Y77.486
X66.535Y31.71
X66.535Y16.47
X66.927Y92.726
X66.927Y77.486
X69.075Y31.71
X69.075Y16.47
X69.467Y92.726
X69.467Y77.486
X70.345Y19.01
X71.615Y31.71
X71.615Y16.47
X72.007Y92.726
X72.007Y77.486
X72.885Y19.01
X74.155Y31.71
X74.155Y16.47
X74.547Y92.726
X74.547Y77.486
X76.695Y31.71
X76.695Y16.47
X77.087Y92.726
X77.087Y77.486
X79.235Y31.71
X79.235Y16.47
X80.505Y19.01
X81.775Y31.71
X81.775Y16.47
X83.045Y19.01
X84.315Y31.71
X84.315Y16.47
X86.855Y31.71
X86.855Y16.47
X89.395Y31.71
X89.395Y16.47
X91.935Y31.71
X91.935Y16.47
T3
X36.576Y69.469
X36.576Y66.169
X39.076Y69.469
X39.076Y66.169
X41.576Y69.469
X41.576Y66.169
T4
X5.715Y80.01
X5.715Y77.47
X5.715Y74.93
X5.715Y72.39
X5.715Y69.85
X5.715Y67.31
X5.715Y64.77
X5.715Y62.23
X5.715Y59.69
X5.715Y57.15
X5.715Y54.61
X5.715Y52.07
X5.715Y49.53
X5.715Y46.99
X5.715Y44.45
X5.715Y41.91
X5.715Y39.37
X5.715Y36.83
X5.715Y34.29
X5.715Y31.75
X5.715Y29.21
X5.715Y26.67
X5.715Y24.13
X5.715Y21.59
X5.715Y19.05
X8.255Y80.01
X8.255Y77.47
X8.255Y74.93
X8.255Y72.39
X8.255Y69.85
X8.255Y67.31
X8.255Y64.77
X8.255Y62.23
X8.255Y59.69
X8.255Y57.15
X8.255Y54.61
X8.255Y52.07
X8.255Y49.53
X8.255Y46.99
X8.255Y44.45
X8.255Y41.91
X8.255Y39.37
X8.255Y36.83
X8.255Y34.29
X8.255Y31.75
X8.255Y29.21
X8.255Y26.67
X8.255Y24.13
X8.255Y21.59
X8.255Y19.05
X10.795Y80.01
X10.795Y77.47
X10.795Y74.93
X10.795Y72.39
X10.795Y69.85
X10.795Y67.31
X10.795Y64.77
X10.795Y62.23
X10.795Y59.69
X10.795Y57.15
X10.795Y54.61
X10.795Y52.07
X10.795Y49.53
X10.795Y46.99
X10.795Y44.45
X10.795Y41.91
X10.795Y39.37
X10.795Y36.83
X10.795Y34.29
X10.795Y31.75
X10.795Y29.21
X10.795Y26.67
X10.795Y24.13
X10.795Y21.59
X10.795Y19.05
X57.912Y57.785
X57.912Y55.245
X57.912Y52.705
X57.912Y50.165
X57.912Y47.625
X57.912Y45.085
X68.58Y62.23
X68.58Y59.69
X68.58Y57.15
X68.58Y54.61
X68.58Y52.07
X68.58Y49.53
X68.58Y46.99
X68.58Y44.45
X68.58Y41.91
X79.248Y2.604
X81.788Y2.604
X84.328Y2.604
X93.98Y62.23
X93.98Y41.91
X96.52Y62.23
X96.52Y41.91
T5
X5.0Y95.0
X5.0Y5.0
X95.0Y95.0
X95.0Y5.0
T0
M30
