G04 #@! TF.GenerationSoftware,KiCad,Pcbnew,(5.1.9)-1*
G04 #@! TF.CreationDate,2022-06-24T16:27:56+09:00*
G04 #@! TF.ProjectId,PC-8001_SD,50432d38-3030-4315-9f53-442e6b696361,rev?*
G04 #@! TF.SameCoordinates,PX53920b0PY93c3260*
G04 #@! TF.FileFunction,Copper,L1,Top*
G04 #@! TF.FilePolarity,Positive*
%FSLAX46Y46*%
G04 Gerber Fmt 4.6, Leading zero omitted, Abs format (unit mm)*
G04 Created by KiCad (PCBNEW (5.1.9)-1) date 2022-06-24 16:27:56*
%MOMM*%
%LPD*%
G01*
G04 APERTURE LIST*
G04 #@! TA.AperFunction,ComponentPad*
%ADD10R,1.700000X1.700000*%
G04 #@! TD*
G04 #@! TA.AperFunction,ComponentPad*
%ADD11O,1.700000X1.700000*%
G04 #@! TD*
G04 #@! TA.AperFunction,ComponentPad*
%ADD12C,1.600000*%
G04 #@! TD*
G04 #@! TA.AperFunction,ComponentPad*
%ADD13R,1.600000X2.400000*%
G04 #@! TD*
G04 #@! TA.AperFunction,ComponentPad*
%ADD14O,1.600000X2.400000*%
G04 #@! TD*
G04 #@! TA.AperFunction,ComponentPad*
%ADD15R,2.400000X1.600000*%
G04 #@! TD*
G04 #@! TA.AperFunction,ComponentPad*
%ADD16O,2.400000X1.600000*%
G04 #@! TD*
G04 #@! TA.AperFunction,ComponentPad*
%ADD17R,1.600000X1.600000*%
G04 #@! TD*
G04 #@! TA.AperFunction,ComponentPad*
%ADD18O,1.600000X1.600000*%
G04 #@! TD*
G04 #@! TA.AperFunction,ViaPad*
%ADD19C,0.500000*%
G04 #@! TD*
G04 #@! TA.AperFunction,Conductor*
%ADD20C,0.400000*%
G04 #@! TD*
G04 #@! TA.AperFunction,Conductor*
%ADD21C,0.200000*%
G04 #@! TD*
G04 #@! TA.AperFunction,Conductor*
%ADD22C,0.254000*%
G04 #@! TD*
G04 #@! TA.AperFunction,Conductor*
%ADD23C,0.100000*%
G04 #@! TD*
G04 APERTURE END LIST*
D10*
X68580000Y62230000D03*
D11*
X68580000Y59690000D03*
X68580000Y57150000D03*
X68580000Y54610000D03*
X68580000Y52070000D03*
X68580000Y49530000D03*
X68580000Y46990000D03*
X68580000Y44450000D03*
X68580000Y41910000D03*
X96520000Y41910000D03*
X93980000Y41910000D03*
X96520000Y62230000D03*
X93980000Y62230000D03*
D12*
X48170000Y60300000D03*
X50670000Y60300000D03*
D13*
X46480000Y75835000D03*
D14*
X79500000Y91075000D03*
X49020000Y75835000D03*
X76960000Y91075000D03*
X51560000Y75835000D03*
X74420000Y91075000D03*
X54100000Y75835000D03*
X71880000Y91075000D03*
X56640000Y75835000D03*
X69340000Y91075000D03*
X59180000Y75835000D03*
X66800000Y91075000D03*
X61720000Y75835000D03*
X64260000Y91075000D03*
X64260000Y75835000D03*
X61720000Y91075000D03*
X66800000Y75835000D03*
X59180000Y91075000D03*
X69340000Y75835000D03*
X56640000Y91075000D03*
X71880000Y75835000D03*
X54100000Y91075000D03*
X74420000Y75835000D03*
X51560000Y91075000D03*
X76960000Y75835000D03*
X49020000Y91075000D03*
X79500000Y75835000D03*
X46480000Y91075000D03*
D15*
X57695000Y8230000D03*
D16*
X42455000Y56490000D03*
X57695000Y10770000D03*
X42455000Y53950000D03*
X57695000Y13310000D03*
X42455000Y51410000D03*
X57695000Y15850000D03*
X42455000Y48870000D03*
X57695000Y18390000D03*
X42455000Y46330000D03*
X57695000Y20930000D03*
X42455000Y43790000D03*
X57695000Y23470000D03*
X42455000Y41250000D03*
X57695000Y26010000D03*
X42455000Y38710000D03*
X57695000Y28550000D03*
X42455000Y36170000D03*
X57695000Y31090000D03*
X42455000Y33630000D03*
X57695000Y33630000D03*
X42455000Y31090000D03*
X57695000Y36170000D03*
X42455000Y28550000D03*
X57695000Y38710000D03*
X42455000Y26010000D03*
X57695000Y41250000D03*
X42455000Y23470000D03*
X57695000Y43790000D03*
X42455000Y20930000D03*
X57695000Y46330000D03*
X42455000Y18390000D03*
X57695000Y48870000D03*
X42455000Y15850000D03*
X57695000Y51410000D03*
X42455000Y13310000D03*
X57695000Y53950000D03*
X42455000Y10770000D03*
X57695000Y56490000D03*
X42455000Y8230000D03*
D12*
X42670000Y85060000D03*
X42670000Y82560000D03*
D17*
X14335000Y8570000D03*
D12*
X14335000Y6070000D03*
D17*
X91935000Y31710000D03*
D18*
X89395000Y31710000D03*
X86855000Y31710000D03*
X63995000Y16470000D03*
X84315000Y31710000D03*
X66535000Y16470000D03*
X81775000Y31710000D03*
X69075000Y16470000D03*
X79235000Y31710000D03*
X71615000Y16470000D03*
X76695000Y31710000D03*
X74155000Y16470000D03*
X74155000Y31710000D03*
X76695000Y16470000D03*
X71615000Y31710000D03*
X79235000Y16470000D03*
X69075000Y31710000D03*
X81775000Y16470000D03*
X66535000Y31710000D03*
X84315000Y16470000D03*
X63995000Y31710000D03*
X86855000Y16470000D03*
X89395000Y16470000D03*
X91935000Y16470000D03*
X83045000Y19010000D03*
X80505000Y19010000D03*
X72885000Y19010000D03*
X70345000Y19010000D03*
D12*
X30965000Y12345000D03*
X28465000Y12345000D03*
X28488000Y41974000D03*
X30988000Y41974000D03*
X31115000Y70485000D03*
X28615000Y70485000D03*
D16*
X25885000Y16155000D03*
X33505000Y31395000D03*
X25885000Y18695000D03*
X33505000Y28855000D03*
X25885000Y21235000D03*
X33505000Y26315000D03*
X25885000Y23775000D03*
X33505000Y23775000D03*
X25885000Y26315000D03*
X33505000Y21235000D03*
X25885000Y28855000D03*
X33505000Y18695000D03*
X25885000Y31395000D03*
D15*
X33505000Y16155000D03*
X33700000Y74045000D03*
D16*
X26080000Y89285000D03*
X33700000Y76585000D03*
X26080000Y86745000D03*
X33700000Y79125000D03*
X26080000Y84205000D03*
X33700000Y81665000D03*
X26080000Y81665000D03*
X33700000Y84205000D03*
X26080000Y79125000D03*
X33700000Y86745000D03*
X26080000Y76585000D03*
X33700000Y89285000D03*
X26080000Y74045000D03*
D10*
X8255000Y19050000D03*
D11*
X5715000Y19050000D03*
X8255000Y21590000D03*
X5715000Y21590000D03*
X8255000Y24130000D03*
X5715000Y24130000D03*
X8255000Y26670000D03*
X5715000Y26670000D03*
X8255000Y29210000D03*
X5715000Y29210000D03*
X8255000Y31750000D03*
X5715000Y31750000D03*
X8255000Y34290000D03*
X5715000Y34290000D03*
X8255000Y36830000D03*
X5715000Y36830000D03*
X8255000Y39370000D03*
X5715000Y39370000D03*
X8255000Y41910000D03*
X5715000Y41910000D03*
X8255000Y44450000D03*
X5715000Y44450000D03*
X8255000Y46990000D03*
X5715000Y46990000D03*
X8255000Y49530000D03*
X5715000Y49530000D03*
X8255000Y52070000D03*
X5715000Y52070000D03*
X8255000Y54610000D03*
X5715000Y54610000D03*
X8255000Y57150000D03*
X5715000Y57150000D03*
X8255000Y59690000D03*
X5715000Y59690000D03*
X8255000Y62230000D03*
X5715000Y62230000D03*
X8255000Y64770000D03*
X5715000Y64770000D03*
X8255000Y67310000D03*
X5715000Y67310000D03*
X8255000Y69850000D03*
X5715000Y69850000D03*
X8255000Y72390000D03*
X5715000Y72390000D03*
X8255000Y74930000D03*
X5715000Y74930000D03*
X8255000Y77470000D03*
X5715000Y77470000D03*
X8255000Y80010000D03*
X5715000Y80010000D03*
D10*
X10795000Y19050000D03*
D11*
X10795000Y21590000D03*
X10795000Y24130000D03*
X10795000Y26670000D03*
X10795000Y29210000D03*
X10795000Y31750000D03*
X10795000Y34290000D03*
X10795000Y36830000D03*
X10795000Y39370000D03*
X10795000Y41910000D03*
X10795000Y44450000D03*
X10795000Y46990000D03*
X10795000Y49530000D03*
X10795000Y52070000D03*
X10795000Y54610000D03*
X10795000Y57150000D03*
X10795000Y59690000D03*
X10795000Y62230000D03*
X10795000Y64770000D03*
X10795000Y67310000D03*
X10795000Y69850000D03*
X10795000Y72390000D03*
X10795000Y74930000D03*
X10795000Y77470000D03*
X10795000Y80010000D03*
D10*
X79248000Y2604000D03*
D11*
X81788000Y2604000D03*
X84328000Y2604000D03*
D15*
X33655000Y45720000D03*
D16*
X26035000Y60960000D03*
X33655000Y48260000D03*
X26035000Y58420000D03*
X33655000Y50800000D03*
X26035000Y55880000D03*
X33655000Y53340000D03*
X26035000Y53340000D03*
X33655000Y55880000D03*
X26035000Y50800000D03*
X33655000Y58420000D03*
X26035000Y48260000D03*
X33655000Y60960000D03*
X26035000Y45720000D03*
D19*
X31574000Y24557700D03*
X49079500Y61691900D03*
X30965000Y23585700D03*
X79146400Y22583000D03*
X65105000Y25035600D03*
X77247500Y22583000D03*
X41177000Y61773200D03*
X41915100Y61717200D03*
X47806800Y39632500D03*
X46750100Y64942300D03*
X29996500Y21055400D03*
X51781400Y59640700D03*
X51901900Y48148600D03*
X51452500Y57991000D03*
X44880200Y42943400D03*
X19919300Y49176000D03*
X37041400Y64648700D03*
X27328700Y25486800D03*
X38249600Y65129000D03*
X22662300Y35093000D03*
X37687100Y65651900D03*
X24148900Y19728900D03*
X27903700Y17508300D03*
D20*
X25885000Y15540000D02*
X25885000Y14925000D01*
X25885000Y14925000D02*
X28465000Y12345000D01*
X42455000Y43790000D02*
X30304000Y43790000D01*
X30304000Y43790000D02*
X28488000Y41974000D01*
X48170000Y60300000D02*
X48170000Y49505000D01*
X48170000Y49505000D02*
X42455000Y43790000D01*
X26035000Y45720000D02*
X26035000Y44426000D01*
X26035000Y44426000D02*
X28488000Y41974000D01*
X33700000Y86745000D02*
X35300300Y86745000D01*
X42670000Y86460000D02*
X35585300Y86460000D01*
X35585300Y86460000D02*
X35300300Y86745000D01*
X42670000Y86460000D02*
X42670000Y85060000D01*
X46480000Y91075000D02*
X44085000Y91075000D01*
X44085000Y91075000D02*
X42670000Y89660000D01*
X42670000Y89660000D02*
X42670000Y86460000D01*
X42670000Y85060000D02*
X41470000Y83860000D01*
X41470000Y83860000D02*
X41470000Y80845000D01*
X41470000Y80845000D02*
X46480000Y75835000D01*
X14335000Y8570000D02*
X15535300Y8570000D01*
X25885000Y15540000D02*
X22505300Y15540000D01*
X22505300Y15540000D02*
X15535300Y8570000D01*
X25885000Y16155000D02*
X25885000Y15540000D01*
X48170000Y60300000D02*
X48607300Y60300000D01*
X48607300Y60300000D02*
X50537300Y62230000D01*
X50537300Y62230000D02*
X67329700Y62230000D01*
X68580000Y62230000D02*
X67329700Y62230000D01*
X84315000Y16470000D02*
X84315000Y2616000D01*
X84315000Y2616000D02*
X84328000Y2604000D01*
X10795000Y19050000D02*
X10795000Y12110000D01*
X10795000Y12110000D02*
X14335000Y8570000D01*
X49020000Y91075000D02*
X46480000Y91075000D01*
X8255000Y19050000D02*
X10795000Y19050000D01*
X26080000Y74045000D02*
X26080000Y73020000D01*
X26080000Y73020000D02*
X28615000Y70485000D01*
X57695000Y23470000D02*
X56094700Y23470000D01*
X33505000Y31395000D02*
X35105300Y31395000D01*
X35105300Y31395000D02*
X36010000Y32299700D01*
X36010000Y32299700D02*
X47265000Y32299700D01*
X47265000Y32299700D02*
X56094700Y23470000D01*
X31115000Y75370300D02*
X31115000Y88300300D01*
X31115000Y88300300D02*
X32099700Y89285000D01*
X31115000Y70485000D02*
X31115000Y75370300D01*
X31115000Y75370300D02*
X18835900Y75370300D01*
X18835900Y75370300D02*
X18006200Y76200000D01*
X18006200Y76200000D02*
X7717200Y76200000D01*
X7717200Y76200000D02*
X6965300Y76951900D01*
X6965300Y76951900D02*
X6965300Y77470000D01*
X5715000Y77470000D02*
X6965300Y77470000D01*
X57695000Y23470000D02*
X80384800Y23470000D01*
X80384800Y23470000D02*
X84698100Y19156700D01*
X84698100Y19156700D02*
X84698100Y18618000D01*
X31574000Y24557700D02*
X31574000Y24194700D01*
X31574000Y24194700D02*
X30965000Y23585700D01*
X27485300Y23775000D02*
X27674600Y23585700D01*
X27674600Y23585700D02*
X30965000Y23585700D01*
X33700000Y89285000D02*
X32099700Y89285000D01*
X35255300Y60960000D02*
X47128600Y60960000D01*
X47128600Y60960000D02*
X47860500Y61691900D01*
X47860500Y61691900D02*
X49079500Y61691900D01*
X68580000Y54610000D02*
X67329700Y54610000D01*
X50670000Y60300000D02*
X61639700Y60300000D01*
X61639700Y60300000D02*
X67329700Y54610000D01*
X33655000Y60960000D02*
X35255300Y60960000D01*
X84698100Y18618000D02*
X83045000Y16964900D01*
X83045000Y16964900D02*
X83045000Y7651300D01*
X83045000Y7651300D02*
X79248000Y3854300D01*
X88194700Y16470000D02*
X88194700Y16845100D01*
X88194700Y16845100D02*
X86421800Y18618000D01*
X86421800Y18618000D02*
X84698100Y18618000D01*
X79248000Y2604000D02*
X79248000Y3854300D01*
X25885000Y23775000D02*
X27485300Y23775000D01*
X89395000Y16470000D02*
X88194700Y16470000D01*
D21*
X71615000Y16470000D02*
X72715300Y16470000D01*
X72715300Y16470000D02*
X72715300Y16639400D01*
X72715300Y16639400D02*
X78658900Y22583000D01*
X78658900Y22583000D02*
X79146400Y22583000D01*
X68580000Y45839700D02*
X69225100Y45839700D01*
X69225100Y45839700D02*
X82954100Y32110700D01*
X82954100Y32110700D02*
X82954100Y31305700D01*
X82954100Y31305700D02*
X76684100Y25035700D01*
X76684100Y25035700D02*
X65105000Y25035700D01*
X65105000Y25035700D02*
X65105000Y25035600D01*
X68580000Y46990000D02*
X68580000Y45839700D01*
X63995000Y16470000D02*
X65095300Y16470000D01*
X65095300Y16470000D02*
X65095300Y16607500D01*
X65095300Y16607500D02*
X71070800Y22583000D01*
X71070800Y22583000D02*
X77247500Y22583000D01*
X40954700Y20930000D02*
X40139500Y20114800D01*
X40139500Y20114800D02*
X28505500Y20114800D01*
X28505500Y20114800D02*
X27385300Y21235000D01*
X42455000Y20930000D02*
X40954700Y20930000D01*
X25885000Y21235000D02*
X27385300Y21235000D01*
X10795000Y21590000D02*
X11945300Y21590000D01*
X11945300Y21590000D02*
X12758700Y22403400D01*
X12758700Y22403400D02*
X39888100Y22403400D01*
X39888100Y22403400D02*
X40954700Y23470000D01*
X8255000Y21590000D02*
X10795000Y21590000D01*
X42455000Y23470000D02*
X40954700Y23470000D01*
X41177000Y61773200D02*
X43395500Y63991700D01*
X43395500Y63991700D02*
X61537000Y63991700D01*
X61537000Y63991700D02*
X71880000Y74334700D01*
X71880000Y75835000D02*
X71880000Y74334700D01*
X40954700Y26010000D02*
X40052700Y25108000D01*
X40052700Y25108000D02*
X31346100Y25108000D01*
X31346100Y25108000D02*
X31113400Y24875300D01*
X31113400Y24875300D02*
X12690600Y24875300D01*
X12690600Y24875300D02*
X11945300Y24130000D01*
X41915100Y61717200D02*
X43789300Y63591400D01*
X43789300Y63591400D02*
X63676700Y63591400D01*
X63676700Y63591400D02*
X74420000Y74334700D01*
X42455000Y26010000D02*
X40954700Y26010000D01*
X10795000Y24130000D02*
X11945300Y24130000D01*
X8255000Y24130000D02*
X10795000Y24130000D01*
X74420000Y75835000D02*
X74420000Y74334700D01*
X42455000Y28550000D02*
X40954700Y28550000D01*
X10795000Y26670000D02*
X11945300Y26670000D01*
X11945300Y26670000D02*
X12952800Y27677500D01*
X12952800Y27677500D02*
X40082200Y27677500D01*
X40082200Y27677500D02*
X40954700Y28550000D01*
X8255000Y26670000D02*
X10795000Y26670000D01*
X47806800Y39632500D02*
X52486400Y44312100D01*
X52486400Y44312100D02*
X52486400Y50700100D01*
X52486400Y50700100D02*
X56859200Y55072900D01*
X56859200Y55072900D02*
X61068500Y55072900D01*
X61068500Y55072900D02*
X62706700Y53434700D01*
X62706700Y53434700D02*
X69067300Y53434700D01*
X69067300Y53434700D02*
X76960000Y61327400D01*
X76960000Y61327400D02*
X76960000Y75835000D01*
X42455000Y31090000D02*
X40954700Y31090000D01*
X10795000Y29210000D02*
X11945300Y29210000D01*
X11945300Y29210000D02*
X12975700Y30240400D01*
X12975700Y30240400D02*
X40105100Y30240400D01*
X40105100Y30240400D02*
X40954700Y31090000D01*
X8255000Y29210000D02*
X10795000Y29210000D01*
X79500000Y91075000D02*
X79500000Y89574700D01*
X79500000Y89574700D02*
X76001300Y89574700D01*
X76001300Y89574700D02*
X62990000Y76563400D01*
X62990000Y76563400D02*
X62990000Y75038200D01*
X62990000Y75038200D02*
X52894100Y64942300D01*
X52894100Y64942300D02*
X46750100Y64942300D01*
X11945300Y31750000D02*
X13825300Y33630000D01*
X13825300Y33630000D02*
X40954700Y33630000D01*
X42455000Y33630000D02*
X40954700Y33630000D01*
X10795000Y31750000D02*
X11945300Y31750000D01*
X8255000Y31750000D02*
X10795000Y31750000D01*
X33505000Y21235000D02*
X30176100Y21235000D01*
X30176100Y21235000D02*
X29996500Y21055400D01*
X42021500Y36170000D02*
X42455000Y36170000D01*
X42021500Y36170000D02*
X40954700Y36170000D01*
X40954700Y36170000D02*
X13825300Y36170000D01*
X13825300Y36170000D02*
X11945300Y34290000D01*
X10795000Y34290000D02*
X11945300Y34290000D01*
X8255000Y34290000D02*
X10795000Y34290000D01*
X10795000Y36830000D02*
X8255000Y36830000D01*
X40954700Y38710000D02*
X39074700Y36830000D01*
X39074700Y36830000D02*
X10795000Y36830000D01*
X42455000Y38710000D02*
X40954700Y38710000D01*
X42455000Y41250000D02*
X44008000Y41250000D01*
X44008000Y41250000D02*
X52002800Y49244800D01*
X52002800Y49244800D02*
X52002800Y59419300D01*
X52002800Y59419300D02*
X51781400Y59640700D01*
X42455000Y41250000D02*
X40954700Y41250000D01*
X10795000Y39370000D02*
X11945300Y39370000D01*
X11945300Y39370000D02*
X39074700Y39370000D01*
X39074700Y39370000D02*
X40954700Y41250000D01*
X8255000Y39370000D02*
X10795000Y39370000D01*
X44786900Y39957800D02*
X51901900Y47072800D01*
X51901900Y47072800D02*
X51901900Y48148600D01*
X8255000Y41910000D02*
X8255000Y40759700D01*
X8255000Y40759700D02*
X7967400Y40759700D01*
X7967400Y40759700D02*
X7104600Y39896900D01*
X7104600Y39896900D02*
X7104600Y38876500D01*
X7104600Y38876500D02*
X7784000Y38197100D01*
X7784000Y38197100D02*
X39026700Y38197100D01*
X39026700Y38197100D02*
X40787400Y39957800D01*
X40787400Y39957800D02*
X44786900Y39957800D01*
X8255000Y41910000D02*
X10795000Y41910000D01*
X44786900Y39957800D02*
X56194700Y28550000D01*
X57695000Y28550000D02*
X56194700Y28550000D01*
X44880200Y42943400D02*
X51452500Y49515700D01*
X51452500Y49515700D02*
X51452500Y57991000D01*
X10795000Y44450000D02*
X11945300Y44450000D01*
X11945300Y44450000D02*
X15547300Y40848000D01*
X15547300Y40848000D02*
X38100700Y40848000D01*
X38100700Y40848000D02*
X39772700Y42520000D01*
X39772700Y42520000D02*
X44456800Y42520000D01*
X44456800Y42520000D02*
X44880200Y42943400D01*
X8255000Y44450000D02*
X10795000Y44450000D01*
X32154700Y58420000D02*
X32154700Y61451000D01*
X32154700Y61451000D02*
X32768500Y62064800D01*
X32768500Y62064800D02*
X40635300Y62064800D01*
X40635300Y62064800D02*
X42962500Y64392000D01*
X42962500Y64392000D02*
X54317300Y64392000D01*
X54317300Y64392000D02*
X64260000Y74334700D01*
X35155300Y58420000D02*
X35556700Y58018600D01*
X35556700Y58018600D02*
X35556700Y50710600D01*
X35556700Y50710600D02*
X34518000Y49671900D01*
X34518000Y49671900D02*
X22944700Y49671900D01*
X22944700Y49671900D02*
X22890300Y49726300D01*
X22890300Y49726300D02*
X14681600Y49726300D01*
X14681600Y49726300D02*
X11945300Y46990000D01*
X33655000Y58420000D02*
X35155300Y58420000D01*
X33655000Y58420000D02*
X32154700Y58420000D01*
X10795000Y46990000D02*
X11945300Y46990000D01*
X64260000Y75835000D02*
X64260000Y74334700D01*
X8255000Y46990000D02*
X10795000Y46990000D01*
X5715000Y48140300D02*
X6002700Y48140300D01*
X6002700Y48140300D02*
X6865300Y49002900D01*
X6865300Y49002900D02*
X6865300Y49828800D01*
X6865300Y49828800D02*
X7956100Y50919600D01*
X7956100Y50919600D02*
X8740600Y50919600D01*
X8740600Y50919600D02*
X9644600Y51823600D01*
X9644600Y51823600D02*
X9644600Y55148100D01*
X9644600Y55148100D02*
X10376500Y55880000D01*
X10376500Y55880000D02*
X15932100Y55880000D01*
X15932100Y55880000D02*
X23718200Y63666100D01*
X23718200Y63666100D02*
X38821700Y63666100D01*
X38821700Y63666100D02*
X50290000Y75134400D01*
X50290000Y75134400D02*
X50290000Y76582900D01*
X50290000Y76582900D02*
X63281800Y89574700D01*
X63281800Y89574700D02*
X64260000Y89574700D01*
X64260000Y91075000D02*
X64260000Y89574700D01*
X5715000Y46990000D02*
X5715000Y48140300D01*
X32154700Y55880000D02*
X31741200Y56293500D01*
X31741200Y56293500D02*
X31741200Y61609600D01*
X31741200Y61609600D02*
X32596800Y62465200D01*
X32596800Y62465200D02*
X40186700Y62465200D01*
X40186700Y62465200D02*
X50703100Y72981600D01*
X50703100Y72981600D02*
X60366900Y72981600D01*
X60366900Y72981600D02*
X61720000Y74334700D01*
X33655000Y55880000D02*
X32154700Y55880000D01*
X33655000Y55880000D02*
X35155300Y55880000D01*
X35155300Y55880000D02*
X35155300Y52832700D01*
X35155300Y52832700D02*
X34322900Y52000300D01*
X34322900Y52000300D02*
X15144500Y52000300D01*
X15144500Y52000300D02*
X12674200Y49530000D01*
X12674200Y49530000D02*
X10795000Y49530000D01*
X61720000Y75835000D02*
X61720000Y74334700D01*
X8255000Y49530000D02*
X10795000Y49530000D01*
X31014000Y54480700D02*
X31014000Y61452500D01*
X31014000Y61452500D02*
X32427000Y62865500D01*
X32427000Y62865500D02*
X40020700Y62865500D01*
X40020700Y62865500D02*
X50609100Y73453900D01*
X50609100Y73453900D02*
X58299200Y73453900D01*
X58299200Y73453900D02*
X59180000Y74334700D01*
X31014000Y54480700D02*
X17058600Y54480700D01*
X17058600Y54480700D02*
X14647900Y52070000D01*
X14647900Y52070000D02*
X10795000Y52070000D01*
X32154700Y53340000D02*
X31014000Y54480700D01*
X59180000Y75835000D02*
X59180000Y74334700D01*
X33655000Y53340000D02*
X32154700Y53340000D01*
X5715000Y53220300D02*
X6002700Y53220300D01*
X6002700Y53220300D02*
X6865300Y54082900D01*
X6865300Y54082900D02*
X6865300Y57475000D01*
X6865300Y57475000D02*
X7690700Y58300400D01*
X7690700Y58300400D02*
X11122000Y58300400D01*
X11122000Y58300400D02*
X16895800Y64074200D01*
X16895800Y64074200D02*
X37980100Y64074200D01*
X37980100Y64074200D02*
X49020000Y75114100D01*
X49020000Y75114100D02*
X49020000Y75835000D01*
X5715000Y52070000D02*
X5715000Y53220300D01*
X10795000Y54610000D02*
X15794300Y54610000D01*
X15794300Y54610000D02*
X24450100Y63265800D01*
X24450100Y63265800D02*
X39854900Y63265800D01*
X39854900Y63265800D02*
X50923800Y74334700D01*
X50923800Y74334700D02*
X56640000Y74334700D01*
X56640000Y75835000D02*
X56640000Y74334700D01*
X33700000Y79125000D02*
X32199700Y79125000D01*
X5715000Y54610000D02*
X5715000Y55760300D01*
X5715000Y55760300D02*
X5427400Y55760300D01*
X5427400Y55760300D02*
X4144500Y57043200D01*
X4144500Y57043200D02*
X4144500Y64875300D01*
X4144500Y64875300D02*
X5189600Y65920400D01*
X5189600Y65920400D02*
X5989600Y65920400D01*
X5989600Y65920400D02*
X7104600Y67035400D01*
X7104600Y67035400D02*
X7104600Y67807800D01*
X7104600Y67807800D02*
X7876800Y68580000D01*
X7876800Y68580000D02*
X30814200Y68580000D01*
X30814200Y68580000D02*
X32268900Y70034700D01*
X32268900Y70034700D02*
X32268900Y71828000D01*
X32268900Y71828000D02*
X31776600Y72320300D01*
X31776600Y72320300D02*
X31776600Y78701900D01*
X31776600Y78701900D02*
X32199700Y79125000D01*
X32154700Y48260000D02*
X31043500Y47148800D01*
X31043500Y47148800D02*
X21946500Y47148800D01*
X21946500Y47148800D02*
X19919300Y49176000D01*
X33655000Y48260000D02*
X32154700Y48260000D01*
X8255000Y57150000D02*
X9405300Y57150000D01*
X10795000Y57006300D02*
X9549000Y57006300D01*
X9549000Y57006300D02*
X9405300Y57150000D01*
X10795000Y57150000D02*
X10795000Y57006300D01*
X5715000Y58300300D02*
X5427400Y58300300D01*
X5427400Y58300300D02*
X4544900Y59182800D01*
X4544900Y59182800D02*
X4544900Y60158300D01*
X4544900Y60158300D02*
X5466200Y61079600D01*
X5466200Y61079600D02*
X6225700Y61079600D01*
X6225700Y61079600D02*
X7104600Y61958500D01*
X7104600Y61958500D02*
X7104600Y65289300D01*
X7104600Y65289300D02*
X7902700Y66087400D01*
X7902700Y66087400D02*
X28887700Y66087400D01*
X28887700Y66087400D02*
X32669200Y69868900D01*
X32669200Y69868900D02*
X32669200Y72276700D01*
X32669200Y72276700D02*
X32199700Y72746200D01*
X32199700Y72746200D02*
X32199700Y76585000D01*
X33700000Y76585000D02*
X32199700Y76585000D01*
X5715000Y57150000D02*
X5715000Y58300300D01*
X10795000Y59690000D02*
X11945300Y59690000D01*
X11945300Y59690000D02*
X16903900Y64648600D01*
X16903900Y64648600D02*
X37041400Y64648600D01*
X37041400Y64648600D02*
X37041400Y64648700D01*
X8255000Y59690000D02*
X10795000Y59690000D01*
X32004700Y26315000D02*
X28156900Y26315000D01*
X28156900Y26315000D02*
X27328700Y25486800D01*
X33505000Y26315000D02*
X32004700Y26315000D01*
X11945300Y62230000D02*
X14960700Y65245400D01*
X14960700Y65245400D02*
X37315400Y65245400D01*
X37315400Y65245400D02*
X37459200Y65101600D01*
X37459200Y65101600D02*
X38222200Y65101600D01*
X38222200Y65101600D02*
X38249600Y65129000D01*
X38249600Y65129000D02*
X47608400Y74487800D01*
X47608400Y74487800D02*
X47608400Y76441300D01*
X47608400Y76441300D02*
X60741800Y89574700D01*
X60741800Y89574700D02*
X61720000Y89574700D01*
X61720000Y91075000D02*
X61720000Y89574700D01*
X10795000Y62230000D02*
X11945300Y62230000D01*
X8255000Y62230000D02*
X10795000Y62230000D01*
X86855000Y31710000D02*
X85754700Y31710000D01*
X22662300Y35093000D02*
X22855300Y34900000D01*
X22855300Y34900000D02*
X48201700Y34900000D01*
X48201700Y34900000D02*
X55821700Y27280000D01*
X55821700Y27280000D02*
X61671800Y27280000D01*
X61671800Y27280000D02*
X64476900Y24474900D01*
X64476900Y24474900D02*
X78747600Y24474900D01*
X78747600Y24474900D02*
X85754700Y31482000D01*
X85754700Y31482000D02*
X85754700Y31710000D01*
X11945300Y64770000D02*
X12827200Y65651900D01*
X12827200Y65651900D02*
X37687100Y65651900D01*
X10795000Y64770000D02*
X11945300Y64770000D01*
X8255000Y64770000D02*
X10795000Y64770000D01*
X33505000Y16155000D02*
X28209400Y16155000D01*
X28209400Y16155000D02*
X26797700Y17566700D01*
X26797700Y17566700D02*
X25046200Y17566700D01*
X25046200Y17566700D02*
X24148900Y18464000D01*
X24148900Y18464000D02*
X24148900Y19728900D01*
X10795000Y67310000D02*
X8255000Y67310000D01*
X10795000Y69850000D02*
X8255000Y69850000D01*
X56194700Y20930000D02*
X54924700Y19660000D01*
X54924700Y19660000D02*
X40251000Y19660000D01*
X40251000Y19660000D02*
X38099300Y17508300D01*
X38099300Y17508300D02*
X27903700Y17508300D01*
X57695000Y20930000D02*
X56194700Y20930000D01*
X66800000Y91075000D02*
X66800000Y92575300D01*
X26080000Y89285000D02*
X27580300Y89285000D01*
X27580300Y89285000D02*
X30870600Y92575300D01*
X30870600Y92575300D02*
X66800000Y92575300D01*
X81775000Y16470000D02*
X80674700Y16470000D01*
X80674700Y16470000D02*
X80674700Y16332500D01*
X80674700Y16332500D02*
X77652200Y13310000D01*
X77652200Y13310000D02*
X57695000Y13310000D01*
X57695000Y15850000D02*
X59195300Y15850000D01*
X79235000Y16470000D02*
X78134700Y16470000D01*
X78134700Y16470000D02*
X78134700Y16332500D01*
X78134700Y16332500D02*
X77149200Y15347000D01*
X77149200Y15347000D02*
X59698300Y15347000D01*
X59698300Y15347000D02*
X59195300Y15850000D01*
X80674700Y31710000D02*
X80674700Y31572500D01*
X80674700Y31572500D02*
X79708400Y30606200D01*
X79708400Y30606200D02*
X78758800Y30606200D01*
X78758800Y30606200D02*
X77965000Y31400000D01*
X77965000Y31400000D02*
X77965000Y32017000D01*
X77965000Y32017000D02*
X70104300Y39877700D01*
X70104300Y39877700D02*
X68982800Y39877700D01*
X68982800Y39877700D02*
X59195300Y49665200D01*
X59195300Y49665200D02*
X59195300Y51410000D01*
X57695000Y51410000D02*
X59195300Y51410000D01*
X81775000Y31710000D02*
X80674700Y31710000D01*
X57695000Y53950000D02*
X59195300Y53950000D01*
X79235000Y31710000D02*
X79235000Y32887900D01*
X79235000Y32887900D02*
X68942900Y43180000D01*
X68942900Y43180000D02*
X68220500Y43180000D01*
X68220500Y43180000D02*
X59195300Y52205200D01*
X59195300Y52205200D02*
X59195300Y53950000D01*
D22*
X99340000Y660000D02*
X660000Y660000D01*
X660000Y1754000D01*
X77759928Y1754000D01*
X77772188Y1629518D01*
X77808498Y1509820D01*
X77867463Y1399506D01*
X77946815Y1302815D01*
X78043506Y1223463D01*
X78153820Y1164498D01*
X78273518Y1128188D01*
X78398000Y1115928D01*
X78962250Y1119000D01*
X79121000Y1277750D01*
X79121000Y2477000D01*
X77921750Y2477000D01*
X77763000Y2318250D01*
X77759928Y1754000D01*
X660000Y1754000D01*
X660000Y5220128D01*
X2765000Y5220128D01*
X2765000Y4779872D01*
X2850890Y4348075D01*
X3019369Y3941331D01*
X3263962Y3575271D01*
X3575271Y3263962D01*
X3941331Y3019369D01*
X4348075Y2850890D01*
X4779872Y2765000D01*
X5220128Y2765000D01*
X5651925Y2850890D01*
X6058669Y3019369D01*
X6424729Y3263962D01*
X6614767Y3454000D01*
X77759928Y3454000D01*
X77763000Y2889750D01*
X77921750Y2731000D01*
X79121000Y2731000D01*
X79121000Y3930250D01*
X78962250Y4089000D01*
X78398000Y4092072D01*
X78273518Y4079812D01*
X78153820Y4043502D01*
X78043506Y3984537D01*
X77946815Y3905185D01*
X77867463Y3808494D01*
X77808498Y3698180D01*
X77772188Y3578482D01*
X77759928Y3454000D01*
X6614767Y3454000D01*
X6736038Y3575271D01*
X6980631Y3941331D01*
X7149110Y4348075D01*
X7235000Y4779872D01*
X7235000Y5077298D01*
X13521903Y5077298D01*
X13593486Y4833329D01*
X13848996Y4712429D01*
X14123184Y4643700D01*
X14405512Y4629783D01*
X14685130Y4671213D01*
X14951292Y4766397D01*
X15076514Y4833329D01*
X15148097Y5077298D01*
X14335000Y5890395D01*
X13521903Y5077298D01*
X7235000Y5077298D01*
X7235000Y5220128D01*
X7149110Y5651925D01*
X7005145Y5999488D01*
X12894783Y5999488D01*
X12936213Y5719870D01*
X13031397Y5453708D01*
X13098329Y5328486D01*
X13342298Y5256903D01*
X14155395Y6070000D01*
X14514605Y6070000D01*
X15327702Y5256903D01*
X15571671Y5328486D01*
X15692571Y5583996D01*
X15761300Y5858184D01*
X15775217Y6140512D01*
X15733787Y6420130D01*
X15638603Y6686292D01*
X15571671Y6811514D01*
X15327702Y6883097D01*
X14514605Y6070000D01*
X14155395Y6070000D01*
X13342298Y6883097D01*
X13098329Y6811514D01*
X12977429Y6556004D01*
X12908700Y6281816D01*
X12894783Y5999488D01*
X7005145Y5999488D01*
X6980631Y6058669D01*
X6736038Y6424729D01*
X6424729Y6736038D01*
X6058669Y6980631D01*
X5651925Y7149110D01*
X5220128Y7235000D01*
X4779872Y7235000D01*
X4348075Y7149110D01*
X3941331Y6980631D01*
X3575271Y6736038D01*
X3263962Y6424729D01*
X3019369Y6058669D01*
X2850890Y5651925D01*
X2765000Y5220128D01*
X660000Y5220128D01*
X660000Y64875300D01*
X3405944Y64875300D01*
X3409501Y64839185D01*
X3409500Y57079305D01*
X3405944Y57043200D01*
X3420135Y56899116D01*
X3462163Y56760568D01*
X3530413Y56632881D01*
X3622262Y56520963D01*
X3650308Y56497946D01*
X4576573Y55571680D01*
X4561525Y55556632D01*
X4399010Y55313411D01*
X4287068Y55043158D01*
X4230000Y54756260D01*
X4230000Y54463740D01*
X4287068Y54176842D01*
X4399010Y53906589D01*
X4561525Y53663368D01*
X4768368Y53456525D01*
X4942760Y53340000D01*
X4768368Y53223475D01*
X4561525Y53016632D01*
X4399010Y52773411D01*
X4287068Y52503158D01*
X4230000Y52216260D01*
X4230000Y51923740D01*
X4287068Y51636842D01*
X4399010Y51366589D01*
X4561525Y51123368D01*
X4768368Y50916525D01*
X4942760Y50800000D01*
X4768368Y50683475D01*
X4561525Y50476632D01*
X4399010Y50233411D01*
X4287068Y49963158D01*
X4230000Y49676260D01*
X4230000Y49383740D01*
X4287068Y49096842D01*
X4399010Y48826589D01*
X4561525Y48583368D01*
X4768368Y48376525D01*
X4942760Y48260000D01*
X4768368Y48143475D01*
X4561525Y47936632D01*
X4399010Y47693411D01*
X4287068Y47423158D01*
X4230000Y47136260D01*
X4230000Y46843740D01*
X4287068Y46556842D01*
X4399010Y46286589D01*
X4561525Y46043368D01*
X4768368Y45836525D01*
X4942760Y45720000D01*
X4768368Y45603475D01*
X4561525Y45396632D01*
X4399010Y45153411D01*
X4287068Y44883158D01*
X4230000Y44596260D01*
X4230000Y44303740D01*
X4287068Y44016842D01*
X4399010Y43746589D01*
X4561525Y43503368D01*
X4768368Y43296525D01*
X4942760Y43180000D01*
X4768368Y43063475D01*
X4561525Y42856632D01*
X4399010Y42613411D01*
X4287068Y42343158D01*
X4230000Y42056260D01*
X4230000Y41763740D01*
X4287068Y41476842D01*
X4399010Y41206589D01*
X4561525Y40963368D01*
X4768368Y40756525D01*
X4942760Y40640000D01*
X4768368Y40523475D01*
X4561525Y40316632D01*
X4399010Y40073411D01*
X4287068Y39803158D01*
X4230000Y39516260D01*
X4230000Y39223740D01*
X4287068Y38936842D01*
X4399010Y38666589D01*
X4561525Y38423368D01*
X4768368Y38216525D01*
X4942760Y38100000D01*
X4768368Y37983475D01*
X4561525Y37776632D01*
X4399010Y37533411D01*
X4287068Y37263158D01*
X4230000Y36976260D01*
X4230000Y36683740D01*
X4287068Y36396842D01*
X4399010Y36126589D01*
X4561525Y35883368D01*
X4768368Y35676525D01*
X4942760Y35560000D01*
X4768368Y35443475D01*
X4561525Y35236632D01*
X4399010Y34993411D01*
X4287068Y34723158D01*
X4230000Y34436260D01*
X4230000Y34143740D01*
X4287068Y33856842D01*
X4399010Y33586589D01*
X4561525Y33343368D01*
X4768368Y33136525D01*
X4942760Y33020000D01*
X4768368Y32903475D01*
X4561525Y32696632D01*
X4399010Y32453411D01*
X4287068Y32183158D01*
X4230000Y31896260D01*
X4230000Y31603740D01*
X4287068Y31316842D01*
X4399010Y31046589D01*
X4561525Y30803368D01*
X4768368Y30596525D01*
X4942760Y30480000D01*
X4768368Y30363475D01*
X4561525Y30156632D01*
X4399010Y29913411D01*
X4287068Y29643158D01*
X4230000Y29356260D01*
X4230000Y29063740D01*
X4287068Y28776842D01*
X4399010Y28506589D01*
X4561525Y28263368D01*
X4768368Y28056525D01*
X4942760Y27940000D01*
X4768368Y27823475D01*
X4561525Y27616632D01*
X4399010Y27373411D01*
X4287068Y27103158D01*
X4230000Y26816260D01*
X4230000Y26523740D01*
X4287068Y26236842D01*
X4399010Y25966589D01*
X4561525Y25723368D01*
X4768368Y25516525D01*
X4942760Y25400000D01*
X4768368Y25283475D01*
X4561525Y25076632D01*
X4399010Y24833411D01*
X4287068Y24563158D01*
X4230000Y24276260D01*
X4230000Y23983740D01*
X4287068Y23696842D01*
X4399010Y23426589D01*
X4561525Y23183368D01*
X4768368Y22976525D01*
X4942760Y22860000D01*
X4768368Y22743475D01*
X4561525Y22536632D01*
X4399010Y22293411D01*
X4287068Y22023158D01*
X4230000Y21736260D01*
X4230000Y21443740D01*
X4287068Y21156842D01*
X4399010Y20886589D01*
X4561525Y20643368D01*
X4768368Y20436525D01*
X4942760Y20320000D01*
X4768368Y20203475D01*
X4561525Y19996632D01*
X4399010Y19753411D01*
X4287068Y19483158D01*
X4230000Y19196260D01*
X4230000Y18903740D01*
X4287068Y18616842D01*
X4399010Y18346589D01*
X4561525Y18103368D01*
X4768368Y17896525D01*
X5011589Y17734010D01*
X5281842Y17622068D01*
X5568740Y17565000D01*
X5861260Y17565000D01*
X6148158Y17622068D01*
X6418411Y17734010D01*
X6661632Y17896525D01*
X6793487Y18028380D01*
X6815498Y17955820D01*
X6874463Y17845506D01*
X6953815Y17748815D01*
X7050506Y17669463D01*
X7160820Y17610498D01*
X7280518Y17574188D01*
X7405000Y17561928D01*
X9105000Y17561928D01*
X9229482Y17574188D01*
X9349180Y17610498D01*
X9459494Y17669463D01*
X9525000Y17723222D01*
X9590506Y17669463D01*
X9700820Y17610498D01*
X9820518Y17574188D01*
X9945000Y17561928D01*
X9960000Y17561928D01*
X9960001Y12151028D01*
X9955960Y12110000D01*
X9972082Y11946312D01*
X10019828Y11788914D01*
X10097364Y11643855D01*
X10097365Y11643854D01*
X10201710Y11516709D01*
X10233574Y11490559D01*
X12896928Y8827204D01*
X12896928Y7770000D01*
X12909188Y7645518D01*
X12945498Y7525820D01*
X13004463Y7415506D01*
X13083815Y7318815D01*
X13180506Y7239463D01*
X13290820Y7180498D01*
X13410518Y7144188D01*
X13535000Y7131928D01*
X13542215Y7131928D01*
X13521903Y7062702D01*
X14335000Y6249605D01*
X15148097Y7062702D01*
X15127785Y7131928D01*
X15135000Y7131928D01*
X15259482Y7144188D01*
X15379180Y7180498D01*
X15489494Y7239463D01*
X15586185Y7318815D01*
X15665537Y7415506D01*
X15724502Y7525820D01*
X15760812Y7645518D01*
X15773027Y7769541D01*
X15856387Y7794828D01*
X16001446Y7872364D01*
X16128591Y7976709D01*
X16154746Y8008579D01*
X22851169Y14705000D01*
X25079164Y14705000D01*
X25109828Y14603913D01*
X25151273Y14526377D01*
X25155848Y14517818D01*
X25187365Y14458854D01*
X25291710Y14331709D01*
X25323574Y14305559D01*
X27048714Y12580418D01*
X27030000Y12486335D01*
X27030000Y12203665D01*
X27085147Y11926426D01*
X27193320Y11665273D01*
X27350363Y11430241D01*
X27550241Y11230363D01*
X27785273Y11073320D01*
X28046426Y10965147D01*
X28323665Y10910000D01*
X28606335Y10910000D01*
X28883574Y10965147D01*
X29144727Y11073320D01*
X29379759Y11230363D01*
X29501694Y11352298D01*
X30151903Y11352298D01*
X30223486Y11108329D01*
X30478996Y10987429D01*
X30753184Y10918700D01*
X31035512Y10904783D01*
X31315130Y10946213D01*
X31581292Y11041397D01*
X31706514Y11108329D01*
X31778097Y11352298D01*
X30965000Y12165395D01*
X30151903Y11352298D01*
X29501694Y11352298D01*
X29579637Y11430241D01*
X29713692Y11630869D01*
X29728329Y11603486D01*
X29972298Y11531903D01*
X30785395Y12345000D01*
X31144605Y12345000D01*
X31957702Y11531903D01*
X32201671Y11603486D01*
X32322571Y11858996D01*
X32391300Y12133184D01*
X32405217Y12415512D01*
X32363787Y12695130D01*
X32268603Y12961292D01*
X32201671Y13086514D01*
X31957702Y13158097D01*
X31144605Y12345000D01*
X30785395Y12345000D01*
X29972298Y13158097D01*
X29728329Y13086514D01*
X29714676Y13057659D01*
X29579637Y13259759D01*
X29501694Y13337702D01*
X30151903Y13337702D01*
X30965000Y12524605D01*
X31778097Y13337702D01*
X31706514Y13581671D01*
X31451004Y13702571D01*
X31176816Y13771300D01*
X30894488Y13785217D01*
X30614870Y13743787D01*
X30348708Y13648603D01*
X30223486Y13581671D01*
X30151903Y13337702D01*
X29501694Y13337702D01*
X29379759Y13459637D01*
X29144727Y13616680D01*
X28883574Y13724853D01*
X28606335Y13780000D01*
X28323665Y13780000D01*
X28229582Y13761286D01*
X27052669Y14938198D01*
X27086101Y14956068D01*
X27304608Y15135392D01*
X27483932Y15353899D01*
X27617182Y15603192D01*
X27641522Y15683431D01*
X27664146Y15660807D01*
X27687162Y15632762D01*
X27799080Y15540913D01*
X27926767Y15472663D01*
X28065315Y15430635D01*
X28173295Y15420000D01*
X28173304Y15420000D01*
X28209399Y15416445D01*
X28245494Y15420000D01*
X31666928Y15420000D01*
X31666928Y15355000D01*
X31679188Y15230518D01*
X31715498Y15110820D01*
X31774463Y15000506D01*
X31853815Y14903815D01*
X31950506Y14824463D01*
X32060820Y14765498D01*
X32180518Y14729188D01*
X32305000Y14716928D01*
X34705000Y14716928D01*
X34829482Y14729188D01*
X34949180Y14765498D01*
X35059494Y14824463D01*
X35156185Y14903815D01*
X35235537Y15000506D01*
X35294502Y15110820D01*
X35330812Y15230518D01*
X35343072Y15355000D01*
X35343072Y16773300D01*
X38063195Y16773300D01*
X38099300Y16769744D01*
X38135405Y16773300D01*
X38243385Y16783935D01*
X38381933Y16825963D01*
X38509620Y16894213D01*
X38621538Y16986062D01*
X38644558Y17014112D01*
X40555447Y18925000D01*
X40717719Y18925000D01*
X40640764Y18671309D01*
X40613057Y18390000D01*
X40640764Y18108691D01*
X40722818Y17838192D01*
X40856068Y17588899D01*
X41035392Y17370392D01*
X41253899Y17191068D01*
X41386858Y17120000D01*
X41253899Y17048932D01*
X41035392Y16869608D01*
X40856068Y16651101D01*
X40722818Y16401808D01*
X40640764Y16131309D01*
X40613057Y15850000D01*
X40640764Y15568691D01*
X40722818Y15298192D01*
X40856068Y15048899D01*
X41035392Y14830392D01*
X41253899Y14651068D01*
X41386858Y14580000D01*
X41253899Y14508932D01*
X41035392Y14329608D01*
X40856068Y14111101D01*
X40722818Y13861808D01*
X40640764Y13591309D01*
X40613057Y13310000D01*
X40640764Y13028691D01*
X40722818Y12758192D01*
X40856068Y12508899D01*
X41035392Y12290392D01*
X41253899Y12111068D01*
X41386858Y12040000D01*
X41253899Y11968932D01*
X41035392Y11789608D01*
X40856068Y11571101D01*
X40722818Y11321808D01*
X40640764Y11051309D01*
X40613057Y10770000D01*
X40640764Y10488691D01*
X40722818Y10218192D01*
X40856068Y9968899D01*
X41035392Y9750392D01*
X41253899Y9571068D01*
X41386858Y9500000D01*
X41253899Y9428932D01*
X41035392Y9249608D01*
X40856068Y9031101D01*
X40722818Y8781808D01*
X40640764Y8511309D01*
X40613057Y8230000D01*
X40640764Y7948691D01*
X40722818Y7678192D01*
X40856068Y7428899D01*
X41035392Y7210392D01*
X41253899Y7031068D01*
X41503192Y6897818D01*
X41773691Y6815764D01*
X41984508Y6795000D01*
X42925492Y6795000D01*
X43136309Y6815764D01*
X43406808Y6897818D01*
X43656101Y7031068D01*
X43874608Y7210392D01*
X44053932Y7428899D01*
X44187182Y7678192D01*
X44269236Y7948691D01*
X44296943Y8230000D01*
X44269236Y8511309D01*
X44187182Y8781808D01*
X44053932Y9031101D01*
X43874608Y9249608D01*
X43656101Y9428932D01*
X43523142Y9500000D01*
X43656101Y9571068D01*
X43874608Y9750392D01*
X44053932Y9968899D01*
X44187182Y10218192D01*
X44269236Y10488691D01*
X44296943Y10770000D01*
X44269236Y11051309D01*
X44187182Y11321808D01*
X44053932Y11571101D01*
X43874608Y11789608D01*
X43656101Y11968932D01*
X43523142Y12040000D01*
X43656101Y12111068D01*
X43874608Y12290392D01*
X44053932Y12508899D01*
X44187182Y12758192D01*
X44269236Y13028691D01*
X44296943Y13310000D01*
X44269236Y13591309D01*
X44187182Y13861808D01*
X44053932Y14111101D01*
X43874608Y14329608D01*
X43656101Y14508932D01*
X43523142Y14580000D01*
X43656101Y14651068D01*
X43874608Y14830392D01*
X44053932Y15048899D01*
X44187182Y15298192D01*
X44269236Y15568691D01*
X44296943Y15850000D01*
X44269236Y16131309D01*
X44187182Y16401808D01*
X44053932Y16651101D01*
X43874608Y16869608D01*
X43656101Y17048932D01*
X43523142Y17120000D01*
X43656101Y17191068D01*
X43874608Y17370392D01*
X44053932Y17588899D01*
X44187182Y17838192D01*
X44269236Y18108691D01*
X44296943Y18390000D01*
X44269236Y18671309D01*
X44192281Y18925000D01*
X54888595Y18925000D01*
X54924700Y18921444D01*
X54960805Y18925000D01*
X55068785Y18935635D01*
X55207333Y18977663D01*
X55335020Y19045913D01*
X55446938Y19137762D01*
X55469958Y19165812D01*
X56247962Y19943815D01*
X56275392Y19910392D01*
X56493899Y19731068D01*
X56626858Y19660000D01*
X56493899Y19588932D01*
X56275392Y19409608D01*
X56096068Y19191101D01*
X55962818Y18941808D01*
X55880764Y18671309D01*
X55853057Y18390000D01*
X55880764Y18108691D01*
X55962818Y17838192D01*
X56096068Y17588899D01*
X56275392Y17370392D01*
X56493899Y17191068D01*
X56626858Y17120000D01*
X56493899Y17048932D01*
X56275392Y16869608D01*
X56096068Y16651101D01*
X55962818Y16401808D01*
X55880764Y16131309D01*
X55853057Y15850000D01*
X55880764Y15568691D01*
X55962818Y15298192D01*
X56096068Y15048899D01*
X56275392Y14830392D01*
X56493899Y14651068D01*
X56626858Y14580000D01*
X56493899Y14508932D01*
X56275392Y14329608D01*
X56096068Y14111101D01*
X55962818Y13861808D01*
X55880764Y13591309D01*
X55853057Y13310000D01*
X55880764Y13028691D01*
X55962818Y12758192D01*
X56096068Y12508899D01*
X56275392Y12290392D01*
X56493899Y12111068D01*
X56626858Y12040000D01*
X56493899Y11968932D01*
X56275392Y11789608D01*
X56096068Y11571101D01*
X55962818Y11321808D01*
X55880764Y11051309D01*
X55853057Y10770000D01*
X55880764Y10488691D01*
X55962818Y10218192D01*
X56096068Y9968899D01*
X56275392Y9750392D01*
X56388482Y9657581D01*
X56370518Y9655812D01*
X56250820Y9619502D01*
X56140506Y9560537D01*
X56043815Y9481185D01*
X55964463Y9384494D01*
X55905498Y9274180D01*
X55869188Y9154482D01*
X55856928Y9030000D01*
X55856928Y7430000D01*
X55869188Y7305518D01*
X55905498Y7185820D01*
X55964463Y7075506D01*
X56043815Y6978815D01*
X56140506Y6899463D01*
X56250820Y6840498D01*
X56370518Y6804188D01*
X56495000Y6791928D01*
X58895000Y6791928D01*
X59019482Y6804188D01*
X59139180Y6840498D01*
X59249494Y6899463D01*
X59346185Y6978815D01*
X59425537Y7075506D01*
X59484502Y7185820D01*
X59520812Y7305518D01*
X59533072Y7430000D01*
X59533072Y9030000D01*
X59520812Y9154482D01*
X59484502Y9274180D01*
X59425537Y9384494D01*
X59346185Y9481185D01*
X59249494Y9560537D01*
X59139180Y9619502D01*
X59019482Y9655812D01*
X59001518Y9657581D01*
X59114608Y9750392D01*
X59293932Y9968899D01*
X59427182Y10218192D01*
X59509236Y10488691D01*
X59536943Y10770000D01*
X59509236Y11051309D01*
X59427182Y11321808D01*
X59293932Y11571101D01*
X59114608Y11789608D01*
X58896101Y11968932D01*
X58763142Y12040000D01*
X58896101Y12111068D01*
X59114608Y12290392D01*
X59293932Y12508899D01*
X59329264Y12575000D01*
X77616095Y12575000D01*
X77652200Y12571444D01*
X77688305Y12575000D01*
X77699931Y12576145D01*
X77796285Y12585635D01*
X77934833Y12627663D01*
X78062520Y12695913D01*
X78174438Y12787762D01*
X78197459Y12815813D01*
X80798625Y15416979D01*
X80860241Y15355363D01*
X81095273Y15198320D01*
X81356426Y15090147D01*
X81633665Y15035000D01*
X81916335Y15035000D01*
X82193574Y15090147D01*
X82454727Y15198320D01*
X82689759Y15355363D01*
X82889637Y15555241D01*
X83045000Y15787759D01*
X83200363Y15555241D01*
X83400241Y15355363D01*
X83480000Y15302070D01*
X83480001Y3823379D01*
X83381368Y3757475D01*
X83174525Y3550632D01*
X83058000Y3376240D01*
X82941475Y3550632D01*
X82734632Y3757475D01*
X82491411Y3919990D01*
X82221158Y4031932D01*
X81934260Y4089000D01*
X81641740Y4089000D01*
X81354842Y4031932D01*
X81084589Y3919990D01*
X80841368Y3757475D01*
X80709513Y3625620D01*
X80687502Y3698180D01*
X80628537Y3808494D01*
X80549185Y3905185D01*
X80452494Y3984537D01*
X80342180Y4043502D01*
X80222482Y4079812D01*
X80098000Y4092072D01*
X79533750Y4089000D01*
X79375000Y3930250D01*
X79375000Y2731000D01*
X79395000Y2731000D01*
X79395000Y2477000D01*
X79375000Y2477000D01*
X79375000Y1277750D01*
X79533750Y1119000D01*
X80098000Y1115928D01*
X80222482Y1128188D01*
X80342180Y1164498D01*
X80452494Y1223463D01*
X80549185Y1302815D01*
X80628537Y1399506D01*
X80687502Y1509820D01*
X80709513Y1582380D01*
X80841368Y1450525D01*
X81084589Y1288010D01*
X81354842Y1176068D01*
X81641740Y1119000D01*
X81934260Y1119000D01*
X82221158Y1176068D01*
X82491411Y1288010D01*
X82734632Y1450525D01*
X82941475Y1657368D01*
X83058000Y1831760D01*
X83174525Y1657368D01*
X83381368Y1450525D01*
X83624589Y1288010D01*
X83894842Y1176068D01*
X84181740Y1119000D01*
X84474260Y1119000D01*
X84761158Y1176068D01*
X85031411Y1288010D01*
X85274632Y1450525D01*
X85481475Y1657368D01*
X85643990Y1900589D01*
X85755932Y2170842D01*
X85813000Y2457740D01*
X85813000Y2750260D01*
X85755932Y3037158D01*
X85643990Y3307411D01*
X85481475Y3550632D01*
X85274632Y3757475D01*
X85150000Y3840751D01*
X85150000Y5220128D01*
X92765000Y5220128D01*
X92765000Y4779872D01*
X92850890Y4348075D01*
X93019369Y3941331D01*
X93263962Y3575271D01*
X93575271Y3263962D01*
X93941331Y3019369D01*
X94348075Y2850890D01*
X94779872Y2765000D01*
X95220128Y2765000D01*
X95651925Y2850890D01*
X96058669Y3019369D01*
X96424729Y3263962D01*
X96736038Y3575271D01*
X96980631Y3941331D01*
X97149110Y4348075D01*
X97235000Y4779872D01*
X97235000Y5220128D01*
X97149110Y5651925D01*
X96980631Y6058669D01*
X96736038Y6424729D01*
X96424729Y6736038D01*
X96058669Y6980631D01*
X95651925Y7149110D01*
X95220128Y7235000D01*
X94779872Y7235000D01*
X94348075Y7149110D01*
X93941331Y6980631D01*
X93575271Y6736038D01*
X93263962Y6424729D01*
X93019369Y6058669D01*
X92850890Y5651925D01*
X92765000Y5220128D01*
X85150000Y5220128D01*
X85150000Y15302070D01*
X85229759Y15355363D01*
X85429637Y15555241D01*
X85585000Y15787759D01*
X85740363Y15555241D01*
X85940241Y15355363D01*
X86175273Y15198320D01*
X86436426Y15090147D01*
X86713665Y15035000D01*
X86996335Y15035000D01*
X87273574Y15090147D01*
X87534727Y15198320D01*
X87769759Y15355363D01*
X87969637Y15555241D01*
X88126680Y15790273D01*
X88131067Y15800865D01*
X88242615Y15614869D01*
X88431586Y15406481D01*
X88657580Y15238963D01*
X88911913Y15118754D01*
X89045961Y15078096D01*
X89268000Y15200085D01*
X89268000Y16343000D01*
X89248000Y16343000D01*
X89248000Y16597000D01*
X89268000Y16597000D01*
X89268000Y17739915D01*
X89522000Y17739915D01*
X89522000Y16597000D01*
X89542000Y16597000D01*
X89542000Y16343000D01*
X89522000Y16343000D01*
X89522000Y15200085D01*
X89744039Y15078096D01*
X89878087Y15118754D01*
X90132420Y15238963D01*
X90358414Y15406481D01*
X90547385Y15614869D01*
X90658933Y15800865D01*
X90663320Y15790273D01*
X90820363Y15555241D01*
X91020241Y15355363D01*
X91255273Y15198320D01*
X91516426Y15090147D01*
X91793665Y15035000D01*
X92076335Y15035000D01*
X92353574Y15090147D01*
X92614727Y15198320D01*
X92849759Y15355363D01*
X93049637Y15555241D01*
X93206680Y15790273D01*
X93314853Y16051426D01*
X93370000Y16328665D01*
X93370000Y16611335D01*
X93314853Y16888574D01*
X93206680Y17149727D01*
X93049637Y17384759D01*
X92849759Y17584637D01*
X92614727Y17741680D01*
X92353574Y17849853D01*
X92076335Y17905000D01*
X91793665Y17905000D01*
X91516426Y17849853D01*
X91255273Y17741680D01*
X91020241Y17584637D01*
X90820363Y17384759D01*
X90663320Y17149727D01*
X90658933Y17139135D01*
X90547385Y17325131D01*
X90358414Y17533519D01*
X90132420Y17701037D01*
X89878087Y17821246D01*
X89744039Y17861904D01*
X89522000Y17739915D01*
X89268000Y17739915D01*
X89045961Y17861904D01*
X88911913Y17821246D01*
X88657580Y17701037D01*
X88431586Y17533519D01*
X88242615Y17325131D01*
X88131067Y17139135D01*
X88126680Y17149727D01*
X87969637Y17384759D01*
X87769759Y17584637D01*
X87534727Y17741680D01*
X87273574Y17849853D01*
X86996335Y17905000D01*
X86713665Y17905000D01*
X86436426Y17849853D01*
X86175273Y17741680D01*
X85940241Y17584637D01*
X85740363Y17384759D01*
X85585000Y17152241D01*
X85429637Y17384759D01*
X85229759Y17584637D01*
X84994727Y17741680D01*
X84733574Y17849853D01*
X84456335Y17905000D01*
X84173665Y17905000D01*
X83896426Y17849853D01*
X83883856Y17844646D01*
X83959759Y17895363D01*
X84159637Y18095241D01*
X84316680Y18330273D01*
X84424853Y18591426D01*
X84480000Y18868665D01*
X84480000Y19151335D01*
X84424853Y19428574D01*
X84316680Y19689727D01*
X84159637Y19924759D01*
X83959759Y20124637D01*
X83724727Y20281680D01*
X83463574Y20389853D01*
X83186335Y20445000D01*
X82903665Y20445000D01*
X82626426Y20389853D01*
X82365273Y20281680D01*
X82130241Y20124637D01*
X81930363Y19924759D01*
X81775000Y19692241D01*
X81619637Y19924759D01*
X81419759Y20124637D01*
X81184727Y20281680D01*
X80923574Y20389853D01*
X80646335Y20445000D01*
X80363665Y20445000D01*
X80086426Y20389853D01*
X79825273Y20281680D01*
X79590241Y20124637D01*
X79390363Y19924759D01*
X79233320Y19689727D01*
X79125147Y19428574D01*
X79070000Y19151335D01*
X79070000Y18868665D01*
X79125147Y18591426D01*
X79233320Y18330273D01*
X79390363Y18095241D01*
X79590241Y17895363D01*
X79666144Y17844646D01*
X79653574Y17849853D01*
X79376335Y17905000D01*
X79093665Y17905000D01*
X78816426Y17849853D01*
X78555273Y17741680D01*
X78320241Y17584637D01*
X78120363Y17384759D01*
X77993324Y17194632D01*
X77990615Y17194365D01*
X77945914Y17180805D01*
X77809637Y17384759D01*
X77609759Y17584637D01*
X77374727Y17741680D01*
X77113574Y17849853D01*
X76836335Y17905000D01*
X76553665Y17905000D01*
X76276426Y17849853D01*
X76015273Y17741680D01*
X75780241Y17584637D01*
X75580363Y17384759D01*
X75425000Y17152241D01*
X75269637Y17384759D01*
X75069759Y17584637D01*
X74848094Y17732748D01*
X78859336Y21743989D01*
X78888255Y21732010D01*
X79059235Y21698000D01*
X79233565Y21698000D01*
X79404545Y21732010D01*
X79565605Y21798723D01*
X79710555Y21895576D01*
X79833824Y22018845D01*
X79930677Y22163795D01*
X79997390Y22324855D01*
X80031400Y22495835D01*
X80031400Y22670165D01*
X79997390Y22841145D01*
X79930677Y23002205D01*
X79833824Y23147155D01*
X79710555Y23270424D01*
X79565605Y23367277D01*
X79404545Y23433990D01*
X79233565Y23468000D01*
X79059235Y23468000D01*
X78888255Y23433990D01*
X78727195Y23367277D01*
X78658746Y23321541D01*
X78514815Y23307365D01*
X78376266Y23265337D01*
X78297419Y23223192D01*
X78248580Y23197087D01*
X78136662Y23105238D01*
X78113646Y23077193D01*
X78033792Y22997339D01*
X78031777Y23002205D01*
X77934924Y23147155D01*
X77811655Y23270424D01*
X77666705Y23367277D01*
X77505645Y23433990D01*
X77334665Y23468000D01*
X77160335Y23468000D01*
X76989355Y23433990D01*
X76828295Y23367277D01*
X76754547Y23318000D01*
X71106896Y23318000D01*
X71070799Y23321555D01*
X71034702Y23318000D01*
X71034695Y23318000D01*
X70940932Y23308765D01*
X70926714Y23307365D01*
X70884686Y23294616D01*
X70788167Y23265337D01*
X70660480Y23197087D01*
X70548562Y23105238D01*
X70525546Y23077193D01*
X64971375Y17523021D01*
X64909759Y17584637D01*
X64674727Y17741680D01*
X64413574Y17849853D01*
X64136335Y17905000D01*
X63853665Y17905000D01*
X63576426Y17849853D01*
X63315273Y17741680D01*
X63080241Y17584637D01*
X62880363Y17384759D01*
X62723320Y17149727D01*
X62615147Y16888574D01*
X62560000Y16611335D01*
X62560000Y16328665D01*
X62609065Y16082000D01*
X60002747Y16082000D01*
X59740558Y16344188D01*
X59717538Y16372238D01*
X59605620Y16464087D01*
X59477933Y16532337D01*
X59339385Y16574365D01*
X59334702Y16574826D01*
X59293932Y16651101D01*
X59114608Y16869608D01*
X58896101Y17048932D01*
X58763142Y17120000D01*
X58896101Y17191068D01*
X59114608Y17370392D01*
X59293932Y17588899D01*
X59427182Y17838192D01*
X59509236Y18108691D01*
X59536943Y18390000D01*
X59509236Y18671309D01*
X59427182Y18941808D01*
X59293932Y19191101D01*
X59114608Y19409608D01*
X58896101Y19588932D01*
X58763142Y19660000D01*
X58896101Y19731068D01*
X59114608Y19910392D01*
X59293932Y20128899D01*
X59427182Y20378192D01*
X59509236Y20648691D01*
X59536943Y20930000D01*
X59509236Y21211309D01*
X59427182Y21481808D01*
X59293932Y21731101D01*
X59114608Y21949608D01*
X58896101Y22128932D01*
X58768259Y22197265D01*
X58997839Y22347399D01*
X59199500Y22545105D01*
X59358715Y22778354D01*
X59469367Y23038182D01*
X59486904Y23120961D01*
X59364915Y23343000D01*
X57822000Y23343000D01*
X57822000Y23323000D01*
X57568000Y23323000D01*
X57568000Y23343000D01*
X56025085Y23343000D01*
X55903096Y23120961D01*
X55920633Y23038182D01*
X56031285Y22778354D01*
X56190500Y22545105D01*
X56392161Y22347399D01*
X56621741Y22197265D01*
X56493899Y22128932D01*
X56275392Y21949608D01*
X56096068Y21731101D01*
X56055298Y21654826D01*
X56050615Y21654365D01*
X55912067Y21612337D01*
X55784380Y21544087D01*
X55672462Y21452238D01*
X55649446Y21424193D01*
X54620254Y20395000D01*
X44192281Y20395000D01*
X44269236Y20648691D01*
X44296943Y20930000D01*
X44269236Y21211309D01*
X44187182Y21481808D01*
X44053932Y21731101D01*
X43874608Y21949608D01*
X43656101Y22128932D01*
X43523142Y22200000D01*
X43656101Y22271068D01*
X43874608Y22450392D01*
X44053932Y22668899D01*
X44187182Y22918192D01*
X44269236Y23188691D01*
X44296943Y23470000D01*
X44269236Y23751309D01*
X44187182Y24021808D01*
X44053932Y24271101D01*
X43874608Y24489608D01*
X43656101Y24668932D01*
X43523142Y24740000D01*
X43656101Y24811068D01*
X43874608Y24990392D01*
X44053932Y25208899D01*
X44187182Y25458192D01*
X44269236Y25728691D01*
X44296943Y26010000D01*
X44269236Y26291309D01*
X44187182Y26561808D01*
X44053932Y26811101D01*
X43874608Y27029608D01*
X43656101Y27208932D01*
X43523142Y27280000D01*
X43656101Y27351068D01*
X43874608Y27530392D01*
X44053932Y27748899D01*
X44187182Y27998192D01*
X44269236Y28268691D01*
X44296943Y28550000D01*
X44269236Y28831309D01*
X44187182Y29101808D01*
X44053932Y29351101D01*
X43874608Y29569608D01*
X43656101Y29748932D01*
X43523142Y29820000D01*
X43656101Y29891068D01*
X43874608Y30070392D01*
X44053932Y30288899D01*
X44187182Y30538192D01*
X44269236Y30808691D01*
X44296943Y31090000D01*
X44269236Y31371309D01*
X44187182Y31641808D01*
X44053932Y31891101D01*
X43874608Y32109608D01*
X43656101Y32288932D01*
X43523142Y32360000D01*
X43656101Y32431068D01*
X43874608Y32610392D01*
X44053932Y32828899D01*
X44187182Y33078192D01*
X44269236Y33348691D01*
X44296943Y33630000D01*
X44269236Y33911309D01*
X44192281Y34165000D01*
X47897254Y34165000D01*
X55276446Y26785807D01*
X55299462Y26757762D01*
X55411380Y26665913D01*
X55539067Y26597663D01*
X55677615Y26555635D01*
X55785595Y26545000D01*
X55785604Y26545000D01*
X55821699Y26541445D01*
X55857794Y26545000D01*
X55957719Y26545000D01*
X55880764Y26291309D01*
X55853057Y26010000D01*
X55880764Y25728691D01*
X55962818Y25458192D01*
X56096068Y25208899D01*
X56275392Y24990392D01*
X56493899Y24811068D01*
X56621741Y24742735D01*
X56392161Y24592601D01*
X56190500Y24394895D01*
X56031285Y24161646D01*
X55920633Y23901818D01*
X55903096Y23819039D01*
X56025085Y23597000D01*
X57568000Y23597000D01*
X57568000Y23617000D01*
X57822000Y23617000D01*
X57822000Y23597000D01*
X59364915Y23597000D01*
X59486904Y23819039D01*
X59469367Y23901818D01*
X59358715Y24161646D01*
X59199500Y24394895D01*
X58997839Y24592601D01*
X58768259Y24742735D01*
X58896101Y24811068D01*
X59114608Y24990392D01*
X59293932Y25208899D01*
X59427182Y25458192D01*
X59509236Y25728691D01*
X59536943Y26010000D01*
X59509236Y26291309D01*
X59432281Y26545000D01*
X61367354Y26545000D01*
X63931646Y23980707D01*
X63954662Y23952662D01*
X64066580Y23860813D01*
X64194267Y23792563D01*
X64332815Y23750535D01*
X64440795Y23739900D01*
X64440804Y23739900D01*
X64476899Y23736345D01*
X64512994Y23739900D01*
X78711495Y23739900D01*
X78747600Y23736344D01*
X78783705Y23739900D01*
X78891685Y23750535D01*
X79030233Y23792563D01*
X79157920Y23860813D01*
X79269838Y23952662D01*
X79292859Y23980713D01*
X85923875Y30611729D01*
X85940241Y30595363D01*
X86175273Y30438320D01*
X86436426Y30330147D01*
X86713665Y30275000D01*
X86996335Y30275000D01*
X87273574Y30330147D01*
X87534727Y30438320D01*
X87769759Y30595363D01*
X87969637Y30795241D01*
X88125000Y31027759D01*
X88280363Y30795241D01*
X88480241Y30595363D01*
X88715273Y30438320D01*
X88976426Y30330147D01*
X89253665Y30275000D01*
X89536335Y30275000D01*
X89813574Y30330147D01*
X90074727Y30438320D01*
X90309759Y30595363D01*
X90508357Y30793961D01*
X90509188Y30785518D01*
X90545498Y30665820D01*
X90604463Y30555506D01*
X90683815Y30458815D01*
X90780506Y30379463D01*
X90890820Y30320498D01*
X91010518Y30284188D01*
X91135000Y30271928D01*
X92735000Y30271928D01*
X92859482Y30284188D01*
X92979180Y30320498D01*
X93089494Y30379463D01*
X93186185Y30458815D01*
X93265537Y30555506D01*
X93324502Y30665820D01*
X93360812Y30785518D01*
X93373072Y30910000D01*
X93373072Y32510000D01*
X93360812Y32634482D01*
X93324502Y32754180D01*
X93265537Y32864494D01*
X93186185Y32961185D01*
X93089494Y33040537D01*
X92979180Y33099502D01*
X92859482Y33135812D01*
X92735000Y33148072D01*
X91135000Y33148072D01*
X91010518Y33135812D01*
X90890820Y33099502D01*
X90780506Y33040537D01*
X90683815Y32961185D01*
X90604463Y32864494D01*
X90545498Y32754180D01*
X90509188Y32634482D01*
X90508357Y32626039D01*
X90309759Y32824637D01*
X90074727Y32981680D01*
X89813574Y33089853D01*
X89536335Y33145000D01*
X89253665Y33145000D01*
X88976426Y33089853D01*
X88715273Y32981680D01*
X88480241Y32824637D01*
X88280363Y32624759D01*
X88125000Y32392241D01*
X87969637Y32624759D01*
X87769759Y32824637D01*
X87534727Y32981680D01*
X87273574Y33089853D01*
X86996335Y33145000D01*
X86713665Y33145000D01*
X86436426Y33089853D01*
X86175273Y32981680D01*
X85940241Y32824637D01*
X85740363Y32624759D01*
X85613324Y32434632D01*
X85610615Y32434365D01*
X85565914Y32420805D01*
X85429637Y32624759D01*
X85229759Y32824637D01*
X84994727Y32981680D01*
X84733574Y33089853D01*
X84456335Y33145000D01*
X84173665Y33145000D01*
X83896426Y33089853D01*
X83635273Y32981680D01*
X83400241Y32824637D01*
X83339925Y32764321D01*
X74047986Y42056260D01*
X92495000Y42056260D01*
X92495000Y41763740D01*
X92552068Y41476842D01*
X92664010Y41206589D01*
X92826525Y40963368D01*
X93033368Y40756525D01*
X93276589Y40594010D01*
X93546842Y40482068D01*
X93833740Y40425000D01*
X94126260Y40425000D01*
X94413158Y40482068D01*
X94683411Y40594010D01*
X94926632Y40756525D01*
X95133475Y40963368D01*
X95250000Y41137760D01*
X95366525Y40963368D01*
X95573368Y40756525D01*
X95816589Y40594010D01*
X96086842Y40482068D01*
X96373740Y40425000D01*
X96666260Y40425000D01*
X96953158Y40482068D01*
X97223411Y40594010D01*
X97466632Y40756525D01*
X97673475Y40963368D01*
X97835990Y41206589D01*
X97947932Y41476842D01*
X98005000Y41763740D01*
X98005000Y42056260D01*
X97947932Y42343158D01*
X97835990Y42613411D01*
X97673475Y42856632D01*
X97466632Y43063475D01*
X97223411Y43225990D01*
X96953158Y43337932D01*
X96666260Y43395000D01*
X96373740Y43395000D01*
X96086842Y43337932D01*
X95816589Y43225990D01*
X95573368Y43063475D01*
X95366525Y42856632D01*
X95250000Y42682240D01*
X95133475Y42856632D01*
X94926632Y43063475D01*
X94683411Y43225990D01*
X94413158Y43337932D01*
X94126260Y43395000D01*
X93833740Y43395000D01*
X93546842Y43337932D01*
X93276589Y43225990D01*
X93033368Y43063475D01*
X92826525Y42856632D01*
X92664010Y42613411D01*
X92552068Y42343158D01*
X92495000Y42056260D01*
X74047986Y42056260D01*
X69864614Y46239632D01*
X69895990Y46286589D01*
X70007932Y46556842D01*
X70065000Y46843740D01*
X70065000Y47136260D01*
X70007932Y47423158D01*
X69895990Y47693411D01*
X69733475Y47936632D01*
X69526632Y48143475D01*
X69352240Y48260000D01*
X69526632Y48376525D01*
X69733475Y48583368D01*
X69895990Y48826589D01*
X70007932Y49096842D01*
X70065000Y49383740D01*
X70065000Y49676260D01*
X70007932Y49963158D01*
X69895990Y50233411D01*
X69733475Y50476632D01*
X69526632Y50683475D01*
X69352240Y50800000D01*
X69526632Y50916525D01*
X69733475Y51123368D01*
X69895990Y51366589D01*
X70007932Y51636842D01*
X70065000Y51923740D01*
X70065000Y52216260D01*
X70007932Y52503158D01*
X69895990Y52773411D01*
X69733475Y53016632D01*
X69711077Y53039030D01*
X77454198Y60782151D01*
X77482237Y60805162D01*
X77505250Y60833203D01*
X77505253Y60833206D01*
X77574086Y60917079D01*
X77574087Y60917080D01*
X77642337Y61044767D01*
X77684365Y61183315D01*
X77695000Y61291295D01*
X77695000Y61291304D01*
X77698555Y61327399D01*
X77695000Y61363494D01*
X77695000Y62376260D01*
X92495000Y62376260D01*
X92495000Y62083740D01*
X92552068Y61796842D01*
X92664010Y61526589D01*
X92826525Y61283368D01*
X93033368Y61076525D01*
X93276589Y60914010D01*
X93546842Y60802068D01*
X93833740Y60745000D01*
X94126260Y60745000D01*
X94413158Y60802068D01*
X94683411Y60914010D01*
X94926632Y61076525D01*
X95133475Y61283368D01*
X95250000Y61457760D01*
X95366525Y61283368D01*
X95573368Y61076525D01*
X95816589Y60914010D01*
X96086842Y60802068D01*
X96373740Y60745000D01*
X96666260Y60745000D01*
X96953158Y60802068D01*
X97223411Y60914010D01*
X97466632Y61076525D01*
X97673475Y61283368D01*
X97835990Y61526589D01*
X97947932Y61796842D01*
X98005000Y62083740D01*
X98005000Y62376260D01*
X97947932Y62663158D01*
X97835990Y62933411D01*
X97673475Y63176632D01*
X97466632Y63383475D01*
X97223411Y63545990D01*
X96953158Y63657932D01*
X96666260Y63715000D01*
X96373740Y63715000D01*
X96086842Y63657932D01*
X95816589Y63545990D01*
X95573368Y63383475D01*
X95366525Y63176632D01*
X95250000Y63002240D01*
X95133475Y63176632D01*
X94926632Y63383475D01*
X94683411Y63545990D01*
X94413158Y63657932D01*
X94126260Y63715000D01*
X93833740Y63715000D01*
X93546842Y63657932D01*
X93276589Y63545990D01*
X93033368Y63383475D01*
X92826525Y63176632D01*
X92664010Y62933411D01*
X92552068Y62663158D01*
X92495000Y62376260D01*
X77695000Y62376260D01*
X77695000Y74200736D01*
X77761101Y74236068D01*
X77979608Y74415392D01*
X78158932Y74633899D01*
X78227265Y74761741D01*
X78377399Y74532161D01*
X78575105Y74330500D01*
X78808354Y74171285D01*
X79068182Y74060633D01*
X79150961Y74043096D01*
X79373000Y74165085D01*
X79373000Y75708000D01*
X79627000Y75708000D01*
X79627000Y74165085D01*
X79849039Y74043096D01*
X79931818Y74060633D01*
X80191646Y74171285D01*
X80424895Y74330500D01*
X80622601Y74532161D01*
X80777166Y74768517D01*
X80882650Y75030486D01*
X80935000Y75308000D01*
X80935000Y75708000D01*
X79627000Y75708000D01*
X79373000Y75708000D01*
X79353000Y75708000D01*
X79353000Y75962000D01*
X79373000Y75962000D01*
X79373000Y77504915D01*
X79627000Y77504915D01*
X79627000Y75962000D01*
X80935000Y75962000D01*
X80935000Y76362000D01*
X80882650Y76639514D01*
X80777166Y76901483D01*
X80622601Y77137839D01*
X80424895Y77339500D01*
X80191646Y77498715D01*
X79931818Y77609367D01*
X79849039Y77626904D01*
X79627000Y77504915D01*
X79373000Y77504915D01*
X79150961Y77626904D01*
X79068182Y77609367D01*
X78808354Y77498715D01*
X78575105Y77339500D01*
X78377399Y77137839D01*
X78227265Y76908259D01*
X78158932Y77036101D01*
X77979607Y77254608D01*
X77761100Y77433932D01*
X77511807Y77567182D01*
X77241308Y77649236D01*
X76960000Y77676943D01*
X76678691Y77649236D01*
X76408192Y77567182D01*
X76158899Y77433932D01*
X75940392Y77254607D01*
X75761068Y77036100D01*
X75690000Y76903142D01*
X75618932Y77036101D01*
X75439607Y77254608D01*
X75221100Y77433932D01*
X74971807Y77567182D01*
X74701308Y77649236D01*
X74420000Y77676943D01*
X74138691Y77649236D01*
X73868192Y77567182D01*
X73618899Y77433932D01*
X73400392Y77254607D01*
X73221068Y77036100D01*
X73150000Y76903142D01*
X73078932Y77036101D01*
X72899607Y77254608D01*
X72681100Y77433932D01*
X72431807Y77567182D01*
X72161308Y77649236D01*
X71880000Y77676943D01*
X71598691Y77649236D01*
X71328192Y77567182D01*
X71078899Y77433932D01*
X70860392Y77254607D01*
X70681068Y77036100D01*
X70610000Y76903142D01*
X70538932Y77036101D01*
X70359607Y77254608D01*
X70141100Y77433932D01*
X69891807Y77567182D01*
X69621308Y77649236D01*
X69340000Y77676943D01*
X69058691Y77649236D01*
X68788192Y77567182D01*
X68538899Y77433932D01*
X68320392Y77254607D01*
X68141068Y77036100D01*
X68070000Y76903142D01*
X67998932Y77036101D01*
X67819607Y77254608D01*
X67601100Y77433932D01*
X67351807Y77567182D01*
X67081308Y77649236D01*
X66800000Y77676943D01*
X66518691Y77649236D01*
X66248192Y77567182D01*
X65998899Y77433932D01*
X65780392Y77254607D01*
X65601068Y77036100D01*
X65530000Y76903142D01*
X65458932Y77036101D01*
X65279607Y77254608D01*
X65061100Y77433932D01*
X64956101Y77490055D01*
X76305747Y88839700D01*
X79463895Y88839700D01*
X79500000Y88836144D01*
X79536105Y88839700D01*
X79644085Y88850335D01*
X79782633Y88892363D01*
X79910320Y88960613D01*
X80022238Y89052462D01*
X80114087Y89164380D01*
X80182337Y89292067D01*
X80224365Y89430615D01*
X80224826Y89435298D01*
X80301101Y89476068D01*
X80519608Y89655392D01*
X80698932Y89873899D01*
X80832182Y90123192D01*
X80914236Y90393691D01*
X80935000Y90604509D01*
X80935000Y91545492D01*
X80914236Y91756309D01*
X80832182Y92026808D01*
X80698932Y92276101D01*
X80519607Y92494608D01*
X80301100Y92673932D01*
X80051807Y92807182D01*
X79781308Y92889236D01*
X79500000Y92916943D01*
X79218691Y92889236D01*
X78948192Y92807182D01*
X78698899Y92673932D01*
X78480392Y92494607D01*
X78301068Y92276100D01*
X78230000Y92143142D01*
X78158932Y92276101D01*
X77979607Y92494608D01*
X77761100Y92673932D01*
X77511807Y92807182D01*
X77241308Y92889236D01*
X76960000Y92916943D01*
X76678691Y92889236D01*
X76408192Y92807182D01*
X76158899Y92673932D01*
X75940392Y92494607D01*
X75761068Y92276100D01*
X75690000Y92143142D01*
X75618932Y92276101D01*
X75439607Y92494608D01*
X75221100Y92673932D01*
X74971807Y92807182D01*
X74701308Y92889236D01*
X74420000Y92916943D01*
X74138691Y92889236D01*
X73868192Y92807182D01*
X73618899Y92673932D01*
X73400392Y92494607D01*
X73221068Y92276100D01*
X73150000Y92143142D01*
X73078932Y92276101D01*
X72899607Y92494608D01*
X72681100Y92673932D01*
X72431807Y92807182D01*
X72161308Y92889236D01*
X71880000Y92916943D01*
X71598691Y92889236D01*
X71328192Y92807182D01*
X71078899Y92673932D01*
X70860392Y92494607D01*
X70681068Y92276100D01*
X70610000Y92143142D01*
X70538932Y92276101D01*
X70359607Y92494608D01*
X70141100Y92673932D01*
X69891807Y92807182D01*
X69621308Y92889236D01*
X69340000Y92916943D01*
X69058691Y92889236D01*
X68788192Y92807182D01*
X68538899Y92673932D01*
X68320392Y92494607D01*
X68141068Y92276100D01*
X68070000Y92143142D01*
X67998932Y92276101D01*
X67819607Y92494608D01*
X67601100Y92673932D01*
X67524826Y92714701D01*
X67524365Y92719385D01*
X67482337Y92857933D01*
X67414087Y92985620D01*
X67322238Y93097538D01*
X67210320Y93189387D01*
X67082633Y93257637D01*
X66944085Y93299665D01*
X66836105Y93310300D01*
X66800000Y93313856D01*
X66763895Y93310300D01*
X30906705Y93310300D01*
X30870600Y93313856D01*
X30834495Y93310300D01*
X30726515Y93299665D01*
X30587967Y93257637D01*
X30460280Y93189387D01*
X30348362Y93097538D01*
X30325346Y93069493D01*
X27527038Y90271184D01*
X27499608Y90304608D01*
X27281101Y90483932D01*
X27031808Y90617182D01*
X26761309Y90699236D01*
X26550492Y90720000D01*
X25609508Y90720000D01*
X25398691Y90699236D01*
X25128192Y90617182D01*
X24878899Y90483932D01*
X24660392Y90304608D01*
X24481068Y90086101D01*
X24347818Y89836808D01*
X24265764Y89566309D01*
X24238057Y89285000D01*
X24265764Y89003691D01*
X24347818Y88733192D01*
X24481068Y88483899D01*
X24660392Y88265392D01*
X24878899Y88086068D01*
X25011858Y88015000D01*
X24878899Y87943932D01*
X24660392Y87764608D01*
X24481068Y87546101D01*
X24347818Y87296808D01*
X24265764Y87026309D01*
X24238057Y86745000D01*
X24265764Y86463691D01*
X24347818Y86193192D01*
X24481068Y85943899D01*
X24660392Y85725392D01*
X24878899Y85546068D01*
X25011858Y85475000D01*
X24878899Y85403932D01*
X24660392Y85224608D01*
X24481068Y85006101D01*
X24347818Y84756808D01*
X24265764Y84486309D01*
X24238057Y84205000D01*
X24265764Y83923691D01*
X24347818Y83653192D01*
X24481068Y83403899D01*
X24660392Y83185392D01*
X24878899Y83006068D01*
X25011858Y82935000D01*
X24878899Y82863932D01*
X24660392Y82684608D01*
X24481068Y82466101D01*
X24347818Y82216808D01*
X24265764Y81946309D01*
X24238057Y81665000D01*
X24265764Y81383691D01*
X24347818Y81113192D01*
X24481068Y80863899D01*
X24660392Y80645392D01*
X24878899Y80466068D01*
X25011858Y80395000D01*
X24878899Y80323932D01*
X24660392Y80144608D01*
X24481068Y79926101D01*
X24347818Y79676808D01*
X24265764Y79406309D01*
X24238057Y79125000D01*
X24265764Y78843691D01*
X24347818Y78573192D01*
X24481068Y78323899D01*
X24660392Y78105392D01*
X24878899Y77926068D01*
X25011858Y77855000D01*
X24878899Y77783932D01*
X24660392Y77604608D01*
X24481068Y77386101D01*
X24347818Y77136808D01*
X24265764Y76866309D01*
X24238057Y76585000D01*
X24265764Y76303691D01*
X24347818Y76033192D01*
X24481068Y75783899D01*
X24660392Y75565392D01*
X24878899Y75386068D01*
X25011858Y75315000D01*
X24878899Y75243932D01*
X24660392Y75064608D01*
X24481068Y74846101D01*
X24347818Y74596808D01*
X24265764Y74326309D01*
X24238057Y74045000D01*
X24265764Y73763691D01*
X24347818Y73493192D01*
X24481068Y73243899D01*
X24660392Y73025392D01*
X24878899Y72846068D01*
X25128192Y72712818D01*
X25330140Y72651558D01*
X25379436Y72559333D01*
X25382365Y72553854D01*
X25486710Y72426709D01*
X25518574Y72400559D01*
X27198714Y70720418D01*
X27180000Y70626335D01*
X27180000Y70343665D01*
X27235147Y70066426D01*
X27343320Y69805273D01*
X27500363Y69570241D01*
X27700241Y69370363D01*
X27783098Y69315000D01*
X12180748Y69315000D01*
X12222932Y69416842D01*
X12280000Y69703740D01*
X12280000Y69996260D01*
X12222932Y70283158D01*
X12110990Y70553411D01*
X11948475Y70796632D01*
X11741632Y71003475D01*
X11567240Y71120000D01*
X11741632Y71236525D01*
X11948475Y71443368D01*
X12110990Y71686589D01*
X12222932Y71956842D01*
X12280000Y72243740D01*
X12280000Y72536260D01*
X12222932Y72823158D01*
X12110990Y73093411D01*
X11948475Y73336632D01*
X11741632Y73543475D01*
X11567240Y73660000D01*
X11741632Y73776525D01*
X11948475Y73983368D01*
X12110990Y74226589D01*
X12222932Y74496842D01*
X12280000Y74783740D01*
X12280000Y75076260D01*
X12222932Y75363158D01*
X12110990Y75633411D01*
X11948475Y75876632D01*
X11741632Y76083475D01*
X11567240Y76200000D01*
X11741632Y76316525D01*
X11948475Y76523368D01*
X12110990Y76766589D01*
X12222932Y77036842D01*
X12280000Y77323740D01*
X12280000Y77616260D01*
X12222932Y77903158D01*
X12110990Y78173411D01*
X11948475Y78416632D01*
X11741632Y78623475D01*
X11567240Y78740000D01*
X11741632Y78856525D01*
X11948475Y79063368D01*
X12110990Y79306589D01*
X12222932Y79576842D01*
X12280000Y79863740D01*
X12280000Y80156260D01*
X12222932Y80443158D01*
X12110990Y80713411D01*
X11948475Y80956632D01*
X11741632Y81163475D01*
X11498411Y81325990D01*
X11228158Y81437932D01*
X10941260Y81495000D01*
X10648740Y81495000D01*
X10361842Y81437932D01*
X10091589Y81325990D01*
X9848368Y81163475D01*
X9641525Y80956632D01*
X9525000Y80782240D01*
X9408475Y80956632D01*
X9201632Y81163475D01*
X8958411Y81325990D01*
X8688158Y81437932D01*
X8401260Y81495000D01*
X8108740Y81495000D01*
X7821842Y81437932D01*
X7551589Y81325990D01*
X7308368Y81163475D01*
X7101525Y80956632D01*
X6983900Y80780594D01*
X6812588Y81010269D01*
X6596355Y81205178D01*
X6346252Y81354157D01*
X6071891Y81451481D01*
X5842000Y81330814D01*
X5842000Y80137000D01*
X5862000Y80137000D01*
X5862000Y79883000D01*
X5842000Y79883000D01*
X5842000Y77597000D01*
X5862000Y77597000D01*
X5862000Y77343000D01*
X5842000Y77343000D01*
X5842000Y77323000D01*
X5588000Y77323000D01*
X5588000Y77343000D01*
X4394845Y77343000D01*
X4273524Y77113110D01*
X4318175Y76965901D01*
X4443359Y76703080D01*
X4617412Y76469731D01*
X4833645Y76274822D01*
X4950534Y76205195D01*
X4768368Y76083475D01*
X4561525Y75876632D01*
X4399010Y75633411D01*
X4287068Y75363158D01*
X4230000Y75076260D01*
X4230000Y74783740D01*
X4287068Y74496842D01*
X4399010Y74226589D01*
X4561525Y73983368D01*
X4768368Y73776525D01*
X4942760Y73660000D01*
X4768368Y73543475D01*
X4561525Y73336632D01*
X4399010Y73093411D01*
X4287068Y72823158D01*
X4230000Y72536260D01*
X4230000Y72243740D01*
X4287068Y71956842D01*
X4399010Y71686589D01*
X4561525Y71443368D01*
X4768368Y71236525D01*
X4942760Y71120000D01*
X4768368Y71003475D01*
X4561525Y70796632D01*
X4399010Y70553411D01*
X4287068Y70283158D01*
X4230000Y69996260D01*
X4230000Y69703740D01*
X4287068Y69416842D01*
X4399010Y69146589D01*
X4561525Y68903368D01*
X4768368Y68696525D01*
X4942760Y68580000D01*
X4768368Y68463475D01*
X4561525Y68256632D01*
X4399010Y68013411D01*
X4287068Y67743158D01*
X4230000Y67456260D01*
X4230000Y67163740D01*
X4287068Y66876842D01*
X4399010Y66606589D01*
X4561525Y66363368D01*
X4577323Y66347570D01*
X3650308Y65420554D01*
X3622263Y65397538D01*
X3530414Y65285620D01*
X3474945Y65181844D01*
X3462164Y65157933D01*
X3420135Y65019385D01*
X3405944Y64875300D01*
X660000Y64875300D01*
X660000Y79653110D01*
X4273524Y79653110D01*
X4318175Y79505901D01*
X4443359Y79243080D01*
X4617412Y79009731D01*
X4833645Y78814822D01*
X4959255Y78740000D01*
X4833645Y78665178D01*
X4617412Y78470269D01*
X4443359Y78236920D01*
X4318175Y77974099D01*
X4273524Y77826890D01*
X4394845Y77597000D01*
X5588000Y77597000D01*
X5588000Y79883000D01*
X4394845Y79883000D01*
X4273524Y79653110D01*
X660000Y79653110D01*
X660000Y80366890D01*
X4273524Y80366890D01*
X4394845Y80137000D01*
X5588000Y80137000D01*
X5588000Y81330814D01*
X5358109Y81451481D01*
X5083748Y81354157D01*
X4833645Y81205178D01*
X4617412Y81010269D01*
X4443359Y80776920D01*
X4318175Y80514099D01*
X4273524Y80366890D01*
X660000Y80366890D01*
X660000Y95220128D01*
X2765000Y95220128D01*
X2765000Y94779872D01*
X2850890Y94348075D01*
X3019369Y93941331D01*
X3263962Y93575271D01*
X3575271Y93263962D01*
X3941331Y93019369D01*
X4348075Y92850890D01*
X4779872Y92765000D01*
X5220128Y92765000D01*
X5651925Y92850890D01*
X6058669Y93019369D01*
X6424729Y93263962D01*
X6736038Y93575271D01*
X6980631Y93941331D01*
X7149110Y94348075D01*
X7235000Y94779872D01*
X7235000Y95220128D01*
X92765000Y95220128D01*
X92765000Y94779872D01*
X92850890Y94348075D01*
X93019369Y93941331D01*
X93263962Y93575271D01*
X93575271Y93263962D01*
X93941331Y93019369D01*
X94348075Y92850890D01*
X94779872Y92765000D01*
X95220128Y92765000D01*
X95651925Y92850890D01*
X96058669Y93019369D01*
X96424729Y93263962D01*
X96736038Y93575271D01*
X96980631Y93941331D01*
X97149110Y94348075D01*
X97235000Y94779872D01*
X97235000Y95220128D01*
X97149110Y95651925D01*
X96980631Y96058669D01*
X96736038Y96424729D01*
X96424729Y96736038D01*
X96058669Y96980631D01*
X95651925Y97149110D01*
X95220128Y97235000D01*
X94779872Y97235000D01*
X94348075Y97149110D01*
X93941331Y96980631D01*
X93575271Y96736038D01*
X93263962Y96424729D01*
X93019369Y96058669D01*
X92850890Y95651925D01*
X92765000Y95220128D01*
X7235000Y95220128D01*
X7149110Y95651925D01*
X6980631Y96058669D01*
X6736038Y96424729D01*
X6424729Y96736038D01*
X6058669Y96980631D01*
X5651925Y97149110D01*
X5220128Y97235000D01*
X4779872Y97235000D01*
X4348075Y97149110D01*
X3941331Y96980631D01*
X3575271Y96736038D01*
X3263962Y96424729D01*
X3019369Y96058669D01*
X2850890Y95651925D01*
X2765000Y95220128D01*
X660000Y95220128D01*
X660000Y99340000D01*
X99340001Y99340000D01*
X99340000Y660000D01*
G04 #@! TA.AperFunction,Conductor*
D23*
G36*
X99340000Y660000D02*
G01*
X660000Y660000D01*
X660000Y1754000D01*
X77759928Y1754000D01*
X77772188Y1629518D01*
X77808498Y1509820D01*
X77867463Y1399506D01*
X77946815Y1302815D01*
X78043506Y1223463D01*
X78153820Y1164498D01*
X78273518Y1128188D01*
X78398000Y1115928D01*
X78962250Y1119000D01*
X79121000Y1277750D01*
X79121000Y2477000D01*
X77921750Y2477000D01*
X77763000Y2318250D01*
X77759928Y1754000D01*
X660000Y1754000D01*
X660000Y5220128D01*
X2765000Y5220128D01*
X2765000Y4779872D01*
X2850890Y4348075D01*
X3019369Y3941331D01*
X3263962Y3575271D01*
X3575271Y3263962D01*
X3941331Y3019369D01*
X4348075Y2850890D01*
X4779872Y2765000D01*
X5220128Y2765000D01*
X5651925Y2850890D01*
X6058669Y3019369D01*
X6424729Y3263962D01*
X6614767Y3454000D01*
X77759928Y3454000D01*
X77763000Y2889750D01*
X77921750Y2731000D01*
X79121000Y2731000D01*
X79121000Y3930250D01*
X78962250Y4089000D01*
X78398000Y4092072D01*
X78273518Y4079812D01*
X78153820Y4043502D01*
X78043506Y3984537D01*
X77946815Y3905185D01*
X77867463Y3808494D01*
X77808498Y3698180D01*
X77772188Y3578482D01*
X77759928Y3454000D01*
X6614767Y3454000D01*
X6736038Y3575271D01*
X6980631Y3941331D01*
X7149110Y4348075D01*
X7235000Y4779872D01*
X7235000Y5077298D01*
X13521903Y5077298D01*
X13593486Y4833329D01*
X13848996Y4712429D01*
X14123184Y4643700D01*
X14405512Y4629783D01*
X14685130Y4671213D01*
X14951292Y4766397D01*
X15076514Y4833329D01*
X15148097Y5077298D01*
X14335000Y5890395D01*
X13521903Y5077298D01*
X7235000Y5077298D01*
X7235000Y5220128D01*
X7149110Y5651925D01*
X7005145Y5999488D01*
X12894783Y5999488D01*
X12936213Y5719870D01*
X13031397Y5453708D01*
X13098329Y5328486D01*
X13342298Y5256903D01*
X14155395Y6070000D01*
X14514605Y6070000D01*
X15327702Y5256903D01*
X15571671Y5328486D01*
X15692571Y5583996D01*
X15761300Y5858184D01*
X15775217Y6140512D01*
X15733787Y6420130D01*
X15638603Y6686292D01*
X15571671Y6811514D01*
X15327702Y6883097D01*
X14514605Y6070000D01*
X14155395Y6070000D01*
X13342298Y6883097D01*
X13098329Y6811514D01*
X12977429Y6556004D01*
X12908700Y6281816D01*
X12894783Y5999488D01*
X7005145Y5999488D01*
X6980631Y6058669D01*
X6736038Y6424729D01*
X6424729Y6736038D01*
X6058669Y6980631D01*
X5651925Y7149110D01*
X5220128Y7235000D01*
X4779872Y7235000D01*
X4348075Y7149110D01*
X3941331Y6980631D01*
X3575271Y6736038D01*
X3263962Y6424729D01*
X3019369Y6058669D01*
X2850890Y5651925D01*
X2765000Y5220128D01*
X660000Y5220128D01*
X660000Y64875300D01*
X3405944Y64875300D01*
X3409501Y64839185D01*
X3409500Y57079305D01*
X3405944Y57043200D01*
X3420135Y56899116D01*
X3462163Y56760568D01*
X3530413Y56632881D01*
X3622262Y56520963D01*
X3650308Y56497946D01*
X4576573Y55571680D01*
X4561525Y55556632D01*
X4399010Y55313411D01*
X4287068Y55043158D01*
X4230000Y54756260D01*
X4230000Y54463740D01*
X4287068Y54176842D01*
X4399010Y53906589D01*
X4561525Y53663368D01*
X4768368Y53456525D01*
X4942760Y53340000D01*
X4768368Y53223475D01*
X4561525Y53016632D01*
X4399010Y52773411D01*
X4287068Y52503158D01*
X4230000Y52216260D01*
X4230000Y51923740D01*
X4287068Y51636842D01*
X4399010Y51366589D01*
X4561525Y51123368D01*
X4768368Y50916525D01*
X4942760Y50800000D01*
X4768368Y50683475D01*
X4561525Y50476632D01*
X4399010Y50233411D01*
X4287068Y49963158D01*
X4230000Y49676260D01*
X4230000Y49383740D01*
X4287068Y49096842D01*
X4399010Y48826589D01*
X4561525Y48583368D01*
X4768368Y48376525D01*
X4942760Y48260000D01*
X4768368Y48143475D01*
X4561525Y47936632D01*
X4399010Y47693411D01*
X4287068Y47423158D01*
X4230000Y47136260D01*
X4230000Y46843740D01*
X4287068Y46556842D01*
X4399010Y46286589D01*
X4561525Y46043368D01*
X4768368Y45836525D01*
X4942760Y45720000D01*
X4768368Y45603475D01*
X4561525Y45396632D01*
X4399010Y45153411D01*
X4287068Y44883158D01*
X4230000Y44596260D01*
X4230000Y44303740D01*
X4287068Y44016842D01*
X4399010Y43746589D01*
X4561525Y43503368D01*
X4768368Y43296525D01*
X4942760Y43180000D01*
X4768368Y43063475D01*
X4561525Y42856632D01*
X4399010Y42613411D01*
X4287068Y42343158D01*
X4230000Y42056260D01*
X4230000Y41763740D01*
X4287068Y41476842D01*
X4399010Y41206589D01*
X4561525Y40963368D01*
X4768368Y40756525D01*
X4942760Y40640000D01*
X4768368Y40523475D01*
X4561525Y40316632D01*
X4399010Y40073411D01*
X4287068Y39803158D01*
X4230000Y39516260D01*
X4230000Y39223740D01*
X4287068Y38936842D01*
X4399010Y38666589D01*
X4561525Y38423368D01*
X4768368Y38216525D01*
X4942760Y38100000D01*
X4768368Y37983475D01*
X4561525Y37776632D01*
X4399010Y37533411D01*
X4287068Y37263158D01*
X4230000Y36976260D01*
X4230000Y36683740D01*
X4287068Y36396842D01*
X4399010Y36126589D01*
X4561525Y35883368D01*
X4768368Y35676525D01*
X4942760Y35560000D01*
X4768368Y35443475D01*
X4561525Y35236632D01*
X4399010Y34993411D01*
X4287068Y34723158D01*
X4230000Y34436260D01*
X4230000Y34143740D01*
X4287068Y33856842D01*
X4399010Y33586589D01*
X4561525Y33343368D01*
X4768368Y33136525D01*
X4942760Y33020000D01*
X4768368Y32903475D01*
X4561525Y32696632D01*
X4399010Y32453411D01*
X4287068Y32183158D01*
X4230000Y31896260D01*
X4230000Y31603740D01*
X4287068Y31316842D01*
X4399010Y31046589D01*
X4561525Y30803368D01*
X4768368Y30596525D01*
X4942760Y30480000D01*
X4768368Y30363475D01*
X4561525Y30156632D01*
X4399010Y29913411D01*
X4287068Y29643158D01*
X4230000Y29356260D01*
X4230000Y29063740D01*
X4287068Y28776842D01*
X4399010Y28506589D01*
X4561525Y28263368D01*
X4768368Y28056525D01*
X4942760Y27940000D01*
X4768368Y27823475D01*
X4561525Y27616632D01*
X4399010Y27373411D01*
X4287068Y27103158D01*
X4230000Y26816260D01*
X4230000Y26523740D01*
X4287068Y26236842D01*
X4399010Y25966589D01*
X4561525Y25723368D01*
X4768368Y25516525D01*
X4942760Y25400000D01*
X4768368Y25283475D01*
X4561525Y25076632D01*
X4399010Y24833411D01*
X4287068Y24563158D01*
X4230000Y24276260D01*
X4230000Y23983740D01*
X4287068Y23696842D01*
X4399010Y23426589D01*
X4561525Y23183368D01*
X4768368Y22976525D01*
X4942760Y22860000D01*
X4768368Y22743475D01*
X4561525Y22536632D01*
X4399010Y22293411D01*
X4287068Y22023158D01*
X4230000Y21736260D01*
X4230000Y21443740D01*
X4287068Y21156842D01*
X4399010Y20886589D01*
X4561525Y20643368D01*
X4768368Y20436525D01*
X4942760Y20320000D01*
X4768368Y20203475D01*
X4561525Y19996632D01*
X4399010Y19753411D01*
X4287068Y19483158D01*
X4230000Y19196260D01*
X4230000Y18903740D01*
X4287068Y18616842D01*
X4399010Y18346589D01*
X4561525Y18103368D01*
X4768368Y17896525D01*
X5011589Y17734010D01*
X5281842Y17622068D01*
X5568740Y17565000D01*
X5861260Y17565000D01*
X6148158Y17622068D01*
X6418411Y17734010D01*
X6661632Y17896525D01*
X6793487Y18028380D01*
X6815498Y17955820D01*
X6874463Y17845506D01*
X6953815Y17748815D01*
X7050506Y17669463D01*
X7160820Y17610498D01*
X7280518Y17574188D01*
X7405000Y17561928D01*
X9105000Y17561928D01*
X9229482Y17574188D01*
X9349180Y17610498D01*
X9459494Y17669463D01*
X9525000Y17723222D01*
X9590506Y17669463D01*
X9700820Y17610498D01*
X9820518Y17574188D01*
X9945000Y17561928D01*
X9960000Y17561928D01*
X9960001Y12151028D01*
X9955960Y12110000D01*
X9972082Y11946312D01*
X10019828Y11788914D01*
X10097364Y11643855D01*
X10097365Y11643854D01*
X10201710Y11516709D01*
X10233574Y11490559D01*
X12896928Y8827204D01*
X12896928Y7770000D01*
X12909188Y7645518D01*
X12945498Y7525820D01*
X13004463Y7415506D01*
X13083815Y7318815D01*
X13180506Y7239463D01*
X13290820Y7180498D01*
X13410518Y7144188D01*
X13535000Y7131928D01*
X13542215Y7131928D01*
X13521903Y7062702D01*
X14335000Y6249605D01*
X15148097Y7062702D01*
X15127785Y7131928D01*
X15135000Y7131928D01*
X15259482Y7144188D01*
X15379180Y7180498D01*
X15489494Y7239463D01*
X15586185Y7318815D01*
X15665537Y7415506D01*
X15724502Y7525820D01*
X15760812Y7645518D01*
X15773027Y7769541D01*
X15856387Y7794828D01*
X16001446Y7872364D01*
X16128591Y7976709D01*
X16154746Y8008579D01*
X22851169Y14705000D01*
X25079164Y14705000D01*
X25109828Y14603913D01*
X25151273Y14526377D01*
X25155848Y14517818D01*
X25187365Y14458854D01*
X25291710Y14331709D01*
X25323574Y14305559D01*
X27048714Y12580418D01*
X27030000Y12486335D01*
X27030000Y12203665D01*
X27085147Y11926426D01*
X27193320Y11665273D01*
X27350363Y11430241D01*
X27550241Y11230363D01*
X27785273Y11073320D01*
X28046426Y10965147D01*
X28323665Y10910000D01*
X28606335Y10910000D01*
X28883574Y10965147D01*
X29144727Y11073320D01*
X29379759Y11230363D01*
X29501694Y11352298D01*
X30151903Y11352298D01*
X30223486Y11108329D01*
X30478996Y10987429D01*
X30753184Y10918700D01*
X31035512Y10904783D01*
X31315130Y10946213D01*
X31581292Y11041397D01*
X31706514Y11108329D01*
X31778097Y11352298D01*
X30965000Y12165395D01*
X30151903Y11352298D01*
X29501694Y11352298D01*
X29579637Y11430241D01*
X29713692Y11630869D01*
X29728329Y11603486D01*
X29972298Y11531903D01*
X30785395Y12345000D01*
X31144605Y12345000D01*
X31957702Y11531903D01*
X32201671Y11603486D01*
X32322571Y11858996D01*
X32391300Y12133184D01*
X32405217Y12415512D01*
X32363787Y12695130D01*
X32268603Y12961292D01*
X32201671Y13086514D01*
X31957702Y13158097D01*
X31144605Y12345000D01*
X30785395Y12345000D01*
X29972298Y13158097D01*
X29728329Y13086514D01*
X29714676Y13057659D01*
X29579637Y13259759D01*
X29501694Y13337702D01*
X30151903Y13337702D01*
X30965000Y12524605D01*
X31778097Y13337702D01*
X31706514Y13581671D01*
X31451004Y13702571D01*
X31176816Y13771300D01*
X30894488Y13785217D01*
X30614870Y13743787D01*
X30348708Y13648603D01*
X30223486Y13581671D01*
X30151903Y13337702D01*
X29501694Y13337702D01*
X29379759Y13459637D01*
X29144727Y13616680D01*
X28883574Y13724853D01*
X28606335Y13780000D01*
X28323665Y13780000D01*
X28229582Y13761286D01*
X27052669Y14938198D01*
X27086101Y14956068D01*
X27304608Y15135392D01*
X27483932Y15353899D01*
X27617182Y15603192D01*
X27641522Y15683431D01*
X27664146Y15660807D01*
X27687162Y15632762D01*
X27799080Y15540913D01*
X27926767Y15472663D01*
X28065315Y15430635D01*
X28173295Y15420000D01*
X28173304Y15420000D01*
X28209399Y15416445D01*
X28245494Y15420000D01*
X31666928Y15420000D01*
X31666928Y15355000D01*
X31679188Y15230518D01*
X31715498Y15110820D01*
X31774463Y15000506D01*
X31853815Y14903815D01*
X31950506Y14824463D01*
X32060820Y14765498D01*
X32180518Y14729188D01*
X32305000Y14716928D01*
X34705000Y14716928D01*
X34829482Y14729188D01*
X34949180Y14765498D01*
X35059494Y14824463D01*
X35156185Y14903815D01*
X35235537Y15000506D01*
X35294502Y15110820D01*
X35330812Y15230518D01*
X35343072Y15355000D01*
X35343072Y16773300D01*
X38063195Y16773300D01*
X38099300Y16769744D01*
X38135405Y16773300D01*
X38243385Y16783935D01*
X38381933Y16825963D01*
X38509620Y16894213D01*
X38621538Y16986062D01*
X38644558Y17014112D01*
X40555447Y18925000D01*
X40717719Y18925000D01*
X40640764Y18671309D01*
X40613057Y18390000D01*
X40640764Y18108691D01*
X40722818Y17838192D01*
X40856068Y17588899D01*
X41035392Y17370392D01*
X41253899Y17191068D01*
X41386858Y17120000D01*
X41253899Y17048932D01*
X41035392Y16869608D01*
X40856068Y16651101D01*
X40722818Y16401808D01*
X40640764Y16131309D01*
X40613057Y15850000D01*
X40640764Y15568691D01*
X40722818Y15298192D01*
X40856068Y15048899D01*
X41035392Y14830392D01*
X41253899Y14651068D01*
X41386858Y14580000D01*
X41253899Y14508932D01*
X41035392Y14329608D01*
X40856068Y14111101D01*
X40722818Y13861808D01*
X40640764Y13591309D01*
X40613057Y13310000D01*
X40640764Y13028691D01*
X40722818Y12758192D01*
X40856068Y12508899D01*
X41035392Y12290392D01*
X41253899Y12111068D01*
X41386858Y12040000D01*
X41253899Y11968932D01*
X41035392Y11789608D01*
X40856068Y11571101D01*
X40722818Y11321808D01*
X40640764Y11051309D01*
X40613057Y10770000D01*
X40640764Y10488691D01*
X40722818Y10218192D01*
X40856068Y9968899D01*
X41035392Y9750392D01*
X41253899Y9571068D01*
X41386858Y9500000D01*
X41253899Y9428932D01*
X41035392Y9249608D01*
X40856068Y9031101D01*
X40722818Y8781808D01*
X40640764Y8511309D01*
X40613057Y8230000D01*
X40640764Y7948691D01*
X40722818Y7678192D01*
X40856068Y7428899D01*
X41035392Y7210392D01*
X41253899Y7031068D01*
X41503192Y6897818D01*
X41773691Y6815764D01*
X41984508Y6795000D01*
X42925492Y6795000D01*
X43136309Y6815764D01*
X43406808Y6897818D01*
X43656101Y7031068D01*
X43874608Y7210392D01*
X44053932Y7428899D01*
X44187182Y7678192D01*
X44269236Y7948691D01*
X44296943Y8230000D01*
X44269236Y8511309D01*
X44187182Y8781808D01*
X44053932Y9031101D01*
X43874608Y9249608D01*
X43656101Y9428932D01*
X43523142Y9500000D01*
X43656101Y9571068D01*
X43874608Y9750392D01*
X44053932Y9968899D01*
X44187182Y10218192D01*
X44269236Y10488691D01*
X44296943Y10770000D01*
X44269236Y11051309D01*
X44187182Y11321808D01*
X44053932Y11571101D01*
X43874608Y11789608D01*
X43656101Y11968932D01*
X43523142Y12040000D01*
X43656101Y12111068D01*
X43874608Y12290392D01*
X44053932Y12508899D01*
X44187182Y12758192D01*
X44269236Y13028691D01*
X44296943Y13310000D01*
X44269236Y13591309D01*
X44187182Y13861808D01*
X44053932Y14111101D01*
X43874608Y14329608D01*
X43656101Y14508932D01*
X43523142Y14580000D01*
X43656101Y14651068D01*
X43874608Y14830392D01*
X44053932Y15048899D01*
X44187182Y15298192D01*
X44269236Y15568691D01*
X44296943Y15850000D01*
X44269236Y16131309D01*
X44187182Y16401808D01*
X44053932Y16651101D01*
X43874608Y16869608D01*
X43656101Y17048932D01*
X43523142Y17120000D01*
X43656101Y17191068D01*
X43874608Y17370392D01*
X44053932Y17588899D01*
X44187182Y17838192D01*
X44269236Y18108691D01*
X44296943Y18390000D01*
X44269236Y18671309D01*
X44192281Y18925000D01*
X54888595Y18925000D01*
X54924700Y18921444D01*
X54960805Y18925000D01*
X55068785Y18935635D01*
X55207333Y18977663D01*
X55335020Y19045913D01*
X55446938Y19137762D01*
X55469958Y19165812D01*
X56247962Y19943815D01*
X56275392Y19910392D01*
X56493899Y19731068D01*
X56626858Y19660000D01*
X56493899Y19588932D01*
X56275392Y19409608D01*
X56096068Y19191101D01*
X55962818Y18941808D01*
X55880764Y18671309D01*
X55853057Y18390000D01*
X55880764Y18108691D01*
X55962818Y17838192D01*
X56096068Y17588899D01*
X56275392Y17370392D01*
X56493899Y17191068D01*
X56626858Y17120000D01*
X56493899Y17048932D01*
X56275392Y16869608D01*
X56096068Y16651101D01*
X55962818Y16401808D01*
X55880764Y16131309D01*
X55853057Y15850000D01*
X55880764Y15568691D01*
X55962818Y15298192D01*
X56096068Y15048899D01*
X56275392Y14830392D01*
X56493899Y14651068D01*
X56626858Y14580000D01*
X56493899Y14508932D01*
X56275392Y14329608D01*
X56096068Y14111101D01*
X55962818Y13861808D01*
X55880764Y13591309D01*
X55853057Y13310000D01*
X55880764Y13028691D01*
X55962818Y12758192D01*
X56096068Y12508899D01*
X56275392Y12290392D01*
X56493899Y12111068D01*
X56626858Y12040000D01*
X56493899Y11968932D01*
X56275392Y11789608D01*
X56096068Y11571101D01*
X55962818Y11321808D01*
X55880764Y11051309D01*
X55853057Y10770000D01*
X55880764Y10488691D01*
X55962818Y10218192D01*
X56096068Y9968899D01*
X56275392Y9750392D01*
X56388482Y9657581D01*
X56370518Y9655812D01*
X56250820Y9619502D01*
X56140506Y9560537D01*
X56043815Y9481185D01*
X55964463Y9384494D01*
X55905498Y9274180D01*
X55869188Y9154482D01*
X55856928Y9030000D01*
X55856928Y7430000D01*
X55869188Y7305518D01*
X55905498Y7185820D01*
X55964463Y7075506D01*
X56043815Y6978815D01*
X56140506Y6899463D01*
X56250820Y6840498D01*
X56370518Y6804188D01*
X56495000Y6791928D01*
X58895000Y6791928D01*
X59019482Y6804188D01*
X59139180Y6840498D01*
X59249494Y6899463D01*
X59346185Y6978815D01*
X59425537Y7075506D01*
X59484502Y7185820D01*
X59520812Y7305518D01*
X59533072Y7430000D01*
X59533072Y9030000D01*
X59520812Y9154482D01*
X59484502Y9274180D01*
X59425537Y9384494D01*
X59346185Y9481185D01*
X59249494Y9560537D01*
X59139180Y9619502D01*
X59019482Y9655812D01*
X59001518Y9657581D01*
X59114608Y9750392D01*
X59293932Y9968899D01*
X59427182Y10218192D01*
X59509236Y10488691D01*
X59536943Y10770000D01*
X59509236Y11051309D01*
X59427182Y11321808D01*
X59293932Y11571101D01*
X59114608Y11789608D01*
X58896101Y11968932D01*
X58763142Y12040000D01*
X58896101Y12111068D01*
X59114608Y12290392D01*
X59293932Y12508899D01*
X59329264Y12575000D01*
X77616095Y12575000D01*
X77652200Y12571444D01*
X77688305Y12575000D01*
X77699931Y12576145D01*
X77796285Y12585635D01*
X77934833Y12627663D01*
X78062520Y12695913D01*
X78174438Y12787762D01*
X78197459Y12815813D01*
X80798625Y15416979D01*
X80860241Y15355363D01*
X81095273Y15198320D01*
X81356426Y15090147D01*
X81633665Y15035000D01*
X81916335Y15035000D01*
X82193574Y15090147D01*
X82454727Y15198320D01*
X82689759Y15355363D01*
X82889637Y15555241D01*
X83045000Y15787759D01*
X83200363Y15555241D01*
X83400241Y15355363D01*
X83480000Y15302070D01*
X83480001Y3823379D01*
X83381368Y3757475D01*
X83174525Y3550632D01*
X83058000Y3376240D01*
X82941475Y3550632D01*
X82734632Y3757475D01*
X82491411Y3919990D01*
X82221158Y4031932D01*
X81934260Y4089000D01*
X81641740Y4089000D01*
X81354842Y4031932D01*
X81084589Y3919990D01*
X80841368Y3757475D01*
X80709513Y3625620D01*
X80687502Y3698180D01*
X80628537Y3808494D01*
X80549185Y3905185D01*
X80452494Y3984537D01*
X80342180Y4043502D01*
X80222482Y4079812D01*
X80098000Y4092072D01*
X79533750Y4089000D01*
X79375000Y3930250D01*
X79375000Y2731000D01*
X79395000Y2731000D01*
X79395000Y2477000D01*
X79375000Y2477000D01*
X79375000Y1277750D01*
X79533750Y1119000D01*
X80098000Y1115928D01*
X80222482Y1128188D01*
X80342180Y1164498D01*
X80452494Y1223463D01*
X80549185Y1302815D01*
X80628537Y1399506D01*
X80687502Y1509820D01*
X80709513Y1582380D01*
X80841368Y1450525D01*
X81084589Y1288010D01*
X81354842Y1176068D01*
X81641740Y1119000D01*
X81934260Y1119000D01*
X82221158Y1176068D01*
X82491411Y1288010D01*
X82734632Y1450525D01*
X82941475Y1657368D01*
X83058000Y1831760D01*
X83174525Y1657368D01*
X83381368Y1450525D01*
X83624589Y1288010D01*
X83894842Y1176068D01*
X84181740Y1119000D01*
X84474260Y1119000D01*
X84761158Y1176068D01*
X85031411Y1288010D01*
X85274632Y1450525D01*
X85481475Y1657368D01*
X85643990Y1900589D01*
X85755932Y2170842D01*
X85813000Y2457740D01*
X85813000Y2750260D01*
X85755932Y3037158D01*
X85643990Y3307411D01*
X85481475Y3550632D01*
X85274632Y3757475D01*
X85150000Y3840751D01*
X85150000Y5220128D01*
X92765000Y5220128D01*
X92765000Y4779872D01*
X92850890Y4348075D01*
X93019369Y3941331D01*
X93263962Y3575271D01*
X93575271Y3263962D01*
X93941331Y3019369D01*
X94348075Y2850890D01*
X94779872Y2765000D01*
X95220128Y2765000D01*
X95651925Y2850890D01*
X96058669Y3019369D01*
X96424729Y3263962D01*
X96736038Y3575271D01*
X96980631Y3941331D01*
X97149110Y4348075D01*
X97235000Y4779872D01*
X97235000Y5220128D01*
X97149110Y5651925D01*
X96980631Y6058669D01*
X96736038Y6424729D01*
X96424729Y6736038D01*
X96058669Y6980631D01*
X95651925Y7149110D01*
X95220128Y7235000D01*
X94779872Y7235000D01*
X94348075Y7149110D01*
X93941331Y6980631D01*
X93575271Y6736038D01*
X93263962Y6424729D01*
X93019369Y6058669D01*
X92850890Y5651925D01*
X92765000Y5220128D01*
X85150000Y5220128D01*
X85150000Y15302070D01*
X85229759Y15355363D01*
X85429637Y15555241D01*
X85585000Y15787759D01*
X85740363Y15555241D01*
X85940241Y15355363D01*
X86175273Y15198320D01*
X86436426Y15090147D01*
X86713665Y15035000D01*
X86996335Y15035000D01*
X87273574Y15090147D01*
X87534727Y15198320D01*
X87769759Y15355363D01*
X87969637Y15555241D01*
X88126680Y15790273D01*
X88131067Y15800865D01*
X88242615Y15614869D01*
X88431586Y15406481D01*
X88657580Y15238963D01*
X88911913Y15118754D01*
X89045961Y15078096D01*
X89268000Y15200085D01*
X89268000Y16343000D01*
X89248000Y16343000D01*
X89248000Y16597000D01*
X89268000Y16597000D01*
X89268000Y17739915D01*
X89522000Y17739915D01*
X89522000Y16597000D01*
X89542000Y16597000D01*
X89542000Y16343000D01*
X89522000Y16343000D01*
X89522000Y15200085D01*
X89744039Y15078096D01*
X89878087Y15118754D01*
X90132420Y15238963D01*
X90358414Y15406481D01*
X90547385Y15614869D01*
X90658933Y15800865D01*
X90663320Y15790273D01*
X90820363Y15555241D01*
X91020241Y15355363D01*
X91255273Y15198320D01*
X91516426Y15090147D01*
X91793665Y15035000D01*
X92076335Y15035000D01*
X92353574Y15090147D01*
X92614727Y15198320D01*
X92849759Y15355363D01*
X93049637Y15555241D01*
X93206680Y15790273D01*
X93314853Y16051426D01*
X93370000Y16328665D01*
X93370000Y16611335D01*
X93314853Y16888574D01*
X93206680Y17149727D01*
X93049637Y17384759D01*
X92849759Y17584637D01*
X92614727Y17741680D01*
X92353574Y17849853D01*
X92076335Y17905000D01*
X91793665Y17905000D01*
X91516426Y17849853D01*
X91255273Y17741680D01*
X91020241Y17584637D01*
X90820363Y17384759D01*
X90663320Y17149727D01*
X90658933Y17139135D01*
X90547385Y17325131D01*
X90358414Y17533519D01*
X90132420Y17701037D01*
X89878087Y17821246D01*
X89744039Y17861904D01*
X89522000Y17739915D01*
X89268000Y17739915D01*
X89045961Y17861904D01*
X88911913Y17821246D01*
X88657580Y17701037D01*
X88431586Y17533519D01*
X88242615Y17325131D01*
X88131067Y17139135D01*
X88126680Y17149727D01*
X87969637Y17384759D01*
X87769759Y17584637D01*
X87534727Y17741680D01*
X87273574Y17849853D01*
X86996335Y17905000D01*
X86713665Y17905000D01*
X86436426Y17849853D01*
X86175273Y17741680D01*
X85940241Y17584637D01*
X85740363Y17384759D01*
X85585000Y17152241D01*
X85429637Y17384759D01*
X85229759Y17584637D01*
X84994727Y17741680D01*
X84733574Y17849853D01*
X84456335Y17905000D01*
X84173665Y17905000D01*
X83896426Y17849853D01*
X83883856Y17844646D01*
X83959759Y17895363D01*
X84159637Y18095241D01*
X84316680Y18330273D01*
X84424853Y18591426D01*
X84480000Y18868665D01*
X84480000Y19151335D01*
X84424853Y19428574D01*
X84316680Y19689727D01*
X84159637Y19924759D01*
X83959759Y20124637D01*
X83724727Y20281680D01*
X83463574Y20389853D01*
X83186335Y20445000D01*
X82903665Y20445000D01*
X82626426Y20389853D01*
X82365273Y20281680D01*
X82130241Y20124637D01*
X81930363Y19924759D01*
X81775000Y19692241D01*
X81619637Y19924759D01*
X81419759Y20124637D01*
X81184727Y20281680D01*
X80923574Y20389853D01*
X80646335Y20445000D01*
X80363665Y20445000D01*
X80086426Y20389853D01*
X79825273Y20281680D01*
X79590241Y20124637D01*
X79390363Y19924759D01*
X79233320Y19689727D01*
X79125147Y19428574D01*
X79070000Y19151335D01*
X79070000Y18868665D01*
X79125147Y18591426D01*
X79233320Y18330273D01*
X79390363Y18095241D01*
X79590241Y17895363D01*
X79666144Y17844646D01*
X79653574Y17849853D01*
X79376335Y17905000D01*
X79093665Y17905000D01*
X78816426Y17849853D01*
X78555273Y17741680D01*
X78320241Y17584637D01*
X78120363Y17384759D01*
X77993324Y17194632D01*
X77990615Y17194365D01*
X77945914Y17180805D01*
X77809637Y17384759D01*
X77609759Y17584637D01*
X77374727Y17741680D01*
X77113574Y17849853D01*
X76836335Y17905000D01*
X76553665Y17905000D01*
X76276426Y17849853D01*
X76015273Y17741680D01*
X75780241Y17584637D01*
X75580363Y17384759D01*
X75425000Y17152241D01*
X75269637Y17384759D01*
X75069759Y17584637D01*
X74848094Y17732748D01*
X78859336Y21743989D01*
X78888255Y21732010D01*
X79059235Y21698000D01*
X79233565Y21698000D01*
X79404545Y21732010D01*
X79565605Y21798723D01*
X79710555Y21895576D01*
X79833824Y22018845D01*
X79930677Y22163795D01*
X79997390Y22324855D01*
X80031400Y22495835D01*
X80031400Y22670165D01*
X79997390Y22841145D01*
X79930677Y23002205D01*
X79833824Y23147155D01*
X79710555Y23270424D01*
X79565605Y23367277D01*
X79404545Y23433990D01*
X79233565Y23468000D01*
X79059235Y23468000D01*
X78888255Y23433990D01*
X78727195Y23367277D01*
X78658746Y23321541D01*
X78514815Y23307365D01*
X78376266Y23265337D01*
X78297419Y23223192D01*
X78248580Y23197087D01*
X78136662Y23105238D01*
X78113646Y23077193D01*
X78033792Y22997339D01*
X78031777Y23002205D01*
X77934924Y23147155D01*
X77811655Y23270424D01*
X77666705Y23367277D01*
X77505645Y23433990D01*
X77334665Y23468000D01*
X77160335Y23468000D01*
X76989355Y23433990D01*
X76828295Y23367277D01*
X76754547Y23318000D01*
X71106896Y23318000D01*
X71070799Y23321555D01*
X71034702Y23318000D01*
X71034695Y23318000D01*
X70940932Y23308765D01*
X70926714Y23307365D01*
X70884686Y23294616D01*
X70788167Y23265337D01*
X70660480Y23197087D01*
X70548562Y23105238D01*
X70525546Y23077193D01*
X64971375Y17523021D01*
X64909759Y17584637D01*
X64674727Y17741680D01*
X64413574Y17849853D01*
X64136335Y17905000D01*
X63853665Y17905000D01*
X63576426Y17849853D01*
X63315273Y17741680D01*
X63080241Y17584637D01*
X62880363Y17384759D01*
X62723320Y17149727D01*
X62615147Y16888574D01*
X62560000Y16611335D01*
X62560000Y16328665D01*
X62609065Y16082000D01*
X60002747Y16082000D01*
X59740558Y16344188D01*
X59717538Y16372238D01*
X59605620Y16464087D01*
X59477933Y16532337D01*
X59339385Y16574365D01*
X59334702Y16574826D01*
X59293932Y16651101D01*
X59114608Y16869608D01*
X58896101Y17048932D01*
X58763142Y17120000D01*
X58896101Y17191068D01*
X59114608Y17370392D01*
X59293932Y17588899D01*
X59427182Y17838192D01*
X59509236Y18108691D01*
X59536943Y18390000D01*
X59509236Y18671309D01*
X59427182Y18941808D01*
X59293932Y19191101D01*
X59114608Y19409608D01*
X58896101Y19588932D01*
X58763142Y19660000D01*
X58896101Y19731068D01*
X59114608Y19910392D01*
X59293932Y20128899D01*
X59427182Y20378192D01*
X59509236Y20648691D01*
X59536943Y20930000D01*
X59509236Y21211309D01*
X59427182Y21481808D01*
X59293932Y21731101D01*
X59114608Y21949608D01*
X58896101Y22128932D01*
X58768259Y22197265D01*
X58997839Y22347399D01*
X59199500Y22545105D01*
X59358715Y22778354D01*
X59469367Y23038182D01*
X59486904Y23120961D01*
X59364915Y23343000D01*
X57822000Y23343000D01*
X57822000Y23323000D01*
X57568000Y23323000D01*
X57568000Y23343000D01*
X56025085Y23343000D01*
X55903096Y23120961D01*
X55920633Y23038182D01*
X56031285Y22778354D01*
X56190500Y22545105D01*
X56392161Y22347399D01*
X56621741Y22197265D01*
X56493899Y22128932D01*
X56275392Y21949608D01*
X56096068Y21731101D01*
X56055298Y21654826D01*
X56050615Y21654365D01*
X55912067Y21612337D01*
X55784380Y21544087D01*
X55672462Y21452238D01*
X55649446Y21424193D01*
X54620254Y20395000D01*
X44192281Y20395000D01*
X44269236Y20648691D01*
X44296943Y20930000D01*
X44269236Y21211309D01*
X44187182Y21481808D01*
X44053932Y21731101D01*
X43874608Y21949608D01*
X43656101Y22128932D01*
X43523142Y22200000D01*
X43656101Y22271068D01*
X43874608Y22450392D01*
X44053932Y22668899D01*
X44187182Y22918192D01*
X44269236Y23188691D01*
X44296943Y23470000D01*
X44269236Y23751309D01*
X44187182Y24021808D01*
X44053932Y24271101D01*
X43874608Y24489608D01*
X43656101Y24668932D01*
X43523142Y24740000D01*
X43656101Y24811068D01*
X43874608Y24990392D01*
X44053932Y25208899D01*
X44187182Y25458192D01*
X44269236Y25728691D01*
X44296943Y26010000D01*
X44269236Y26291309D01*
X44187182Y26561808D01*
X44053932Y26811101D01*
X43874608Y27029608D01*
X43656101Y27208932D01*
X43523142Y27280000D01*
X43656101Y27351068D01*
X43874608Y27530392D01*
X44053932Y27748899D01*
X44187182Y27998192D01*
X44269236Y28268691D01*
X44296943Y28550000D01*
X44269236Y28831309D01*
X44187182Y29101808D01*
X44053932Y29351101D01*
X43874608Y29569608D01*
X43656101Y29748932D01*
X43523142Y29820000D01*
X43656101Y29891068D01*
X43874608Y30070392D01*
X44053932Y30288899D01*
X44187182Y30538192D01*
X44269236Y30808691D01*
X44296943Y31090000D01*
X44269236Y31371309D01*
X44187182Y31641808D01*
X44053932Y31891101D01*
X43874608Y32109608D01*
X43656101Y32288932D01*
X43523142Y32360000D01*
X43656101Y32431068D01*
X43874608Y32610392D01*
X44053932Y32828899D01*
X44187182Y33078192D01*
X44269236Y33348691D01*
X44296943Y33630000D01*
X44269236Y33911309D01*
X44192281Y34165000D01*
X47897254Y34165000D01*
X55276446Y26785807D01*
X55299462Y26757762D01*
X55411380Y26665913D01*
X55539067Y26597663D01*
X55677615Y26555635D01*
X55785595Y26545000D01*
X55785604Y26545000D01*
X55821699Y26541445D01*
X55857794Y26545000D01*
X55957719Y26545000D01*
X55880764Y26291309D01*
X55853057Y26010000D01*
X55880764Y25728691D01*
X55962818Y25458192D01*
X56096068Y25208899D01*
X56275392Y24990392D01*
X56493899Y24811068D01*
X56621741Y24742735D01*
X56392161Y24592601D01*
X56190500Y24394895D01*
X56031285Y24161646D01*
X55920633Y23901818D01*
X55903096Y23819039D01*
X56025085Y23597000D01*
X57568000Y23597000D01*
X57568000Y23617000D01*
X57822000Y23617000D01*
X57822000Y23597000D01*
X59364915Y23597000D01*
X59486904Y23819039D01*
X59469367Y23901818D01*
X59358715Y24161646D01*
X59199500Y24394895D01*
X58997839Y24592601D01*
X58768259Y24742735D01*
X58896101Y24811068D01*
X59114608Y24990392D01*
X59293932Y25208899D01*
X59427182Y25458192D01*
X59509236Y25728691D01*
X59536943Y26010000D01*
X59509236Y26291309D01*
X59432281Y26545000D01*
X61367354Y26545000D01*
X63931646Y23980707D01*
X63954662Y23952662D01*
X64066580Y23860813D01*
X64194267Y23792563D01*
X64332815Y23750535D01*
X64440795Y23739900D01*
X64440804Y23739900D01*
X64476899Y23736345D01*
X64512994Y23739900D01*
X78711495Y23739900D01*
X78747600Y23736344D01*
X78783705Y23739900D01*
X78891685Y23750535D01*
X79030233Y23792563D01*
X79157920Y23860813D01*
X79269838Y23952662D01*
X79292859Y23980713D01*
X85923875Y30611729D01*
X85940241Y30595363D01*
X86175273Y30438320D01*
X86436426Y30330147D01*
X86713665Y30275000D01*
X86996335Y30275000D01*
X87273574Y30330147D01*
X87534727Y30438320D01*
X87769759Y30595363D01*
X87969637Y30795241D01*
X88125000Y31027759D01*
X88280363Y30795241D01*
X88480241Y30595363D01*
X88715273Y30438320D01*
X88976426Y30330147D01*
X89253665Y30275000D01*
X89536335Y30275000D01*
X89813574Y30330147D01*
X90074727Y30438320D01*
X90309759Y30595363D01*
X90508357Y30793961D01*
X90509188Y30785518D01*
X90545498Y30665820D01*
X90604463Y30555506D01*
X90683815Y30458815D01*
X90780506Y30379463D01*
X90890820Y30320498D01*
X91010518Y30284188D01*
X91135000Y30271928D01*
X92735000Y30271928D01*
X92859482Y30284188D01*
X92979180Y30320498D01*
X93089494Y30379463D01*
X93186185Y30458815D01*
X93265537Y30555506D01*
X93324502Y30665820D01*
X93360812Y30785518D01*
X93373072Y30910000D01*
X93373072Y32510000D01*
X93360812Y32634482D01*
X93324502Y32754180D01*
X93265537Y32864494D01*
X93186185Y32961185D01*
X93089494Y33040537D01*
X92979180Y33099502D01*
X92859482Y33135812D01*
X92735000Y33148072D01*
X91135000Y33148072D01*
X91010518Y33135812D01*
X90890820Y33099502D01*
X90780506Y33040537D01*
X90683815Y32961185D01*
X90604463Y32864494D01*
X90545498Y32754180D01*
X90509188Y32634482D01*
X90508357Y32626039D01*
X90309759Y32824637D01*
X90074727Y32981680D01*
X89813574Y33089853D01*
X89536335Y33145000D01*
X89253665Y33145000D01*
X88976426Y33089853D01*
X88715273Y32981680D01*
X88480241Y32824637D01*
X88280363Y32624759D01*
X88125000Y32392241D01*
X87969637Y32624759D01*
X87769759Y32824637D01*
X87534727Y32981680D01*
X87273574Y33089853D01*
X86996335Y33145000D01*
X86713665Y33145000D01*
X86436426Y33089853D01*
X86175273Y32981680D01*
X85940241Y32824637D01*
X85740363Y32624759D01*
X85613324Y32434632D01*
X85610615Y32434365D01*
X85565914Y32420805D01*
X85429637Y32624759D01*
X85229759Y32824637D01*
X84994727Y32981680D01*
X84733574Y33089853D01*
X84456335Y33145000D01*
X84173665Y33145000D01*
X83896426Y33089853D01*
X83635273Y32981680D01*
X83400241Y32824637D01*
X83339925Y32764321D01*
X74047986Y42056260D01*
X92495000Y42056260D01*
X92495000Y41763740D01*
X92552068Y41476842D01*
X92664010Y41206589D01*
X92826525Y40963368D01*
X93033368Y40756525D01*
X93276589Y40594010D01*
X93546842Y40482068D01*
X93833740Y40425000D01*
X94126260Y40425000D01*
X94413158Y40482068D01*
X94683411Y40594010D01*
X94926632Y40756525D01*
X95133475Y40963368D01*
X95250000Y41137760D01*
X95366525Y40963368D01*
X95573368Y40756525D01*
X95816589Y40594010D01*
X96086842Y40482068D01*
X96373740Y40425000D01*
X96666260Y40425000D01*
X96953158Y40482068D01*
X97223411Y40594010D01*
X97466632Y40756525D01*
X97673475Y40963368D01*
X97835990Y41206589D01*
X97947932Y41476842D01*
X98005000Y41763740D01*
X98005000Y42056260D01*
X97947932Y42343158D01*
X97835990Y42613411D01*
X97673475Y42856632D01*
X97466632Y43063475D01*
X97223411Y43225990D01*
X96953158Y43337932D01*
X96666260Y43395000D01*
X96373740Y43395000D01*
X96086842Y43337932D01*
X95816589Y43225990D01*
X95573368Y43063475D01*
X95366525Y42856632D01*
X95250000Y42682240D01*
X95133475Y42856632D01*
X94926632Y43063475D01*
X94683411Y43225990D01*
X94413158Y43337932D01*
X94126260Y43395000D01*
X93833740Y43395000D01*
X93546842Y43337932D01*
X93276589Y43225990D01*
X93033368Y43063475D01*
X92826525Y42856632D01*
X92664010Y42613411D01*
X92552068Y42343158D01*
X92495000Y42056260D01*
X74047986Y42056260D01*
X69864614Y46239632D01*
X69895990Y46286589D01*
X70007932Y46556842D01*
X70065000Y46843740D01*
X70065000Y47136260D01*
X70007932Y47423158D01*
X69895990Y47693411D01*
X69733475Y47936632D01*
X69526632Y48143475D01*
X69352240Y48260000D01*
X69526632Y48376525D01*
X69733475Y48583368D01*
X69895990Y48826589D01*
X70007932Y49096842D01*
X70065000Y49383740D01*
X70065000Y49676260D01*
X70007932Y49963158D01*
X69895990Y50233411D01*
X69733475Y50476632D01*
X69526632Y50683475D01*
X69352240Y50800000D01*
X69526632Y50916525D01*
X69733475Y51123368D01*
X69895990Y51366589D01*
X70007932Y51636842D01*
X70065000Y51923740D01*
X70065000Y52216260D01*
X70007932Y52503158D01*
X69895990Y52773411D01*
X69733475Y53016632D01*
X69711077Y53039030D01*
X77454198Y60782151D01*
X77482237Y60805162D01*
X77505250Y60833203D01*
X77505253Y60833206D01*
X77574086Y60917079D01*
X77574087Y60917080D01*
X77642337Y61044767D01*
X77684365Y61183315D01*
X77695000Y61291295D01*
X77695000Y61291304D01*
X77698555Y61327399D01*
X77695000Y61363494D01*
X77695000Y62376260D01*
X92495000Y62376260D01*
X92495000Y62083740D01*
X92552068Y61796842D01*
X92664010Y61526589D01*
X92826525Y61283368D01*
X93033368Y61076525D01*
X93276589Y60914010D01*
X93546842Y60802068D01*
X93833740Y60745000D01*
X94126260Y60745000D01*
X94413158Y60802068D01*
X94683411Y60914010D01*
X94926632Y61076525D01*
X95133475Y61283368D01*
X95250000Y61457760D01*
X95366525Y61283368D01*
X95573368Y61076525D01*
X95816589Y60914010D01*
X96086842Y60802068D01*
X96373740Y60745000D01*
X96666260Y60745000D01*
X96953158Y60802068D01*
X97223411Y60914010D01*
X97466632Y61076525D01*
X97673475Y61283368D01*
X97835990Y61526589D01*
X97947932Y61796842D01*
X98005000Y62083740D01*
X98005000Y62376260D01*
X97947932Y62663158D01*
X97835990Y62933411D01*
X97673475Y63176632D01*
X97466632Y63383475D01*
X97223411Y63545990D01*
X96953158Y63657932D01*
X96666260Y63715000D01*
X96373740Y63715000D01*
X96086842Y63657932D01*
X95816589Y63545990D01*
X95573368Y63383475D01*
X95366525Y63176632D01*
X95250000Y63002240D01*
X95133475Y63176632D01*
X94926632Y63383475D01*
X94683411Y63545990D01*
X94413158Y63657932D01*
X94126260Y63715000D01*
X93833740Y63715000D01*
X93546842Y63657932D01*
X93276589Y63545990D01*
X93033368Y63383475D01*
X92826525Y63176632D01*
X92664010Y62933411D01*
X92552068Y62663158D01*
X92495000Y62376260D01*
X77695000Y62376260D01*
X77695000Y74200736D01*
X77761101Y74236068D01*
X77979608Y74415392D01*
X78158932Y74633899D01*
X78227265Y74761741D01*
X78377399Y74532161D01*
X78575105Y74330500D01*
X78808354Y74171285D01*
X79068182Y74060633D01*
X79150961Y74043096D01*
X79373000Y74165085D01*
X79373000Y75708000D01*
X79627000Y75708000D01*
X79627000Y74165085D01*
X79849039Y74043096D01*
X79931818Y74060633D01*
X80191646Y74171285D01*
X80424895Y74330500D01*
X80622601Y74532161D01*
X80777166Y74768517D01*
X80882650Y75030486D01*
X80935000Y75308000D01*
X80935000Y75708000D01*
X79627000Y75708000D01*
X79373000Y75708000D01*
X79353000Y75708000D01*
X79353000Y75962000D01*
X79373000Y75962000D01*
X79373000Y77504915D01*
X79627000Y77504915D01*
X79627000Y75962000D01*
X80935000Y75962000D01*
X80935000Y76362000D01*
X80882650Y76639514D01*
X80777166Y76901483D01*
X80622601Y77137839D01*
X80424895Y77339500D01*
X80191646Y77498715D01*
X79931818Y77609367D01*
X79849039Y77626904D01*
X79627000Y77504915D01*
X79373000Y77504915D01*
X79150961Y77626904D01*
X79068182Y77609367D01*
X78808354Y77498715D01*
X78575105Y77339500D01*
X78377399Y77137839D01*
X78227265Y76908259D01*
X78158932Y77036101D01*
X77979607Y77254608D01*
X77761100Y77433932D01*
X77511807Y77567182D01*
X77241308Y77649236D01*
X76960000Y77676943D01*
X76678691Y77649236D01*
X76408192Y77567182D01*
X76158899Y77433932D01*
X75940392Y77254607D01*
X75761068Y77036100D01*
X75690000Y76903142D01*
X75618932Y77036101D01*
X75439607Y77254608D01*
X75221100Y77433932D01*
X74971807Y77567182D01*
X74701308Y77649236D01*
X74420000Y77676943D01*
X74138691Y77649236D01*
X73868192Y77567182D01*
X73618899Y77433932D01*
X73400392Y77254607D01*
X73221068Y77036100D01*
X73150000Y76903142D01*
X73078932Y77036101D01*
X72899607Y77254608D01*
X72681100Y77433932D01*
X72431807Y77567182D01*
X72161308Y77649236D01*
X71880000Y77676943D01*
X71598691Y77649236D01*
X71328192Y77567182D01*
X71078899Y77433932D01*
X70860392Y77254607D01*
X70681068Y77036100D01*
X70610000Y76903142D01*
X70538932Y77036101D01*
X70359607Y77254608D01*
X70141100Y77433932D01*
X69891807Y77567182D01*
X69621308Y77649236D01*
X69340000Y77676943D01*
X69058691Y77649236D01*
X68788192Y77567182D01*
X68538899Y77433932D01*
X68320392Y77254607D01*
X68141068Y77036100D01*
X68070000Y76903142D01*
X67998932Y77036101D01*
X67819607Y77254608D01*
X67601100Y77433932D01*
X67351807Y77567182D01*
X67081308Y77649236D01*
X66800000Y77676943D01*
X66518691Y77649236D01*
X66248192Y77567182D01*
X65998899Y77433932D01*
X65780392Y77254607D01*
X65601068Y77036100D01*
X65530000Y76903142D01*
X65458932Y77036101D01*
X65279607Y77254608D01*
X65061100Y77433932D01*
X64956101Y77490055D01*
X76305747Y88839700D01*
X79463895Y88839700D01*
X79500000Y88836144D01*
X79536105Y88839700D01*
X79644085Y88850335D01*
X79782633Y88892363D01*
X79910320Y88960613D01*
X80022238Y89052462D01*
X80114087Y89164380D01*
X80182337Y89292067D01*
X80224365Y89430615D01*
X80224826Y89435298D01*
X80301101Y89476068D01*
X80519608Y89655392D01*
X80698932Y89873899D01*
X80832182Y90123192D01*
X80914236Y90393691D01*
X80935000Y90604509D01*
X80935000Y91545492D01*
X80914236Y91756309D01*
X80832182Y92026808D01*
X80698932Y92276101D01*
X80519607Y92494608D01*
X80301100Y92673932D01*
X80051807Y92807182D01*
X79781308Y92889236D01*
X79500000Y92916943D01*
X79218691Y92889236D01*
X78948192Y92807182D01*
X78698899Y92673932D01*
X78480392Y92494607D01*
X78301068Y92276100D01*
X78230000Y92143142D01*
X78158932Y92276101D01*
X77979607Y92494608D01*
X77761100Y92673932D01*
X77511807Y92807182D01*
X77241308Y92889236D01*
X76960000Y92916943D01*
X76678691Y92889236D01*
X76408192Y92807182D01*
X76158899Y92673932D01*
X75940392Y92494607D01*
X75761068Y92276100D01*
X75690000Y92143142D01*
X75618932Y92276101D01*
X75439607Y92494608D01*
X75221100Y92673932D01*
X74971807Y92807182D01*
X74701308Y92889236D01*
X74420000Y92916943D01*
X74138691Y92889236D01*
X73868192Y92807182D01*
X73618899Y92673932D01*
X73400392Y92494607D01*
X73221068Y92276100D01*
X73150000Y92143142D01*
X73078932Y92276101D01*
X72899607Y92494608D01*
X72681100Y92673932D01*
X72431807Y92807182D01*
X72161308Y92889236D01*
X71880000Y92916943D01*
X71598691Y92889236D01*
X71328192Y92807182D01*
X71078899Y92673932D01*
X70860392Y92494607D01*
X70681068Y92276100D01*
X70610000Y92143142D01*
X70538932Y92276101D01*
X70359607Y92494608D01*
X70141100Y92673932D01*
X69891807Y92807182D01*
X69621308Y92889236D01*
X69340000Y92916943D01*
X69058691Y92889236D01*
X68788192Y92807182D01*
X68538899Y92673932D01*
X68320392Y92494607D01*
X68141068Y92276100D01*
X68070000Y92143142D01*
X67998932Y92276101D01*
X67819607Y92494608D01*
X67601100Y92673932D01*
X67524826Y92714701D01*
X67524365Y92719385D01*
X67482337Y92857933D01*
X67414087Y92985620D01*
X67322238Y93097538D01*
X67210320Y93189387D01*
X67082633Y93257637D01*
X66944085Y93299665D01*
X66836105Y93310300D01*
X66800000Y93313856D01*
X66763895Y93310300D01*
X30906705Y93310300D01*
X30870600Y93313856D01*
X30834495Y93310300D01*
X30726515Y93299665D01*
X30587967Y93257637D01*
X30460280Y93189387D01*
X30348362Y93097538D01*
X30325346Y93069493D01*
X27527038Y90271184D01*
X27499608Y90304608D01*
X27281101Y90483932D01*
X27031808Y90617182D01*
X26761309Y90699236D01*
X26550492Y90720000D01*
X25609508Y90720000D01*
X25398691Y90699236D01*
X25128192Y90617182D01*
X24878899Y90483932D01*
X24660392Y90304608D01*
X24481068Y90086101D01*
X24347818Y89836808D01*
X24265764Y89566309D01*
X24238057Y89285000D01*
X24265764Y89003691D01*
X24347818Y88733192D01*
X24481068Y88483899D01*
X24660392Y88265392D01*
X24878899Y88086068D01*
X25011858Y88015000D01*
X24878899Y87943932D01*
X24660392Y87764608D01*
X24481068Y87546101D01*
X24347818Y87296808D01*
X24265764Y87026309D01*
X24238057Y86745000D01*
X24265764Y86463691D01*
X24347818Y86193192D01*
X24481068Y85943899D01*
X24660392Y85725392D01*
X24878899Y85546068D01*
X25011858Y85475000D01*
X24878899Y85403932D01*
X24660392Y85224608D01*
X24481068Y85006101D01*
X24347818Y84756808D01*
X24265764Y84486309D01*
X24238057Y84205000D01*
X24265764Y83923691D01*
X24347818Y83653192D01*
X24481068Y83403899D01*
X24660392Y83185392D01*
X24878899Y83006068D01*
X25011858Y82935000D01*
X24878899Y82863932D01*
X24660392Y82684608D01*
X24481068Y82466101D01*
X24347818Y82216808D01*
X24265764Y81946309D01*
X24238057Y81665000D01*
X24265764Y81383691D01*
X24347818Y81113192D01*
X24481068Y80863899D01*
X24660392Y80645392D01*
X24878899Y80466068D01*
X25011858Y80395000D01*
X24878899Y80323932D01*
X24660392Y80144608D01*
X24481068Y79926101D01*
X24347818Y79676808D01*
X24265764Y79406309D01*
X24238057Y79125000D01*
X24265764Y78843691D01*
X24347818Y78573192D01*
X24481068Y78323899D01*
X24660392Y78105392D01*
X24878899Y77926068D01*
X25011858Y77855000D01*
X24878899Y77783932D01*
X24660392Y77604608D01*
X24481068Y77386101D01*
X24347818Y77136808D01*
X24265764Y76866309D01*
X24238057Y76585000D01*
X24265764Y76303691D01*
X24347818Y76033192D01*
X24481068Y75783899D01*
X24660392Y75565392D01*
X24878899Y75386068D01*
X25011858Y75315000D01*
X24878899Y75243932D01*
X24660392Y75064608D01*
X24481068Y74846101D01*
X24347818Y74596808D01*
X24265764Y74326309D01*
X24238057Y74045000D01*
X24265764Y73763691D01*
X24347818Y73493192D01*
X24481068Y73243899D01*
X24660392Y73025392D01*
X24878899Y72846068D01*
X25128192Y72712818D01*
X25330140Y72651558D01*
X25379436Y72559333D01*
X25382365Y72553854D01*
X25486710Y72426709D01*
X25518574Y72400559D01*
X27198714Y70720418D01*
X27180000Y70626335D01*
X27180000Y70343665D01*
X27235147Y70066426D01*
X27343320Y69805273D01*
X27500363Y69570241D01*
X27700241Y69370363D01*
X27783098Y69315000D01*
X12180748Y69315000D01*
X12222932Y69416842D01*
X12280000Y69703740D01*
X12280000Y69996260D01*
X12222932Y70283158D01*
X12110990Y70553411D01*
X11948475Y70796632D01*
X11741632Y71003475D01*
X11567240Y71120000D01*
X11741632Y71236525D01*
X11948475Y71443368D01*
X12110990Y71686589D01*
X12222932Y71956842D01*
X12280000Y72243740D01*
X12280000Y72536260D01*
X12222932Y72823158D01*
X12110990Y73093411D01*
X11948475Y73336632D01*
X11741632Y73543475D01*
X11567240Y73660000D01*
X11741632Y73776525D01*
X11948475Y73983368D01*
X12110990Y74226589D01*
X12222932Y74496842D01*
X12280000Y74783740D01*
X12280000Y75076260D01*
X12222932Y75363158D01*
X12110990Y75633411D01*
X11948475Y75876632D01*
X11741632Y76083475D01*
X11567240Y76200000D01*
X11741632Y76316525D01*
X11948475Y76523368D01*
X12110990Y76766589D01*
X12222932Y77036842D01*
X12280000Y77323740D01*
X12280000Y77616260D01*
X12222932Y77903158D01*
X12110990Y78173411D01*
X11948475Y78416632D01*
X11741632Y78623475D01*
X11567240Y78740000D01*
X11741632Y78856525D01*
X11948475Y79063368D01*
X12110990Y79306589D01*
X12222932Y79576842D01*
X12280000Y79863740D01*
X12280000Y80156260D01*
X12222932Y80443158D01*
X12110990Y80713411D01*
X11948475Y80956632D01*
X11741632Y81163475D01*
X11498411Y81325990D01*
X11228158Y81437932D01*
X10941260Y81495000D01*
X10648740Y81495000D01*
X10361842Y81437932D01*
X10091589Y81325990D01*
X9848368Y81163475D01*
X9641525Y80956632D01*
X9525000Y80782240D01*
X9408475Y80956632D01*
X9201632Y81163475D01*
X8958411Y81325990D01*
X8688158Y81437932D01*
X8401260Y81495000D01*
X8108740Y81495000D01*
X7821842Y81437932D01*
X7551589Y81325990D01*
X7308368Y81163475D01*
X7101525Y80956632D01*
X6983900Y80780594D01*
X6812588Y81010269D01*
X6596355Y81205178D01*
X6346252Y81354157D01*
X6071891Y81451481D01*
X5842000Y81330814D01*
X5842000Y80137000D01*
X5862000Y80137000D01*
X5862000Y79883000D01*
X5842000Y79883000D01*
X5842000Y77597000D01*
X5862000Y77597000D01*
X5862000Y77343000D01*
X5842000Y77343000D01*
X5842000Y77323000D01*
X5588000Y77323000D01*
X5588000Y77343000D01*
X4394845Y77343000D01*
X4273524Y77113110D01*
X4318175Y76965901D01*
X4443359Y76703080D01*
X4617412Y76469731D01*
X4833645Y76274822D01*
X4950534Y76205195D01*
X4768368Y76083475D01*
X4561525Y75876632D01*
X4399010Y75633411D01*
X4287068Y75363158D01*
X4230000Y75076260D01*
X4230000Y74783740D01*
X4287068Y74496842D01*
X4399010Y74226589D01*
X4561525Y73983368D01*
X4768368Y73776525D01*
X4942760Y73660000D01*
X4768368Y73543475D01*
X4561525Y73336632D01*
X4399010Y73093411D01*
X4287068Y72823158D01*
X4230000Y72536260D01*
X4230000Y72243740D01*
X4287068Y71956842D01*
X4399010Y71686589D01*
X4561525Y71443368D01*
X4768368Y71236525D01*
X4942760Y71120000D01*
X4768368Y71003475D01*
X4561525Y70796632D01*
X4399010Y70553411D01*
X4287068Y70283158D01*
X4230000Y69996260D01*
X4230000Y69703740D01*
X4287068Y69416842D01*
X4399010Y69146589D01*
X4561525Y68903368D01*
X4768368Y68696525D01*
X4942760Y68580000D01*
X4768368Y68463475D01*
X4561525Y68256632D01*
X4399010Y68013411D01*
X4287068Y67743158D01*
X4230000Y67456260D01*
X4230000Y67163740D01*
X4287068Y66876842D01*
X4399010Y66606589D01*
X4561525Y66363368D01*
X4577323Y66347570D01*
X3650308Y65420554D01*
X3622263Y65397538D01*
X3530414Y65285620D01*
X3474945Y65181844D01*
X3462164Y65157933D01*
X3420135Y65019385D01*
X3405944Y64875300D01*
X660000Y64875300D01*
X660000Y79653110D01*
X4273524Y79653110D01*
X4318175Y79505901D01*
X4443359Y79243080D01*
X4617412Y79009731D01*
X4833645Y78814822D01*
X4959255Y78740000D01*
X4833645Y78665178D01*
X4617412Y78470269D01*
X4443359Y78236920D01*
X4318175Y77974099D01*
X4273524Y77826890D01*
X4394845Y77597000D01*
X5588000Y77597000D01*
X5588000Y79883000D01*
X4394845Y79883000D01*
X4273524Y79653110D01*
X660000Y79653110D01*
X660000Y80366890D01*
X4273524Y80366890D01*
X4394845Y80137000D01*
X5588000Y80137000D01*
X5588000Y81330814D01*
X5358109Y81451481D01*
X5083748Y81354157D01*
X4833645Y81205178D01*
X4617412Y81010269D01*
X4443359Y80776920D01*
X4318175Y80514099D01*
X4273524Y80366890D01*
X660000Y80366890D01*
X660000Y95220128D01*
X2765000Y95220128D01*
X2765000Y94779872D01*
X2850890Y94348075D01*
X3019369Y93941331D01*
X3263962Y93575271D01*
X3575271Y93263962D01*
X3941331Y93019369D01*
X4348075Y92850890D01*
X4779872Y92765000D01*
X5220128Y92765000D01*
X5651925Y92850890D01*
X6058669Y93019369D01*
X6424729Y93263962D01*
X6736038Y93575271D01*
X6980631Y93941331D01*
X7149110Y94348075D01*
X7235000Y94779872D01*
X7235000Y95220128D01*
X92765000Y95220128D01*
X92765000Y94779872D01*
X92850890Y94348075D01*
X93019369Y93941331D01*
X93263962Y93575271D01*
X93575271Y93263962D01*
X93941331Y93019369D01*
X94348075Y92850890D01*
X94779872Y92765000D01*
X95220128Y92765000D01*
X95651925Y92850890D01*
X96058669Y93019369D01*
X96424729Y93263962D01*
X96736038Y93575271D01*
X96980631Y93941331D01*
X97149110Y94348075D01*
X97235000Y94779872D01*
X97235000Y95220128D01*
X97149110Y95651925D01*
X96980631Y96058669D01*
X96736038Y96424729D01*
X96424729Y96736038D01*
X96058669Y96980631D01*
X95651925Y97149110D01*
X95220128Y97235000D01*
X94779872Y97235000D01*
X94348075Y97149110D01*
X93941331Y96980631D01*
X93575271Y96736038D01*
X93263962Y96424729D01*
X93019369Y96058669D01*
X92850890Y95651925D01*
X92765000Y95220128D01*
X7235000Y95220128D01*
X7149110Y95651925D01*
X6980631Y96058669D01*
X6736038Y96424729D01*
X6424729Y96736038D01*
X6058669Y96980631D01*
X5651925Y97149110D01*
X5220128Y97235000D01*
X4779872Y97235000D01*
X4348075Y97149110D01*
X3941331Y96980631D01*
X3575271Y96736038D01*
X3263962Y96424729D01*
X3019369Y96058669D01*
X2850890Y95651925D01*
X2765000Y95220128D01*
X660000Y95220128D01*
X660000Y99340000D01*
X99340001Y99340000D01*
X99340000Y660000D01*
G37*
G04 #@! TD.AperFunction*
D22*
X31772818Y24326808D02*
X31690764Y24056309D01*
X31663057Y23775000D01*
X31690764Y23493691D01*
X31772818Y23223192D01*
X31818140Y23138400D01*
X27572157Y23138400D01*
X27659367Y23343182D01*
X27676904Y23425961D01*
X27554915Y23648000D01*
X26012000Y23648000D01*
X26012000Y23628000D01*
X25758000Y23628000D01*
X25758000Y23648000D01*
X24215085Y23648000D01*
X24093096Y23425961D01*
X24110633Y23343182D01*
X24197843Y23138400D01*
X12794794Y23138400D01*
X12758699Y23141955D01*
X12722604Y23138400D01*
X12722595Y23138400D01*
X12614615Y23127765D01*
X12476067Y23085737D01*
X12348380Y23017487D01*
X12236462Y22925638D01*
X12213446Y22897593D01*
X11900480Y22584627D01*
X11741632Y22743475D01*
X11567240Y22860000D01*
X11741632Y22976525D01*
X11948475Y23183368D01*
X12098922Y23408528D01*
X12227933Y23447663D01*
X12355620Y23515913D01*
X12467538Y23607762D01*
X12490558Y23635812D01*
X12995047Y24140300D01*
X24096541Y24140300D01*
X24093096Y24124039D01*
X24215085Y23902000D01*
X25758000Y23902000D01*
X25758000Y23922000D01*
X26012000Y23922000D01*
X26012000Y23902000D01*
X27554915Y23902000D01*
X27676904Y24124039D01*
X27673459Y24140300D01*
X31077295Y24140300D01*
X31113400Y24136744D01*
X31149505Y24140300D01*
X31257485Y24150935D01*
X31396033Y24192963D01*
X31523720Y24261213D01*
X31635638Y24353062D01*
X31652001Y24373000D01*
X31797508Y24373000D01*
X31772818Y24326808D01*
G04 #@! TA.AperFunction,Conductor*
D23*
G36*
X31772818Y24326808D02*
G01*
X31690764Y24056309D01*
X31663057Y23775000D01*
X31690764Y23493691D01*
X31772818Y23223192D01*
X31818140Y23138400D01*
X27572157Y23138400D01*
X27659367Y23343182D01*
X27676904Y23425961D01*
X27554915Y23648000D01*
X26012000Y23648000D01*
X26012000Y23628000D01*
X25758000Y23628000D01*
X25758000Y23648000D01*
X24215085Y23648000D01*
X24093096Y23425961D01*
X24110633Y23343182D01*
X24197843Y23138400D01*
X12794794Y23138400D01*
X12758699Y23141955D01*
X12722604Y23138400D01*
X12722595Y23138400D01*
X12614615Y23127765D01*
X12476067Y23085737D01*
X12348380Y23017487D01*
X12236462Y22925638D01*
X12213446Y22897593D01*
X11900480Y22584627D01*
X11741632Y22743475D01*
X11567240Y22860000D01*
X11741632Y22976525D01*
X11948475Y23183368D01*
X12098922Y23408528D01*
X12227933Y23447663D01*
X12355620Y23515913D01*
X12467538Y23607762D01*
X12490558Y23635812D01*
X12995047Y24140300D01*
X24096541Y24140300D01*
X24093096Y24124039D01*
X24215085Y23902000D01*
X25758000Y23902000D01*
X25758000Y23922000D01*
X26012000Y23922000D01*
X26012000Y23902000D01*
X27554915Y23902000D01*
X27676904Y24124039D01*
X27673459Y24140300D01*
X31077295Y24140300D01*
X31113400Y24136744D01*
X31149505Y24140300D01*
X31257485Y24150935D01*
X31396033Y24192963D01*
X31523720Y24261213D01*
X31635638Y24353062D01*
X31652001Y24373000D01*
X31797508Y24373000D01*
X31772818Y24326808D01*
G37*
G04 #@! TD.AperFunction*
D22*
X40856068Y32828899D02*
X41035392Y32610392D01*
X41253899Y32431068D01*
X41386858Y32360000D01*
X41253899Y32288932D01*
X41035392Y32109608D01*
X40856068Y31891101D01*
X40815298Y31814826D01*
X40810615Y31814365D01*
X40672067Y31772337D01*
X40544380Y31704087D01*
X40432462Y31612238D01*
X40409446Y31584193D01*
X39800654Y30975400D01*
X35281955Y30975400D01*
X35296904Y31045961D01*
X35174915Y31268000D01*
X33632000Y31268000D01*
X33632000Y31248000D01*
X33378000Y31248000D01*
X33378000Y31268000D01*
X31835085Y31268000D01*
X31713096Y31045961D01*
X31728045Y30975400D01*
X27657286Y30975400D01*
X27699236Y31113691D01*
X27726943Y31395000D01*
X27699236Y31676309D01*
X27678691Y31744039D01*
X31713096Y31744039D01*
X31835085Y31522000D01*
X33378000Y31522000D01*
X33378000Y32830000D01*
X33632000Y32830000D01*
X33632000Y31522000D01*
X35174915Y31522000D01*
X35296904Y31744039D01*
X35279367Y31826818D01*
X35168715Y32086646D01*
X35009500Y32319895D01*
X34807839Y32517601D01*
X34571483Y32672166D01*
X34309514Y32777650D01*
X34032000Y32830000D01*
X33632000Y32830000D01*
X33378000Y32830000D01*
X32978000Y32830000D01*
X32700486Y32777650D01*
X32438517Y32672166D01*
X32202161Y32517601D01*
X32000500Y32319895D01*
X31841285Y32086646D01*
X31730633Y31826818D01*
X31713096Y31744039D01*
X27678691Y31744039D01*
X27617182Y31946808D01*
X27483932Y32196101D01*
X27304608Y32414608D01*
X27086101Y32593932D01*
X26836808Y32727182D01*
X26566309Y32809236D01*
X26355492Y32830000D01*
X25414508Y32830000D01*
X25203691Y32809236D01*
X24933192Y32727182D01*
X24683899Y32593932D01*
X24465392Y32414608D01*
X24286068Y32196101D01*
X24152818Y31946808D01*
X24070764Y31676309D01*
X24043057Y31395000D01*
X24070764Y31113691D01*
X24112714Y30975400D01*
X13011805Y30975400D01*
X12975700Y30978956D01*
X12831615Y30964765D01*
X12693066Y30922737D01*
X12590498Y30867913D01*
X12565380Y30854487D01*
X12453462Y30762638D01*
X12430446Y30734593D01*
X11900480Y30204627D01*
X11741632Y30363475D01*
X11567240Y30480000D01*
X11741632Y30596525D01*
X11948475Y30803368D01*
X12098922Y31028528D01*
X12227933Y31067663D01*
X12355620Y31135913D01*
X12467538Y31227762D01*
X12490558Y31255812D01*
X14129747Y32895000D01*
X40820736Y32895000D01*
X40856068Y32828899D01*
G04 #@! TA.AperFunction,Conductor*
D23*
G36*
X40856068Y32828899D02*
G01*
X41035392Y32610392D01*
X41253899Y32431068D01*
X41386858Y32360000D01*
X41253899Y32288932D01*
X41035392Y32109608D01*
X40856068Y31891101D01*
X40815298Y31814826D01*
X40810615Y31814365D01*
X40672067Y31772337D01*
X40544380Y31704087D01*
X40432462Y31612238D01*
X40409446Y31584193D01*
X39800654Y30975400D01*
X35281955Y30975400D01*
X35296904Y31045961D01*
X35174915Y31268000D01*
X33632000Y31268000D01*
X33632000Y31248000D01*
X33378000Y31248000D01*
X33378000Y31268000D01*
X31835085Y31268000D01*
X31713096Y31045961D01*
X31728045Y30975400D01*
X27657286Y30975400D01*
X27699236Y31113691D01*
X27726943Y31395000D01*
X27699236Y31676309D01*
X27678691Y31744039D01*
X31713096Y31744039D01*
X31835085Y31522000D01*
X33378000Y31522000D01*
X33378000Y32830000D01*
X33632000Y32830000D01*
X33632000Y31522000D01*
X35174915Y31522000D01*
X35296904Y31744039D01*
X35279367Y31826818D01*
X35168715Y32086646D01*
X35009500Y32319895D01*
X34807839Y32517601D01*
X34571483Y32672166D01*
X34309514Y32777650D01*
X34032000Y32830000D01*
X33632000Y32830000D01*
X33378000Y32830000D01*
X32978000Y32830000D01*
X32700486Y32777650D01*
X32438517Y32672166D01*
X32202161Y32517601D01*
X32000500Y32319895D01*
X31841285Y32086646D01*
X31730633Y31826818D01*
X31713096Y31744039D01*
X27678691Y31744039D01*
X27617182Y31946808D01*
X27483932Y32196101D01*
X27304608Y32414608D01*
X27086101Y32593932D01*
X26836808Y32727182D01*
X26566309Y32809236D01*
X26355492Y32830000D01*
X25414508Y32830000D01*
X25203691Y32809236D01*
X24933192Y32727182D01*
X24683899Y32593932D01*
X24465392Y32414608D01*
X24286068Y32196101D01*
X24152818Y31946808D01*
X24070764Y31676309D01*
X24043057Y31395000D01*
X24070764Y31113691D01*
X24112714Y30975400D01*
X13011805Y30975400D01*
X12975700Y30978956D01*
X12831615Y30964765D01*
X12693066Y30922737D01*
X12590498Y30867913D01*
X12565380Y30854487D01*
X12453462Y30762638D01*
X12430446Y30734593D01*
X11900480Y30204627D01*
X11741632Y30363475D01*
X11567240Y30480000D01*
X11741632Y30596525D01*
X11948475Y30803368D01*
X12098922Y31028528D01*
X12227933Y31067663D01*
X12355620Y31135913D01*
X12467538Y31227762D01*
X12490558Y31255812D01*
X14129747Y32895000D01*
X40820736Y32895000D01*
X40856068Y32828899D01*
G37*
G04 #@! TD.AperFunction*
D22*
X31181748Y41988142D02*
X31167605Y41974000D01*
X31181748Y41959857D01*
X31002143Y41780252D01*
X30988000Y41794395D01*
X30973858Y41780252D01*
X30794253Y41959857D01*
X30808395Y41974000D01*
X30794253Y41988142D01*
X30973858Y42167747D01*
X30988000Y42153605D01*
X31002143Y42167747D01*
X31181748Y41988142D01*
G04 #@! TA.AperFunction,Conductor*
D23*
G36*
X31181748Y41988142D02*
G01*
X31167605Y41974000D01*
X31181748Y41959857D01*
X31002143Y41780252D01*
X30988000Y41794395D01*
X30973858Y41780252D01*
X30794253Y41959857D01*
X30808395Y41974000D01*
X30794253Y41988142D01*
X30973858Y42167747D01*
X30988000Y42153605D01*
X31002143Y42167747D01*
X31181748Y41988142D01*
G37*
G04 #@! TD.AperFunction*
D22*
X67091928Y61380000D02*
X67104188Y61255518D01*
X67140498Y61135820D01*
X67199463Y61025506D01*
X67278815Y60928815D01*
X67375506Y60849463D01*
X67485820Y60790498D01*
X67558380Y60768487D01*
X67426525Y60636632D01*
X67264010Y60393411D01*
X67152068Y60123158D01*
X67095000Y59836260D01*
X67095000Y59543740D01*
X67152068Y59256842D01*
X67264010Y58986589D01*
X67426525Y58743368D01*
X67633368Y58536525D01*
X67807760Y58420000D01*
X67633368Y58303475D01*
X67426525Y58096632D01*
X67264010Y57853411D01*
X67152068Y57583158D01*
X67095000Y57296260D01*
X67095000Y57003740D01*
X67152068Y56716842D01*
X67264010Y56446589D01*
X67426525Y56203368D01*
X67633368Y55996525D01*
X67815534Y55874805D01*
X67698645Y55805178D01*
X67482412Y55610269D01*
X67308359Y55376920D01*
X67183175Y55114099D01*
X67138524Y54966890D01*
X67259845Y54737000D01*
X68453000Y54737000D01*
X68453000Y54757000D01*
X68707000Y54757000D01*
X68707000Y54737000D01*
X68727000Y54737000D01*
X68727000Y54483000D01*
X68707000Y54483000D01*
X68707000Y54463000D01*
X68453000Y54463000D01*
X68453000Y54483000D01*
X67259845Y54483000D01*
X67138524Y54253110D01*
X67163824Y54169700D01*
X63011147Y54169700D01*
X61613758Y55567088D01*
X61590738Y55595138D01*
X61478820Y55686987D01*
X61351133Y55755237D01*
X61212585Y55797265D01*
X61104605Y55807900D01*
X61068500Y55811456D01*
X61032395Y55807900D01*
X59357539Y55807900D01*
X59427182Y55938192D01*
X59509236Y56208691D01*
X59536943Y56490000D01*
X59509236Y56771309D01*
X59427182Y57041808D01*
X59293932Y57291101D01*
X59114608Y57509608D01*
X58896101Y57688932D01*
X58646808Y57822182D01*
X58376309Y57904236D01*
X58165492Y57925000D01*
X57224508Y57925000D01*
X57013691Y57904236D01*
X56743192Y57822182D01*
X56493899Y57688932D01*
X56275392Y57509608D01*
X56096068Y57291101D01*
X55962818Y57041808D01*
X55880764Y56771309D01*
X55853057Y56490000D01*
X55880764Y56208691D01*
X55962818Y55938192D01*
X56096068Y55688899D01*
X56249182Y55502329D01*
X52737800Y51990946D01*
X52737800Y59383195D01*
X52741356Y59419300D01*
X52727165Y59563385D01*
X52705118Y59636063D01*
X52685137Y59701933D01*
X52663510Y59742395D01*
X52632390Y59898845D01*
X52565677Y60059905D01*
X52468824Y60204855D01*
X52345555Y60328124D01*
X52200605Y60424977D01*
X52095709Y60468426D01*
X52068787Y60650130D01*
X51973603Y60916292D01*
X51906671Y61041514D01*
X51662702Y61113097D01*
X50849605Y60300000D01*
X50863748Y60285857D01*
X50684143Y60106252D01*
X50670000Y60120395D01*
X49856903Y59307298D01*
X49928486Y59063329D01*
X50183996Y58942429D01*
X50458184Y58873700D01*
X50740512Y58859783D01*
X51020130Y58901213D01*
X51203671Y58966850D01*
X51217245Y58953276D01*
X51267801Y58919495D01*
X51267801Y58856599D01*
X51194355Y58841990D01*
X51033295Y58775277D01*
X50888345Y58678424D01*
X50765076Y58555155D01*
X50668223Y58410205D01*
X50601510Y58249145D01*
X50567500Y58078165D01*
X50567500Y57903835D01*
X50601510Y57732855D01*
X50668223Y57571795D01*
X50717501Y57498046D01*
X50717500Y49820147D01*
X44709048Y43811694D01*
X44622055Y43794390D01*
X44460995Y43727677D01*
X44316045Y43630824D01*
X44277465Y43592244D01*
X44296943Y43790000D01*
X44269236Y44071309D01*
X44187297Y44341429D01*
X48731432Y48885563D01*
X48763291Y48911709D01*
X48792694Y48947536D01*
X48822918Y48984365D01*
X48867636Y49038854D01*
X48945172Y49183913D01*
X48992918Y49341311D01*
X49005000Y49463981D01*
X49005000Y49463982D01*
X49009040Y49505000D01*
X49005000Y49546018D01*
X49005000Y59132070D01*
X49084759Y59185363D01*
X49284637Y59385241D01*
X49418692Y59585869D01*
X49433329Y59558486D01*
X49677298Y59486903D01*
X50490395Y60300000D01*
X50476253Y60314142D01*
X50655858Y60493747D01*
X50670000Y60479605D01*
X51483097Y61292702D01*
X51453082Y61395000D01*
X67091928Y61395000D01*
X67091928Y61380000D01*
G04 #@! TA.AperFunction,Conductor*
D23*
G36*
X67091928Y61380000D02*
G01*
X67104188Y61255518D01*
X67140498Y61135820D01*
X67199463Y61025506D01*
X67278815Y60928815D01*
X67375506Y60849463D01*
X67485820Y60790498D01*
X67558380Y60768487D01*
X67426525Y60636632D01*
X67264010Y60393411D01*
X67152068Y60123158D01*
X67095000Y59836260D01*
X67095000Y59543740D01*
X67152068Y59256842D01*
X67264010Y58986589D01*
X67426525Y58743368D01*
X67633368Y58536525D01*
X67807760Y58420000D01*
X67633368Y58303475D01*
X67426525Y58096632D01*
X67264010Y57853411D01*
X67152068Y57583158D01*
X67095000Y57296260D01*
X67095000Y57003740D01*
X67152068Y56716842D01*
X67264010Y56446589D01*
X67426525Y56203368D01*
X67633368Y55996525D01*
X67815534Y55874805D01*
X67698645Y55805178D01*
X67482412Y55610269D01*
X67308359Y55376920D01*
X67183175Y55114099D01*
X67138524Y54966890D01*
X67259845Y54737000D01*
X68453000Y54737000D01*
X68453000Y54757000D01*
X68707000Y54757000D01*
X68707000Y54737000D01*
X68727000Y54737000D01*
X68727000Y54483000D01*
X68707000Y54483000D01*
X68707000Y54463000D01*
X68453000Y54463000D01*
X68453000Y54483000D01*
X67259845Y54483000D01*
X67138524Y54253110D01*
X67163824Y54169700D01*
X63011147Y54169700D01*
X61613758Y55567088D01*
X61590738Y55595138D01*
X61478820Y55686987D01*
X61351133Y55755237D01*
X61212585Y55797265D01*
X61104605Y55807900D01*
X61068500Y55811456D01*
X61032395Y55807900D01*
X59357539Y55807900D01*
X59427182Y55938192D01*
X59509236Y56208691D01*
X59536943Y56490000D01*
X59509236Y56771309D01*
X59427182Y57041808D01*
X59293932Y57291101D01*
X59114608Y57509608D01*
X58896101Y57688932D01*
X58646808Y57822182D01*
X58376309Y57904236D01*
X58165492Y57925000D01*
X57224508Y57925000D01*
X57013691Y57904236D01*
X56743192Y57822182D01*
X56493899Y57688932D01*
X56275392Y57509608D01*
X56096068Y57291101D01*
X55962818Y57041808D01*
X55880764Y56771309D01*
X55853057Y56490000D01*
X55880764Y56208691D01*
X55962818Y55938192D01*
X56096068Y55688899D01*
X56249182Y55502329D01*
X52737800Y51990946D01*
X52737800Y59383195D01*
X52741356Y59419300D01*
X52727165Y59563385D01*
X52705118Y59636063D01*
X52685137Y59701933D01*
X52663510Y59742395D01*
X52632390Y59898845D01*
X52565677Y60059905D01*
X52468824Y60204855D01*
X52345555Y60328124D01*
X52200605Y60424977D01*
X52095709Y60468426D01*
X52068787Y60650130D01*
X51973603Y60916292D01*
X51906671Y61041514D01*
X51662702Y61113097D01*
X50849605Y60300000D01*
X50863748Y60285857D01*
X50684143Y60106252D01*
X50670000Y60120395D01*
X49856903Y59307298D01*
X49928486Y59063329D01*
X50183996Y58942429D01*
X50458184Y58873700D01*
X50740512Y58859783D01*
X51020130Y58901213D01*
X51203671Y58966850D01*
X51217245Y58953276D01*
X51267801Y58919495D01*
X51267801Y58856599D01*
X51194355Y58841990D01*
X51033295Y58775277D01*
X50888345Y58678424D01*
X50765076Y58555155D01*
X50668223Y58410205D01*
X50601510Y58249145D01*
X50567500Y58078165D01*
X50567500Y57903835D01*
X50601510Y57732855D01*
X50668223Y57571795D01*
X50717501Y57498046D01*
X50717500Y49820147D01*
X44709048Y43811694D01*
X44622055Y43794390D01*
X44460995Y43727677D01*
X44316045Y43630824D01*
X44277465Y43592244D01*
X44296943Y43790000D01*
X44269236Y44071309D01*
X44187297Y44341429D01*
X48731432Y48885563D01*
X48763291Y48911709D01*
X48792694Y48947536D01*
X48822918Y48984365D01*
X48867636Y49038854D01*
X48945172Y49183913D01*
X48992918Y49341311D01*
X49005000Y49463981D01*
X49005000Y49463982D01*
X49009040Y49505000D01*
X49005000Y49546018D01*
X49005000Y59132070D01*
X49084759Y59185363D01*
X49284637Y59385241D01*
X49418692Y59585869D01*
X49433329Y59558486D01*
X49677298Y59486903D01*
X50490395Y60300000D01*
X50476253Y60314142D01*
X50655858Y60493747D01*
X50670000Y60479605D01*
X51483097Y61292702D01*
X51453082Y61395000D01*
X67091928Y61395000D01*
X67091928Y61380000D01*
G37*
G04 #@! TD.AperFunction*
D22*
X49944009Y62823291D02*
X49917859Y62791427D01*
X48742519Y61616087D01*
X48588574Y61679853D01*
X48311335Y61735000D01*
X48028665Y61735000D01*
X47751426Y61679853D01*
X47490273Y61571680D01*
X47255241Y61414637D01*
X47055363Y61214759D01*
X46898320Y60979727D01*
X46790147Y60718574D01*
X46735000Y60441335D01*
X46735000Y60158665D01*
X46790147Y59881426D01*
X46898320Y59620273D01*
X47055363Y59385241D01*
X47255241Y59185363D01*
X47335000Y59132070D01*
X47335001Y49850870D01*
X44228787Y46744654D01*
X44187182Y46881808D01*
X44053932Y47131101D01*
X43874608Y47349608D01*
X43656101Y47528932D01*
X43523142Y47600000D01*
X43656101Y47671068D01*
X43874608Y47850392D01*
X44053932Y48068899D01*
X44187182Y48318192D01*
X44269236Y48588691D01*
X44296943Y48870000D01*
X44269236Y49151309D01*
X44187182Y49421808D01*
X44053932Y49671101D01*
X43874608Y49889608D01*
X43656101Y50068932D01*
X43523142Y50140000D01*
X43656101Y50211068D01*
X43874608Y50390392D01*
X44053932Y50608899D01*
X44187182Y50858192D01*
X44269236Y51128691D01*
X44296943Y51410000D01*
X44269236Y51691309D01*
X44187182Y51961808D01*
X44053932Y52211101D01*
X43874608Y52429608D01*
X43656101Y52608932D01*
X43523142Y52680000D01*
X43656101Y52751068D01*
X43874608Y52930392D01*
X44053932Y53148899D01*
X44187182Y53398192D01*
X44269236Y53668691D01*
X44296943Y53950000D01*
X44269236Y54231309D01*
X44187182Y54501808D01*
X44053932Y54751101D01*
X43874608Y54969608D01*
X43656101Y55148932D01*
X43523142Y55220000D01*
X43656101Y55291068D01*
X43874608Y55470392D01*
X44053932Y55688899D01*
X44187182Y55938192D01*
X44269236Y56208691D01*
X44296943Y56490000D01*
X44269236Y56771309D01*
X44187182Y57041808D01*
X44053932Y57291101D01*
X43874608Y57509608D01*
X43656101Y57688932D01*
X43406808Y57822182D01*
X43136309Y57904236D01*
X42925492Y57925000D01*
X41984508Y57925000D01*
X41773691Y57904236D01*
X41503192Y57822182D01*
X41253899Y57688932D01*
X41035392Y57509608D01*
X40856068Y57291101D01*
X40722818Y57041808D01*
X40640764Y56771309D01*
X40613057Y56490000D01*
X40640764Y56208691D01*
X40722818Y55938192D01*
X40856068Y55688899D01*
X41035392Y55470392D01*
X41253899Y55291068D01*
X41386858Y55220000D01*
X41253899Y55148932D01*
X41035392Y54969608D01*
X40856068Y54751101D01*
X40722818Y54501808D01*
X40640764Y54231309D01*
X40613057Y53950000D01*
X40640764Y53668691D01*
X40722818Y53398192D01*
X40856068Y53148899D01*
X41035392Y52930392D01*
X41253899Y52751068D01*
X41386858Y52680000D01*
X41253899Y52608932D01*
X41035392Y52429608D01*
X40856068Y52211101D01*
X40722818Y51961808D01*
X40640764Y51691309D01*
X40613057Y51410000D01*
X40640764Y51128691D01*
X40722818Y50858192D01*
X40856068Y50608899D01*
X41035392Y50390392D01*
X41253899Y50211068D01*
X41386858Y50140000D01*
X41253899Y50068932D01*
X41035392Y49889608D01*
X40856068Y49671101D01*
X40722818Y49421808D01*
X40640764Y49151309D01*
X40613057Y48870000D01*
X40640764Y48588691D01*
X40722818Y48318192D01*
X40856068Y48068899D01*
X41035392Y47850392D01*
X41253899Y47671068D01*
X41386858Y47600000D01*
X41253899Y47528932D01*
X41035392Y47349608D01*
X40856068Y47131101D01*
X40722818Y46881808D01*
X40640764Y46611309D01*
X40613057Y46330000D01*
X40640764Y46048691D01*
X40722818Y45778192D01*
X40856068Y45528899D01*
X41035392Y45310392D01*
X41253899Y45131068D01*
X41386858Y45060000D01*
X41253899Y44988932D01*
X41035392Y44809608D01*
X40883888Y44625000D01*
X35417338Y44625000D01*
X35444502Y44675820D01*
X35480812Y44795518D01*
X35493072Y44920000D01*
X35493072Y46520000D01*
X35480812Y46644482D01*
X35444502Y46764180D01*
X35385537Y46874494D01*
X35306185Y46971185D01*
X35209494Y47050537D01*
X35099180Y47109502D01*
X34979482Y47145812D01*
X34961518Y47147581D01*
X35074608Y47240392D01*
X35253932Y47458899D01*
X35387182Y47708192D01*
X35469236Y47978691D01*
X35496943Y48260000D01*
X35469236Y48541309D01*
X35387182Y48811808D01*
X35253932Y49061101D01*
X35115422Y49229876D01*
X36050893Y50165346D01*
X36078938Y50188362D01*
X36170787Y50300280D01*
X36222092Y50396265D01*
X36239037Y50427966D01*
X36281065Y50566515D01*
X36295256Y50710600D01*
X36291700Y50746705D01*
X36291700Y57982506D01*
X36295255Y58018601D01*
X36291700Y58054696D01*
X36291700Y58054705D01*
X36281065Y58162685D01*
X36239037Y58301233D01*
X36170787Y58428920D01*
X36078937Y58540838D01*
X36050892Y58563854D01*
X35700559Y58914187D01*
X35677538Y58942238D01*
X35565620Y59034087D01*
X35437933Y59102337D01*
X35299385Y59144365D01*
X35294702Y59144826D01*
X35253932Y59221101D01*
X35074608Y59439608D01*
X34856101Y59618932D01*
X34728259Y59687265D01*
X34957839Y59837399D01*
X35159500Y60035105D01*
X35318715Y60268354D01*
X35429367Y60528182D01*
X35446904Y60610961D01*
X35324915Y60833000D01*
X33782000Y60833000D01*
X33782000Y60813000D01*
X33528000Y60813000D01*
X33528000Y60833000D01*
X33508000Y60833000D01*
X33508000Y61087000D01*
X33528000Y61087000D01*
X33528000Y61107000D01*
X33782000Y61107000D01*
X33782000Y61087000D01*
X35324915Y61087000D01*
X35446904Y61309039D01*
X35442506Y61329800D01*
X40408890Y61329800D01*
X40489576Y61209045D01*
X40612845Y61085776D01*
X40757795Y60988923D01*
X40918855Y60922210D01*
X41089835Y60888200D01*
X41264165Y60888200D01*
X41435145Y60922210D01*
X41482545Y60941843D01*
X41495895Y60932923D01*
X41656955Y60866210D01*
X41827935Y60832200D01*
X42002265Y60832200D01*
X42173245Y60866210D01*
X42334305Y60932923D01*
X42479255Y61029776D01*
X42602524Y61153045D01*
X42699377Y61297995D01*
X42766090Y61459055D01*
X42783394Y61546048D01*
X44093747Y62856400D01*
X49984353Y62856400D01*
X49944009Y62823291D01*
G04 #@! TA.AperFunction,Conductor*
D23*
G36*
X49944009Y62823291D02*
G01*
X49917859Y62791427D01*
X48742519Y61616087D01*
X48588574Y61679853D01*
X48311335Y61735000D01*
X48028665Y61735000D01*
X47751426Y61679853D01*
X47490273Y61571680D01*
X47255241Y61414637D01*
X47055363Y61214759D01*
X46898320Y60979727D01*
X46790147Y60718574D01*
X46735000Y60441335D01*
X46735000Y60158665D01*
X46790147Y59881426D01*
X46898320Y59620273D01*
X47055363Y59385241D01*
X47255241Y59185363D01*
X47335000Y59132070D01*
X47335001Y49850870D01*
X44228787Y46744654D01*
X44187182Y46881808D01*
X44053932Y47131101D01*
X43874608Y47349608D01*
X43656101Y47528932D01*
X43523142Y47600000D01*
X43656101Y47671068D01*
X43874608Y47850392D01*
X44053932Y48068899D01*
X44187182Y48318192D01*
X44269236Y48588691D01*
X44296943Y48870000D01*
X44269236Y49151309D01*
X44187182Y49421808D01*
X44053932Y49671101D01*
X43874608Y49889608D01*
X43656101Y50068932D01*
X43523142Y50140000D01*
X43656101Y50211068D01*
X43874608Y50390392D01*
X44053932Y50608899D01*
X44187182Y50858192D01*
X44269236Y51128691D01*
X44296943Y51410000D01*
X44269236Y51691309D01*
X44187182Y51961808D01*
X44053932Y52211101D01*
X43874608Y52429608D01*
X43656101Y52608932D01*
X43523142Y52680000D01*
X43656101Y52751068D01*
X43874608Y52930392D01*
X44053932Y53148899D01*
X44187182Y53398192D01*
X44269236Y53668691D01*
X44296943Y53950000D01*
X44269236Y54231309D01*
X44187182Y54501808D01*
X44053932Y54751101D01*
X43874608Y54969608D01*
X43656101Y55148932D01*
X43523142Y55220000D01*
X43656101Y55291068D01*
X43874608Y55470392D01*
X44053932Y55688899D01*
X44187182Y55938192D01*
X44269236Y56208691D01*
X44296943Y56490000D01*
X44269236Y56771309D01*
X44187182Y57041808D01*
X44053932Y57291101D01*
X43874608Y57509608D01*
X43656101Y57688932D01*
X43406808Y57822182D01*
X43136309Y57904236D01*
X42925492Y57925000D01*
X41984508Y57925000D01*
X41773691Y57904236D01*
X41503192Y57822182D01*
X41253899Y57688932D01*
X41035392Y57509608D01*
X40856068Y57291101D01*
X40722818Y57041808D01*
X40640764Y56771309D01*
X40613057Y56490000D01*
X40640764Y56208691D01*
X40722818Y55938192D01*
X40856068Y55688899D01*
X41035392Y55470392D01*
X41253899Y55291068D01*
X41386858Y55220000D01*
X41253899Y55148932D01*
X41035392Y54969608D01*
X40856068Y54751101D01*
X40722818Y54501808D01*
X40640764Y54231309D01*
X40613057Y53950000D01*
X40640764Y53668691D01*
X40722818Y53398192D01*
X40856068Y53148899D01*
X41035392Y52930392D01*
X41253899Y52751068D01*
X41386858Y52680000D01*
X41253899Y52608932D01*
X41035392Y52429608D01*
X40856068Y52211101D01*
X40722818Y51961808D01*
X40640764Y51691309D01*
X40613057Y51410000D01*
X40640764Y51128691D01*
X40722818Y50858192D01*
X40856068Y50608899D01*
X41035392Y50390392D01*
X41253899Y50211068D01*
X41386858Y50140000D01*
X41253899Y50068932D01*
X41035392Y49889608D01*
X40856068Y49671101D01*
X40722818Y49421808D01*
X40640764Y49151309D01*
X40613057Y48870000D01*
X40640764Y48588691D01*
X40722818Y48318192D01*
X40856068Y48068899D01*
X41035392Y47850392D01*
X41253899Y47671068D01*
X41386858Y47600000D01*
X41253899Y47528932D01*
X41035392Y47349608D01*
X40856068Y47131101D01*
X40722818Y46881808D01*
X40640764Y46611309D01*
X40613057Y46330000D01*
X40640764Y46048691D01*
X40722818Y45778192D01*
X40856068Y45528899D01*
X41035392Y45310392D01*
X41253899Y45131068D01*
X41386858Y45060000D01*
X41253899Y44988932D01*
X41035392Y44809608D01*
X40883888Y44625000D01*
X35417338Y44625000D01*
X35444502Y44675820D01*
X35480812Y44795518D01*
X35493072Y44920000D01*
X35493072Y46520000D01*
X35480812Y46644482D01*
X35444502Y46764180D01*
X35385537Y46874494D01*
X35306185Y46971185D01*
X35209494Y47050537D01*
X35099180Y47109502D01*
X34979482Y47145812D01*
X34961518Y47147581D01*
X35074608Y47240392D01*
X35253932Y47458899D01*
X35387182Y47708192D01*
X35469236Y47978691D01*
X35496943Y48260000D01*
X35469236Y48541309D01*
X35387182Y48811808D01*
X35253932Y49061101D01*
X35115422Y49229876D01*
X36050893Y50165346D01*
X36078938Y50188362D01*
X36170787Y50300280D01*
X36222092Y50396265D01*
X36239037Y50427966D01*
X36281065Y50566515D01*
X36295256Y50710600D01*
X36291700Y50746705D01*
X36291700Y57982506D01*
X36295255Y58018601D01*
X36291700Y58054696D01*
X36291700Y58054705D01*
X36281065Y58162685D01*
X36239037Y58301233D01*
X36170787Y58428920D01*
X36078937Y58540838D01*
X36050892Y58563854D01*
X35700559Y58914187D01*
X35677538Y58942238D01*
X35565620Y59034087D01*
X35437933Y59102337D01*
X35299385Y59144365D01*
X35294702Y59144826D01*
X35253932Y59221101D01*
X35074608Y59439608D01*
X34856101Y59618932D01*
X34728259Y59687265D01*
X34957839Y59837399D01*
X35159500Y60035105D01*
X35318715Y60268354D01*
X35429367Y60528182D01*
X35446904Y60610961D01*
X35324915Y60833000D01*
X33782000Y60833000D01*
X33782000Y60813000D01*
X33528000Y60813000D01*
X33528000Y60833000D01*
X33508000Y60833000D01*
X33508000Y61087000D01*
X33528000Y61087000D01*
X33528000Y61107000D01*
X33782000Y61107000D01*
X33782000Y61087000D01*
X35324915Y61087000D01*
X35446904Y61309039D01*
X35442506Y61329800D01*
X40408890Y61329800D01*
X40489576Y61209045D01*
X40612845Y61085776D01*
X40757795Y60988923D01*
X40918855Y60922210D01*
X41089835Y60888200D01*
X41264165Y60888200D01*
X41435145Y60922210D01*
X41482545Y60941843D01*
X41495895Y60932923D01*
X41656955Y60866210D01*
X41827935Y60832200D01*
X42002265Y60832200D01*
X42173245Y60866210D01*
X42334305Y60932923D01*
X42479255Y61029776D01*
X42602524Y61153045D01*
X42699377Y61297995D01*
X42766090Y61459055D01*
X42783394Y61546048D01*
X44093747Y62856400D01*
X49984353Y62856400D01*
X49944009Y62823291D01*
G37*
G04 #@! TD.AperFunction*
D22*
X43618854Y91772636D02*
X43491709Y91668291D01*
X43465558Y91636426D01*
X42108579Y90279446D01*
X42076709Y90253291D01*
X42023772Y90188786D01*
X41972364Y90126145D01*
X41894828Y89981086D01*
X41847082Y89823688D01*
X41830960Y89660000D01*
X41835000Y89618981D01*
X41835001Y87295000D01*
X35931167Y87295000D01*
X35919745Y87306422D01*
X35893591Y87338291D01*
X35766446Y87442636D01*
X35621387Y87520172D01*
X35463989Y87567918D01*
X35341319Y87580000D01*
X35341318Y87580000D01*
X35300300Y87584040D01*
X35270227Y87581078D01*
X35119608Y87764608D01*
X34901101Y87943932D01*
X34773259Y88012265D01*
X35002839Y88162399D01*
X35204500Y88360105D01*
X35363715Y88593354D01*
X35474367Y88853182D01*
X35491904Y88935961D01*
X35369915Y89158000D01*
X33827000Y89158000D01*
X33827000Y89138000D01*
X33573000Y89138000D01*
X33573000Y89158000D01*
X32030085Y89158000D01*
X31908096Y88935961D01*
X31925633Y88853182D01*
X32036285Y88593354D01*
X32195500Y88360105D01*
X32397161Y88162399D01*
X32626741Y88012265D01*
X32498899Y87943932D01*
X32280392Y87764608D01*
X32101068Y87546101D01*
X31967818Y87296808D01*
X31885764Y87026309D01*
X31858057Y86745000D01*
X31885764Y86463691D01*
X31967818Y86193192D01*
X32101068Y85943899D01*
X32280392Y85725392D01*
X32498899Y85546068D01*
X32631858Y85475000D01*
X32498899Y85403932D01*
X32280392Y85224608D01*
X32101068Y85006101D01*
X31967818Y84756808D01*
X31885764Y84486309D01*
X31858057Y84205000D01*
X31885764Y83923691D01*
X31967818Y83653192D01*
X32101068Y83403899D01*
X32280392Y83185392D01*
X32498899Y83006068D01*
X32631858Y82935000D01*
X32498899Y82863932D01*
X32280392Y82684608D01*
X32101068Y82466101D01*
X31967818Y82216808D01*
X31885764Y81946309D01*
X31858057Y81665000D01*
X31885764Y81383691D01*
X31967818Y81113192D01*
X32101068Y80863899D01*
X32280392Y80645392D01*
X32498899Y80466068D01*
X32631858Y80395000D01*
X32498899Y80323932D01*
X32280392Y80144608D01*
X32101068Y79926101D01*
X32060298Y79849826D01*
X32055615Y79849365D01*
X31917066Y79807337D01*
X31789380Y79739087D01*
X31677462Y79647238D01*
X31654441Y79619187D01*
X31282408Y79247154D01*
X31254363Y79224138D01*
X31162514Y79112220D01*
X31136402Y79063368D01*
X31094264Y78984533D01*
X31052235Y78845985D01*
X31038044Y78701900D01*
X31041601Y78665785D01*
X31041600Y72356405D01*
X31038044Y72320300D01*
X31045653Y72243044D01*
X31052235Y72176216D01*
X31094263Y72037668D01*
X31157343Y71919654D01*
X31044488Y71925217D01*
X30764870Y71883787D01*
X30498708Y71788603D01*
X30373486Y71721671D01*
X30301903Y71477702D01*
X31115000Y70664605D01*
X31129143Y70678747D01*
X31308748Y70499142D01*
X31294605Y70485000D01*
X31308748Y70470857D01*
X31129143Y70291252D01*
X31115000Y70305395D01*
X30301903Y69492298D01*
X30353924Y69315000D01*
X29446902Y69315000D01*
X29529759Y69370363D01*
X29729637Y69570241D01*
X29863692Y69770869D01*
X29878329Y69743486D01*
X30122298Y69671903D01*
X30935395Y70485000D01*
X30122298Y71298097D01*
X29878329Y71226514D01*
X29864676Y71197659D01*
X29729637Y71399759D01*
X29529759Y71599637D01*
X29294727Y71756680D01*
X29033574Y71864853D01*
X28756335Y71920000D01*
X28473665Y71920000D01*
X28379582Y71901286D01*
X27365519Y72915348D01*
X27499608Y73025392D01*
X27678932Y73243899D01*
X27812182Y73493192D01*
X27894236Y73763691D01*
X27921943Y74045000D01*
X27894236Y74326309D01*
X27812182Y74596808D01*
X27678932Y74846101D01*
X27499608Y75064608D01*
X27281101Y75243932D01*
X27148142Y75315000D01*
X27281101Y75386068D01*
X27499608Y75565392D01*
X27678932Y75783899D01*
X27812182Y76033192D01*
X27894236Y76303691D01*
X27921943Y76585000D01*
X27894236Y76866309D01*
X27812182Y77136808D01*
X27678932Y77386101D01*
X27499608Y77604608D01*
X27281101Y77783932D01*
X27148142Y77855000D01*
X27281101Y77926068D01*
X27499608Y78105392D01*
X27678932Y78323899D01*
X27812182Y78573192D01*
X27894236Y78843691D01*
X27921943Y79125000D01*
X27894236Y79406309D01*
X27812182Y79676808D01*
X27678932Y79926101D01*
X27499608Y80144608D01*
X27281101Y80323932D01*
X27148142Y80395000D01*
X27281101Y80466068D01*
X27499608Y80645392D01*
X27678932Y80863899D01*
X27812182Y81113192D01*
X27894236Y81383691D01*
X27921943Y81665000D01*
X27894236Y81946309D01*
X27812182Y82216808D01*
X27678932Y82466101D01*
X27499608Y82684608D01*
X27281101Y82863932D01*
X27148142Y82935000D01*
X27281101Y83006068D01*
X27499608Y83185392D01*
X27678932Y83403899D01*
X27812182Y83653192D01*
X27894236Y83923691D01*
X27921943Y84205000D01*
X27894236Y84486309D01*
X27812182Y84756808D01*
X27678932Y85006101D01*
X27499608Y85224608D01*
X27281101Y85403932D01*
X27148142Y85475000D01*
X27281101Y85546068D01*
X27499608Y85725392D01*
X27678932Y85943899D01*
X27812182Y86193192D01*
X27894236Y86463691D01*
X27921943Y86745000D01*
X27894236Y87026309D01*
X27812182Y87296808D01*
X27678932Y87546101D01*
X27499608Y87764608D01*
X27281101Y87943932D01*
X27148142Y88015000D01*
X27281101Y88086068D01*
X27499608Y88265392D01*
X27678932Y88483899D01*
X27719702Y88560174D01*
X27724385Y88560635D01*
X27862933Y88602663D01*
X27990620Y88670913D01*
X28102538Y88762762D01*
X28125559Y88790813D01*
X28968785Y89634039D01*
X31908096Y89634039D01*
X32030085Y89412000D01*
X33573000Y89412000D01*
X33573000Y90720000D01*
X33827000Y90720000D01*
X33827000Y89412000D01*
X35369915Y89412000D01*
X35491904Y89634039D01*
X35474367Y89716818D01*
X35363715Y89976646D01*
X35204500Y90209895D01*
X35002839Y90407601D01*
X34766483Y90562166D01*
X34504514Y90667650D01*
X34227000Y90720000D01*
X33827000Y90720000D01*
X33573000Y90720000D01*
X33173000Y90720000D01*
X32895486Y90667650D01*
X32633517Y90562166D01*
X32397161Y90407601D01*
X32195500Y90209895D01*
X32036285Y89976646D01*
X31925633Y89716818D01*
X31908096Y89634039D01*
X28968785Y89634039D01*
X31175047Y91840300D01*
X43745444Y91840300D01*
X43618854Y91772636D01*
G04 #@! TA.AperFunction,Conductor*
D23*
G36*
X43618854Y91772636D02*
G01*
X43491709Y91668291D01*
X43465558Y91636426D01*
X42108579Y90279446D01*
X42076709Y90253291D01*
X42023772Y90188786D01*
X41972364Y90126145D01*
X41894828Y89981086D01*
X41847082Y89823688D01*
X41830960Y89660000D01*
X41835000Y89618981D01*
X41835001Y87295000D01*
X35931167Y87295000D01*
X35919745Y87306422D01*
X35893591Y87338291D01*
X35766446Y87442636D01*
X35621387Y87520172D01*
X35463989Y87567918D01*
X35341319Y87580000D01*
X35341318Y87580000D01*
X35300300Y87584040D01*
X35270227Y87581078D01*
X35119608Y87764608D01*
X34901101Y87943932D01*
X34773259Y88012265D01*
X35002839Y88162399D01*
X35204500Y88360105D01*
X35363715Y88593354D01*
X35474367Y88853182D01*
X35491904Y88935961D01*
X35369915Y89158000D01*
X33827000Y89158000D01*
X33827000Y89138000D01*
X33573000Y89138000D01*
X33573000Y89158000D01*
X32030085Y89158000D01*
X31908096Y88935961D01*
X31925633Y88853182D01*
X32036285Y88593354D01*
X32195500Y88360105D01*
X32397161Y88162399D01*
X32626741Y88012265D01*
X32498899Y87943932D01*
X32280392Y87764608D01*
X32101068Y87546101D01*
X31967818Y87296808D01*
X31885764Y87026309D01*
X31858057Y86745000D01*
X31885764Y86463691D01*
X31967818Y86193192D01*
X32101068Y85943899D01*
X32280392Y85725392D01*
X32498899Y85546068D01*
X32631858Y85475000D01*
X32498899Y85403932D01*
X32280392Y85224608D01*
X32101068Y85006101D01*
X31967818Y84756808D01*
X31885764Y84486309D01*
X31858057Y84205000D01*
X31885764Y83923691D01*
X31967818Y83653192D01*
X32101068Y83403899D01*
X32280392Y83185392D01*
X32498899Y83006068D01*
X32631858Y82935000D01*
X32498899Y82863932D01*
X32280392Y82684608D01*
X32101068Y82466101D01*
X31967818Y82216808D01*
X31885764Y81946309D01*
X31858057Y81665000D01*
X31885764Y81383691D01*
X31967818Y81113192D01*
X32101068Y80863899D01*
X32280392Y80645392D01*
X32498899Y80466068D01*
X32631858Y80395000D01*
X32498899Y80323932D01*
X32280392Y80144608D01*
X32101068Y79926101D01*
X32060298Y79849826D01*
X32055615Y79849365D01*
X31917066Y79807337D01*
X31789380Y79739087D01*
X31677462Y79647238D01*
X31654441Y79619187D01*
X31282408Y79247154D01*
X31254363Y79224138D01*
X31162514Y79112220D01*
X31136402Y79063368D01*
X31094264Y78984533D01*
X31052235Y78845985D01*
X31038044Y78701900D01*
X31041601Y78665785D01*
X31041600Y72356405D01*
X31038044Y72320300D01*
X31045653Y72243044D01*
X31052235Y72176216D01*
X31094263Y72037668D01*
X31157343Y71919654D01*
X31044488Y71925217D01*
X30764870Y71883787D01*
X30498708Y71788603D01*
X30373486Y71721671D01*
X30301903Y71477702D01*
X31115000Y70664605D01*
X31129143Y70678747D01*
X31308748Y70499142D01*
X31294605Y70485000D01*
X31308748Y70470857D01*
X31129143Y70291252D01*
X31115000Y70305395D01*
X30301903Y69492298D01*
X30353924Y69315000D01*
X29446902Y69315000D01*
X29529759Y69370363D01*
X29729637Y69570241D01*
X29863692Y69770869D01*
X29878329Y69743486D01*
X30122298Y69671903D01*
X30935395Y70485000D01*
X30122298Y71298097D01*
X29878329Y71226514D01*
X29864676Y71197659D01*
X29729637Y71399759D01*
X29529759Y71599637D01*
X29294727Y71756680D01*
X29033574Y71864853D01*
X28756335Y71920000D01*
X28473665Y71920000D01*
X28379582Y71901286D01*
X27365519Y72915348D01*
X27499608Y73025392D01*
X27678932Y73243899D01*
X27812182Y73493192D01*
X27894236Y73763691D01*
X27921943Y74045000D01*
X27894236Y74326309D01*
X27812182Y74596808D01*
X27678932Y74846101D01*
X27499608Y75064608D01*
X27281101Y75243932D01*
X27148142Y75315000D01*
X27281101Y75386068D01*
X27499608Y75565392D01*
X27678932Y75783899D01*
X27812182Y76033192D01*
X27894236Y76303691D01*
X27921943Y76585000D01*
X27894236Y76866309D01*
X27812182Y77136808D01*
X27678932Y77386101D01*
X27499608Y77604608D01*
X27281101Y77783932D01*
X27148142Y77855000D01*
X27281101Y77926068D01*
X27499608Y78105392D01*
X27678932Y78323899D01*
X27812182Y78573192D01*
X27894236Y78843691D01*
X27921943Y79125000D01*
X27894236Y79406309D01*
X27812182Y79676808D01*
X27678932Y79926101D01*
X27499608Y80144608D01*
X27281101Y80323932D01*
X27148142Y80395000D01*
X27281101Y80466068D01*
X27499608Y80645392D01*
X27678932Y80863899D01*
X27812182Y81113192D01*
X27894236Y81383691D01*
X27921943Y81665000D01*
X27894236Y81946309D01*
X27812182Y82216808D01*
X27678932Y82466101D01*
X27499608Y82684608D01*
X27281101Y82863932D01*
X27148142Y82935000D01*
X27281101Y83006068D01*
X27499608Y83185392D01*
X27678932Y83403899D01*
X27812182Y83653192D01*
X27894236Y83923691D01*
X27921943Y84205000D01*
X27894236Y84486309D01*
X27812182Y84756808D01*
X27678932Y85006101D01*
X27499608Y85224608D01*
X27281101Y85403932D01*
X27148142Y85475000D01*
X27281101Y85546068D01*
X27499608Y85725392D01*
X27678932Y85943899D01*
X27812182Y86193192D01*
X27894236Y86463691D01*
X27921943Y86745000D01*
X27894236Y87026309D01*
X27812182Y87296808D01*
X27678932Y87546101D01*
X27499608Y87764608D01*
X27281101Y87943932D01*
X27148142Y88015000D01*
X27281101Y88086068D01*
X27499608Y88265392D01*
X27678932Y88483899D01*
X27719702Y88560174D01*
X27724385Y88560635D01*
X27862933Y88602663D01*
X27990620Y88670913D01*
X28102538Y88762762D01*
X28125559Y88790813D01*
X28968785Y89634039D01*
X31908096Y89634039D01*
X32030085Y89412000D01*
X33573000Y89412000D01*
X33573000Y90720000D01*
X33827000Y90720000D01*
X33827000Y89412000D01*
X35369915Y89412000D01*
X35491904Y89634039D01*
X35474367Y89716818D01*
X35363715Y89976646D01*
X35204500Y90209895D01*
X35002839Y90407601D01*
X34766483Y90562166D01*
X34504514Y90667650D01*
X34227000Y90720000D01*
X33827000Y90720000D01*
X33573000Y90720000D01*
X33173000Y90720000D01*
X32895486Y90667650D01*
X32633517Y90562166D01*
X32397161Y90407601D01*
X32195500Y90209895D01*
X32036285Y89976646D01*
X31925633Y89716818D01*
X31908096Y89634039D01*
X28968785Y89634039D01*
X31175047Y91840300D01*
X43745444Y91840300D01*
X43618854Y91772636D01*
G37*
G04 #@! TD.AperFunction*
D22*
X45147818Y90123192D02*
X45281068Y89873899D01*
X45460393Y89655392D01*
X45678900Y89476068D01*
X45928193Y89342818D01*
X46198692Y89260764D01*
X46480000Y89233057D01*
X46761309Y89260764D01*
X47031808Y89342818D01*
X47281101Y89476068D01*
X47499608Y89655392D01*
X47678932Y89873899D01*
X47750000Y90006858D01*
X47821068Y89873899D01*
X48000393Y89655392D01*
X48218900Y89476068D01*
X48468193Y89342818D01*
X48738692Y89260764D01*
X49020000Y89233057D01*
X49301309Y89260764D01*
X49571808Y89342818D01*
X49821101Y89476068D01*
X50039608Y89655392D01*
X50218932Y89873899D01*
X50290000Y90006858D01*
X50361068Y89873899D01*
X50540393Y89655392D01*
X50758900Y89476068D01*
X51008193Y89342818D01*
X51278692Y89260764D01*
X51560000Y89233057D01*
X51841309Y89260764D01*
X52111808Y89342818D01*
X52361101Y89476068D01*
X52579608Y89655392D01*
X52758932Y89873899D01*
X52830000Y90006858D01*
X52901068Y89873899D01*
X53080393Y89655392D01*
X53298900Y89476068D01*
X53548193Y89342818D01*
X53818692Y89260764D01*
X54100000Y89233057D01*
X54381309Y89260764D01*
X54651808Y89342818D01*
X54901101Y89476068D01*
X55119608Y89655392D01*
X55298932Y89873899D01*
X55370000Y90006858D01*
X55441068Y89873899D01*
X55620393Y89655392D01*
X55838900Y89476068D01*
X56088193Y89342818D01*
X56358692Y89260764D01*
X56640000Y89233057D01*
X56921309Y89260764D01*
X57191808Y89342818D01*
X57441101Y89476068D01*
X57659608Y89655392D01*
X57838932Y89873899D01*
X57910000Y90006858D01*
X57981068Y89873899D01*
X58160393Y89655392D01*
X58378900Y89476068D01*
X58628193Y89342818D01*
X58898692Y89260764D01*
X59180000Y89233057D01*
X59380453Y89252800D01*
X47666733Y77539079D01*
X47634494Y77565537D01*
X47524180Y77624502D01*
X47404482Y77660812D01*
X47280000Y77673072D01*
X45822796Y77673072D01*
X42330048Y81165819D01*
X42458184Y81133700D01*
X42740512Y81119783D01*
X43020130Y81161213D01*
X43286292Y81256397D01*
X43411514Y81323329D01*
X43483097Y81567298D01*
X42670000Y82380395D01*
X42655858Y82366252D01*
X42476253Y82545857D01*
X42490395Y82560000D01*
X42849605Y82560000D01*
X43662702Y81746903D01*
X43906671Y81818486D01*
X44027571Y82073996D01*
X44096300Y82348184D01*
X44110217Y82630512D01*
X44068787Y82910130D01*
X43973603Y83176292D01*
X43906671Y83301514D01*
X43662702Y83373097D01*
X42849605Y82560000D01*
X42490395Y82560000D01*
X42476253Y82574142D01*
X42655858Y82753747D01*
X42670000Y82739605D01*
X43483097Y83552702D01*
X43411514Y83796671D01*
X43382659Y83810324D01*
X43584759Y83945363D01*
X43784637Y84145241D01*
X43941680Y84380273D01*
X44049853Y84641426D01*
X44105000Y84918665D01*
X44105000Y85201335D01*
X44049853Y85478574D01*
X43941680Y85739727D01*
X43784637Y85974759D01*
X43584759Y86174637D01*
X43505000Y86227930D01*
X43505000Y86418981D01*
X43509040Y86460000D01*
X43505000Y86501019D01*
X43505000Y89314133D01*
X44430868Y90240000D01*
X45112385Y90240000D01*
X45147818Y90123192D01*
G04 #@! TA.AperFunction,Conductor*
D23*
G36*
X45147818Y90123192D02*
G01*
X45281068Y89873899D01*
X45460393Y89655392D01*
X45678900Y89476068D01*
X45928193Y89342818D01*
X46198692Y89260764D01*
X46480000Y89233057D01*
X46761309Y89260764D01*
X47031808Y89342818D01*
X47281101Y89476068D01*
X47499608Y89655392D01*
X47678932Y89873899D01*
X47750000Y90006858D01*
X47821068Y89873899D01*
X48000393Y89655392D01*
X48218900Y89476068D01*
X48468193Y89342818D01*
X48738692Y89260764D01*
X49020000Y89233057D01*
X49301309Y89260764D01*
X49571808Y89342818D01*
X49821101Y89476068D01*
X50039608Y89655392D01*
X50218932Y89873899D01*
X50290000Y90006858D01*
X50361068Y89873899D01*
X50540393Y89655392D01*
X50758900Y89476068D01*
X51008193Y89342818D01*
X51278692Y89260764D01*
X51560000Y89233057D01*
X51841309Y89260764D01*
X52111808Y89342818D01*
X52361101Y89476068D01*
X52579608Y89655392D01*
X52758932Y89873899D01*
X52830000Y90006858D01*
X52901068Y89873899D01*
X53080393Y89655392D01*
X53298900Y89476068D01*
X53548193Y89342818D01*
X53818692Y89260764D01*
X54100000Y89233057D01*
X54381309Y89260764D01*
X54651808Y89342818D01*
X54901101Y89476068D01*
X55119608Y89655392D01*
X55298932Y89873899D01*
X55370000Y90006858D01*
X55441068Y89873899D01*
X55620393Y89655392D01*
X55838900Y89476068D01*
X56088193Y89342818D01*
X56358692Y89260764D01*
X56640000Y89233057D01*
X56921309Y89260764D01*
X57191808Y89342818D01*
X57441101Y89476068D01*
X57659608Y89655392D01*
X57838932Y89873899D01*
X57910000Y90006858D01*
X57981068Y89873899D01*
X58160393Y89655392D01*
X58378900Y89476068D01*
X58628193Y89342818D01*
X58898692Y89260764D01*
X59180000Y89233057D01*
X59380453Y89252800D01*
X47666733Y77539079D01*
X47634494Y77565537D01*
X47524180Y77624502D01*
X47404482Y77660812D01*
X47280000Y77673072D01*
X45822796Y77673072D01*
X42330048Y81165819D01*
X42458184Y81133700D01*
X42740512Y81119783D01*
X43020130Y81161213D01*
X43286292Y81256397D01*
X43411514Y81323329D01*
X43483097Y81567298D01*
X42670000Y82380395D01*
X42655858Y82366252D01*
X42476253Y82545857D01*
X42490395Y82560000D01*
X42849605Y82560000D01*
X43662702Y81746903D01*
X43906671Y81818486D01*
X44027571Y82073996D01*
X44096300Y82348184D01*
X44110217Y82630512D01*
X44068787Y82910130D01*
X43973603Y83176292D01*
X43906671Y83301514D01*
X43662702Y83373097D01*
X42849605Y82560000D01*
X42490395Y82560000D01*
X42476253Y82574142D01*
X42655858Y82753747D01*
X42670000Y82739605D01*
X43483097Y83552702D01*
X43411514Y83796671D01*
X43382659Y83810324D01*
X43584759Y83945363D01*
X43784637Y84145241D01*
X43941680Y84380273D01*
X44049853Y84641426D01*
X44105000Y84918665D01*
X44105000Y85201335D01*
X44049853Y85478574D01*
X43941680Y85739727D01*
X43784637Y85974759D01*
X43584759Y86174637D01*
X43505000Y86227930D01*
X43505000Y86418981D01*
X43509040Y86460000D01*
X43505000Y86501019D01*
X43505000Y89314133D01*
X44430868Y90240000D01*
X45112385Y90240000D01*
X45147818Y90123192D01*
G37*
G04 #@! TD.AperFunction*
M02*
