G04 #@! TF.GenerationSoftware,KiCad,Pcbnew,(5.1.9)-1*
G04 #@! TF.CreationDate,2023-08-05T17:19:47+09:00*
G04 #@! TF.ProjectId,PC-8001_SD,50432d38-3030-4315-9f53-442e6b696361,rev?*
G04 #@! TF.SameCoordinates,PX53920b0PY93c3260*
G04 #@! TF.FileFunction,Soldermask,Top*
G04 #@! TF.FilePolarity,Negative*
%FSLAX46Y46*%
G04 Gerber Fmt 4.6, Leading zero omitted, Abs format (unit mm)*
G04 Created by KiCad (PCBNEW (5.1.9)-1) date 2023-08-05 17:19:47*
%MOMM*%
%LPD*%
G01*
G04 APERTURE LIST*
%ADD10C,1.600000*%
%ADD11R,1.600000X2.400000*%
%ADD12O,1.600000X2.400000*%
%ADD13R,2.400000X1.600000*%
%ADD14O,2.400000X1.600000*%
%ADD15C,3.200000*%
%ADD16R,1.600000X1.600000*%
%ADD17R,1.700000X1.700000*%
%ADD18O,1.700000X1.700000*%
%ADD19O,1.600000X1.600000*%
%ADD20R,1.400000X1.400000*%
%ADD21C,1.400000*%
G04 APERTURE END LIST*
D10*
X43852000Y58522000D03*
X46352000Y58522000D03*
D11*
X47877000Y77486000D03*
D12*
X80897000Y92726000D03*
X50417000Y77486000D03*
X78357000Y92726000D03*
X52957000Y77486000D03*
X75817000Y92726000D03*
X55497000Y77486000D03*
X73277000Y92726000D03*
X58037000Y77486000D03*
X70737000Y92726000D03*
X60577000Y77486000D03*
X68197000Y92726000D03*
X63117000Y77486000D03*
X65657000Y92726000D03*
X65657000Y77486000D03*
X63117000Y92726000D03*
X68197000Y77486000D03*
X60577000Y92726000D03*
X70737000Y77486000D03*
X58037000Y92726000D03*
X73277000Y77486000D03*
X55497000Y92726000D03*
X75817000Y77486000D03*
X52957000Y92726000D03*
X78357000Y77486000D03*
X50417000Y92726000D03*
X80897000Y77486000D03*
X47877000Y92726000D03*
D13*
X53377000Y6452000D03*
D14*
X38137000Y54712000D03*
X53377000Y8992000D03*
X38137000Y52172000D03*
X53377000Y11532000D03*
X38137000Y49632000D03*
X53377000Y14072000D03*
X38137000Y47092000D03*
X53377000Y16612000D03*
X38137000Y44552000D03*
X53377000Y19152000D03*
X38137000Y42012000D03*
X53377000Y21692000D03*
X38137000Y39472000D03*
X53377000Y24232000D03*
X38137000Y36932000D03*
X53377000Y26772000D03*
X38137000Y34392000D03*
X53377000Y29312000D03*
X38137000Y31852000D03*
X53377000Y31852000D03*
X38137000Y29312000D03*
X53377000Y34392000D03*
X38137000Y26772000D03*
X53377000Y36932000D03*
X38137000Y24232000D03*
X53377000Y39472000D03*
X38137000Y21692000D03*
X53377000Y42012000D03*
X38137000Y19152000D03*
X53377000Y44552000D03*
X38137000Y16612000D03*
X53377000Y47092000D03*
X38137000Y14072000D03*
X53377000Y49632000D03*
X38137000Y11532000D03*
X53377000Y52172000D03*
X38137000Y8992000D03*
X53377000Y54712000D03*
X38137000Y6452000D03*
D10*
X44067000Y86711000D03*
X44067000Y84211000D03*
D15*
X5000000Y95000000D03*
X95000000Y95000000D03*
X95000000Y5000000D03*
X5000000Y5000000D03*
D16*
X14335000Y8570000D03*
D10*
X14335000Y6070000D03*
X30584000Y15774000D03*
X28084000Y15774000D03*
X28107000Y45403000D03*
X30607000Y45403000D03*
X30734000Y73914000D03*
X28234000Y73914000D03*
D14*
X25504000Y19584000D03*
X33124000Y34824000D03*
X25504000Y22124000D03*
X33124000Y32284000D03*
X25504000Y24664000D03*
X33124000Y29744000D03*
X25504000Y27204000D03*
X33124000Y27204000D03*
X25504000Y29744000D03*
X33124000Y24664000D03*
X25504000Y32284000D03*
X33124000Y22124000D03*
X25504000Y34824000D03*
D13*
X33124000Y19584000D03*
X33319000Y77474000D03*
D14*
X25699000Y92714000D03*
X33319000Y80014000D03*
X25699000Y90174000D03*
X33319000Y82554000D03*
X25699000Y87634000D03*
X33319000Y85094000D03*
X25699000Y85094000D03*
X33319000Y87634000D03*
X25699000Y82554000D03*
X33319000Y90174000D03*
X25699000Y80014000D03*
X33319000Y92714000D03*
X25699000Y77474000D03*
D17*
X8255000Y19050000D03*
D18*
X5715000Y19050000D03*
X8255000Y21590000D03*
X5715000Y21590000D03*
X8255000Y24130000D03*
X5715000Y24130000D03*
X8255000Y26670000D03*
X5715000Y26670000D03*
X8255000Y29210000D03*
X5715000Y29210000D03*
X8255000Y31750000D03*
X5715000Y31750000D03*
X8255000Y34290000D03*
X5715000Y34290000D03*
X8255000Y36830000D03*
X5715000Y36830000D03*
X8255000Y39370000D03*
X5715000Y39370000D03*
X8255000Y41910000D03*
X5715000Y41910000D03*
X8255000Y44450000D03*
X5715000Y44450000D03*
X8255000Y46990000D03*
X5715000Y46990000D03*
X8255000Y49530000D03*
X5715000Y49530000D03*
X8255000Y52070000D03*
X5715000Y52070000D03*
X8255000Y54610000D03*
X5715000Y54610000D03*
X8255000Y57150000D03*
X5715000Y57150000D03*
X8255000Y59690000D03*
X5715000Y59690000D03*
X8255000Y62230000D03*
X5715000Y62230000D03*
X8255000Y64770000D03*
X5715000Y64770000D03*
X8255000Y67310000D03*
X5715000Y67310000D03*
X8255000Y69850000D03*
X5715000Y69850000D03*
X8255000Y72390000D03*
X5715000Y72390000D03*
X8255000Y74930000D03*
X5715000Y74930000D03*
X8255000Y77470000D03*
X5715000Y77470000D03*
X8255000Y80010000D03*
X5715000Y80010000D03*
D17*
X10795000Y19050000D03*
D18*
X10795000Y21590000D03*
X10795000Y24130000D03*
X10795000Y26670000D03*
X10795000Y29210000D03*
X10795000Y31750000D03*
X10795000Y34290000D03*
X10795000Y36830000D03*
X10795000Y39370000D03*
X10795000Y41910000D03*
X10795000Y44450000D03*
X10795000Y46990000D03*
X10795000Y49530000D03*
X10795000Y52070000D03*
X10795000Y54610000D03*
X10795000Y57150000D03*
X10795000Y59690000D03*
X10795000Y62230000D03*
X10795000Y64770000D03*
X10795000Y67310000D03*
X10795000Y69850000D03*
X10795000Y72390000D03*
X10795000Y74930000D03*
X10795000Y77470000D03*
X10795000Y80010000D03*
D17*
X79248000Y2604000D03*
D18*
X81788000Y2604000D03*
X84328000Y2604000D03*
D13*
X33274000Y49149000D03*
D14*
X25654000Y64389000D03*
X33274000Y51689000D03*
X25654000Y61849000D03*
X33274000Y54229000D03*
X25654000Y59309000D03*
X33274000Y56769000D03*
X25654000Y56769000D03*
X33274000Y59309000D03*
X25654000Y54229000D03*
X33274000Y61849000D03*
X25654000Y51689000D03*
X33274000Y64389000D03*
X25654000Y49149000D03*
D17*
X69850000Y62230000D03*
D18*
X69850000Y59690000D03*
X69850000Y57150000D03*
X69850000Y54610000D03*
X69850000Y52070000D03*
X69850000Y49530000D03*
X69850000Y46990000D03*
X69850000Y44450000D03*
X69850000Y41910000D03*
X97790000Y41910000D03*
X95250000Y41910000D03*
X97790000Y62230000D03*
X95250000Y62230000D03*
D16*
X91935000Y31710000D03*
D19*
X89395000Y31710000D03*
X86855000Y31710000D03*
X63995000Y16470000D03*
X84315000Y31710000D03*
X66535000Y16470000D03*
X81775000Y31710000D03*
X69075000Y16470000D03*
X79235000Y31710000D03*
X71615000Y16470000D03*
X76695000Y31710000D03*
X74155000Y16470000D03*
X74155000Y31710000D03*
X76695000Y16470000D03*
X71615000Y31710000D03*
X79235000Y16470000D03*
X69075000Y31710000D03*
X81775000Y16470000D03*
X66535000Y31710000D03*
X84315000Y16470000D03*
X63995000Y31710000D03*
X86855000Y16470000D03*
X89395000Y16470000D03*
X91935000Y16470000D03*
X83045000Y19010000D03*
X80505000Y19010000D03*
X72885000Y19010000D03*
X70345000Y19010000D03*
D17*
X60960000Y57785000D03*
D18*
X60960000Y55245000D03*
X60960000Y52705000D03*
X60960000Y50165000D03*
X60960000Y47625000D03*
X60960000Y45085000D03*
D20*
X42926000Y69469000D03*
D21*
X45426000Y69469000D03*
X47926000Y69469000D03*
X42926000Y66169000D03*
X45426000Y66169000D03*
X47926000Y66169000D03*
D17*
X19050000Y19050000D03*
D18*
X16510000Y19050000D03*
X19050000Y21590000D03*
X16510000Y21590000D03*
X19050000Y24130000D03*
X16510000Y24130000D03*
X19050000Y26670000D03*
X16510000Y26670000D03*
X19050000Y29210000D03*
X16510000Y29210000D03*
X19050000Y31750000D03*
X16510000Y31750000D03*
X19050000Y34290000D03*
X16510000Y34290000D03*
X19050000Y36830000D03*
X16510000Y36830000D03*
X19050000Y39370000D03*
X16510000Y39370000D03*
X19050000Y41910000D03*
X16510000Y41910000D03*
X19050000Y44450000D03*
X16510000Y44450000D03*
X19050000Y46990000D03*
X16510000Y46990000D03*
X19050000Y49530000D03*
X16510000Y49530000D03*
X19050000Y52070000D03*
X16510000Y52070000D03*
X19050000Y54610000D03*
X16510000Y54610000D03*
X19050000Y57150000D03*
X16510000Y57150000D03*
X19050000Y59690000D03*
X16510000Y59690000D03*
X19050000Y62230000D03*
X16510000Y62230000D03*
X19050000Y64770000D03*
X16510000Y64770000D03*
X19050000Y67310000D03*
X16510000Y67310000D03*
X19050000Y69850000D03*
X16510000Y69850000D03*
X19050000Y72390000D03*
X16510000Y72390000D03*
X19050000Y74930000D03*
X16510000Y74930000D03*
X19050000Y77470000D03*
X16510000Y77470000D03*
X19050000Y80010000D03*
X16510000Y80010000D03*
M02*
