M48
; DRILL file {KiCad (5.1.9)-1} date 08/05/23 17:19:50
; FORMAT={-:-/ absolute / metric / decimal}
; #@! TF.CreationDate,2023-08-05T17:19:50+09:00
; #@! TF.GenerationSoftware,Kicad,Pcbnew,(5.1.9)-1
FMAT,2
METRIC
T1C0.300
T2C0.800
T3C0.900
T4C1.000
T5C3.200
%
G90
G05
T1
X20.907Y58.988
X22.279Y64.562
X22.535Y55.815
X23.068Y65.139
X23.373Y52.445
X24.101Y55.686
X27.362Y52.999
X27.423Y30.154
X27.609Y20.188
X30.584Y27.204
X31.923Y55.342
X32.322Y44.298
X34.846Y74.96
X35.126Y68.106
X40.812Y42.583
X42.211Y43.265
X44.108Y45.161
X44.497Y75.719
X44.988Y46.042
X46.785Y48.237
X50.583Y54.89
X54.223Y58.05
X62.756Y64.132
X70.105Y23.379
X70.734Y34.177
T2
X14.335Y8.57
X14.335Y6.07
X25.504Y34.824
X25.504Y32.284
X25.504Y29.744
X25.504Y27.204
X25.504Y24.664
X25.504Y22.124
X25.504Y19.584
X25.654Y64.389
X25.654Y61.849
X25.654Y59.309
X25.654Y56.769
X25.654Y54.229
X25.654Y51.689
X25.654Y49.149
X25.699Y92.714
X25.699Y90.174
X25.699Y87.634
X25.699Y85.094
X25.699Y82.554
X25.699Y80.014
X25.699Y77.474
X28.084Y15.774
X28.107Y45.403
X28.234Y73.914
X30.584Y15.774
X30.607Y45.403
X30.734Y73.914
X33.124Y34.824
X33.124Y32.284
X33.124Y29.744
X33.124Y27.204
X33.124Y24.664
X33.124Y22.124
X33.124Y19.584
X33.274Y64.389
X33.274Y61.849
X33.274Y59.309
X33.274Y56.769
X33.274Y54.229
X33.274Y51.689
X33.274Y49.149
X33.319Y92.714
X33.319Y90.174
X33.319Y87.634
X33.319Y85.094
X33.319Y82.554
X33.319Y80.014
X33.319Y77.474
X38.137Y54.712
X38.137Y52.172
X38.137Y49.632
X38.137Y47.092
X38.137Y44.552
X38.137Y42.012
X38.137Y39.472
X38.137Y36.932
X38.137Y34.392
X38.137Y31.852
X38.137Y29.312
X38.137Y26.772
X38.137Y24.232
X38.137Y21.692
X38.137Y19.152
X38.137Y16.612
X38.137Y14.072
X38.137Y11.532
X38.137Y8.992
X38.137Y6.452
X43.852Y58.522
X44.067Y86.711
X44.067Y84.211
X46.352Y58.522
X47.877Y92.726
X47.877Y77.486
X50.417Y92.726
X50.417Y77.486
X52.957Y92.726
X52.957Y77.486
X53.377Y54.712
X53.377Y52.172
X53.377Y49.632
X53.377Y47.092
X53.377Y44.552
X53.377Y42.012
X53.377Y39.472
X53.377Y36.932
X53.377Y34.392
X53.377Y31.852
X53.377Y29.312
X53.377Y26.772
X53.377Y24.232
X53.377Y21.692
X53.377Y19.152
X53.377Y16.612
X53.377Y14.072
X53.377Y11.532
X53.377Y8.992
X53.377Y6.452
X55.497Y92.726
X55.497Y77.486
X58.037Y92.726
X58.037Y77.486
X60.577Y92.726
X60.577Y77.486
X63.117Y92.726
X63.117Y77.486
X63.995Y31.71
X63.995Y16.47
X65.657Y92.726
X65.657Y77.486
X66.535Y31.71
X66.535Y16.47
X68.197Y92.726
X68.197Y77.486
X69.075Y31.71
X69.075Y16.47
X70.345Y19.01
X70.737Y92.726
X70.737Y77.486
X71.615Y31.71
X71.615Y16.47
X72.885Y19.01
X73.277Y92.726
X73.277Y77.486
X74.155Y31.71
X74.155Y16.47
X75.817Y92.726
X75.817Y77.486
X76.695Y31.71
X76.695Y16.47
X78.357Y92.726
X78.357Y77.486
X79.235Y31.71
X79.235Y16.47
X80.505Y19.01
X80.897Y92.726
X80.897Y77.486
X81.775Y31.71
X81.775Y16.47
X83.045Y19.01
X84.315Y31.71
X84.315Y16.47
X86.855Y31.71
X86.855Y16.47
X89.395Y31.71
X89.395Y16.47
X91.935Y31.71
X91.935Y16.47
T3
X42.926Y69.469
X42.926Y66.169
X45.426Y69.469
X45.426Y66.169
X47.926Y69.469
X47.926Y66.169
T4
X5.715Y80.01
X5.715Y77.47
X5.715Y74.93
X5.715Y72.39
X5.715Y69.85
X5.715Y67.31
X5.715Y64.77
X5.715Y62.23
X5.715Y59.69
X5.715Y57.15
X5.715Y54.61
X5.715Y52.07
X5.715Y49.53
X5.715Y46.99
X5.715Y44.45
X5.715Y41.91
X5.715Y39.37
X5.715Y36.83
X5.715Y34.29
X5.715Y31.75
X5.715Y29.21
X5.715Y26.67
X5.715Y24.13
X5.715Y21.59
X5.715Y19.05
X8.255Y80.01
X8.255Y77.47
X8.255Y74.93
X8.255Y72.39
X8.255Y69.85
X8.255Y67.31
X8.255Y64.77
X8.255Y62.23
X8.255Y59.69
X8.255Y57.15
X8.255Y54.61
X8.255Y52.07
X8.255Y49.53
X8.255Y46.99
X8.255Y44.45
X8.255Y41.91
X8.255Y39.37
X8.255Y36.83
X8.255Y34.29
X8.255Y31.75
X8.255Y29.21
X8.255Y26.67
X8.255Y24.13
X8.255Y21.59
X8.255Y19.05
X10.795Y80.01
X10.795Y77.47
X10.795Y74.93
X10.795Y72.39
X10.795Y69.85
X10.795Y67.31
X10.795Y64.77
X10.795Y62.23
X10.795Y59.69
X10.795Y57.15
X10.795Y54.61
X10.795Y52.07
X10.795Y49.53
X10.795Y46.99
X10.795Y44.45
X10.795Y41.91
X10.795Y39.37
X10.795Y36.83
X10.795Y34.29
X10.795Y31.75
X10.795Y29.21
X10.795Y26.67
X10.795Y24.13
X10.795Y21.59
X10.795Y19.05
X16.51Y80.01
X16.51Y77.47
X16.51Y74.93
X16.51Y72.39
X16.51Y69.85
X16.51Y67.31
X16.51Y64.77
X16.51Y62.23
X16.51Y59.69
X16.51Y57.15
X16.51Y54.61
X16.51Y52.07
X16.51Y49.53
X16.51Y46.99
X16.51Y44.45
X16.51Y41.91
X16.51Y39.37
X16.51Y36.83
X16.51Y34.29
X16.51Y31.75
X16.51Y29.21
X16.51Y26.67
X16.51Y24.13
X16.51Y21.59
X16.51Y19.05
X19.05Y80.01
X19.05Y77.47
X19.05Y74.93
X19.05Y72.39
X19.05Y69.85
X19.05Y67.31
X19.05Y64.77
X19.05Y62.23
X19.05Y59.69
X19.05Y57.15
X19.05Y54.61
X19.05Y52.07
X19.05Y49.53
X19.05Y46.99
X19.05Y44.45
X19.05Y41.91
X19.05Y39.37
X19.05Y36.83
X19.05Y34.29
X19.05Y31.75
X19.05Y29.21
X19.05Y26.67
X19.05Y24.13
X19.05Y21.59
X19.05Y19.05
X60.96Y57.785
X60.96Y55.245
X60.96Y52.705
X60.96Y50.165
X60.96Y47.625
X60.96Y45.085
X69.85Y62.23
X69.85Y59.69
X69.85Y57.15
X69.85Y54.61
X69.85Y52.07
X69.85Y49.53
X69.85Y46.99
X69.85Y44.45
X69.85Y41.91
X79.248Y2.604
X81.788Y2.604
X84.328Y2.604
X95.25Y62.23
X95.25Y41.91
X97.79Y62.23
X97.79Y41.91
T5
X5.0Y95.0
X5.0Y5.0
X95.0Y95.0
X95.0Y5.0
T0
M30
