G04 #@! TF.GenerationSoftware,KiCad,Pcbnew,(5.1.9)-1*
G04 #@! TF.CreationDate,2023-08-05T17:19:47+09:00*
G04 #@! TF.ProjectId,PC-8001_SD,50432d38-3030-4315-9f53-442e6b696361,rev?*
G04 #@! TF.SameCoordinates,PX53920b0PY93c3260*
G04 #@! TF.FileFunction,Copper,L2,Bot*
G04 #@! TF.FilePolarity,Positive*
%FSLAX46Y46*%
G04 Gerber Fmt 4.6, Leading zero omitted, Abs format (unit mm)*
G04 Created by KiCad (PCBNEW (5.1.9)-1) date 2023-08-05 17:19:47*
%MOMM*%
%LPD*%
G01*
G04 APERTURE LIST*
G04 #@! TA.AperFunction,ComponentPad*
%ADD10C,1.600000*%
G04 #@! TD*
G04 #@! TA.AperFunction,ComponentPad*
%ADD11R,1.600000X2.400000*%
G04 #@! TD*
G04 #@! TA.AperFunction,ComponentPad*
%ADD12O,1.600000X2.400000*%
G04 #@! TD*
G04 #@! TA.AperFunction,ComponentPad*
%ADD13R,2.400000X1.600000*%
G04 #@! TD*
G04 #@! TA.AperFunction,ComponentPad*
%ADD14O,2.400000X1.600000*%
G04 #@! TD*
G04 #@! TA.AperFunction,ComponentPad*
%ADD15R,1.600000X1.600000*%
G04 #@! TD*
G04 #@! TA.AperFunction,ComponentPad*
%ADD16R,1.700000X1.700000*%
G04 #@! TD*
G04 #@! TA.AperFunction,ComponentPad*
%ADD17O,1.700000X1.700000*%
G04 #@! TD*
G04 #@! TA.AperFunction,ComponentPad*
%ADD18O,1.600000X1.600000*%
G04 #@! TD*
G04 #@! TA.AperFunction,ComponentPad*
%ADD19R,1.400000X1.400000*%
G04 #@! TD*
G04 #@! TA.AperFunction,ComponentPad*
%ADD20C,1.400000*%
G04 #@! TD*
G04 #@! TA.AperFunction,ViaPad*
%ADD21C,0.500000*%
G04 #@! TD*
G04 #@! TA.AperFunction,Conductor*
%ADD22C,0.400000*%
G04 #@! TD*
G04 #@! TA.AperFunction,Conductor*
%ADD23C,0.200000*%
G04 #@! TD*
G04 #@! TA.AperFunction,Conductor*
%ADD24C,0.254000*%
G04 #@! TD*
G04 #@! TA.AperFunction,Conductor*
%ADD25C,0.100000*%
G04 #@! TD*
G04 APERTURE END LIST*
D10*
X43852000Y58522000D03*
X46352000Y58522000D03*
D11*
X47877000Y77486000D03*
D12*
X80897000Y92726000D03*
X50417000Y77486000D03*
X78357000Y92726000D03*
X52957000Y77486000D03*
X75817000Y92726000D03*
X55497000Y77486000D03*
X73277000Y92726000D03*
X58037000Y77486000D03*
X70737000Y92726000D03*
X60577000Y77486000D03*
X68197000Y92726000D03*
X63117000Y77486000D03*
X65657000Y92726000D03*
X65657000Y77486000D03*
X63117000Y92726000D03*
X68197000Y77486000D03*
X60577000Y92726000D03*
X70737000Y77486000D03*
X58037000Y92726000D03*
X73277000Y77486000D03*
X55497000Y92726000D03*
X75817000Y77486000D03*
X52957000Y92726000D03*
X78357000Y77486000D03*
X50417000Y92726000D03*
X80897000Y77486000D03*
X47877000Y92726000D03*
D13*
X53377000Y6452000D03*
D14*
X38137000Y54712000D03*
X53377000Y8992000D03*
X38137000Y52172000D03*
X53377000Y11532000D03*
X38137000Y49632000D03*
X53377000Y14072000D03*
X38137000Y47092000D03*
X53377000Y16612000D03*
X38137000Y44552000D03*
X53377000Y19152000D03*
X38137000Y42012000D03*
X53377000Y21692000D03*
X38137000Y39472000D03*
X53377000Y24232000D03*
X38137000Y36932000D03*
X53377000Y26772000D03*
X38137000Y34392000D03*
X53377000Y29312000D03*
X38137000Y31852000D03*
X53377000Y31852000D03*
X38137000Y29312000D03*
X53377000Y34392000D03*
X38137000Y26772000D03*
X53377000Y36932000D03*
X38137000Y24232000D03*
X53377000Y39472000D03*
X38137000Y21692000D03*
X53377000Y42012000D03*
X38137000Y19152000D03*
X53377000Y44552000D03*
X38137000Y16612000D03*
X53377000Y47092000D03*
X38137000Y14072000D03*
X53377000Y49632000D03*
X38137000Y11532000D03*
X53377000Y52172000D03*
X38137000Y8992000D03*
X53377000Y54712000D03*
X38137000Y6452000D03*
D10*
X44067000Y86711000D03*
X44067000Y84211000D03*
D15*
X14335000Y8570000D03*
D10*
X14335000Y6070000D03*
X30584000Y15774000D03*
X28084000Y15774000D03*
X28107000Y45403000D03*
X30607000Y45403000D03*
X30734000Y73914000D03*
X28234000Y73914000D03*
D14*
X25504000Y19584000D03*
X33124000Y34824000D03*
X25504000Y22124000D03*
X33124000Y32284000D03*
X25504000Y24664000D03*
X33124000Y29744000D03*
X25504000Y27204000D03*
X33124000Y27204000D03*
X25504000Y29744000D03*
X33124000Y24664000D03*
X25504000Y32284000D03*
X33124000Y22124000D03*
X25504000Y34824000D03*
D13*
X33124000Y19584000D03*
X33319000Y77474000D03*
D14*
X25699000Y92714000D03*
X33319000Y80014000D03*
X25699000Y90174000D03*
X33319000Y82554000D03*
X25699000Y87634000D03*
X33319000Y85094000D03*
X25699000Y85094000D03*
X33319000Y87634000D03*
X25699000Y82554000D03*
X33319000Y90174000D03*
X25699000Y80014000D03*
X33319000Y92714000D03*
X25699000Y77474000D03*
D16*
X8255000Y19050000D03*
D17*
X5715000Y19050000D03*
X8255000Y21590000D03*
X5715000Y21590000D03*
X8255000Y24130000D03*
X5715000Y24130000D03*
X8255000Y26670000D03*
X5715000Y26670000D03*
X8255000Y29210000D03*
X5715000Y29210000D03*
X8255000Y31750000D03*
X5715000Y31750000D03*
X8255000Y34290000D03*
X5715000Y34290000D03*
X8255000Y36830000D03*
X5715000Y36830000D03*
X8255000Y39370000D03*
X5715000Y39370000D03*
X8255000Y41910000D03*
X5715000Y41910000D03*
X8255000Y44450000D03*
X5715000Y44450000D03*
X8255000Y46990000D03*
X5715000Y46990000D03*
X8255000Y49530000D03*
X5715000Y49530000D03*
X8255000Y52070000D03*
X5715000Y52070000D03*
X8255000Y54610000D03*
X5715000Y54610000D03*
X8255000Y57150000D03*
X5715000Y57150000D03*
X8255000Y59690000D03*
X5715000Y59690000D03*
X8255000Y62230000D03*
X5715000Y62230000D03*
X8255000Y64770000D03*
X5715000Y64770000D03*
X8255000Y67310000D03*
X5715000Y67310000D03*
X8255000Y69850000D03*
X5715000Y69850000D03*
X8255000Y72390000D03*
X5715000Y72390000D03*
X8255000Y74930000D03*
X5715000Y74930000D03*
X8255000Y77470000D03*
X5715000Y77470000D03*
X8255000Y80010000D03*
X5715000Y80010000D03*
D16*
X10795000Y19050000D03*
D17*
X10795000Y21590000D03*
X10795000Y24130000D03*
X10795000Y26670000D03*
X10795000Y29210000D03*
X10795000Y31750000D03*
X10795000Y34290000D03*
X10795000Y36830000D03*
X10795000Y39370000D03*
X10795000Y41910000D03*
X10795000Y44450000D03*
X10795000Y46990000D03*
X10795000Y49530000D03*
X10795000Y52070000D03*
X10795000Y54610000D03*
X10795000Y57150000D03*
X10795000Y59690000D03*
X10795000Y62230000D03*
X10795000Y64770000D03*
X10795000Y67310000D03*
X10795000Y69850000D03*
X10795000Y72390000D03*
X10795000Y74930000D03*
X10795000Y77470000D03*
X10795000Y80010000D03*
D16*
X79248000Y2604000D03*
D17*
X81788000Y2604000D03*
X84328000Y2604000D03*
D13*
X33274000Y49149000D03*
D14*
X25654000Y64389000D03*
X33274000Y51689000D03*
X25654000Y61849000D03*
X33274000Y54229000D03*
X25654000Y59309000D03*
X33274000Y56769000D03*
X25654000Y56769000D03*
X33274000Y59309000D03*
X25654000Y54229000D03*
X33274000Y61849000D03*
X25654000Y51689000D03*
X33274000Y64389000D03*
X25654000Y49149000D03*
D16*
X69850000Y62230000D03*
D17*
X69850000Y59690000D03*
X69850000Y57150000D03*
X69850000Y54610000D03*
X69850000Y52070000D03*
X69850000Y49530000D03*
X69850000Y46990000D03*
X69850000Y44450000D03*
X69850000Y41910000D03*
X97790000Y41910000D03*
X95250000Y41910000D03*
X97790000Y62230000D03*
X95250000Y62230000D03*
D15*
X91935000Y31710000D03*
D18*
X89395000Y31710000D03*
X86855000Y31710000D03*
X63995000Y16470000D03*
X84315000Y31710000D03*
X66535000Y16470000D03*
X81775000Y31710000D03*
X69075000Y16470000D03*
X79235000Y31710000D03*
X71615000Y16470000D03*
X76695000Y31710000D03*
X74155000Y16470000D03*
X74155000Y31710000D03*
X76695000Y16470000D03*
X71615000Y31710000D03*
X79235000Y16470000D03*
X69075000Y31710000D03*
X81775000Y16470000D03*
X66535000Y31710000D03*
X84315000Y16470000D03*
X63995000Y31710000D03*
X86855000Y16470000D03*
X89395000Y16470000D03*
X91935000Y16470000D03*
X83045000Y19010000D03*
X80505000Y19010000D03*
X72885000Y19010000D03*
X70345000Y19010000D03*
D16*
X60960000Y57785000D03*
D17*
X60960000Y55245000D03*
X60960000Y52705000D03*
X60960000Y50165000D03*
X60960000Y47625000D03*
X60960000Y45085000D03*
D19*
X42926000Y69469000D03*
D20*
X45426000Y69469000D03*
X47926000Y69469000D03*
X42926000Y66169000D03*
X45426000Y66169000D03*
X47926000Y66169000D03*
D16*
X19050000Y19050000D03*
D17*
X16510000Y19050000D03*
X19050000Y21590000D03*
X16510000Y21590000D03*
X19050000Y24130000D03*
X16510000Y24130000D03*
X19050000Y26670000D03*
X16510000Y26670000D03*
X19050000Y29210000D03*
X16510000Y29210000D03*
X19050000Y31750000D03*
X16510000Y31750000D03*
X19050000Y34290000D03*
X16510000Y34290000D03*
X19050000Y36830000D03*
X16510000Y36830000D03*
X19050000Y39370000D03*
X16510000Y39370000D03*
X19050000Y41910000D03*
X16510000Y41910000D03*
X19050000Y44450000D03*
X16510000Y44450000D03*
X19050000Y46990000D03*
X16510000Y46990000D03*
X19050000Y49530000D03*
X16510000Y49530000D03*
X19050000Y52070000D03*
X16510000Y52070000D03*
X19050000Y54610000D03*
X16510000Y54610000D03*
X19050000Y57150000D03*
X16510000Y57150000D03*
X19050000Y59690000D03*
X16510000Y59690000D03*
X19050000Y62230000D03*
X16510000Y62230000D03*
X19050000Y64770000D03*
X16510000Y64770000D03*
X19050000Y67310000D03*
X16510000Y67310000D03*
X19050000Y69850000D03*
X16510000Y69850000D03*
X19050000Y72390000D03*
X16510000Y72390000D03*
X19050000Y74930000D03*
X16510000Y74930000D03*
X19050000Y77470000D03*
X16510000Y77470000D03*
X19050000Y80010000D03*
X16510000Y80010000D03*
D21*
X30584000Y27204000D03*
X34846000Y74959900D03*
X27608700Y20187800D03*
X54222700Y58049800D03*
X35125700Y68105700D03*
X50583200Y54890000D03*
X32321700Y44298200D03*
X20906900Y58987800D03*
X27361800Y52998600D03*
X24101400Y55686500D03*
X31923400Y55341700D03*
X27422700Y30154400D03*
X23373200Y52444800D03*
X62756500Y64131500D03*
X22534800Y55814600D03*
X22279100Y64562300D03*
X23068000Y65139200D03*
X46785300Y48237000D03*
X44988200Y46041700D03*
X44107900Y45161400D03*
X42211400Y43264900D03*
X40812300Y42582800D03*
X70104800Y23379000D03*
X70734300Y34176900D03*
X44497200Y75718700D03*
D22*
X25504000Y19584000D02*
X27104300Y19584000D01*
X28107000Y45403000D02*
X28288600Y45221400D01*
X28288600Y45221400D02*
X28288600Y19878300D01*
X28288600Y19878300D02*
X27947700Y19537400D01*
X27947700Y19537400D02*
X27150900Y19537400D01*
X27150900Y19537400D02*
X27104300Y19584000D01*
X44067000Y90174000D02*
X44067000Y86711000D01*
X47877000Y91125700D02*
X45018700Y91125700D01*
X45018700Y91125700D02*
X44067000Y90174000D01*
X44067000Y90174000D02*
X34919300Y90174000D01*
X33319000Y90174000D02*
X34919300Y90174000D01*
X26499200Y85094000D02*
X27299300Y85094000D01*
X25699000Y85094000D02*
X26499200Y85094000D01*
X26499200Y82554000D02*
X27299300Y82554000D01*
X25699000Y82554000D02*
X26499200Y82554000D01*
X26499200Y82554000D02*
X26499200Y85094000D01*
X25699000Y77474000D02*
X27299300Y79074300D01*
X27299300Y79074300D02*
X27299300Y82554000D01*
X33319000Y90174000D02*
X31718700Y90174000D01*
X31718700Y90174000D02*
X31718700Y89513400D01*
X31718700Y89513400D02*
X27299300Y85094000D01*
X25654000Y54229000D02*
X24053700Y54229000D01*
X24053700Y49149000D02*
X24053700Y54229000D01*
X25654000Y49149000D02*
X24053700Y49149000D01*
X84315000Y16470000D02*
X83114700Y16470000D01*
X60960000Y55245000D02*
X62210300Y55245000D01*
X62210300Y55245000D02*
X66655300Y50800000D01*
X66655300Y50800000D02*
X70349400Y50800000D01*
X70349400Y50800000D02*
X77965000Y43184400D01*
X77965000Y43184400D02*
X77965000Y26130200D01*
X77965000Y26130200D02*
X81775000Y22320200D01*
X81775000Y22320200D02*
X81775000Y18574200D01*
X81775000Y18574200D02*
X83114700Y17234500D01*
X83114700Y17234500D02*
X83114700Y16470000D01*
X47877000Y92726000D02*
X47877000Y91125700D01*
X47877000Y77486000D02*
X47877000Y75885700D01*
X43852000Y58522000D02*
X46676700Y61346700D01*
X46676700Y61346700D02*
X46676700Y74685400D01*
X46676700Y74685400D02*
X47877000Y75885700D01*
X6965300Y79491900D02*
X6965300Y80010000D01*
X16510000Y78740000D02*
X7717200Y78740000D01*
X7717200Y78740000D02*
X6965300Y79491900D01*
X6965300Y79491900D02*
X6193700Y78720300D01*
X6193700Y78720300D02*
X5715000Y78720300D01*
X5715000Y77470000D02*
X5715000Y78720300D01*
X16510000Y78740000D02*
X16510000Y77470000D01*
X16510000Y80010000D02*
X16510000Y78740000D01*
X5715000Y80010000D02*
X6965300Y80010000D01*
X31673700Y64389000D02*
X30072100Y62787400D01*
X30072100Y62787400D02*
X30072100Y45937900D01*
X30072100Y45937900D02*
X30607000Y45403000D01*
X31523700Y34824000D02*
X30584000Y33884300D01*
X30584000Y33884300D02*
X30584000Y27204000D01*
X30607000Y45403000D02*
X30607000Y35740700D01*
X30607000Y35740700D02*
X31523700Y34824000D01*
X30584000Y15774000D02*
X30584000Y27204000D01*
X33124000Y34824000D02*
X31523700Y34824000D01*
X79248000Y2604000D02*
X79248000Y3854300D01*
X89395000Y16470000D02*
X89395000Y14001300D01*
X89395000Y14001300D02*
X79248000Y3854300D01*
X65424700Y57785000D02*
X68599700Y54610000D01*
X60960000Y57785000D02*
X65424700Y57785000D01*
X65424700Y57785000D02*
X65424700Y60413400D01*
X65424700Y60413400D02*
X80897000Y75885700D01*
X80897000Y77486000D02*
X80897000Y75885700D01*
X69850000Y54610000D02*
X68599700Y54610000D01*
X31846300Y64389000D02*
X31673700Y64389000D01*
X33274000Y64389000D02*
X31846300Y64389000D01*
X31673700Y64389000D02*
X31673700Y72974300D01*
X31673700Y72974300D02*
X30734000Y73914000D01*
D23*
X33124000Y22124000D02*
X31623700Y22124000D01*
X34846000Y74959900D02*
X35676000Y74129900D01*
X35676000Y74129900D02*
X35676000Y64802800D01*
X35676000Y64802800D02*
X34161800Y63288600D01*
X34161800Y63288600D02*
X32647000Y63288600D01*
X32647000Y63288600D02*
X30572400Y61214000D01*
X30572400Y61214000D02*
X30572400Y47071100D01*
X30572400Y47071100D02*
X31741700Y45901800D01*
X31741700Y45901800D02*
X31741700Y39006800D01*
X31741700Y39006800D02*
X34624300Y36124200D01*
X34624300Y36124200D02*
X34624300Y34325300D01*
X34624300Y34325300D02*
X33853000Y33554000D01*
X33853000Y33554000D02*
X32416000Y33554000D01*
X32416000Y33554000D02*
X31623700Y32761700D01*
X31623700Y32761700D02*
X31623700Y22124000D01*
X25504000Y24664000D02*
X27004300Y24664000D01*
X27004300Y24664000D02*
X27608700Y24059600D01*
X27608700Y24059600D02*
X27608700Y20187800D01*
X34624300Y32284000D02*
X35024600Y32684300D01*
X35024600Y32684300D02*
X35024600Y44800900D01*
X35024600Y44800900D02*
X31373000Y48452500D01*
X31373000Y48452500D02*
X31373000Y59394200D01*
X31373000Y59394200D02*
X32557800Y60579000D01*
X32557800Y60579000D02*
X33976200Y60579000D01*
X33976200Y60579000D02*
X36076300Y62679100D01*
X36076300Y62679100D02*
X36076300Y76217000D01*
X36076300Y76217000D02*
X34819300Y77474000D01*
X33124000Y32284000D02*
X34624300Y32284000D01*
X33319000Y77474000D02*
X34819300Y77474000D01*
X39637300Y21692000D02*
X41056300Y23111000D01*
X41056300Y23111000D02*
X54214400Y23111000D01*
X54214400Y23111000D02*
X58572900Y27469500D01*
X58572900Y27469500D02*
X58572900Y61281600D01*
X58572900Y61281600D02*
X73277000Y75985700D01*
X73277000Y77486000D02*
X73277000Y75985700D01*
X38137000Y21692000D02*
X39637300Y21692000D01*
X19050000Y21590000D02*
X17899700Y21590000D01*
X17899700Y21590000D02*
X17899700Y21877600D01*
X17899700Y21877600D02*
X17018000Y22759300D01*
X17018000Y22759300D02*
X15962700Y22759300D01*
X15962700Y22759300D02*
X14793400Y21590000D01*
X14793400Y21590000D02*
X10795000Y21590000D01*
X39637300Y24232000D02*
X40850100Y25444800D01*
X40850100Y25444800D02*
X54147600Y25444800D01*
X54147600Y25444800D02*
X58144400Y29441600D01*
X58144400Y29441600D02*
X58144400Y61466100D01*
X58144400Y61466100D02*
X72007000Y75328700D01*
X72007000Y75328700D02*
X72007000Y78179700D01*
X72007000Y78179700D02*
X72813600Y78986300D01*
X72813600Y78986300D02*
X75817000Y78986300D01*
X75817000Y77486000D02*
X75817000Y78986300D01*
X38137000Y24232000D02*
X39637300Y24232000D01*
X10795000Y24130000D02*
X11945300Y24130000D01*
X19050000Y24130000D02*
X17899700Y24130000D01*
X17899700Y24130000D02*
X17899700Y24417600D01*
X17899700Y24417600D02*
X17029400Y25287900D01*
X17029400Y25287900D02*
X13103200Y25287900D01*
X13103200Y25287900D02*
X11945300Y24130000D01*
X38137000Y26772000D02*
X39637300Y26772000D01*
X39637300Y26772000D02*
X51876600Y39011300D01*
X51876600Y39011300D02*
X51876600Y55703700D01*
X51876600Y55703700D02*
X54222700Y58049800D01*
X80897000Y91225700D02*
X69596400Y79925100D01*
X69596400Y79925100D02*
X69596400Y75119600D01*
X69596400Y75119600D02*
X51476300Y56999500D01*
X51476300Y56999500D02*
X51476300Y41151000D01*
X51476300Y41151000D02*
X39637300Y29312000D01*
X38137000Y29312000D02*
X39637300Y29312000D01*
X80897000Y92726000D02*
X80897000Y91225700D01*
X10795000Y29210000D02*
X11945300Y29210000D01*
X19050000Y29210000D02*
X17899700Y29210000D01*
X17899700Y29210000D02*
X17899700Y28922400D01*
X17899700Y28922400D02*
X16996700Y28019400D01*
X16996700Y28019400D02*
X13135900Y28019400D01*
X13135900Y28019400D02*
X11945300Y29210000D01*
X39637300Y31852000D02*
X49842400Y42057100D01*
X49842400Y42057100D02*
X49842400Y58620700D01*
X49842400Y58620700D02*
X66997700Y75776000D01*
X66997700Y75776000D02*
X66997700Y79866400D01*
X66997700Y79866400D02*
X78357000Y91225700D01*
X78357000Y92726000D02*
X78357000Y91225700D01*
X38137000Y31852000D02*
X39637300Y31852000D01*
X16510000Y32900300D02*
X16797700Y32900300D01*
X16797700Y32900300D02*
X17660300Y33762900D01*
X17660300Y33762900D02*
X17660300Y34588800D01*
X17660300Y34588800D02*
X18631500Y35560000D01*
X18631500Y35560000D02*
X19466600Y35560000D01*
X19466600Y35560000D02*
X21584100Y37677500D01*
X21584100Y37677500D02*
X21584100Y56919000D01*
X21584100Y56919000D02*
X21857500Y57192400D01*
X21857500Y57192400D02*
X21857500Y64205700D01*
X21857500Y64205700D02*
X21728800Y64334400D01*
X21728800Y64334400D02*
X21728800Y64790200D01*
X21728800Y64790200D02*
X29484000Y72545400D01*
X29484000Y72545400D02*
X29484000Y74225200D01*
X29484000Y74225200D02*
X30279000Y75020200D01*
X30279000Y75020200D02*
X31244700Y75020200D01*
X31244700Y75020200D02*
X35125700Y71139200D01*
X35125700Y71139200D02*
X35125700Y68105700D01*
X16510000Y31750000D02*
X16510000Y32900300D01*
X75817000Y92726000D02*
X75817000Y94226300D01*
X38137000Y34392000D02*
X36636700Y34392000D01*
X36636700Y34392000D02*
X36636700Y39951400D01*
X36636700Y39951400D02*
X37427300Y40742000D01*
X37427300Y40742000D02*
X40482700Y40742000D01*
X40482700Y40742000D02*
X47335700Y47595000D01*
X47335700Y47595000D02*
X47335700Y57812500D01*
X47335700Y57812500D02*
X59307000Y69783800D01*
X59307000Y69783800D02*
X59307000Y81635800D01*
X59307000Y81635800D02*
X69467000Y91795800D01*
X69467000Y91795800D02*
X69467000Y93453000D01*
X69467000Y93453000D02*
X70240300Y94226300D01*
X70240300Y94226300D02*
X75817000Y94226300D01*
X39637300Y36932000D02*
X49241900Y46536600D01*
X49241900Y46536600D02*
X49241900Y58586300D01*
X49241900Y58586300D02*
X64387000Y73731400D01*
X64387000Y73731400D02*
X64387000Y82335700D01*
X64387000Y82335700D02*
X73277000Y91225700D01*
X73277000Y92726000D02*
X73277000Y91225700D01*
X38137000Y36932000D02*
X39637300Y36932000D01*
X10795000Y36830000D02*
X11945300Y36830000D01*
X19050000Y36830000D02*
X17899700Y36830000D01*
X17899700Y36830000D02*
X17899700Y37117600D01*
X17899700Y37117600D02*
X16996700Y38020600D01*
X16996700Y38020600D02*
X13135900Y38020600D01*
X13135900Y38020600D02*
X11945300Y36830000D01*
X39637300Y39472000D02*
X39778800Y39472000D01*
X39778800Y39472000D02*
X48607000Y48300200D01*
X48607000Y48300200D02*
X48607000Y58517600D01*
X48607000Y58517600D02*
X61847000Y71757600D01*
X61847000Y71757600D02*
X61847000Y82335700D01*
X61847000Y82335700D02*
X70737000Y91225700D01*
X10795000Y39370000D02*
X11945300Y39370000D01*
X19050000Y39370000D02*
X17899700Y39370000D01*
X17899700Y39370000D02*
X17899700Y39657600D01*
X17899700Y39657600D02*
X17029400Y40527900D01*
X17029400Y40527900D02*
X13103200Y40527900D01*
X13103200Y40527900D02*
X11945300Y39370000D01*
X38137000Y39472000D02*
X39637300Y39472000D01*
X70737000Y92726000D02*
X70737000Y91225700D01*
X53377000Y26772000D02*
X54877300Y26772000D01*
X54877300Y26772000D02*
X54877300Y58765300D01*
X54877300Y58765300D02*
X70737000Y74625000D01*
X70737000Y74625000D02*
X70737000Y77486000D01*
X16510000Y43060300D02*
X16797700Y43060300D01*
X16797700Y43060300D02*
X17660300Y43922900D01*
X17660300Y43922900D02*
X17660300Y44748800D01*
X17660300Y44748800D02*
X18631500Y45720000D01*
X18631500Y45720000D02*
X19416000Y45720000D01*
X19416000Y45720000D02*
X20783500Y47087500D01*
X20783500Y47087500D02*
X20783500Y58086100D01*
X20783500Y58086100D02*
X21457200Y58759800D01*
X21457200Y58759800D02*
X21457200Y64039900D01*
X21457200Y64039900D02*
X21328500Y64168600D01*
X21328500Y64168600D02*
X21328500Y65112400D01*
X21328500Y65112400D02*
X21929000Y65712900D01*
X21929000Y65712900D02*
X21929000Y69181300D01*
X21929000Y69181300D02*
X31350100Y78602400D01*
X31350100Y78602400D02*
X42873700Y78602400D01*
X42873700Y78602400D02*
X55497000Y91225700D01*
X55497000Y92726000D02*
X55497000Y91225700D01*
X16510000Y41910000D02*
X16510000Y43060300D01*
X50583200Y54890000D02*
X50583200Y57663200D01*
X50583200Y57663200D02*
X68197000Y75277000D01*
X68197000Y75277000D02*
X68197000Y77486000D01*
X10795000Y46990000D02*
X11945300Y46990000D01*
X19050000Y46990000D02*
X17899700Y46990000D01*
X17899700Y46990000D02*
X17899700Y46702400D01*
X17899700Y46702400D02*
X17029400Y45832100D01*
X17029400Y45832100D02*
X13103200Y45832100D01*
X13103200Y45832100D02*
X11945300Y46990000D01*
X32321700Y44298200D02*
X32321700Y46454200D01*
X32321700Y46454200D02*
X30972700Y47803200D01*
X30972700Y47803200D02*
X30972700Y61048000D01*
X30972700Y61048000D02*
X31773700Y61849000D01*
X33274000Y61849000D02*
X31773700Y61849000D01*
X65657000Y94226300D02*
X65226300Y94657000D01*
X65226300Y94657000D02*
X18693100Y94657000D01*
X18693100Y94657000D02*
X3746900Y79710800D01*
X3746900Y79710800D02*
X3746900Y49820800D01*
X3746900Y49820800D02*
X5427400Y48140300D01*
X5427400Y48140300D02*
X5715000Y48140300D01*
X65657000Y92726000D02*
X65657000Y94226300D01*
X5715000Y46990000D02*
X5715000Y48140300D01*
X10795000Y49530000D02*
X11945300Y49530000D01*
X19050000Y49530000D02*
X17899700Y49530000D01*
X17899700Y49530000D02*
X17899700Y49242400D01*
X17899700Y49242400D02*
X16996700Y48339400D01*
X16996700Y48339400D02*
X13135900Y48339400D01*
X13135900Y48339400D02*
X11945300Y49530000D01*
X60577000Y94226300D02*
X55009200Y94226300D01*
X55009200Y94226300D02*
X54227000Y93444100D01*
X54227000Y93444100D02*
X54227000Y92025500D01*
X54227000Y92025500D02*
X47755200Y85553700D01*
X47755200Y85553700D02*
X41734800Y85553700D01*
X41734800Y85553700D02*
X41086300Y86202200D01*
X41086300Y86202200D02*
X32457400Y86202200D01*
X32457400Y86202200D02*
X29509000Y83253800D01*
X29509000Y83253800D02*
X29509000Y79325600D01*
X29509000Y79325600D02*
X21303400Y71120000D01*
X21303400Y71120000D02*
X16142500Y71120000D01*
X16142500Y71120000D02*
X14526600Y69504100D01*
X14526600Y69504100D02*
X14526600Y69396200D01*
X14526600Y69396200D02*
X11170400Y66040000D01*
X11170400Y66040000D02*
X7876800Y66040000D01*
X7876800Y66040000D02*
X7104600Y65267800D01*
X7104600Y65267800D02*
X7104600Y64495400D01*
X7104600Y64495400D02*
X5989600Y63380400D01*
X5989600Y63380400D02*
X5214500Y63380400D01*
X5214500Y63380400D02*
X4147200Y62313100D01*
X4147200Y62313100D02*
X4147200Y51960500D01*
X4147200Y51960500D02*
X5427400Y50680300D01*
X5427400Y50680300D02*
X5715000Y50680300D01*
X60577000Y92726000D02*
X60577000Y94226300D01*
X5715000Y49530000D02*
X5715000Y50680300D01*
X16510000Y52070000D02*
X17660300Y52070000D01*
X17660300Y52070000D02*
X17660300Y52357700D01*
X17660300Y52357700D02*
X18522900Y53220300D01*
X18522900Y53220300D02*
X19327200Y53220300D01*
X19327200Y53220300D02*
X20200400Y54093500D01*
X20200400Y54093500D02*
X20200400Y58281300D01*
X20200400Y58281300D02*
X20906900Y58987800D01*
X58037000Y77486000D02*
X58037000Y78986300D01*
X33274000Y54229000D02*
X34774300Y54229000D01*
X34774300Y54229000D02*
X34774300Y59896700D01*
X34774300Y59896700D02*
X36476700Y61599100D01*
X36476700Y61599100D02*
X36476700Y69092900D01*
X36476700Y69092900D02*
X46811100Y79427300D01*
X46811100Y79427300D02*
X57596000Y79427300D01*
X57596000Y79427300D02*
X58037000Y78986300D01*
X10795000Y54610000D02*
X11945300Y54610000D01*
X19050000Y54610000D02*
X17899700Y54610000D01*
X17899700Y54610000D02*
X17899700Y54322400D01*
X17899700Y54322400D02*
X17029400Y53452100D01*
X17029400Y53452100D02*
X13103200Y53452100D01*
X13103200Y53452100D02*
X11945300Y54610000D01*
X33319000Y82554000D02*
X31818700Y82554000D01*
X5715000Y54610000D02*
X6865300Y54610000D01*
X6865300Y54610000D02*
X6865300Y54897700D01*
X6865300Y54897700D02*
X7727900Y55760300D01*
X7727900Y55760300D02*
X8529400Y55760300D01*
X8529400Y55760300D02*
X9525000Y56755900D01*
X9525000Y56755900D02*
X9525000Y60065900D01*
X9525000Y60065900D02*
X10299500Y60840400D01*
X10299500Y60840400D02*
X11087900Y60840400D01*
X11087900Y60840400D02*
X14526600Y64279100D01*
X14526600Y64279100D02*
X14526600Y64499300D01*
X14526600Y64499300D02*
X16067300Y66040000D01*
X16067300Y66040000D02*
X19421000Y66040000D01*
X19421000Y66040000D02*
X20605900Y67224900D01*
X20605900Y67224900D02*
X20605900Y69840900D01*
X20605900Y69840900D02*
X31818700Y81053700D01*
X31818700Y81053700D02*
X31818700Y82554000D01*
X34774300Y51689000D02*
X35174700Y52089400D01*
X35174700Y52089400D02*
X35174700Y59217100D01*
X35174700Y59217100D02*
X40667900Y64710300D01*
X40667900Y64710300D02*
X40667900Y72705500D01*
X40667900Y72705500D02*
X46948700Y78986300D01*
X46948700Y78986300D02*
X55497000Y78986300D01*
X55497000Y77486000D02*
X55497000Y78986300D01*
X33274000Y51689000D02*
X34774300Y51689000D01*
X27361800Y52998600D02*
X27361800Y54488700D01*
X27361800Y54488700D02*
X26396900Y55453600D01*
X26396900Y55453600D02*
X24334300Y55453600D01*
X24334300Y55453600D02*
X24101400Y55686500D01*
X10795000Y57150000D02*
X11945300Y57150000D01*
X19050000Y57150000D02*
X17899700Y57150000D01*
X17899700Y57150000D02*
X17899700Y56862400D01*
X17899700Y56862400D02*
X17029400Y55992100D01*
X17029400Y55992100D02*
X13103200Y55992100D01*
X13103200Y55992100D02*
X11945300Y57150000D01*
X16510000Y57150000D02*
X17660400Y58300400D01*
X17660400Y58300400D02*
X19287400Y58300400D01*
X19287400Y58300400D02*
X20200400Y59213400D01*
X20200400Y59213400D02*
X20200400Y64750400D01*
X20200400Y64750400D02*
X21128400Y65678400D01*
X21128400Y65678400D02*
X21128400Y69323700D01*
X21128400Y69323700D02*
X31818700Y80014000D01*
X33319000Y80014000D02*
X31818700Y80014000D01*
X31773700Y49149000D02*
X31773700Y55192000D01*
X31773700Y55192000D02*
X31923400Y55341700D01*
X33274000Y49149000D02*
X31773700Y49149000D01*
X17899700Y59690000D02*
X17899700Y59402400D01*
X17899700Y59402400D02*
X17029400Y58532100D01*
X17029400Y58532100D02*
X13103200Y58532100D01*
X13103200Y58532100D02*
X11945300Y59690000D01*
X10795000Y59690000D02*
X11945300Y59690000D01*
X19050000Y59690000D02*
X17899700Y59690000D01*
X27422700Y30154400D02*
X27422700Y32357500D01*
X27422700Y32357500D02*
X26226200Y33554000D01*
X26226200Y33554000D02*
X24815200Y33554000D01*
X24815200Y33554000D02*
X23373200Y34996000D01*
X23373200Y34996000D02*
X23373200Y52444800D01*
X54877300Y16612000D02*
X58990000Y20724700D01*
X58990000Y20724700D02*
X58990000Y60365000D01*
X58990000Y60365000D02*
X62756500Y64131500D01*
X53377000Y16612000D02*
X54877300Y16612000D01*
X24003700Y22124000D02*
X22384700Y23743000D01*
X22384700Y23743000D02*
X22384700Y55664500D01*
X22384700Y55664500D02*
X22534800Y55814600D01*
X25504000Y22124000D02*
X24003700Y22124000D01*
X38137000Y16612000D02*
X36636700Y16612000D01*
X8255000Y64770000D02*
X8255000Y63619700D01*
X8255000Y63619700D02*
X7967300Y63619700D01*
X7967300Y63619700D02*
X7104700Y62757100D01*
X7104700Y62757100D02*
X7104700Y61931200D01*
X7104700Y61931200D02*
X6133500Y60960000D01*
X6133500Y60960000D02*
X5282700Y60960000D01*
X5282700Y60960000D02*
X4547500Y60224800D01*
X4547500Y60224800D02*
X4547500Y54078800D01*
X4547500Y54078800D02*
X5405900Y53220400D01*
X5405900Y53220400D02*
X8752700Y53220400D01*
X8752700Y53220400D02*
X9584700Y52388400D01*
X9584700Y52388400D02*
X9584700Y36339900D01*
X9584700Y36339900D02*
X10364800Y35559800D01*
X10364800Y35559800D02*
X11182200Y35559800D01*
X11182200Y35559800D02*
X14526600Y32215400D01*
X14526600Y32215400D02*
X14526600Y31998400D01*
X14526600Y31998400D02*
X16045000Y30480000D01*
X16045000Y30480000D02*
X19421300Y30480000D01*
X19421300Y30480000D02*
X20873600Y29027700D01*
X20873600Y29027700D02*
X20873600Y20805800D01*
X20873600Y20805800D02*
X27922500Y13756900D01*
X27922500Y13756900D02*
X33781600Y13756900D01*
X33781600Y13756900D02*
X36636700Y16612000D01*
X33124000Y19584000D02*
X33124000Y16152400D01*
X33124000Y16152400D02*
X31199200Y14227600D01*
X31199200Y14227600D02*
X28018100Y14227600D01*
X28018100Y14227600D02*
X21984400Y20261300D01*
X21984400Y20261300D02*
X21984400Y56753200D01*
X21984400Y56753200D02*
X22279100Y57047900D01*
X22279100Y57047900D02*
X22279100Y64562300D01*
X24003700Y32284000D02*
X22797400Y33490300D01*
X22797400Y33490300D02*
X22797400Y55298900D01*
X22797400Y55298900D02*
X23085100Y55586600D01*
X23085100Y55586600D02*
X23085100Y65122100D01*
X23085100Y65122100D02*
X23068000Y65139200D01*
X25504000Y32284000D02*
X24003700Y32284000D01*
X27004300Y34824000D02*
X27004300Y46924000D01*
X27004300Y46924000D02*
X27912100Y47831800D01*
X27912100Y47831800D02*
X27912100Y56011200D01*
X27912100Y56011200D02*
X27154300Y56769000D01*
X25504000Y34824000D02*
X27004300Y34824000D01*
X25654000Y56769000D02*
X27154300Y56769000D01*
X53377000Y19152000D02*
X51876700Y19152000D01*
X25654000Y64389000D02*
X27154300Y64389000D01*
X27154300Y64389000D02*
X29334000Y62209300D01*
X29334000Y62209300D02*
X29334000Y15456400D01*
X29334000Y15456400D02*
X30147700Y14642700D01*
X30147700Y14642700D02*
X31041200Y14642700D01*
X31041200Y14642700D02*
X31723800Y15325300D01*
X31723800Y15325300D02*
X31723800Y16774200D01*
X31723800Y16774200D02*
X31623600Y16874400D01*
X31623600Y16874400D02*
X31623600Y20576000D01*
X31623600Y20576000D02*
X31760000Y20712400D01*
X31760000Y20712400D02*
X34459300Y20712400D01*
X34459300Y20712400D02*
X37130900Y18040800D01*
X37130900Y18040800D02*
X50765500Y18040800D01*
X50765500Y18040800D02*
X51876700Y19152000D01*
X38137000Y54712000D02*
X39637300Y54712000D01*
X46785300Y48237000D02*
X46112300Y48237000D01*
X46112300Y48237000D02*
X39637300Y54712000D01*
X44988200Y46041700D02*
X39637300Y51392600D01*
X39637300Y51392600D02*
X39637300Y52172000D01*
X38137000Y52172000D02*
X39637300Y52172000D01*
X44107900Y45161400D02*
X39637300Y49632000D01*
X38137000Y49632000D02*
X39637300Y49632000D01*
X42211400Y43264900D02*
X39637300Y45839000D01*
X39637300Y45839000D02*
X39637300Y47092000D01*
X38137000Y47092000D02*
X39637300Y47092000D01*
X38137000Y44552000D02*
X39637300Y44552000D01*
X40812300Y42582800D02*
X39637300Y43757800D01*
X39637300Y43757800D02*
X39637300Y44552000D01*
X74155000Y16470000D02*
X73054700Y16470000D01*
X73054700Y16470000D02*
X73054700Y17252700D01*
X73054700Y17252700D02*
X71615000Y18692400D01*
X71615000Y18692400D02*
X71615000Y21868800D01*
X71615000Y21868800D02*
X70104800Y23379000D01*
X76695000Y16470000D02*
X76695000Y25658700D01*
X76695000Y25658700D02*
X72885000Y29468700D01*
X72885000Y29468700D02*
X72885000Y32026200D01*
X72885000Y32026200D02*
X70734300Y34176900D01*
X71615000Y16470000D02*
X70514700Y16470000D01*
X70514700Y16470000D02*
X70514700Y16332500D01*
X70514700Y16332500D02*
X69528200Y15346000D01*
X69528200Y15346000D02*
X66075700Y15346000D01*
X66075700Y15346000D02*
X65265000Y16156700D01*
X65265000Y16156700D02*
X65265000Y42457300D01*
X65265000Y42457300D02*
X61247600Y46474700D01*
X61247600Y46474700D02*
X60960000Y46474700D01*
X60960000Y47625000D02*
X60960000Y46474700D01*
X69850000Y48379700D02*
X70137600Y48379700D01*
X70137600Y48379700D02*
X71034300Y47483000D01*
X71034300Y47483000D02*
X71034300Y36560400D01*
X71034300Y36560400D02*
X70175500Y35701600D01*
X70175500Y35701600D02*
X70175500Y24227900D01*
X70175500Y24227900D02*
X69075000Y23127400D01*
X69075000Y23127400D02*
X69075000Y16470000D01*
X69850000Y49530000D02*
X69850000Y48379700D01*
X62110300Y52705000D02*
X65285300Y49530000D01*
X65285300Y49530000D02*
X69850000Y49530000D01*
X60960000Y52705000D02*
X62110300Y52705000D01*
X67635300Y46990000D02*
X69850000Y46990000D01*
X62110300Y50165000D02*
X65285300Y46990000D01*
X65285300Y46990000D02*
X67635300Y46990000D01*
X66535000Y17570300D02*
X67635300Y18670600D01*
X67635300Y18670600D02*
X67635300Y46990000D01*
X66535000Y16470000D02*
X66535000Y17570300D01*
X60960000Y50165000D02*
X62110300Y50165000D01*
X60960000Y45085000D02*
X60960000Y43934700D01*
X60960000Y43934700D02*
X60960000Y20605300D01*
X60960000Y20605300D02*
X63995000Y17570300D01*
X63995000Y16470000D02*
X63995000Y17570300D01*
X42926000Y68468700D02*
X43967900Y67426800D01*
X43967900Y67426800D02*
X43967900Y62499000D01*
X43967900Y62499000D02*
X36225500Y54756600D01*
X36225500Y54756600D02*
X36225500Y25940800D01*
X36225500Y25940800D02*
X34948700Y24664000D01*
X34948700Y24664000D02*
X34948700Y22891200D01*
X34948700Y22891200D02*
X37417900Y20422000D01*
X37417900Y20422000D02*
X54063700Y20422000D01*
X54063700Y20422000D02*
X54877400Y19608300D01*
X54877400Y19608300D02*
X54877400Y18669000D01*
X54877400Y18669000D02*
X54090400Y17882000D01*
X54090400Y17882000D02*
X52690300Y17882000D01*
X52690300Y17882000D02*
X51876600Y17068300D01*
X51876600Y17068300D02*
X51876600Y16129000D01*
X51876600Y16129000D02*
X52636000Y15369600D01*
X52636000Y15369600D02*
X62236900Y15369600D01*
X62236900Y15369600D02*
X76152900Y1453600D01*
X76152900Y1453600D02*
X80300800Y1453600D01*
X80300800Y1453600D02*
X80637700Y1790500D01*
X80637700Y1790500D02*
X80637700Y2604000D01*
X34948700Y24664000D02*
X34624300Y24664000D01*
X81788000Y2604000D02*
X80637700Y2604000D01*
X33124000Y24664000D02*
X34624300Y24664000D01*
X42926000Y69469000D02*
X42926000Y68468700D01*
X47926000Y66169000D02*
X47926000Y69469000D01*
X34624300Y27204000D02*
X35825100Y28404800D01*
X35825100Y28404800D02*
X35825100Y59068100D01*
X35825100Y59068100D02*
X42926000Y66169000D01*
X33124000Y27204000D02*
X34624300Y27204000D01*
X45426000Y66169000D02*
X44425600Y67169400D01*
X44425600Y67169400D02*
X44425600Y75647100D01*
X44425600Y75647100D02*
X44497200Y75718700D01*
X5715000Y21590000D02*
X6865300Y21590000D01*
X16510000Y21590000D02*
X15359700Y21590000D01*
X15359700Y21590000D02*
X14204900Y20435200D01*
X14204900Y20435200D02*
X7781700Y20435200D01*
X7781700Y20435200D02*
X6865300Y21351600D01*
X6865300Y21351600D02*
X6865300Y21590000D01*
X5715000Y24130000D02*
X6865300Y24130000D01*
X16510000Y24130000D02*
X15359700Y24130000D01*
X15359700Y24130000D02*
X14169100Y22939400D01*
X14169100Y22939400D02*
X7817500Y22939400D01*
X7817500Y22939400D02*
X6865300Y23891600D01*
X6865300Y23891600D02*
X6865300Y24130000D01*
X10795000Y74930000D02*
X11945300Y74930000D01*
X19050000Y74930000D02*
X17899700Y74930000D01*
X17899700Y74930000D02*
X17899700Y74642400D01*
X17899700Y74642400D02*
X17029400Y73772100D01*
X17029400Y73772100D02*
X13103200Y73772100D01*
X13103200Y73772100D02*
X11945300Y74930000D01*
D24*
X99340000Y660000D02*
X660000Y660000D01*
X660000Y5220128D01*
X2765000Y5220128D01*
X2765000Y4779872D01*
X2850890Y4348075D01*
X3019369Y3941331D01*
X3263962Y3575271D01*
X3575271Y3263962D01*
X3941331Y3019369D01*
X4348075Y2850890D01*
X4779872Y2765000D01*
X5220128Y2765000D01*
X5651925Y2850890D01*
X6058669Y3019369D01*
X6424729Y3263962D01*
X6736038Y3575271D01*
X6980631Y3941331D01*
X7149110Y4348075D01*
X7235000Y4779872D01*
X7235000Y5077298D01*
X13521903Y5077298D01*
X13593486Y4833329D01*
X13848996Y4712429D01*
X14123184Y4643700D01*
X14405512Y4629783D01*
X14685130Y4671213D01*
X14951292Y4766397D01*
X15076514Y4833329D01*
X15148097Y5077298D01*
X14335000Y5890395D01*
X13521903Y5077298D01*
X7235000Y5077298D01*
X7235000Y5220128D01*
X7149110Y5651925D01*
X7005145Y5999488D01*
X12894783Y5999488D01*
X12936213Y5719870D01*
X13031397Y5453708D01*
X13098329Y5328486D01*
X13342298Y5256903D01*
X14155395Y6070000D01*
X14514605Y6070000D01*
X15327702Y5256903D01*
X15571671Y5328486D01*
X15692571Y5583996D01*
X15761300Y5858184D01*
X15775217Y6140512D01*
X15733787Y6420130D01*
X15638603Y6686292D01*
X15571671Y6811514D01*
X15327702Y6883097D01*
X14514605Y6070000D01*
X14155395Y6070000D01*
X13342298Y6883097D01*
X13098329Y6811514D01*
X12977429Y6556004D01*
X12908700Y6281816D01*
X12894783Y5999488D01*
X7005145Y5999488D01*
X6980631Y6058669D01*
X6736038Y6424729D01*
X6424729Y6736038D01*
X6058669Y6980631D01*
X5651925Y7149110D01*
X5220128Y7235000D01*
X4779872Y7235000D01*
X4348075Y7149110D01*
X3941331Y6980631D01*
X3575271Y6736038D01*
X3263962Y6424729D01*
X3019369Y6058669D01*
X2850890Y5651925D01*
X2765000Y5220128D01*
X660000Y5220128D01*
X660000Y9370000D01*
X12896928Y9370000D01*
X12896928Y7770000D01*
X12909188Y7645518D01*
X12945498Y7525820D01*
X13004463Y7415506D01*
X13083815Y7318815D01*
X13180506Y7239463D01*
X13290820Y7180498D01*
X13410518Y7144188D01*
X13535000Y7131928D01*
X13542215Y7131928D01*
X13521903Y7062702D01*
X14335000Y6249605D01*
X15148097Y7062702D01*
X15127785Y7131928D01*
X15135000Y7131928D01*
X15259482Y7144188D01*
X15379180Y7180498D01*
X15489494Y7239463D01*
X15586185Y7318815D01*
X15665537Y7415506D01*
X15724502Y7525820D01*
X15760812Y7645518D01*
X15773072Y7770000D01*
X15773072Y9370000D01*
X15760812Y9494482D01*
X15724502Y9614180D01*
X15665537Y9724494D01*
X15586185Y9821185D01*
X15489494Y9900537D01*
X15379180Y9959502D01*
X15259482Y9995812D01*
X15135000Y10008072D01*
X13535000Y10008072D01*
X13410518Y9995812D01*
X13290820Y9959502D01*
X13180506Y9900537D01*
X13083815Y9821185D01*
X13004463Y9724494D01*
X12945498Y9614180D01*
X12909188Y9494482D01*
X12896928Y9370000D01*
X660000Y9370000D01*
X660000Y79710800D01*
X3008344Y79710800D01*
X3011900Y79674695D01*
X3011901Y49856915D01*
X3008344Y49820800D01*
X3022535Y49676715D01*
X3064564Y49538167D01*
X3132814Y49410480D01*
X3224663Y49298562D01*
X3252708Y49275546D01*
X4576573Y47951680D01*
X4561525Y47936632D01*
X4399010Y47693411D01*
X4287068Y47423158D01*
X4230000Y47136260D01*
X4230000Y46843740D01*
X4287068Y46556842D01*
X4399010Y46286589D01*
X4561525Y46043368D01*
X4768368Y45836525D01*
X4942760Y45720000D01*
X4768368Y45603475D01*
X4561525Y45396632D01*
X4399010Y45153411D01*
X4287068Y44883158D01*
X4230000Y44596260D01*
X4230000Y44303740D01*
X4287068Y44016842D01*
X4399010Y43746589D01*
X4561525Y43503368D01*
X4768368Y43296525D01*
X4942760Y43180000D01*
X4768368Y43063475D01*
X4561525Y42856632D01*
X4399010Y42613411D01*
X4287068Y42343158D01*
X4230000Y42056260D01*
X4230000Y41763740D01*
X4287068Y41476842D01*
X4399010Y41206589D01*
X4561525Y40963368D01*
X4768368Y40756525D01*
X4942760Y40640000D01*
X4768368Y40523475D01*
X4561525Y40316632D01*
X4399010Y40073411D01*
X4287068Y39803158D01*
X4230000Y39516260D01*
X4230000Y39223740D01*
X4287068Y38936842D01*
X4399010Y38666589D01*
X4561525Y38423368D01*
X4768368Y38216525D01*
X4942760Y38100000D01*
X4768368Y37983475D01*
X4561525Y37776632D01*
X4399010Y37533411D01*
X4287068Y37263158D01*
X4230000Y36976260D01*
X4230000Y36683740D01*
X4287068Y36396842D01*
X4399010Y36126589D01*
X4561525Y35883368D01*
X4768368Y35676525D01*
X4942760Y35560000D01*
X4768368Y35443475D01*
X4561525Y35236632D01*
X4399010Y34993411D01*
X4287068Y34723158D01*
X4230000Y34436260D01*
X4230000Y34143740D01*
X4287068Y33856842D01*
X4399010Y33586589D01*
X4561525Y33343368D01*
X4768368Y33136525D01*
X4942760Y33020000D01*
X4768368Y32903475D01*
X4561525Y32696632D01*
X4399010Y32453411D01*
X4287068Y32183158D01*
X4230000Y31896260D01*
X4230000Y31603740D01*
X4287068Y31316842D01*
X4399010Y31046589D01*
X4561525Y30803368D01*
X4768368Y30596525D01*
X4942760Y30480000D01*
X4768368Y30363475D01*
X4561525Y30156632D01*
X4399010Y29913411D01*
X4287068Y29643158D01*
X4230000Y29356260D01*
X4230000Y29063740D01*
X4287068Y28776842D01*
X4399010Y28506589D01*
X4561525Y28263368D01*
X4768368Y28056525D01*
X4942760Y27940000D01*
X4768368Y27823475D01*
X4561525Y27616632D01*
X4399010Y27373411D01*
X4287068Y27103158D01*
X4230000Y26816260D01*
X4230000Y26523740D01*
X4287068Y26236842D01*
X4399010Y25966589D01*
X4561525Y25723368D01*
X4768368Y25516525D01*
X4942760Y25400000D01*
X4768368Y25283475D01*
X4561525Y25076632D01*
X4399010Y24833411D01*
X4287068Y24563158D01*
X4230000Y24276260D01*
X4230000Y23983740D01*
X4287068Y23696842D01*
X4399010Y23426589D01*
X4561525Y23183368D01*
X4768368Y22976525D01*
X4942760Y22860000D01*
X4768368Y22743475D01*
X4561525Y22536632D01*
X4399010Y22293411D01*
X4287068Y22023158D01*
X4230000Y21736260D01*
X4230000Y21443740D01*
X4287068Y21156842D01*
X4399010Y20886589D01*
X4561525Y20643368D01*
X4768368Y20436525D01*
X4942760Y20320000D01*
X4768368Y20203475D01*
X4561525Y19996632D01*
X4399010Y19753411D01*
X4287068Y19483158D01*
X4230000Y19196260D01*
X4230000Y18903740D01*
X4287068Y18616842D01*
X4399010Y18346589D01*
X4561525Y18103368D01*
X4768368Y17896525D01*
X5011589Y17734010D01*
X5281842Y17622068D01*
X5568740Y17565000D01*
X5861260Y17565000D01*
X6148158Y17622068D01*
X6418411Y17734010D01*
X6661632Y17896525D01*
X6793487Y18028380D01*
X6815498Y17955820D01*
X6874463Y17845506D01*
X6953815Y17748815D01*
X7050506Y17669463D01*
X7160820Y17610498D01*
X7280518Y17574188D01*
X7405000Y17561928D01*
X9105000Y17561928D01*
X9229482Y17574188D01*
X9349180Y17610498D01*
X9459494Y17669463D01*
X9525000Y17723222D01*
X9590506Y17669463D01*
X9700820Y17610498D01*
X9820518Y17574188D01*
X9945000Y17561928D01*
X11645000Y17561928D01*
X11769482Y17574188D01*
X11889180Y17610498D01*
X11999494Y17669463D01*
X12096185Y17748815D01*
X12175537Y17845506D01*
X12234502Y17955820D01*
X12270812Y18075518D01*
X12283072Y18200000D01*
X12283072Y19700200D01*
X14168795Y19700200D01*
X14204900Y19696644D01*
X14241005Y19700200D01*
X14348985Y19710835D01*
X14487533Y19752863D01*
X14615220Y19821113D01*
X14727138Y19912962D01*
X14750158Y19941012D01*
X15404520Y20595373D01*
X15563368Y20436525D01*
X15737760Y20320000D01*
X15563368Y20203475D01*
X15356525Y19996632D01*
X15194010Y19753411D01*
X15082068Y19483158D01*
X15025000Y19196260D01*
X15025000Y18903740D01*
X15082068Y18616842D01*
X15194010Y18346589D01*
X15356525Y18103368D01*
X15563368Y17896525D01*
X15806589Y17734010D01*
X16076842Y17622068D01*
X16363740Y17565000D01*
X16656260Y17565000D01*
X16943158Y17622068D01*
X17213411Y17734010D01*
X17456632Y17896525D01*
X17588487Y18028380D01*
X17610498Y17955820D01*
X17669463Y17845506D01*
X17748815Y17748815D01*
X17845506Y17669463D01*
X17955820Y17610498D01*
X18075518Y17574188D01*
X18200000Y17561928D01*
X19900000Y17561928D01*
X20024482Y17574188D01*
X20144180Y17610498D01*
X20254494Y17669463D01*
X20351185Y17748815D01*
X20430537Y17845506D01*
X20489502Y17955820D01*
X20525812Y18075518D01*
X20538072Y18200000D01*
X20538072Y19900000D01*
X20525812Y20024482D01*
X20489502Y20144180D01*
X20482300Y20157654D01*
X27377246Y13262707D01*
X27400262Y13234662D01*
X27512180Y13142813D01*
X27639867Y13074563D01*
X27736386Y13045284D01*
X27778414Y13032535D01*
X27922500Y13018344D01*
X27958605Y13021900D01*
X33745495Y13021900D01*
X33781600Y13018344D01*
X33817705Y13021900D01*
X33925685Y13032535D01*
X34064233Y13074563D01*
X34191920Y13142813D01*
X34303838Y13234662D01*
X34326859Y13262713D01*
X36689962Y15625815D01*
X36717392Y15592392D01*
X36935899Y15413068D01*
X37068858Y15342000D01*
X36935899Y15270932D01*
X36717392Y15091608D01*
X36538068Y14873101D01*
X36404818Y14623808D01*
X36322764Y14353309D01*
X36295057Y14072000D01*
X36322764Y13790691D01*
X36404818Y13520192D01*
X36538068Y13270899D01*
X36717392Y13052392D01*
X36935899Y12873068D01*
X37068858Y12802000D01*
X36935899Y12730932D01*
X36717392Y12551608D01*
X36538068Y12333101D01*
X36404818Y12083808D01*
X36322764Y11813309D01*
X36295057Y11532000D01*
X36322764Y11250691D01*
X36404818Y10980192D01*
X36538068Y10730899D01*
X36717392Y10512392D01*
X36935899Y10333068D01*
X37068858Y10262000D01*
X36935899Y10190932D01*
X36717392Y10011608D01*
X36538068Y9793101D01*
X36404818Y9543808D01*
X36322764Y9273309D01*
X36295057Y8992000D01*
X36322764Y8710691D01*
X36404818Y8440192D01*
X36538068Y8190899D01*
X36717392Y7972392D01*
X36935899Y7793068D01*
X37068858Y7722000D01*
X36935899Y7650932D01*
X36717392Y7471608D01*
X36538068Y7253101D01*
X36404818Y7003808D01*
X36322764Y6733309D01*
X36295057Y6452000D01*
X36322764Y6170691D01*
X36404818Y5900192D01*
X36538068Y5650899D01*
X36717392Y5432392D01*
X36935899Y5253068D01*
X37185192Y5119818D01*
X37455691Y5037764D01*
X37666508Y5017000D01*
X38607492Y5017000D01*
X38818309Y5037764D01*
X39088808Y5119818D01*
X39338101Y5253068D01*
X39556608Y5432392D01*
X39735932Y5650899D01*
X39869182Y5900192D01*
X39951236Y6170691D01*
X39978943Y6452000D01*
X39951236Y6733309D01*
X39869182Y7003808D01*
X39735932Y7253101D01*
X39556608Y7471608D01*
X39338101Y7650932D01*
X39205142Y7722000D01*
X39338101Y7793068D01*
X39556608Y7972392D01*
X39735932Y8190899D01*
X39869182Y8440192D01*
X39951236Y8710691D01*
X39978943Y8992000D01*
X39951236Y9273309D01*
X39869182Y9543808D01*
X39735932Y9793101D01*
X39556608Y10011608D01*
X39338101Y10190932D01*
X39205142Y10262000D01*
X39338101Y10333068D01*
X39556608Y10512392D01*
X39735932Y10730899D01*
X39869182Y10980192D01*
X39951236Y11250691D01*
X39978943Y11532000D01*
X39951236Y11813309D01*
X39869182Y12083808D01*
X39735932Y12333101D01*
X39556608Y12551608D01*
X39338101Y12730932D01*
X39205142Y12802000D01*
X39338101Y12873068D01*
X39556608Y13052392D01*
X39735932Y13270899D01*
X39869182Y13520192D01*
X39951236Y13790691D01*
X39978943Y14072000D01*
X39951236Y14353309D01*
X39869182Y14623808D01*
X39735932Y14873101D01*
X39556608Y15091608D01*
X39338101Y15270932D01*
X39205142Y15342000D01*
X39338101Y15413068D01*
X39556608Y15592392D01*
X39735932Y15810899D01*
X39869182Y16060192D01*
X39951236Y16330691D01*
X39978943Y16612000D01*
X39951236Y16893309D01*
X39869182Y17163808D01*
X39793286Y17305800D01*
X50729395Y17305800D01*
X50765500Y17302244D01*
X50801605Y17305800D01*
X50909585Y17316435D01*
X51048133Y17358463D01*
X51175820Y17426713D01*
X51287738Y17518562D01*
X51310758Y17546612D01*
X51352893Y17588746D01*
X51262513Y17478619D01*
X51194263Y17350932D01*
X51169225Y17268393D01*
X51152235Y17212385D01*
X51138044Y17068300D01*
X51141600Y17032194D01*
X51141601Y16165114D01*
X51138044Y16129000D01*
X51152235Y15984915D01*
X51191306Y15856119D01*
X51194264Y15846367D01*
X51262514Y15718680D01*
X51354363Y15606762D01*
X51382408Y15583746D01*
X51920048Y15046105D01*
X51778068Y14873101D01*
X51644818Y14623808D01*
X51562764Y14353309D01*
X51535057Y14072000D01*
X51562764Y13790691D01*
X51644818Y13520192D01*
X51778068Y13270899D01*
X51957392Y13052392D01*
X52175899Y12873068D01*
X52308858Y12802000D01*
X52175899Y12730932D01*
X51957392Y12551608D01*
X51778068Y12333101D01*
X51644818Y12083808D01*
X51562764Y11813309D01*
X51535057Y11532000D01*
X51562764Y11250691D01*
X51644818Y10980192D01*
X51778068Y10730899D01*
X51957392Y10512392D01*
X52175899Y10333068D01*
X52308858Y10262000D01*
X52175899Y10190932D01*
X51957392Y10011608D01*
X51778068Y9793101D01*
X51644818Y9543808D01*
X51562764Y9273309D01*
X51535057Y8992000D01*
X51562764Y8710691D01*
X51644818Y8440192D01*
X51778068Y8190899D01*
X51957392Y7972392D01*
X52070482Y7879581D01*
X52052518Y7877812D01*
X51932820Y7841502D01*
X51822506Y7782537D01*
X51725815Y7703185D01*
X51646463Y7606494D01*
X51587498Y7496180D01*
X51551188Y7376482D01*
X51538928Y7252000D01*
X51538928Y5652000D01*
X51551188Y5527518D01*
X51587498Y5407820D01*
X51646463Y5297506D01*
X51725815Y5200815D01*
X51822506Y5121463D01*
X51932820Y5062498D01*
X52052518Y5026188D01*
X52177000Y5013928D01*
X54577000Y5013928D01*
X54701482Y5026188D01*
X54821180Y5062498D01*
X54931494Y5121463D01*
X55028185Y5200815D01*
X55107537Y5297506D01*
X55166502Y5407820D01*
X55202812Y5527518D01*
X55215072Y5652000D01*
X55215072Y7252000D01*
X55202812Y7376482D01*
X55166502Y7496180D01*
X55107537Y7606494D01*
X55028185Y7703185D01*
X54931494Y7782537D01*
X54821180Y7841502D01*
X54701482Y7877812D01*
X54683518Y7879581D01*
X54796608Y7972392D01*
X54975932Y8190899D01*
X55109182Y8440192D01*
X55191236Y8710691D01*
X55218943Y8992000D01*
X55191236Y9273309D01*
X55109182Y9543808D01*
X54975932Y9793101D01*
X54796608Y10011608D01*
X54578101Y10190932D01*
X54445142Y10262000D01*
X54578101Y10333068D01*
X54796608Y10512392D01*
X54975932Y10730899D01*
X55109182Y10980192D01*
X55191236Y11250691D01*
X55218943Y11532000D01*
X55191236Y11813309D01*
X55109182Y12083808D01*
X54975932Y12333101D01*
X54796608Y12551608D01*
X54578101Y12730932D01*
X54445142Y12802000D01*
X54578101Y12873068D01*
X54796608Y13052392D01*
X54975932Y13270899D01*
X55109182Y13520192D01*
X55191236Y13790691D01*
X55218943Y14072000D01*
X55191236Y14353309D01*
X55109182Y14623808D01*
X55103414Y14634600D01*
X61932454Y14634600D01*
X75607646Y959407D01*
X75630662Y931362D01*
X75742580Y839513D01*
X75870267Y771263D01*
X76008815Y729235D01*
X76152900Y715044D01*
X76189005Y718600D01*
X80264695Y718600D01*
X80300800Y715044D01*
X80336905Y718600D01*
X80444885Y729235D01*
X80583433Y771263D01*
X80711120Y839513D01*
X80823038Y931362D01*
X80846059Y959413D01*
X81131892Y1245246D01*
X81150655Y1260645D01*
X81354842Y1176068D01*
X81641740Y1119000D01*
X81934260Y1119000D01*
X82221158Y1176068D01*
X82491411Y1288010D01*
X82734632Y1450525D01*
X82941475Y1657368D01*
X83058000Y1831760D01*
X83174525Y1657368D01*
X83381368Y1450525D01*
X83624589Y1288010D01*
X83894842Y1176068D01*
X84181740Y1119000D01*
X84474260Y1119000D01*
X84761158Y1176068D01*
X85031411Y1288010D01*
X85274632Y1450525D01*
X85481475Y1657368D01*
X85643990Y1900589D01*
X85755932Y2170842D01*
X85813000Y2457740D01*
X85813000Y2750260D01*
X85755932Y3037158D01*
X85643990Y3307411D01*
X85481475Y3550632D01*
X85274632Y3757475D01*
X85031411Y3919990D01*
X84761158Y4031932D01*
X84474260Y4089000D01*
X84181740Y4089000D01*
X83894842Y4031932D01*
X83624589Y3919990D01*
X83381368Y3757475D01*
X83174525Y3550632D01*
X83058000Y3376240D01*
X82941475Y3550632D01*
X82734632Y3757475D01*
X82491411Y3919990D01*
X82221158Y4031932D01*
X81934260Y4089000D01*
X81641740Y4089000D01*
X81354842Y4031932D01*
X81084589Y3919990D01*
X80841368Y3757475D01*
X80709513Y3625620D01*
X80687502Y3698180D01*
X80628537Y3808494D01*
X80549185Y3905185D01*
X80452494Y3984537D01*
X80342180Y4043502D01*
X80222482Y4079812D01*
X80098000Y4092072D01*
X79533750Y4089000D01*
X79375000Y3930250D01*
X79375000Y2731000D01*
X79395000Y2731000D01*
X79395000Y2477000D01*
X79375000Y2477000D01*
X79375000Y2457000D01*
X79121000Y2457000D01*
X79121000Y2477000D01*
X77921750Y2477000D01*
X77763000Y2318250D01*
X77762294Y2188600D01*
X76457347Y2188600D01*
X75191947Y3454000D01*
X77759928Y3454000D01*
X77763000Y2889750D01*
X77921750Y2731000D01*
X79121000Y2731000D01*
X79121000Y3930250D01*
X78962250Y4089000D01*
X78398000Y4092072D01*
X78273518Y4079812D01*
X78153820Y4043502D01*
X78043506Y3984537D01*
X77946815Y3905185D01*
X77867463Y3808494D01*
X77808498Y3698180D01*
X77772188Y3578482D01*
X77759928Y3454000D01*
X75191947Y3454000D01*
X73425819Y5220128D01*
X92765000Y5220128D01*
X92765000Y4779872D01*
X92850890Y4348075D01*
X93019369Y3941331D01*
X93263962Y3575271D01*
X93575271Y3263962D01*
X93941331Y3019369D01*
X94348075Y2850890D01*
X94779872Y2765000D01*
X95220128Y2765000D01*
X95651925Y2850890D01*
X96058669Y3019369D01*
X96424729Y3263962D01*
X96736038Y3575271D01*
X96980631Y3941331D01*
X97149110Y4348075D01*
X97235000Y4779872D01*
X97235000Y5220128D01*
X97149110Y5651925D01*
X96980631Y6058669D01*
X96736038Y6424729D01*
X96424729Y6736038D01*
X96058669Y6980631D01*
X95651925Y7149110D01*
X95220128Y7235000D01*
X94779872Y7235000D01*
X94348075Y7149110D01*
X93941331Y6980631D01*
X93575271Y6736038D01*
X93263962Y6424729D01*
X93019369Y6058669D01*
X92850890Y5651925D01*
X92765000Y5220128D01*
X73425819Y5220128D01*
X63541214Y15104732D01*
X63576426Y15090147D01*
X63853665Y15035000D01*
X64136335Y15035000D01*
X64413574Y15090147D01*
X64674727Y15198320D01*
X64909759Y15355363D01*
X64968325Y15413929D01*
X65530446Y14851807D01*
X65553462Y14823762D01*
X65665380Y14731913D01*
X65793067Y14663663D01*
X65900598Y14631044D01*
X65931615Y14621635D01*
X66075700Y14607444D01*
X66111805Y14611000D01*
X69492095Y14611000D01*
X69528200Y14607444D01*
X69564305Y14611000D01*
X69672285Y14621635D01*
X69810833Y14663663D01*
X69938520Y14731913D01*
X70050438Y14823762D01*
X70073458Y14851812D01*
X70638625Y15416979D01*
X70700241Y15355363D01*
X70935273Y15198320D01*
X71196426Y15090147D01*
X71473665Y15035000D01*
X71756335Y15035000D01*
X72033574Y15090147D01*
X72294727Y15198320D01*
X72529759Y15355363D01*
X72729637Y15555241D01*
X72865914Y15759195D01*
X72910615Y15745635D01*
X72913324Y15745368D01*
X73040363Y15555241D01*
X73240241Y15355363D01*
X73475273Y15198320D01*
X73736426Y15090147D01*
X74013665Y15035000D01*
X74296335Y15035000D01*
X74573574Y15090147D01*
X74834727Y15198320D01*
X75069759Y15355363D01*
X75269637Y15555241D01*
X75425000Y15787759D01*
X75580363Y15555241D01*
X75780241Y15355363D01*
X76015273Y15198320D01*
X76276426Y15090147D01*
X76553665Y15035000D01*
X76836335Y15035000D01*
X77113574Y15090147D01*
X77374727Y15198320D01*
X77609759Y15355363D01*
X77809637Y15555241D01*
X77965000Y15787759D01*
X78120363Y15555241D01*
X78320241Y15355363D01*
X78555273Y15198320D01*
X78816426Y15090147D01*
X79093665Y15035000D01*
X79376335Y15035000D01*
X79653574Y15090147D01*
X79914727Y15198320D01*
X80149759Y15355363D01*
X80349637Y15555241D01*
X80505000Y15787759D01*
X80660363Y15555241D01*
X80860241Y15355363D01*
X81095273Y15198320D01*
X81356426Y15090147D01*
X81633665Y15035000D01*
X81916335Y15035000D01*
X82193574Y15090147D01*
X82454727Y15198320D01*
X82689759Y15355363D01*
X82889637Y15555241D01*
X82951004Y15647084D01*
X82951011Y15647082D01*
X83073681Y15635000D01*
X83073682Y15635000D01*
X83114700Y15630960D01*
X83147604Y15634201D01*
X83200363Y15555241D01*
X83400241Y15355363D01*
X83635273Y15198320D01*
X83896426Y15090147D01*
X84173665Y15035000D01*
X84456335Y15035000D01*
X84733574Y15090147D01*
X84994727Y15198320D01*
X85229759Y15355363D01*
X85429637Y15555241D01*
X85585000Y15787759D01*
X85740363Y15555241D01*
X85940241Y15355363D01*
X86175273Y15198320D01*
X86436426Y15090147D01*
X86713665Y15035000D01*
X86996335Y15035000D01*
X87273574Y15090147D01*
X87534727Y15198320D01*
X87769759Y15355363D01*
X87969637Y15555241D01*
X88126680Y15790273D01*
X88131067Y15800865D01*
X88242615Y15614869D01*
X88431586Y15406481D01*
X88657580Y15238963D01*
X88911913Y15118754D01*
X89045961Y15078096D01*
X89268000Y15200085D01*
X89268000Y16343000D01*
X89248000Y16343000D01*
X89248000Y16597000D01*
X89268000Y16597000D01*
X89268000Y17739915D01*
X89522000Y17739915D01*
X89522000Y16597000D01*
X89542000Y16597000D01*
X89542000Y16343000D01*
X89522000Y16343000D01*
X89522000Y15200085D01*
X89744039Y15078096D01*
X89878087Y15118754D01*
X90132420Y15238963D01*
X90358414Y15406481D01*
X90547385Y15614869D01*
X90658933Y15800865D01*
X90663320Y15790273D01*
X90820363Y15555241D01*
X91020241Y15355363D01*
X91255273Y15198320D01*
X91516426Y15090147D01*
X91793665Y15035000D01*
X92076335Y15035000D01*
X92353574Y15090147D01*
X92614727Y15198320D01*
X92849759Y15355363D01*
X93049637Y15555241D01*
X93206680Y15790273D01*
X93314853Y16051426D01*
X93370000Y16328665D01*
X93370000Y16611335D01*
X93314853Y16888574D01*
X93206680Y17149727D01*
X93049637Y17384759D01*
X92849759Y17584637D01*
X92614727Y17741680D01*
X92353574Y17849853D01*
X92076335Y17905000D01*
X91793665Y17905000D01*
X91516426Y17849853D01*
X91255273Y17741680D01*
X91020241Y17584637D01*
X90820363Y17384759D01*
X90663320Y17149727D01*
X90658933Y17139135D01*
X90547385Y17325131D01*
X90358414Y17533519D01*
X90132420Y17701037D01*
X89878087Y17821246D01*
X89744039Y17861904D01*
X89522000Y17739915D01*
X89268000Y17739915D01*
X89045961Y17861904D01*
X88911913Y17821246D01*
X88657580Y17701037D01*
X88431586Y17533519D01*
X88242615Y17325131D01*
X88131067Y17139135D01*
X88126680Y17149727D01*
X87969637Y17384759D01*
X87769759Y17584637D01*
X87534727Y17741680D01*
X87273574Y17849853D01*
X86996335Y17905000D01*
X86713665Y17905000D01*
X86436426Y17849853D01*
X86175273Y17741680D01*
X85940241Y17584637D01*
X85740363Y17384759D01*
X85585000Y17152241D01*
X85429637Y17384759D01*
X85229759Y17584637D01*
X84994727Y17741680D01*
X84733574Y17849853D01*
X84456335Y17905000D01*
X84173665Y17905000D01*
X83896426Y17849853D01*
X83883856Y17844646D01*
X83959759Y17895363D01*
X84159637Y18095241D01*
X84316680Y18330273D01*
X84424853Y18591426D01*
X84480000Y18868665D01*
X84480000Y19151335D01*
X84424853Y19428574D01*
X84316680Y19689727D01*
X84159637Y19924759D01*
X83959759Y20124637D01*
X83724727Y20281680D01*
X83463574Y20389853D01*
X83186335Y20445000D01*
X82903665Y20445000D01*
X82626426Y20389853D01*
X82610000Y20383049D01*
X82610000Y22279182D01*
X82614040Y22320200D01*
X82605527Y22406634D01*
X82597918Y22483889D01*
X82550172Y22641287D01*
X82472636Y22786346D01*
X82438151Y22828366D01*
X82394439Y22881630D01*
X82394437Y22881632D01*
X82368291Y22913491D01*
X82336433Y22939636D01*
X78800000Y26476067D01*
X78800000Y30336951D01*
X78816426Y30330147D01*
X79093665Y30275000D01*
X79376335Y30275000D01*
X79653574Y30330147D01*
X79914727Y30438320D01*
X80149759Y30595363D01*
X80349637Y30795241D01*
X80505000Y31027759D01*
X80660363Y30795241D01*
X80860241Y30595363D01*
X81095273Y30438320D01*
X81356426Y30330147D01*
X81633665Y30275000D01*
X81916335Y30275000D01*
X82193574Y30330147D01*
X82454727Y30438320D01*
X82689759Y30595363D01*
X82889637Y30795241D01*
X83045000Y31027759D01*
X83200363Y30795241D01*
X83400241Y30595363D01*
X83635273Y30438320D01*
X83896426Y30330147D01*
X84173665Y30275000D01*
X84456335Y30275000D01*
X84733574Y30330147D01*
X84994727Y30438320D01*
X85229759Y30595363D01*
X85429637Y30795241D01*
X85585000Y31027759D01*
X85740363Y30795241D01*
X85940241Y30595363D01*
X86175273Y30438320D01*
X86436426Y30330147D01*
X86713665Y30275000D01*
X86996335Y30275000D01*
X87273574Y30330147D01*
X87534727Y30438320D01*
X87769759Y30595363D01*
X87969637Y30795241D01*
X88125000Y31027759D01*
X88280363Y30795241D01*
X88480241Y30595363D01*
X88715273Y30438320D01*
X88976426Y30330147D01*
X89253665Y30275000D01*
X89536335Y30275000D01*
X89813574Y30330147D01*
X90074727Y30438320D01*
X90309759Y30595363D01*
X90508357Y30793961D01*
X90509188Y30785518D01*
X90545498Y30665820D01*
X90604463Y30555506D01*
X90683815Y30458815D01*
X90780506Y30379463D01*
X90890820Y30320498D01*
X91010518Y30284188D01*
X91135000Y30271928D01*
X92735000Y30271928D01*
X92859482Y30284188D01*
X92979180Y30320498D01*
X93089494Y30379463D01*
X93186185Y30458815D01*
X93265537Y30555506D01*
X93324502Y30665820D01*
X93360812Y30785518D01*
X93373072Y30910000D01*
X93373072Y32510000D01*
X93360812Y32634482D01*
X93324502Y32754180D01*
X93265537Y32864494D01*
X93186185Y32961185D01*
X93089494Y33040537D01*
X92979180Y33099502D01*
X92859482Y33135812D01*
X92735000Y33148072D01*
X91135000Y33148072D01*
X91010518Y33135812D01*
X90890820Y33099502D01*
X90780506Y33040537D01*
X90683815Y32961185D01*
X90604463Y32864494D01*
X90545498Y32754180D01*
X90509188Y32634482D01*
X90508357Y32626039D01*
X90309759Y32824637D01*
X90074727Y32981680D01*
X89813574Y33089853D01*
X89536335Y33145000D01*
X89253665Y33145000D01*
X88976426Y33089853D01*
X88715273Y32981680D01*
X88480241Y32824637D01*
X88280363Y32624759D01*
X88125000Y32392241D01*
X87969637Y32624759D01*
X87769759Y32824637D01*
X87534727Y32981680D01*
X87273574Y33089853D01*
X86996335Y33145000D01*
X86713665Y33145000D01*
X86436426Y33089853D01*
X86175273Y32981680D01*
X85940241Y32824637D01*
X85740363Y32624759D01*
X85585000Y32392241D01*
X85429637Y32624759D01*
X85229759Y32824637D01*
X84994727Y32981680D01*
X84733574Y33089853D01*
X84456335Y33145000D01*
X84173665Y33145000D01*
X83896426Y33089853D01*
X83635273Y32981680D01*
X83400241Y32824637D01*
X83200363Y32624759D01*
X83045000Y32392241D01*
X82889637Y32624759D01*
X82689759Y32824637D01*
X82454727Y32981680D01*
X82193574Y33089853D01*
X81916335Y33145000D01*
X81633665Y33145000D01*
X81356426Y33089853D01*
X81095273Y32981680D01*
X80860241Y32824637D01*
X80660363Y32624759D01*
X80505000Y32392241D01*
X80349637Y32624759D01*
X80149759Y32824637D01*
X79914727Y32981680D01*
X79653574Y33089853D01*
X79376335Y33145000D01*
X79093665Y33145000D01*
X78816426Y33089853D01*
X78800000Y33083049D01*
X78800000Y42056260D01*
X93765000Y42056260D01*
X93765000Y41763740D01*
X93822068Y41476842D01*
X93934010Y41206589D01*
X94096525Y40963368D01*
X94303368Y40756525D01*
X94546589Y40594010D01*
X94816842Y40482068D01*
X95103740Y40425000D01*
X95396260Y40425000D01*
X95683158Y40482068D01*
X95953411Y40594010D01*
X96196632Y40756525D01*
X96403475Y40963368D01*
X96520000Y41137760D01*
X96636525Y40963368D01*
X96843368Y40756525D01*
X97086589Y40594010D01*
X97356842Y40482068D01*
X97643740Y40425000D01*
X97936260Y40425000D01*
X98223158Y40482068D01*
X98493411Y40594010D01*
X98736632Y40756525D01*
X98943475Y40963368D01*
X99105990Y41206589D01*
X99217932Y41476842D01*
X99275000Y41763740D01*
X99275000Y42056260D01*
X99217932Y42343158D01*
X99105990Y42613411D01*
X98943475Y42856632D01*
X98736632Y43063475D01*
X98493411Y43225990D01*
X98223158Y43337932D01*
X97936260Y43395000D01*
X97643740Y43395000D01*
X97356842Y43337932D01*
X97086589Y43225990D01*
X96843368Y43063475D01*
X96636525Y42856632D01*
X96520000Y42682240D01*
X96403475Y42856632D01*
X96196632Y43063475D01*
X95953411Y43225990D01*
X95683158Y43337932D01*
X95396260Y43395000D01*
X95103740Y43395000D01*
X94816842Y43337932D01*
X94546589Y43225990D01*
X94303368Y43063475D01*
X94096525Y42856632D01*
X93934010Y42613411D01*
X93822068Y42343158D01*
X93765000Y42056260D01*
X78800000Y42056260D01*
X78800000Y43143382D01*
X78804040Y43184400D01*
X78787918Y43348089D01*
X78740172Y43505487D01*
X78662636Y43650546D01*
X78584439Y43745830D01*
X78584437Y43745832D01*
X78558291Y43777691D01*
X78526433Y43803836D01*
X71084955Y51245312D01*
X71165990Y51366589D01*
X71277932Y51636842D01*
X71335000Y51923740D01*
X71335000Y52216260D01*
X71277932Y52503158D01*
X71165990Y52773411D01*
X71003475Y53016632D01*
X70796632Y53223475D01*
X70614466Y53345195D01*
X70731355Y53414822D01*
X70947588Y53609731D01*
X71121641Y53843080D01*
X71246825Y54105901D01*
X71291476Y54253110D01*
X71170155Y54483000D01*
X69977000Y54483000D01*
X69977000Y54463000D01*
X69723000Y54463000D01*
X69723000Y54483000D01*
X68529845Y54483000D01*
X68408524Y54253110D01*
X68453175Y54105901D01*
X68578359Y53843080D01*
X68752412Y53609731D01*
X68968645Y53414822D01*
X69085534Y53345195D01*
X68903368Y53223475D01*
X68696525Y53016632D01*
X68534010Y52773411D01*
X68422068Y52503158D01*
X68365000Y52216260D01*
X68365000Y51923740D01*
X68422068Y51636842D01*
X68422831Y51635000D01*
X67001168Y51635000D01*
X62829746Y55806421D01*
X62803591Y55838291D01*
X62676446Y55942636D01*
X62531387Y56020172D01*
X62373989Y56067918D01*
X62251319Y56080000D01*
X62251318Y56080000D01*
X62210300Y56084040D01*
X62186905Y56081736D01*
X62113475Y56191632D01*
X61981620Y56323487D01*
X62054180Y56345498D01*
X62164494Y56404463D01*
X62261185Y56483815D01*
X62340537Y56580506D01*
X62399502Y56690820D01*
X62435812Y56810518D01*
X62448072Y56935000D01*
X62445000Y57499250D01*
X62286250Y57658000D01*
X61087000Y57658000D01*
X61087000Y57638000D01*
X60833000Y57638000D01*
X60833000Y57658000D01*
X60813000Y57658000D01*
X60813000Y57912000D01*
X60833000Y57912000D01*
X60833000Y59111250D01*
X61087000Y59111250D01*
X61087000Y57912000D01*
X62286250Y57912000D01*
X62445000Y58070750D01*
X62448072Y58635000D01*
X62435812Y58759482D01*
X62399502Y58879180D01*
X62340537Y58989494D01*
X62261185Y59086185D01*
X62164494Y59165537D01*
X62054180Y59224502D01*
X61934482Y59260812D01*
X61810000Y59273072D01*
X61245750Y59270000D01*
X61087000Y59111250D01*
X60833000Y59111250D01*
X60674250Y59270000D01*
X60110000Y59273072D01*
X59985518Y59260812D01*
X59865820Y59224502D01*
X59755506Y59165537D01*
X59725000Y59140501D01*
X59725000Y60060554D01*
X62744446Y63080000D01*
X68361928Y63080000D01*
X68361928Y61380000D01*
X68374188Y61255518D01*
X68410498Y61135820D01*
X68469463Y61025506D01*
X68548815Y60928815D01*
X68645506Y60849463D01*
X68755820Y60790498D01*
X68828380Y60768487D01*
X68696525Y60636632D01*
X68534010Y60393411D01*
X68422068Y60123158D01*
X68365000Y59836260D01*
X68365000Y59543740D01*
X68422068Y59256842D01*
X68534010Y58986589D01*
X68696525Y58743368D01*
X68903368Y58536525D01*
X69077760Y58420000D01*
X68903368Y58303475D01*
X68696525Y58096632D01*
X68534010Y57853411D01*
X68422068Y57583158D01*
X68365000Y57296260D01*
X68365000Y57003740D01*
X68422068Y56716842D01*
X68534010Y56446589D01*
X68696525Y56203368D01*
X68903368Y55996525D01*
X69085534Y55874805D01*
X68968645Y55805178D01*
X68752412Y55610269D01*
X68578359Y55376920D01*
X68453175Y55114099D01*
X68408524Y54966890D01*
X68529845Y54737000D01*
X69723000Y54737000D01*
X69723000Y54757000D01*
X69977000Y54757000D01*
X69977000Y54737000D01*
X71170155Y54737000D01*
X71291476Y54966890D01*
X71246825Y55114099D01*
X71121641Y55376920D01*
X70947588Y55610269D01*
X70731355Y55805178D01*
X70614466Y55874805D01*
X70796632Y55996525D01*
X71003475Y56203368D01*
X71165990Y56446589D01*
X71277932Y56716842D01*
X71335000Y57003740D01*
X71335000Y57296260D01*
X71277932Y57583158D01*
X71165990Y57853411D01*
X71003475Y58096632D01*
X70796632Y58303475D01*
X70622240Y58420000D01*
X70796632Y58536525D01*
X71003475Y58743368D01*
X71165990Y58986589D01*
X71277932Y59256842D01*
X71335000Y59543740D01*
X71335000Y59836260D01*
X71277932Y60123158D01*
X71165990Y60393411D01*
X71003475Y60636632D01*
X70871620Y60768487D01*
X70944180Y60790498D01*
X71054494Y60849463D01*
X71151185Y60928815D01*
X71230537Y61025506D01*
X71289502Y61135820D01*
X71325812Y61255518D01*
X71338072Y61380000D01*
X71338072Y62376260D01*
X93765000Y62376260D01*
X93765000Y62083740D01*
X93822068Y61796842D01*
X93934010Y61526589D01*
X94096525Y61283368D01*
X94303368Y61076525D01*
X94546589Y60914010D01*
X94816842Y60802068D01*
X95103740Y60745000D01*
X95396260Y60745000D01*
X95683158Y60802068D01*
X95953411Y60914010D01*
X96196632Y61076525D01*
X96403475Y61283368D01*
X96520000Y61457760D01*
X96636525Y61283368D01*
X96843368Y61076525D01*
X97086589Y60914010D01*
X97356842Y60802068D01*
X97643740Y60745000D01*
X97936260Y60745000D01*
X98223158Y60802068D01*
X98493411Y60914010D01*
X98736632Y61076525D01*
X98943475Y61283368D01*
X99105990Y61526589D01*
X99217932Y61796842D01*
X99275000Y62083740D01*
X99275000Y62376260D01*
X99217932Y62663158D01*
X99105990Y62933411D01*
X98943475Y63176632D01*
X98736632Y63383475D01*
X98493411Y63545990D01*
X98223158Y63657932D01*
X97936260Y63715000D01*
X97643740Y63715000D01*
X97356842Y63657932D01*
X97086589Y63545990D01*
X96843368Y63383475D01*
X96636525Y63176632D01*
X96520000Y63002240D01*
X96403475Y63176632D01*
X96196632Y63383475D01*
X95953411Y63545990D01*
X95683158Y63657932D01*
X95396260Y63715000D01*
X95103740Y63715000D01*
X94816842Y63657932D01*
X94546589Y63545990D01*
X94303368Y63383475D01*
X94096525Y63176632D01*
X93934010Y62933411D01*
X93822068Y62663158D01*
X93765000Y62376260D01*
X71338072Y62376260D01*
X71338072Y63080000D01*
X71325812Y63204482D01*
X71289502Y63324180D01*
X71230537Y63434494D01*
X71151185Y63531185D01*
X71054494Y63610537D01*
X70944180Y63669502D01*
X70824482Y63705812D01*
X70700000Y63718072D01*
X69000000Y63718072D01*
X68875518Y63705812D01*
X68755820Y63669502D01*
X68645506Y63610537D01*
X68548815Y63531185D01*
X68469463Y63434494D01*
X68410498Y63324180D01*
X68374188Y63204482D01*
X68361928Y63080000D01*
X62744446Y63080000D01*
X62927653Y63263206D01*
X63014645Y63280510D01*
X63175705Y63347223D01*
X63320655Y63444076D01*
X63443924Y63567345D01*
X63540777Y63712295D01*
X63607490Y63873355D01*
X63641500Y64044335D01*
X63641500Y64218665D01*
X63607490Y64389645D01*
X63540777Y64550705D01*
X63443924Y64695655D01*
X63320655Y64818924D01*
X63218157Y64887411D01*
X73771193Y75440446D01*
X73799238Y75463462D01*
X73891087Y75575380D01*
X73910304Y75611333D01*
X73959337Y75703066D01*
X74001365Y75841615D01*
X74001826Y75846298D01*
X74078101Y75887068D01*
X74296608Y76066392D01*
X74475932Y76284899D01*
X74547000Y76417858D01*
X74618068Y76284899D01*
X74797393Y76066392D01*
X75015900Y75887068D01*
X75265193Y75753818D01*
X75535692Y75671764D01*
X75817000Y75644057D01*
X76098309Y75671764D01*
X76368808Y75753818D01*
X76618101Y75887068D01*
X76836608Y76066392D01*
X77015932Y76284899D01*
X77087000Y76417858D01*
X77158068Y76284899D01*
X77337393Y76066392D01*
X77555900Y75887068D01*
X77805193Y75753818D01*
X78075692Y75671764D01*
X78357000Y75644057D01*
X78638309Y75671764D01*
X78908808Y75753818D01*
X79158101Y75887068D01*
X79376608Y76066392D01*
X79555932Y76284899D01*
X79624265Y76412741D01*
X79774399Y76183161D01*
X79972105Y75981500D01*
X80205354Y75822285D01*
X80465182Y75711633D01*
X80547961Y75694096D01*
X80770000Y75816085D01*
X80770000Y77359000D01*
X81024000Y77359000D01*
X81024000Y75816085D01*
X81246039Y75694096D01*
X81328818Y75711633D01*
X81588646Y75822285D01*
X81821895Y75981500D01*
X82019601Y76183161D01*
X82174166Y76419517D01*
X82279650Y76681486D01*
X82332000Y76959000D01*
X82332000Y77359000D01*
X81024000Y77359000D01*
X80770000Y77359000D01*
X80750000Y77359000D01*
X80750000Y77613000D01*
X80770000Y77613000D01*
X80770000Y79155915D01*
X81024000Y79155915D01*
X81024000Y77613000D01*
X82332000Y77613000D01*
X82332000Y78013000D01*
X82279650Y78290514D01*
X82174166Y78552483D01*
X82019601Y78788839D01*
X81821895Y78990500D01*
X81588646Y79149715D01*
X81328818Y79260367D01*
X81246039Y79277904D01*
X81024000Y79155915D01*
X80770000Y79155915D01*
X80547961Y79277904D01*
X80465182Y79260367D01*
X80205354Y79149715D01*
X79972105Y78990500D01*
X79774399Y78788839D01*
X79624265Y78559259D01*
X79555932Y78687101D01*
X79376607Y78905608D01*
X79158100Y79084932D01*
X78908807Y79218182D01*
X78638308Y79300236D01*
X78357000Y79327943D01*
X78075691Y79300236D01*
X77805192Y79218182D01*
X77555899Y79084932D01*
X77337392Y78905607D01*
X77158068Y78687100D01*
X77087000Y78554142D01*
X77015932Y78687101D01*
X76836607Y78905608D01*
X76618100Y79084932D01*
X76541826Y79125701D01*
X76541365Y79130385D01*
X76499337Y79268933D01*
X76431087Y79396620D01*
X76339238Y79508538D01*
X76227320Y79600387D01*
X76099633Y79668637D01*
X75961085Y79710665D01*
X75853105Y79721300D01*
X75817000Y79724856D01*
X75780895Y79721300D01*
X72849705Y79721300D01*
X72813600Y79724856D01*
X72669515Y79710665D01*
X72530966Y79668637D01*
X72482006Y79642467D01*
X72403280Y79600387D01*
X72291362Y79508538D01*
X72268346Y79480493D01*
X71721925Y78934071D01*
X71538100Y79084932D01*
X71288807Y79218182D01*
X71018308Y79300236D01*
X70737000Y79327943D01*
X70455691Y79300236D01*
X70331400Y79262533D01*
X70331400Y79620654D01*
X81391193Y90680446D01*
X81419238Y90703462D01*
X81511087Y90815380D01*
X81579337Y90943067D01*
X81621365Y91081615D01*
X81621826Y91086298D01*
X81698101Y91127068D01*
X81916608Y91306392D01*
X82095932Y91524899D01*
X82229182Y91774192D01*
X82311236Y92044691D01*
X82332000Y92255509D01*
X82332000Y93196492D01*
X82311236Y93407309D01*
X82229182Y93677808D01*
X82095932Y93927101D01*
X81916607Y94145608D01*
X81698100Y94324932D01*
X81448807Y94458182D01*
X81178308Y94540236D01*
X80897000Y94567943D01*
X80615691Y94540236D01*
X80345192Y94458182D01*
X80095899Y94324932D01*
X79877392Y94145607D01*
X79698068Y93927100D01*
X79627000Y93794142D01*
X79555932Y93927101D01*
X79376607Y94145608D01*
X79158100Y94324932D01*
X78908807Y94458182D01*
X78638308Y94540236D01*
X78357000Y94567943D01*
X78075691Y94540236D01*
X77805192Y94458182D01*
X77555899Y94324932D01*
X77337392Y94145607D01*
X77158068Y93927100D01*
X77087000Y93794142D01*
X77015932Y93927101D01*
X76836607Y94145608D01*
X76618100Y94324932D01*
X76541826Y94365701D01*
X76541365Y94370385D01*
X76499337Y94508933D01*
X76431087Y94636620D01*
X76339238Y94748538D01*
X76227320Y94840387D01*
X76099633Y94908637D01*
X75961085Y94950665D01*
X75853105Y94961300D01*
X75817000Y94964856D01*
X75780895Y94961300D01*
X70276394Y94961300D01*
X70240299Y94964855D01*
X70204204Y94961300D01*
X70204195Y94961300D01*
X70096215Y94950665D01*
X69957667Y94908637D01*
X69829980Y94840387D01*
X69718062Y94748538D01*
X69695046Y94720493D01*
X69163635Y94189081D01*
X68998100Y94324932D01*
X68748807Y94458182D01*
X68478308Y94540236D01*
X68197000Y94567943D01*
X67915691Y94540236D01*
X67645192Y94458182D01*
X67395899Y94324932D01*
X67177392Y94145607D01*
X66998068Y93927100D01*
X66927000Y93794142D01*
X66855932Y93927101D01*
X66676607Y94145608D01*
X66458100Y94324932D01*
X66381826Y94365701D01*
X66381365Y94370385D01*
X66354732Y94458182D01*
X66339337Y94508933D01*
X66271087Y94636620D01*
X66179238Y94748538D01*
X66151187Y94771559D01*
X65771559Y95151187D01*
X65748538Y95179238D01*
X65698714Y95220128D01*
X92765000Y95220128D01*
X92765000Y94779872D01*
X92850890Y94348075D01*
X93019369Y93941331D01*
X93263962Y93575271D01*
X93575271Y93263962D01*
X93941331Y93019369D01*
X94348075Y92850890D01*
X94779872Y92765000D01*
X95220128Y92765000D01*
X95651925Y92850890D01*
X96058669Y93019369D01*
X96424729Y93263962D01*
X96736038Y93575271D01*
X96980631Y93941331D01*
X97149110Y94348075D01*
X97235000Y94779872D01*
X97235000Y95220128D01*
X97149110Y95651925D01*
X96980631Y96058669D01*
X96736038Y96424729D01*
X96424729Y96736038D01*
X96058669Y96980631D01*
X95651925Y97149110D01*
X95220128Y97235000D01*
X94779872Y97235000D01*
X94348075Y97149110D01*
X93941331Y96980631D01*
X93575271Y96736038D01*
X93263962Y96424729D01*
X93019369Y96058669D01*
X92850890Y95651925D01*
X92765000Y95220128D01*
X65698714Y95220128D01*
X65636620Y95271087D01*
X65508933Y95339337D01*
X65370385Y95381365D01*
X65262405Y95392000D01*
X65226300Y95395556D01*
X65190195Y95392000D01*
X18729205Y95392000D01*
X18693100Y95395556D01*
X18549015Y95381365D01*
X18410466Y95339337D01*
X18282780Y95271087D01*
X18170862Y95179238D01*
X18147846Y95151193D01*
X3252708Y80256054D01*
X3224662Y80233037D01*
X3132813Y80121119D01*
X3064563Y79993432D01*
X3036981Y79902505D01*
X3022535Y79854885D01*
X3008344Y79710800D01*
X660000Y79710800D01*
X660000Y95220128D01*
X2765000Y95220128D01*
X2765000Y94779872D01*
X2850890Y94348075D01*
X3019369Y93941331D01*
X3263962Y93575271D01*
X3575271Y93263962D01*
X3941331Y93019369D01*
X4348075Y92850890D01*
X4779872Y92765000D01*
X5220128Y92765000D01*
X5651925Y92850890D01*
X6058669Y93019369D01*
X6424729Y93263962D01*
X6736038Y93575271D01*
X6980631Y93941331D01*
X7149110Y94348075D01*
X7235000Y94779872D01*
X7235000Y95220128D01*
X7149110Y95651925D01*
X6980631Y96058669D01*
X6736038Y96424729D01*
X6424729Y96736038D01*
X6058669Y96980631D01*
X5651925Y97149110D01*
X5220128Y97235000D01*
X4779872Y97235000D01*
X4348075Y97149110D01*
X3941331Y96980631D01*
X3575271Y96736038D01*
X3263962Y96424729D01*
X3019369Y96058669D01*
X2850890Y95651925D01*
X2765000Y95220128D01*
X660000Y95220128D01*
X660000Y99340000D01*
X99340001Y99340000D01*
X99340000Y660000D01*
G04 #@! TA.AperFunction,Conductor*
D25*
G36*
X99340000Y660000D02*
G01*
X660000Y660000D01*
X660000Y5220128D01*
X2765000Y5220128D01*
X2765000Y4779872D01*
X2850890Y4348075D01*
X3019369Y3941331D01*
X3263962Y3575271D01*
X3575271Y3263962D01*
X3941331Y3019369D01*
X4348075Y2850890D01*
X4779872Y2765000D01*
X5220128Y2765000D01*
X5651925Y2850890D01*
X6058669Y3019369D01*
X6424729Y3263962D01*
X6736038Y3575271D01*
X6980631Y3941331D01*
X7149110Y4348075D01*
X7235000Y4779872D01*
X7235000Y5077298D01*
X13521903Y5077298D01*
X13593486Y4833329D01*
X13848996Y4712429D01*
X14123184Y4643700D01*
X14405512Y4629783D01*
X14685130Y4671213D01*
X14951292Y4766397D01*
X15076514Y4833329D01*
X15148097Y5077298D01*
X14335000Y5890395D01*
X13521903Y5077298D01*
X7235000Y5077298D01*
X7235000Y5220128D01*
X7149110Y5651925D01*
X7005145Y5999488D01*
X12894783Y5999488D01*
X12936213Y5719870D01*
X13031397Y5453708D01*
X13098329Y5328486D01*
X13342298Y5256903D01*
X14155395Y6070000D01*
X14514605Y6070000D01*
X15327702Y5256903D01*
X15571671Y5328486D01*
X15692571Y5583996D01*
X15761300Y5858184D01*
X15775217Y6140512D01*
X15733787Y6420130D01*
X15638603Y6686292D01*
X15571671Y6811514D01*
X15327702Y6883097D01*
X14514605Y6070000D01*
X14155395Y6070000D01*
X13342298Y6883097D01*
X13098329Y6811514D01*
X12977429Y6556004D01*
X12908700Y6281816D01*
X12894783Y5999488D01*
X7005145Y5999488D01*
X6980631Y6058669D01*
X6736038Y6424729D01*
X6424729Y6736038D01*
X6058669Y6980631D01*
X5651925Y7149110D01*
X5220128Y7235000D01*
X4779872Y7235000D01*
X4348075Y7149110D01*
X3941331Y6980631D01*
X3575271Y6736038D01*
X3263962Y6424729D01*
X3019369Y6058669D01*
X2850890Y5651925D01*
X2765000Y5220128D01*
X660000Y5220128D01*
X660000Y9370000D01*
X12896928Y9370000D01*
X12896928Y7770000D01*
X12909188Y7645518D01*
X12945498Y7525820D01*
X13004463Y7415506D01*
X13083815Y7318815D01*
X13180506Y7239463D01*
X13290820Y7180498D01*
X13410518Y7144188D01*
X13535000Y7131928D01*
X13542215Y7131928D01*
X13521903Y7062702D01*
X14335000Y6249605D01*
X15148097Y7062702D01*
X15127785Y7131928D01*
X15135000Y7131928D01*
X15259482Y7144188D01*
X15379180Y7180498D01*
X15489494Y7239463D01*
X15586185Y7318815D01*
X15665537Y7415506D01*
X15724502Y7525820D01*
X15760812Y7645518D01*
X15773072Y7770000D01*
X15773072Y9370000D01*
X15760812Y9494482D01*
X15724502Y9614180D01*
X15665537Y9724494D01*
X15586185Y9821185D01*
X15489494Y9900537D01*
X15379180Y9959502D01*
X15259482Y9995812D01*
X15135000Y10008072D01*
X13535000Y10008072D01*
X13410518Y9995812D01*
X13290820Y9959502D01*
X13180506Y9900537D01*
X13083815Y9821185D01*
X13004463Y9724494D01*
X12945498Y9614180D01*
X12909188Y9494482D01*
X12896928Y9370000D01*
X660000Y9370000D01*
X660000Y79710800D01*
X3008344Y79710800D01*
X3011900Y79674695D01*
X3011901Y49856915D01*
X3008344Y49820800D01*
X3022535Y49676715D01*
X3064564Y49538167D01*
X3132814Y49410480D01*
X3224663Y49298562D01*
X3252708Y49275546D01*
X4576573Y47951680D01*
X4561525Y47936632D01*
X4399010Y47693411D01*
X4287068Y47423158D01*
X4230000Y47136260D01*
X4230000Y46843740D01*
X4287068Y46556842D01*
X4399010Y46286589D01*
X4561525Y46043368D01*
X4768368Y45836525D01*
X4942760Y45720000D01*
X4768368Y45603475D01*
X4561525Y45396632D01*
X4399010Y45153411D01*
X4287068Y44883158D01*
X4230000Y44596260D01*
X4230000Y44303740D01*
X4287068Y44016842D01*
X4399010Y43746589D01*
X4561525Y43503368D01*
X4768368Y43296525D01*
X4942760Y43180000D01*
X4768368Y43063475D01*
X4561525Y42856632D01*
X4399010Y42613411D01*
X4287068Y42343158D01*
X4230000Y42056260D01*
X4230000Y41763740D01*
X4287068Y41476842D01*
X4399010Y41206589D01*
X4561525Y40963368D01*
X4768368Y40756525D01*
X4942760Y40640000D01*
X4768368Y40523475D01*
X4561525Y40316632D01*
X4399010Y40073411D01*
X4287068Y39803158D01*
X4230000Y39516260D01*
X4230000Y39223740D01*
X4287068Y38936842D01*
X4399010Y38666589D01*
X4561525Y38423368D01*
X4768368Y38216525D01*
X4942760Y38100000D01*
X4768368Y37983475D01*
X4561525Y37776632D01*
X4399010Y37533411D01*
X4287068Y37263158D01*
X4230000Y36976260D01*
X4230000Y36683740D01*
X4287068Y36396842D01*
X4399010Y36126589D01*
X4561525Y35883368D01*
X4768368Y35676525D01*
X4942760Y35560000D01*
X4768368Y35443475D01*
X4561525Y35236632D01*
X4399010Y34993411D01*
X4287068Y34723158D01*
X4230000Y34436260D01*
X4230000Y34143740D01*
X4287068Y33856842D01*
X4399010Y33586589D01*
X4561525Y33343368D01*
X4768368Y33136525D01*
X4942760Y33020000D01*
X4768368Y32903475D01*
X4561525Y32696632D01*
X4399010Y32453411D01*
X4287068Y32183158D01*
X4230000Y31896260D01*
X4230000Y31603740D01*
X4287068Y31316842D01*
X4399010Y31046589D01*
X4561525Y30803368D01*
X4768368Y30596525D01*
X4942760Y30480000D01*
X4768368Y30363475D01*
X4561525Y30156632D01*
X4399010Y29913411D01*
X4287068Y29643158D01*
X4230000Y29356260D01*
X4230000Y29063740D01*
X4287068Y28776842D01*
X4399010Y28506589D01*
X4561525Y28263368D01*
X4768368Y28056525D01*
X4942760Y27940000D01*
X4768368Y27823475D01*
X4561525Y27616632D01*
X4399010Y27373411D01*
X4287068Y27103158D01*
X4230000Y26816260D01*
X4230000Y26523740D01*
X4287068Y26236842D01*
X4399010Y25966589D01*
X4561525Y25723368D01*
X4768368Y25516525D01*
X4942760Y25400000D01*
X4768368Y25283475D01*
X4561525Y25076632D01*
X4399010Y24833411D01*
X4287068Y24563158D01*
X4230000Y24276260D01*
X4230000Y23983740D01*
X4287068Y23696842D01*
X4399010Y23426589D01*
X4561525Y23183368D01*
X4768368Y22976525D01*
X4942760Y22860000D01*
X4768368Y22743475D01*
X4561525Y22536632D01*
X4399010Y22293411D01*
X4287068Y22023158D01*
X4230000Y21736260D01*
X4230000Y21443740D01*
X4287068Y21156842D01*
X4399010Y20886589D01*
X4561525Y20643368D01*
X4768368Y20436525D01*
X4942760Y20320000D01*
X4768368Y20203475D01*
X4561525Y19996632D01*
X4399010Y19753411D01*
X4287068Y19483158D01*
X4230000Y19196260D01*
X4230000Y18903740D01*
X4287068Y18616842D01*
X4399010Y18346589D01*
X4561525Y18103368D01*
X4768368Y17896525D01*
X5011589Y17734010D01*
X5281842Y17622068D01*
X5568740Y17565000D01*
X5861260Y17565000D01*
X6148158Y17622068D01*
X6418411Y17734010D01*
X6661632Y17896525D01*
X6793487Y18028380D01*
X6815498Y17955820D01*
X6874463Y17845506D01*
X6953815Y17748815D01*
X7050506Y17669463D01*
X7160820Y17610498D01*
X7280518Y17574188D01*
X7405000Y17561928D01*
X9105000Y17561928D01*
X9229482Y17574188D01*
X9349180Y17610498D01*
X9459494Y17669463D01*
X9525000Y17723222D01*
X9590506Y17669463D01*
X9700820Y17610498D01*
X9820518Y17574188D01*
X9945000Y17561928D01*
X11645000Y17561928D01*
X11769482Y17574188D01*
X11889180Y17610498D01*
X11999494Y17669463D01*
X12096185Y17748815D01*
X12175537Y17845506D01*
X12234502Y17955820D01*
X12270812Y18075518D01*
X12283072Y18200000D01*
X12283072Y19700200D01*
X14168795Y19700200D01*
X14204900Y19696644D01*
X14241005Y19700200D01*
X14348985Y19710835D01*
X14487533Y19752863D01*
X14615220Y19821113D01*
X14727138Y19912962D01*
X14750158Y19941012D01*
X15404520Y20595373D01*
X15563368Y20436525D01*
X15737760Y20320000D01*
X15563368Y20203475D01*
X15356525Y19996632D01*
X15194010Y19753411D01*
X15082068Y19483158D01*
X15025000Y19196260D01*
X15025000Y18903740D01*
X15082068Y18616842D01*
X15194010Y18346589D01*
X15356525Y18103368D01*
X15563368Y17896525D01*
X15806589Y17734010D01*
X16076842Y17622068D01*
X16363740Y17565000D01*
X16656260Y17565000D01*
X16943158Y17622068D01*
X17213411Y17734010D01*
X17456632Y17896525D01*
X17588487Y18028380D01*
X17610498Y17955820D01*
X17669463Y17845506D01*
X17748815Y17748815D01*
X17845506Y17669463D01*
X17955820Y17610498D01*
X18075518Y17574188D01*
X18200000Y17561928D01*
X19900000Y17561928D01*
X20024482Y17574188D01*
X20144180Y17610498D01*
X20254494Y17669463D01*
X20351185Y17748815D01*
X20430537Y17845506D01*
X20489502Y17955820D01*
X20525812Y18075518D01*
X20538072Y18200000D01*
X20538072Y19900000D01*
X20525812Y20024482D01*
X20489502Y20144180D01*
X20482300Y20157654D01*
X27377246Y13262707D01*
X27400262Y13234662D01*
X27512180Y13142813D01*
X27639867Y13074563D01*
X27736386Y13045284D01*
X27778414Y13032535D01*
X27922500Y13018344D01*
X27958605Y13021900D01*
X33745495Y13021900D01*
X33781600Y13018344D01*
X33817705Y13021900D01*
X33925685Y13032535D01*
X34064233Y13074563D01*
X34191920Y13142813D01*
X34303838Y13234662D01*
X34326859Y13262713D01*
X36689962Y15625815D01*
X36717392Y15592392D01*
X36935899Y15413068D01*
X37068858Y15342000D01*
X36935899Y15270932D01*
X36717392Y15091608D01*
X36538068Y14873101D01*
X36404818Y14623808D01*
X36322764Y14353309D01*
X36295057Y14072000D01*
X36322764Y13790691D01*
X36404818Y13520192D01*
X36538068Y13270899D01*
X36717392Y13052392D01*
X36935899Y12873068D01*
X37068858Y12802000D01*
X36935899Y12730932D01*
X36717392Y12551608D01*
X36538068Y12333101D01*
X36404818Y12083808D01*
X36322764Y11813309D01*
X36295057Y11532000D01*
X36322764Y11250691D01*
X36404818Y10980192D01*
X36538068Y10730899D01*
X36717392Y10512392D01*
X36935899Y10333068D01*
X37068858Y10262000D01*
X36935899Y10190932D01*
X36717392Y10011608D01*
X36538068Y9793101D01*
X36404818Y9543808D01*
X36322764Y9273309D01*
X36295057Y8992000D01*
X36322764Y8710691D01*
X36404818Y8440192D01*
X36538068Y8190899D01*
X36717392Y7972392D01*
X36935899Y7793068D01*
X37068858Y7722000D01*
X36935899Y7650932D01*
X36717392Y7471608D01*
X36538068Y7253101D01*
X36404818Y7003808D01*
X36322764Y6733309D01*
X36295057Y6452000D01*
X36322764Y6170691D01*
X36404818Y5900192D01*
X36538068Y5650899D01*
X36717392Y5432392D01*
X36935899Y5253068D01*
X37185192Y5119818D01*
X37455691Y5037764D01*
X37666508Y5017000D01*
X38607492Y5017000D01*
X38818309Y5037764D01*
X39088808Y5119818D01*
X39338101Y5253068D01*
X39556608Y5432392D01*
X39735932Y5650899D01*
X39869182Y5900192D01*
X39951236Y6170691D01*
X39978943Y6452000D01*
X39951236Y6733309D01*
X39869182Y7003808D01*
X39735932Y7253101D01*
X39556608Y7471608D01*
X39338101Y7650932D01*
X39205142Y7722000D01*
X39338101Y7793068D01*
X39556608Y7972392D01*
X39735932Y8190899D01*
X39869182Y8440192D01*
X39951236Y8710691D01*
X39978943Y8992000D01*
X39951236Y9273309D01*
X39869182Y9543808D01*
X39735932Y9793101D01*
X39556608Y10011608D01*
X39338101Y10190932D01*
X39205142Y10262000D01*
X39338101Y10333068D01*
X39556608Y10512392D01*
X39735932Y10730899D01*
X39869182Y10980192D01*
X39951236Y11250691D01*
X39978943Y11532000D01*
X39951236Y11813309D01*
X39869182Y12083808D01*
X39735932Y12333101D01*
X39556608Y12551608D01*
X39338101Y12730932D01*
X39205142Y12802000D01*
X39338101Y12873068D01*
X39556608Y13052392D01*
X39735932Y13270899D01*
X39869182Y13520192D01*
X39951236Y13790691D01*
X39978943Y14072000D01*
X39951236Y14353309D01*
X39869182Y14623808D01*
X39735932Y14873101D01*
X39556608Y15091608D01*
X39338101Y15270932D01*
X39205142Y15342000D01*
X39338101Y15413068D01*
X39556608Y15592392D01*
X39735932Y15810899D01*
X39869182Y16060192D01*
X39951236Y16330691D01*
X39978943Y16612000D01*
X39951236Y16893309D01*
X39869182Y17163808D01*
X39793286Y17305800D01*
X50729395Y17305800D01*
X50765500Y17302244D01*
X50801605Y17305800D01*
X50909585Y17316435D01*
X51048133Y17358463D01*
X51175820Y17426713D01*
X51287738Y17518562D01*
X51310758Y17546612D01*
X51352893Y17588746D01*
X51262513Y17478619D01*
X51194263Y17350932D01*
X51169225Y17268393D01*
X51152235Y17212385D01*
X51138044Y17068300D01*
X51141600Y17032194D01*
X51141601Y16165114D01*
X51138044Y16129000D01*
X51152235Y15984915D01*
X51191306Y15856119D01*
X51194264Y15846367D01*
X51262514Y15718680D01*
X51354363Y15606762D01*
X51382408Y15583746D01*
X51920048Y15046105D01*
X51778068Y14873101D01*
X51644818Y14623808D01*
X51562764Y14353309D01*
X51535057Y14072000D01*
X51562764Y13790691D01*
X51644818Y13520192D01*
X51778068Y13270899D01*
X51957392Y13052392D01*
X52175899Y12873068D01*
X52308858Y12802000D01*
X52175899Y12730932D01*
X51957392Y12551608D01*
X51778068Y12333101D01*
X51644818Y12083808D01*
X51562764Y11813309D01*
X51535057Y11532000D01*
X51562764Y11250691D01*
X51644818Y10980192D01*
X51778068Y10730899D01*
X51957392Y10512392D01*
X52175899Y10333068D01*
X52308858Y10262000D01*
X52175899Y10190932D01*
X51957392Y10011608D01*
X51778068Y9793101D01*
X51644818Y9543808D01*
X51562764Y9273309D01*
X51535057Y8992000D01*
X51562764Y8710691D01*
X51644818Y8440192D01*
X51778068Y8190899D01*
X51957392Y7972392D01*
X52070482Y7879581D01*
X52052518Y7877812D01*
X51932820Y7841502D01*
X51822506Y7782537D01*
X51725815Y7703185D01*
X51646463Y7606494D01*
X51587498Y7496180D01*
X51551188Y7376482D01*
X51538928Y7252000D01*
X51538928Y5652000D01*
X51551188Y5527518D01*
X51587498Y5407820D01*
X51646463Y5297506D01*
X51725815Y5200815D01*
X51822506Y5121463D01*
X51932820Y5062498D01*
X52052518Y5026188D01*
X52177000Y5013928D01*
X54577000Y5013928D01*
X54701482Y5026188D01*
X54821180Y5062498D01*
X54931494Y5121463D01*
X55028185Y5200815D01*
X55107537Y5297506D01*
X55166502Y5407820D01*
X55202812Y5527518D01*
X55215072Y5652000D01*
X55215072Y7252000D01*
X55202812Y7376482D01*
X55166502Y7496180D01*
X55107537Y7606494D01*
X55028185Y7703185D01*
X54931494Y7782537D01*
X54821180Y7841502D01*
X54701482Y7877812D01*
X54683518Y7879581D01*
X54796608Y7972392D01*
X54975932Y8190899D01*
X55109182Y8440192D01*
X55191236Y8710691D01*
X55218943Y8992000D01*
X55191236Y9273309D01*
X55109182Y9543808D01*
X54975932Y9793101D01*
X54796608Y10011608D01*
X54578101Y10190932D01*
X54445142Y10262000D01*
X54578101Y10333068D01*
X54796608Y10512392D01*
X54975932Y10730899D01*
X55109182Y10980192D01*
X55191236Y11250691D01*
X55218943Y11532000D01*
X55191236Y11813309D01*
X55109182Y12083808D01*
X54975932Y12333101D01*
X54796608Y12551608D01*
X54578101Y12730932D01*
X54445142Y12802000D01*
X54578101Y12873068D01*
X54796608Y13052392D01*
X54975932Y13270899D01*
X55109182Y13520192D01*
X55191236Y13790691D01*
X55218943Y14072000D01*
X55191236Y14353309D01*
X55109182Y14623808D01*
X55103414Y14634600D01*
X61932454Y14634600D01*
X75607646Y959407D01*
X75630662Y931362D01*
X75742580Y839513D01*
X75870267Y771263D01*
X76008815Y729235D01*
X76152900Y715044D01*
X76189005Y718600D01*
X80264695Y718600D01*
X80300800Y715044D01*
X80336905Y718600D01*
X80444885Y729235D01*
X80583433Y771263D01*
X80711120Y839513D01*
X80823038Y931362D01*
X80846059Y959413D01*
X81131892Y1245246D01*
X81150655Y1260645D01*
X81354842Y1176068D01*
X81641740Y1119000D01*
X81934260Y1119000D01*
X82221158Y1176068D01*
X82491411Y1288010D01*
X82734632Y1450525D01*
X82941475Y1657368D01*
X83058000Y1831760D01*
X83174525Y1657368D01*
X83381368Y1450525D01*
X83624589Y1288010D01*
X83894842Y1176068D01*
X84181740Y1119000D01*
X84474260Y1119000D01*
X84761158Y1176068D01*
X85031411Y1288010D01*
X85274632Y1450525D01*
X85481475Y1657368D01*
X85643990Y1900589D01*
X85755932Y2170842D01*
X85813000Y2457740D01*
X85813000Y2750260D01*
X85755932Y3037158D01*
X85643990Y3307411D01*
X85481475Y3550632D01*
X85274632Y3757475D01*
X85031411Y3919990D01*
X84761158Y4031932D01*
X84474260Y4089000D01*
X84181740Y4089000D01*
X83894842Y4031932D01*
X83624589Y3919990D01*
X83381368Y3757475D01*
X83174525Y3550632D01*
X83058000Y3376240D01*
X82941475Y3550632D01*
X82734632Y3757475D01*
X82491411Y3919990D01*
X82221158Y4031932D01*
X81934260Y4089000D01*
X81641740Y4089000D01*
X81354842Y4031932D01*
X81084589Y3919990D01*
X80841368Y3757475D01*
X80709513Y3625620D01*
X80687502Y3698180D01*
X80628537Y3808494D01*
X80549185Y3905185D01*
X80452494Y3984537D01*
X80342180Y4043502D01*
X80222482Y4079812D01*
X80098000Y4092072D01*
X79533750Y4089000D01*
X79375000Y3930250D01*
X79375000Y2731000D01*
X79395000Y2731000D01*
X79395000Y2477000D01*
X79375000Y2477000D01*
X79375000Y2457000D01*
X79121000Y2457000D01*
X79121000Y2477000D01*
X77921750Y2477000D01*
X77763000Y2318250D01*
X77762294Y2188600D01*
X76457347Y2188600D01*
X75191947Y3454000D01*
X77759928Y3454000D01*
X77763000Y2889750D01*
X77921750Y2731000D01*
X79121000Y2731000D01*
X79121000Y3930250D01*
X78962250Y4089000D01*
X78398000Y4092072D01*
X78273518Y4079812D01*
X78153820Y4043502D01*
X78043506Y3984537D01*
X77946815Y3905185D01*
X77867463Y3808494D01*
X77808498Y3698180D01*
X77772188Y3578482D01*
X77759928Y3454000D01*
X75191947Y3454000D01*
X73425819Y5220128D01*
X92765000Y5220128D01*
X92765000Y4779872D01*
X92850890Y4348075D01*
X93019369Y3941331D01*
X93263962Y3575271D01*
X93575271Y3263962D01*
X93941331Y3019369D01*
X94348075Y2850890D01*
X94779872Y2765000D01*
X95220128Y2765000D01*
X95651925Y2850890D01*
X96058669Y3019369D01*
X96424729Y3263962D01*
X96736038Y3575271D01*
X96980631Y3941331D01*
X97149110Y4348075D01*
X97235000Y4779872D01*
X97235000Y5220128D01*
X97149110Y5651925D01*
X96980631Y6058669D01*
X96736038Y6424729D01*
X96424729Y6736038D01*
X96058669Y6980631D01*
X95651925Y7149110D01*
X95220128Y7235000D01*
X94779872Y7235000D01*
X94348075Y7149110D01*
X93941331Y6980631D01*
X93575271Y6736038D01*
X93263962Y6424729D01*
X93019369Y6058669D01*
X92850890Y5651925D01*
X92765000Y5220128D01*
X73425819Y5220128D01*
X63541214Y15104732D01*
X63576426Y15090147D01*
X63853665Y15035000D01*
X64136335Y15035000D01*
X64413574Y15090147D01*
X64674727Y15198320D01*
X64909759Y15355363D01*
X64968325Y15413929D01*
X65530446Y14851807D01*
X65553462Y14823762D01*
X65665380Y14731913D01*
X65793067Y14663663D01*
X65900598Y14631044D01*
X65931615Y14621635D01*
X66075700Y14607444D01*
X66111805Y14611000D01*
X69492095Y14611000D01*
X69528200Y14607444D01*
X69564305Y14611000D01*
X69672285Y14621635D01*
X69810833Y14663663D01*
X69938520Y14731913D01*
X70050438Y14823762D01*
X70073458Y14851812D01*
X70638625Y15416979D01*
X70700241Y15355363D01*
X70935273Y15198320D01*
X71196426Y15090147D01*
X71473665Y15035000D01*
X71756335Y15035000D01*
X72033574Y15090147D01*
X72294727Y15198320D01*
X72529759Y15355363D01*
X72729637Y15555241D01*
X72865914Y15759195D01*
X72910615Y15745635D01*
X72913324Y15745368D01*
X73040363Y15555241D01*
X73240241Y15355363D01*
X73475273Y15198320D01*
X73736426Y15090147D01*
X74013665Y15035000D01*
X74296335Y15035000D01*
X74573574Y15090147D01*
X74834727Y15198320D01*
X75069759Y15355363D01*
X75269637Y15555241D01*
X75425000Y15787759D01*
X75580363Y15555241D01*
X75780241Y15355363D01*
X76015273Y15198320D01*
X76276426Y15090147D01*
X76553665Y15035000D01*
X76836335Y15035000D01*
X77113574Y15090147D01*
X77374727Y15198320D01*
X77609759Y15355363D01*
X77809637Y15555241D01*
X77965000Y15787759D01*
X78120363Y15555241D01*
X78320241Y15355363D01*
X78555273Y15198320D01*
X78816426Y15090147D01*
X79093665Y15035000D01*
X79376335Y15035000D01*
X79653574Y15090147D01*
X79914727Y15198320D01*
X80149759Y15355363D01*
X80349637Y15555241D01*
X80505000Y15787759D01*
X80660363Y15555241D01*
X80860241Y15355363D01*
X81095273Y15198320D01*
X81356426Y15090147D01*
X81633665Y15035000D01*
X81916335Y15035000D01*
X82193574Y15090147D01*
X82454727Y15198320D01*
X82689759Y15355363D01*
X82889637Y15555241D01*
X82951004Y15647084D01*
X82951011Y15647082D01*
X83073681Y15635000D01*
X83073682Y15635000D01*
X83114700Y15630960D01*
X83147604Y15634201D01*
X83200363Y15555241D01*
X83400241Y15355363D01*
X83635273Y15198320D01*
X83896426Y15090147D01*
X84173665Y15035000D01*
X84456335Y15035000D01*
X84733574Y15090147D01*
X84994727Y15198320D01*
X85229759Y15355363D01*
X85429637Y15555241D01*
X85585000Y15787759D01*
X85740363Y15555241D01*
X85940241Y15355363D01*
X86175273Y15198320D01*
X86436426Y15090147D01*
X86713665Y15035000D01*
X86996335Y15035000D01*
X87273574Y15090147D01*
X87534727Y15198320D01*
X87769759Y15355363D01*
X87969637Y15555241D01*
X88126680Y15790273D01*
X88131067Y15800865D01*
X88242615Y15614869D01*
X88431586Y15406481D01*
X88657580Y15238963D01*
X88911913Y15118754D01*
X89045961Y15078096D01*
X89268000Y15200085D01*
X89268000Y16343000D01*
X89248000Y16343000D01*
X89248000Y16597000D01*
X89268000Y16597000D01*
X89268000Y17739915D01*
X89522000Y17739915D01*
X89522000Y16597000D01*
X89542000Y16597000D01*
X89542000Y16343000D01*
X89522000Y16343000D01*
X89522000Y15200085D01*
X89744039Y15078096D01*
X89878087Y15118754D01*
X90132420Y15238963D01*
X90358414Y15406481D01*
X90547385Y15614869D01*
X90658933Y15800865D01*
X90663320Y15790273D01*
X90820363Y15555241D01*
X91020241Y15355363D01*
X91255273Y15198320D01*
X91516426Y15090147D01*
X91793665Y15035000D01*
X92076335Y15035000D01*
X92353574Y15090147D01*
X92614727Y15198320D01*
X92849759Y15355363D01*
X93049637Y15555241D01*
X93206680Y15790273D01*
X93314853Y16051426D01*
X93370000Y16328665D01*
X93370000Y16611335D01*
X93314853Y16888574D01*
X93206680Y17149727D01*
X93049637Y17384759D01*
X92849759Y17584637D01*
X92614727Y17741680D01*
X92353574Y17849853D01*
X92076335Y17905000D01*
X91793665Y17905000D01*
X91516426Y17849853D01*
X91255273Y17741680D01*
X91020241Y17584637D01*
X90820363Y17384759D01*
X90663320Y17149727D01*
X90658933Y17139135D01*
X90547385Y17325131D01*
X90358414Y17533519D01*
X90132420Y17701037D01*
X89878087Y17821246D01*
X89744039Y17861904D01*
X89522000Y17739915D01*
X89268000Y17739915D01*
X89045961Y17861904D01*
X88911913Y17821246D01*
X88657580Y17701037D01*
X88431586Y17533519D01*
X88242615Y17325131D01*
X88131067Y17139135D01*
X88126680Y17149727D01*
X87969637Y17384759D01*
X87769759Y17584637D01*
X87534727Y17741680D01*
X87273574Y17849853D01*
X86996335Y17905000D01*
X86713665Y17905000D01*
X86436426Y17849853D01*
X86175273Y17741680D01*
X85940241Y17584637D01*
X85740363Y17384759D01*
X85585000Y17152241D01*
X85429637Y17384759D01*
X85229759Y17584637D01*
X84994727Y17741680D01*
X84733574Y17849853D01*
X84456335Y17905000D01*
X84173665Y17905000D01*
X83896426Y17849853D01*
X83883856Y17844646D01*
X83959759Y17895363D01*
X84159637Y18095241D01*
X84316680Y18330273D01*
X84424853Y18591426D01*
X84480000Y18868665D01*
X84480000Y19151335D01*
X84424853Y19428574D01*
X84316680Y19689727D01*
X84159637Y19924759D01*
X83959759Y20124637D01*
X83724727Y20281680D01*
X83463574Y20389853D01*
X83186335Y20445000D01*
X82903665Y20445000D01*
X82626426Y20389853D01*
X82610000Y20383049D01*
X82610000Y22279182D01*
X82614040Y22320200D01*
X82605527Y22406634D01*
X82597918Y22483889D01*
X82550172Y22641287D01*
X82472636Y22786346D01*
X82438151Y22828366D01*
X82394439Y22881630D01*
X82394437Y22881632D01*
X82368291Y22913491D01*
X82336433Y22939636D01*
X78800000Y26476067D01*
X78800000Y30336951D01*
X78816426Y30330147D01*
X79093665Y30275000D01*
X79376335Y30275000D01*
X79653574Y30330147D01*
X79914727Y30438320D01*
X80149759Y30595363D01*
X80349637Y30795241D01*
X80505000Y31027759D01*
X80660363Y30795241D01*
X80860241Y30595363D01*
X81095273Y30438320D01*
X81356426Y30330147D01*
X81633665Y30275000D01*
X81916335Y30275000D01*
X82193574Y30330147D01*
X82454727Y30438320D01*
X82689759Y30595363D01*
X82889637Y30795241D01*
X83045000Y31027759D01*
X83200363Y30795241D01*
X83400241Y30595363D01*
X83635273Y30438320D01*
X83896426Y30330147D01*
X84173665Y30275000D01*
X84456335Y30275000D01*
X84733574Y30330147D01*
X84994727Y30438320D01*
X85229759Y30595363D01*
X85429637Y30795241D01*
X85585000Y31027759D01*
X85740363Y30795241D01*
X85940241Y30595363D01*
X86175273Y30438320D01*
X86436426Y30330147D01*
X86713665Y30275000D01*
X86996335Y30275000D01*
X87273574Y30330147D01*
X87534727Y30438320D01*
X87769759Y30595363D01*
X87969637Y30795241D01*
X88125000Y31027759D01*
X88280363Y30795241D01*
X88480241Y30595363D01*
X88715273Y30438320D01*
X88976426Y30330147D01*
X89253665Y30275000D01*
X89536335Y30275000D01*
X89813574Y30330147D01*
X90074727Y30438320D01*
X90309759Y30595363D01*
X90508357Y30793961D01*
X90509188Y30785518D01*
X90545498Y30665820D01*
X90604463Y30555506D01*
X90683815Y30458815D01*
X90780506Y30379463D01*
X90890820Y30320498D01*
X91010518Y30284188D01*
X91135000Y30271928D01*
X92735000Y30271928D01*
X92859482Y30284188D01*
X92979180Y30320498D01*
X93089494Y30379463D01*
X93186185Y30458815D01*
X93265537Y30555506D01*
X93324502Y30665820D01*
X93360812Y30785518D01*
X93373072Y30910000D01*
X93373072Y32510000D01*
X93360812Y32634482D01*
X93324502Y32754180D01*
X93265537Y32864494D01*
X93186185Y32961185D01*
X93089494Y33040537D01*
X92979180Y33099502D01*
X92859482Y33135812D01*
X92735000Y33148072D01*
X91135000Y33148072D01*
X91010518Y33135812D01*
X90890820Y33099502D01*
X90780506Y33040537D01*
X90683815Y32961185D01*
X90604463Y32864494D01*
X90545498Y32754180D01*
X90509188Y32634482D01*
X90508357Y32626039D01*
X90309759Y32824637D01*
X90074727Y32981680D01*
X89813574Y33089853D01*
X89536335Y33145000D01*
X89253665Y33145000D01*
X88976426Y33089853D01*
X88715273Y32981680D01*
X88480241Y32824637D01*
X88280363Y32624759D01*
X88125000Y32392241D01*
X87969637Y32624759D01*
X87769759Y32824637D01*
X87534727Y32981680D01*
X87273574Y33089853D01*
X86996335Y33145000D01*
X86713665Y33145000D01*
X86436426Y33089853D01*
X86175273Y32981680D01*
X85940241Y32824637D01*
X85740363Y32624759D01*
X85585000Y32392241D01*
X85429637Y32624759D01*
X85229759Y32824637D01*
X84994727Y32981680D01*
X84733574Y33089853D01*
X84456335Y33145000D01*
X84173665Y33145000D01*
X83896426Y33089853D01*
X83635273Y32981680D01*
X83400241Y32824637D01*
X83200363Y32624759D01*
X83045000Y32392241D01*
X82889637Y32624759D01*
X82689759Y32824637D01*
X82454727Y32981680D01*
X82193574Y33089853D01*
X81916335Y33145000D01*
X81633665Y33145000D01*
X81356426Y33089853D01*
X81095273Y32981680D01*
X80860241Y32824637D01*
X80660363Y32624759D01*
X80505000Y32392241D01*
X80349637Y32624759D01*
X80149759Y32824637D01*
X79914727Y32981680D01*
X79653574Y33089853D01*
X79376335Y33145000D01*
X79093665Y33145000D01*
X78816426Y33089853D01*
X78800000Y33083049D01*
X78800000Y42056260D01*
X93765000Y42056260D01*
X93765000Y41763740D01*
X93822068Y41476842D01*
X93934010Y41206589D01*
X94096525Y40963368D01*
X94303368Y40756525D01*
X94546589Y40594010D01*
X94816842Y40482068D01*
X95103740Y40425000D01*
X95396260Y40425000D01*
X95683158Y40482068D01*
X95953411Y40594010D01*
X96196632Y40756525D01*
X96403475Y40963368D01*
X96520000Y41137760D01*
X96636525Y40963368D01*
X96843368Y40756525D01*
X97086589Y40594010D01*
X97356842Y40482068D01*
X97643740Y40425000D01*
X97936260Y40425000D01*
X98223158Y40482068D01*
X98493411Y40594010D01*
X98736632Y40756525D01*
X98943475Y40963368D01*
X99105990Y41206589D01*
X99217932Y41476842D01*
X99275000Y41763740D01*
X99275000Y42056260D01*
X99217932Y42343158D01*
X99105990Y42613411D01*
X98943475Y42856632D01*
X98736632Y43063475D01*
X98493411Y43225990D01*
X98223158Y43337932D01*
X97936260Y43395000D01*
X97643740Y43395000D01*
X97356842Y43337932D01*
X97086589Y43225990D01*
X96843368Y43063475D01*
X96636525Y42856632D01*
X96520000Y42682240D01*
X96403475Y42856632D01*
X96196632Y43063475D01*
X95953411Y43225990D01*
X95683158Y43337932D01*
X95396260Y43395000D01*
X95103740Y43395000D01*
X94816842Y43337932D01*
X94546589Y43225990D01*
X94303368Y43063475D01*
X94096525Y42856632D01*
X93934010Y42613411D01*
X93822068Y42343158D01*
X93765000Y42056260D01*
X78800000Y42056260D01*
X78800000Y43143382D01*
X78804040Y43184400D01*
X78787918Y43348089D01*
X78740172Y43505487D01*
X78662636Y43650546D01*
X78584439Y43745830D01*
X78584437Y43745832D01*
X78558291Y43777691D01*
X78526433Y43803836D01*
X71084955Y51245312D01*
X71165990Y51366589D01*
X71277932Y51636842D01*
X71335000Y51923740D01*
X71335000Y52216260D01*
X71277932Y52503158D01*
X71165990Y52773411D01*
X71003475Y53016632D01*
X70796632Y53223475D01*
X70614466Y53345195D01*
X70731355Y53414822D01*
X70947588Y53609731D01*
X71121641Y53843080D01*
X71246825Y54105901D01*
X71291476Y54253110D01*
X71170155Y54483000D01*
X69977000Y54483000D01*
X69977000Y54463000D01*
X69723000Y54463000D01*
X69723000Y54483000D01*
X68529845Y54483000D01*
X68408524Y54253110D01*
X68453175Y54105901D01*
X68578359Y53843080D01*
X68752412Y53609731D01*
X68968645Y53414822D01*
X69085534Y53345195D01*
X68903368Y53223475D01*
X68696525Y53016632D01*
X68534010Y52773411D01*
X68422068Y52503158D01*
X68365000Y52216260D01*
X68365000Y51923740D01*
X68422068Y51636842D01*
X68422831Y51635000D01*
X67001168Y51635000D01*
X62829746Y55806421D01*
X62803591Y55838291D01*
X62676446Y55942636D01*
X62531387Y56020172D01*
X62373989Y56067918D01*
X62251319Y56080000D01*
X62251318Y56080000D01*
X62210300Y56084040D01*
X62186905Y56081736D01*
X62113475Y56191632D01*
X61981620Y56323487D01*
X62054180Y56345498D01*
X62164494Y56404463D01*
X62261185Y56483815D01*
X62340537Y56580506D01*
X62399502Y56690820D01*
X62435812Y56810518D01*
X62448072Y56935000D01*
X62445000Y57499250D01*
X62286250Y57658000D01*
X61087000Y57658000D01*
X61087000Y57638000D01*
X60833000Y57638000D01*
X60833000Y57658000D01*
X60813000Y57658000D01*
X60813000Y57912000D01*
X60833000Y57912000D01*
X60833000Y59111250D01*
X61087000Y59111250D01*
X61087000Y57912000D01*
X62286250Y57912000D01*
X62445000Y58070750D01*
X62448072Y58635000D01*
X62435812Y58759482D01*
X62399502Y58879180D01*
X62340537Y58989494D01*
X62261185Y59086185D01*
X62164494Y59165537D01*
X62054180Y59224502D01*
X61934482Y59260812D01*
X61810000Y59273072D01*
X61245750Y59270000D01*
X61087000Y59111250D01*
X60833000Y59111250D01*
X60674250Y59270000D01*
X60110000Y59273072D01*
X59985518Y59260812D01*
X59865820Y59224502D01*
X59755506Y59165537D01*
X59725000Y59140501D01*
X59725000Y60060554D01*
X62744446Y63080000D01*
X68361928Y63080000D01*
X68361928Y61380000D01*
X68374188Y61255518D01*
X68410498Y61135820D01*
X68469463Y61025506D01*
X68548815Y60928815D01*
X68645506Y60849463D01*
X68755820Y60790498D01*
X68828380Y60768487D01*
X68696525Y60636632D01*
X68534010Y60393411D01*
X68422068Y60123158D01*
X68365000Y59836260D01*
X68365000Y59543740D01*
X68422068Y59256842D01*
X68534010Y58986589D01*
X68696525Y58743368D01*
X68903368Y58536525D01*
X69077760Y58420000D01*
X68903368Y58303475D01*
X68696525Y58096632D01*
X68534010Y57853411D01*
X68422068Y57583158D01*
X68365000Y57296260D01*
X68365000Y57003740D01*
X68422068Y56716842D01*
X68534010Y56446589D01*
X68696525Y56203368D01*
X68903368Y55996525D01*
X69085534Y55874805D01*
X68968645Y55805178D01*
X68752412Y55610269D01*
X68578359Y55376920D01*
X68453175Y55114099D01*
X68408524Y54966890D01*
X68529845Y54737000D01*
X69723000Y54737000D01*
X69723000Y54757000D01*
X69977000Y54757000D01*
X69977000Y54737000D01*
X71170155Y54737000D01*
X71291476Y54966890D01*
X71246825Y55114099D01*
X71121641Y55376920D01*
X70947588Y55610269D01*
X70731355Y55805178D01*
X70614466Y55874805D01*
X70796632Y55996525D01*
X71003475Y56203368D01*
X71165990Y56446589D01*
X71277932Y56716842D01*
X71335000Y57003740D01*
X71335000Y57296260D01*
X71277932Y57583158D01*
X71165990Y57853411D01*
X71003475Y58096632D01*
X70796632Y58303475D01*
X70622240Y58420000D01*
X70796632Y58536525D01*
X71003475Y58743368D01*
X71165990Y58986589D01*
X71277932Y59256842D01*
X71335000Y59543740D01*
X71335000Y59836260D01*
X71277932Y60123158D01*
X71165990Y60393411D01*
X71003475Y60636632D01*
X70871620Y60768487D01*
X70944180Y60790498D01*
X71054494Y60849463D01*
X71151185Y60928815D01*
X71230537Y61025506D01*
X71289502Y61135820D01*
X71325812Y61255518D01*
X71338072Y61380000D01*
X71338072Y62376260D01*
X93765000Y62376260D01*
X93765000Y62083740D01*
X93822068Y61796842D01*
X93934010Y61526589D01*
X94096525Y61283368D01*
X94303368Y61076525D01*
X94546589Y60914010D01*
X94816842Y60802068D01*
X95103740Y60745000D01*
X95396260Y60745000D01*
X95683158Y60802068D01*
X95953411Y60914010D01*
X96196632Y61076525D01*
X96403475Y61283368D01*
X96520000Y61457760D01*
X96636525Y61283368D01*
X96843368Y61076525D01*
X97086589Y60914010D01*
X97356842Y60802068D01*
X97643740Y60745000D01*
X97936260Y60745000D01*
X98223158Y60802068D01*
X98493411Y60914010D01*
X98736632Y61076525D01*
X98943475Y61283368D01*
X99105990Y61526589D01*
X99217932Y61796842D01*
X99275000Y62083740D01*
X99275000Y62376260D01*
X99217932Y62663158D01*
X99105990Y62933411D01*
X98943475Y63176632D01*
X98736632Y63383475D01*
X98493411Y63545990D01*
X98223158Y63657932D01*
X97936260Y63715000D01*
X97643740Y63715000D01*
X97356842Y63657932D01*
X97086589Y63545990D01*
X96843368Y63383475D01*
X96636525Y63176632D01*
X96520000Y63002240D01*
X96403475Y63176632D01*
X96196632Y63383475D01*
X95953411Y63545990D01*
X95683158Y63657932D01*
X95396260Y63715000D01*
X95103740Y63715000D01*
X94816842Y63657932D01*
X94546589Y63545990D01*
X94303368Y63383475D01*
X94096525Y63176632D01*
X93934010Y62933411D01*
X93822068Y62663158D01*
X93765000Y62376260D01*
X71338072Y62376260D01*
X71338072Y63080000D01*
X71325812Y63204482D01*
X71289502Y63324180D01*
X71230537Y63434494D01*
X71151185Y63531185D01*
X71054494Y63610537D01*
X70944180Y63669502D01*
X70824482Y63705812D01*
X70700000Y63718072D01*
X69000000Y63718072D01*
X68875518Y63705812D01*
X68755820Y63669502D01*
X68645506Y63610537D01*
X68548815Y63531185D01*
X68469463Y63434494D01*
X68410498Y63324180D01*
X68374188Y63204482D01*
X68361928Y63080000D01*
X62744446Y63080000D01*
X62927653Y63263206D01*
X63014645Y63280510D01*
X63175705Y63347223D01*
X63320655Y63444076D01*
X63443924Y63567345D01*
X63540777Y63712295D01*
X63607490Y63873355D01*
X63641500Y64044335D01*
X63641500Y64218665D01*
X63607490Y64389645D01*
X63540777Y64550705D01*
X63443924Y64695655D01*
X63320655Y64818924D01*
X63218157Y64887411D01*
X73771193Y75440446D01*
X73799238Y75463462D01*
X73891087Y75575380D01*
X73910304Y75611333D01*
X73959337Y75703066D01*
X74001365Y75841615D01*
X74001826Y75846298D01*
X74078101Y75887068D01*
X74296608Y76066392D01*
X74475932Y76284899D01*
X74547000Y76417858D01*
X74618068Y76284899D01*
X74797393Y76066392D01*
X75015900Y75887068D01*
X75265193Y75753818D01*
X75535692Y75671764D01*
X75817000Y75644057D01*
X76098309Y75671764D01*
X76368808Y75753818D01*
X76618101Y75887068D01*
X76836608Y76066392D01*
X77015932Y76284899D01*
X77087000Y76417858D01*
X77158068Y76284899D01*
X77337393Y76066392D01*
X77555900Y75887068D01*
X77805193Y75753818D01*
X78075692Y75671764D01*
X78357000Y75644057D01*
X78638309Y75671764D01*
X78908808Y75753818D01*
X79158101Y75887068D01*
X79376608Y76066392D01*
X79555932Y76284899D01*
X79624265Y76412741D01*
X79774399Y76183161D01*
X79972105Y75981500D01*
X80205354Y75822285D01*
X80465182Y75711633D01*
X80547961Y75694096D01*
X80770000Y75816085D01*
X80770000Y77359000D01*
X81024000Y77359000D01*
X81024000Y75816085D01*
X81246039Y75694096D01*
X81328818Y75711633D01*
X81588646Y75822285D01*
X81821895Y75981500D01*
X82019601Y76183161D01*
X82174166Y76419517D01*
X82279650Y76681486D01*
X82332000Y76959000D01*
X82332000Y77359000D01*
X81024000Y77359000D01*
X80770000Y77359000D01*
X80750000Y77359000D01*
X80750000Y77613000D01*
X80770000Y77613000D01*
X80770000Y79155915D01*
X81024000Y79155915D01*
X81024000Y77613000D01*
X82332000Y77613000D01*
X82332000Y78013000D01*
X82279650Y78290514D01*
X82174166Y78552483D01*
X82019601Y78788839D01*
X81821895Y78990500D01*
X81588646Y79149715D01*
X81328818Y79260367D01*
X81246039Y79277904D01*
X81024000Y79155915D01*
X80770000Y79155915D01*
X80547961Y79277904D01*
X80465182Y79260367D01*
X80205354Y79149715D01*
X79972105Y78990500D01*
X79774399Y78788839D01*
X79624265Y78559259D01*
X79555932Y78687101D01*
X79376607Y78905608D01*
X79158100Y79084932D01*
X78908807Y79218182D01*
X78638308Y79300236D01*
X78357000Y79327943D01*
X78075691Y79300236D01*
X77805192Y79218182D01*
X77555899Y79084932D01*
X77337392Y78905607D01*
X77158068Y78687100D01*
X77087000Y78554142D01*
X77015932Y78687101D01*
X76836607Y78905608D01*
X76618100Y79084932D01*
X76541826Y79125701D01*
X76541365Y79130385D01*
X76499337Y79268933D01*
X76431087Y79396620D01*
X76339238Y79508538D01*
X76227320Y79600387D01*
X76099633Y79668637D01*
X75961085Y79710665D01*
X75853105Y79721300D01*
X75817000Y79724856D01*
X75780895Y79721300D01*
X72849705Y79721300D01*
X72813600Y79724856D01*
X72669515Y79710665D01*
X72530966Y79668637D01*
X72482006Y79642467D01*
X72403280Y79600387D01*
X72291362Y79508538D01*
X72268346Y79480493D01*
X71721925Y78934071D01*
X71538100Y79084932D01*
X71288807Y79218182D01*
X71018308Y79300236D01*
X70737000Y79327943D01*
X70455691Y79300236D01*
X70331400Y79262533D01*
X70331400Y79620654D01*
X81391193Y90680446D01*
X81419238Y90703462D01*
X81511087Y90815380D01*
X81579337Y90943067D01*
X81621365Y91081615D01*
X81621826Y91086298D01*
X81698101Y91127068D01*
X81916608Y91306392D01*
X82095932Y91524899D01*
X82229182Y91774192D01*
X82311236Y92044691D01*
X82332000Y92255509D01*
X82332000Y93196492D01*
X82311236Y93407309D01*
X82229182Y93677808D01*
X82095932Y93927101D01*
X81916607Y94145608D01*
X81698100Y94324932D01*
X81448807Y94458182D01*
X81178308Y94540236D01*
X80897000Y94567943D01*
X80615691Y94540236D01*
X80345192Y94458182D01*
X80095899Y94324932D01*
X79877392Y94145607D01*
X79698068Y93927100D01*
X79627000Y93794142D01*
X79555932Y93927101D01*
X79376607Y94145608D01*
X79158100Y94324932D01*
X78908807Y94458182D01*
X78638308Y94540236D01*
X78357000Y94567943D01*
X78075691Y94540236D01*
X77805192Y94458182D01*
X77555899Y94324932D01*
X77337392Y94145607D01*
X77158068Y93927100D01*
X77087000Y93794142D01*
X77015932Y93927101D01*
X76836607Y94145608D01*
X76618100Y94324932D01*
X76541826Y94365701D01*
X76541365Y94370385D01*
X76499337Y94508933D01*
X76431087Y94636620D01*
X76339238Y94748538D01*
X76227320Y94840387D01*
X76099633Y94908637D01*
X75961085Y94950665D01*
X75853105Y94961300D01*
X75817000Y94964856D01*
X75780895Y94961300D01*
X70276394Y94961300D01*
X70240299Y94964855D01*
X70204204Y94961300D01*
X70204195Y94961300D01*
X70096215Y94950665D01*
X69957667Y94908637D01*
X69829980Y94840387D01*
X69718062Y94748538D01*
X69695046Y94720493D01*
X69163635Y94189081D01*
X68998100Y94324932D01*
X68748807Y94458182D01*
X68478308Y94540236D01*
X68197000Y94567943D01*
X67915691Y94540236D01*
X67645192Y94458182D01*
X67395899Y94324932D01*
X67177392Y94145607D01*
X66998068Y93927100D01*
X66927000Y93794142D01*
X66855932Y93927101D01*
X66676607Y94145608D01*
X66458100Y94324932D01*
X66381826Y94365701D01*
X66381365Y94370385D01*
X66354732Y94458182D01*
X66339337Y94508933D01*
X66271087Y94636620D01*
X66179238Y94748538D01*
X66151187Y94771559D01*
X65771559Y95151187D01*
X65748538Y95179238D01*
X65698714Y95220128D01*
X92765000Y95220128D01*
X92765000Y94779872D01*
X92850890Y94348075D01*
X93019369Y93941331D01*
X93263962Y93575271D01*
X93575271Y93263962D01*
X93941331Y93019369D01*
X94348075Y92850890D01*
X94779872Y92765000D01*
X95220128Y92765000D01*
X95651925Y92850890D01*
X96058669Y93019369D01*
X96424729Y93263962D01*
X96736038Y93575271D01*
X96980631Y93941331D01*
X97149110Y94348075D01*
X97235000Y94779872D01*
X97235000Y95220128D01*
X97149110Y95651925D01*
X96980631Y96058669D01*
X96736038Y96424729D01*
X96424729Y96736038D01*
X96058669Y96980631D01*
X95651925Y97149110D01*
X95220128Y97235000D01*
X94779872Y97235000D01*
X94348075Y97149110D01*
X93941331Y96980631D01*
X93575271Y96736038D01*
X93263962Y96424729D01*
X93019369Y96058669D01*
X92850890Y95651925D01*
X92765000Y95220128D01*
X65698714Y95220128D01*
X65636620Y95271087D01*
X65508933Y95339337D01*
X65370385Y95381365D01*
X65262405Y95392000D01*
X65226300Y95395556D01*
X65190195Y95392000D01*
X18729205Y95392000D01*
X18693100Y95395556D01*
X18549015Y95381365D01*
X18410466Y95339337D01*
X18282780Y95271087D01*
X18170862Y95179238D01*
X18147846Y95151193D01*
X3252708Y80256054D01*
X3224662Y80233037D01*
X3132813Y80121119D01*
X3064563Y79993432D01*
X3036981Y79902505D01*
X3022535Y79854885D01*
X3008344Y79710800D01*
X660000Y79710800D01*
X660000Y95220128D01*
X2765000Y95220128D01*
X2765000Y94779872D01*
X2850890Y94348075D01*
X3019369Y93941331D01*
X3263962Y93575271D01*
X3575271Y93263962D01*
X3941331Y93019369D01*
X4348075Y92850890D01*
X4779872Y92765000D01*
X5220128Y92765000D01*
X5651925Y92850890D01*
X6058669Y93019369D01*
X6424729Y93263962D01*
X6736038Y93575271D01*
X6980631Y93941331D01*
X7149110Y94348075D01*
X7235000Y94779872D01*
X7235000Y95220128D01*
X7149110Y95651925D01*
X6980631Y96058669D01*
X6736038Y96424729D01*
X6424729Y96736038D01*
X6058669Y96980631D01*
X5651925Y97149110D01*
X5220128Y97235000D01*
X4779872Y97235000D01*
X4348075Y97149110D01*
X3941331Y96980631D01*
X3575271Y96736038D01*
X3263962Y96424729D01*
X3019369Y96058669D01*
X2850890Y95651925D01*
X2765000Y95220128D01*
X660000Y95220128D01*
X660000Y99340000D01*
X99340001Y99340000D01*
X99340000Y660000D01*
G37*
G04 #@! TD.AperFunction*
D24*
X30777748Y15788142D02*
X30763605Y15774000D01*
X30777748Y15759857D01*
X30598143Y15580252D01*
X30584000Y15594395D01*
X30569858Y15580252D01*
X30390253Y15759857D01*
X30404395Y15774000D01*
X30390253Y15788142D01*
X30569858Y15967747D01*
X30584000Y15953605D01*
X30598143Y15967747D01*
X30777748Y15788142D01*
G04 #@! TA.AperFunction,Conductor*
D25*
G36*
X30777748Y15788142D02*
G01*
X30763605Y15774000D01*
X30777748Y15759857D01*
X30598143Y15580252D01*
X30584000Y15594395D01*
X30569858Y15580252D01*
X30390253Y15759857D01*
X30404395Y15774000D01*
X30390253Y15788142D01*
X30569858Y15967747D01*
X30584000Y15953605D01*
X30598143Y15967747D01*
X30777748Y15788142D01*
G37*
G04 #@! TD.AperFunction*
D24*
X30120996Y44045429D02*
X30395184Y43976700D01*
X30677512Y43962783D01*
X30957130Y44004213D01*
X31006700Y44021940D01*
X31006701Y39042915D01*
X31003144Y39006800D01*
X31017335Y38862715D01*
X31049734Y38755913D01*
X31059364Y38724167D01*
X31127614Y38596480D01*
X31219463Y38484562D01*
X31247508Y38461546D01*
X33450053Y36259000D01*
X33251000Y36259000D01*
X33251000Y34951000D01*
X33271000Y34951000D01*
X33271000Y34697000D01*
X33251000Y34697000D01*
X33251000Y34677000D01*
X32997000Y34677000D01*
X32997000Y34697000D01*
X31454085Y34697000D01*
X31332096Y34474961D01*
X31349633Y34392182D01*
X31460285Y34132354D01*
X31619500Y33899105D01*
X31671085Y33848532D01*
X31129508Y33306954D01*
X31101462Y33283937D01*
X31009613Y33172019D01*
X30941363Y33044332D01*
X30930453Y33008365D01*
X30899335Y32905785D01*
X30885144Y32761700D01*
X30888700Y32725595D01*
X30888701Y22160115D01*
X30885144Y22124000D01*
X30899335Y21979915D01*
X30941363Y21841367D01*
X31009613Y21713680D01*
X31101462Y21601762D01*
X31213380Y21509913D01*
X31341067Y21441663D01*
X31479615Y21399635D01*
X31484298Y21399174D01*
X31485372Y21397165D01*
X31477367Y21394737D01*
X31349680Y21326487D01*
X31237762Y21234638D01*
X31214741Y21206587D01*
X31129408Y21121254D01*
X31101363Y21098238D01*
X31009514Y20986320D01*
X30979086Y20929393D01*
X30941264Y20858633D01*
X30899235Y20720085D01*
X30885044Y20576000D01*
X30888601Y20539885D01*
X30888600Y17177042D01*
X30795816Y17200300D01*
X30513488Y17214217D01*
X30233870Y17172787D01*
X30069000Y17113827D01*
X30069000Y35173039D01*
X31332096Y35173039D01*
X31454085Y34951000D01*
X32997000Y34951000D01*
X32997000Y36259000D01*
X32597000Y36259000D01*
X32319486Y36206650D01*
X32057517Y36101166D01*
X31821161Y35946601D01*
X31619500Y35748895D01*
X31460285Y35515646D01*
X31349633Y35255818D01*
X31332096Y35173039D01*
X30069000Y35173039D01*
X30069000Y44070032D01*
X30120996Y44045429D01*
G04 #@! TA.AperFunction,Conductor*
D25*
G36*
X30120996Y44045429D02*
G01*
X30395184Y43976700D01*
X30677512Y43962783D01*
X30957130Y44004213D01*
X31006700Y44021940D01*
X31006701Y39042915D01*
X31003144Y39006800D01*
X31017335Y38862715D01*
X31049734Y38755913D01*
X31059364Y38724167D01*
X31127614Y38596480D01*
X31219463Y38484562D01*
X31247508Y38461546D01*
X33450053Y36259000D01*
X33251000Y36259000D01*
X33251000Y34951000D01*
X33271000Y34951000D01*
X33271000Y34697000D01*
X33251000Y34697000D01*
X33251000Y34677000D01*
X32997000Y34677000D01*
X32997000Y34697000D01*
X31454085Y34697000D01*
X31332096Y34474961D01*
X31349633Y34392182D01*
X31460285Y34132354D01*
X31619500Y33899105D01*
X31671085Y33848532D01*
X31129508Y33306954D01*
X31101462Y33283937D01*
X31009613Y33172019D01*
X30941363Y33044332D01*
X30930453Y33008365D01*
X30899335Y32905785D01*
X30885144Y32761700D01*
X30888700Y32725595D01*
X30888701Y22160115D01*
X30885144Y22124000D01*
X30899335Y21979915D01*
X30941363Y21841367D01*
X31009613Y21713680D01*
X31101462Y21601762D01*
X31213380Y21509913D01*
X31341067Y21441663D01*
X31479615Y21399635D01*
X31484298Y21399174D01*
X31485372Y21397165D01*
X31477367Y21394737D01*
X31349680Y21326487D01*
X31237762Y21234638D01*
X31214741Y21206587D01*
X31129408Y21121254D01*
X31101363Y21098238D01*
X31009514Y20986320D01*
X30979086Y20929393D01*
X30941264Y20858633D01*
X30899235Y20720085D01*
X30885044Y20576000D01*
X30888601Y20539885D01*
X30888600Y17177042D01*
X30795816Y17200300D01*
X30513488Y17214217D01*
X30233870Y17172787D01*
X30069000Y17113827D01*
X30069000Y35173039D01*
X31332096Y35173039D01*
X31454085Y34951000D01*
X32997000Y34951000D01*
X32997000Y36259000D01*
X32597000Y36259000D01*
X32319486Y36206650D01*
X32057517Y36101166D01*
X31821161Y35946601D01*
X31619500Y35748895D01*
X31460285Y35515646D01*
X31349633Y35255818D01*
X31332096Y35173039D01*
X30069000Y35173039D01*
X30069000Y44070032D01*
X30120996Y44045429D01*
G37*
G04 #@! TD.AperFunction*
D24*
X58255000Y21029147D02*
X55499471Y18273618D01*
X55559737Y18386367D01*
X55601765Y18524915D01*
X55615956Y18668999D01*
X55612400Y18705104D01*
X55612400Y19572195D01*
X55615956Y19608300D01*
X55601765Y19752385D01*
X55559737Y19890934D01*
X55491487Y20018620D01*
X55422653Y20102494D01*
X55422650Y20102497D01*
X55399637Y20130538D01*
X55371597Y20153550D01*
X54819159Y20705987D01*
X54881500Y20767105D01*
X55040715Y21000354D01*
X55151367Y21260182D01*
X55168904Y21342961D01*
X55046915Y21565000D01*
X53504000Y21565000D01*
X53504000Y21545000D01*
X53250000Y21545000D01*
X53250000Y21565000D01*
X51707085Y21565000D01*
X51585096Y21342961D01*
X51602633Y21260182D01*
X51646575Y21157000D01*
X40143988Y21157000D01*
X40159538Y21169762D01*
X40182558Y21197812D01*
X41360747Y22376000D01*
X51710029Y22376000D01*
X51602633Y22123818D01*
X51585096Y22041039D01*
X51707085Y21819000D01*
X53250000Y21819000D01*
X53250000Y21839000D01*
X53504000Y21839000D01*
X53504000Y21819000D01*
X55046915Y21819000D01*
X55168904Y22041039D01*
X55151367Y22123818D01*
X55040715Y22383646D01*
X54881500Y22616895D01*
X54820018Y22677172D01*
X58255000Y26112153D01*
X58255000Y21029147D01*
G04 #@! TA.AperFunction,Conductor*
D25*
G36*
X58255000Y21029147D02*
G01*
X55499471Y18273618D01*
X55559737Y18386367D01*
X55601765Y18524915D01*
X55615956Y18668999D01*
X55612400Y18705104D01*
X55612400Y19572195D01*
X55615956Y19608300D01*
X55601765Y19752385D01*
X55559737Y19890934D01*
X55491487Y20018620D01*
X55422653Y20102494D01*
X55422650Y20102497D01*
X55399637Y20130538D01*
X55371597Y20153550D01*
X54819159Y20705987D01*
X54881500Y20767105D01*
X55040715Y21000354D01*
X55151367Y21260182D01*
X55168904Y21342961D01*
X55046915Y21565000D01*
X53504000Y21565000D01*
X53504000Y21545000D01*
X53250000Y21545000D01*
X53250000Y21565000D01*
X51707085Y21565000D01*
X51585096Y21342961D01*
X51602633Y21260182D01*
X51646575Y21157000D01*
X40143988Y21157000D01*
X40159538Y21169762D01*
X40182558Y21197812D01*
X41360747Y22376000D01*
X51710029Y22376000D01*
X51602633Y22123818D01*
X51585096Y22041039D01*
X51707085Y21819000D01*
X53250000Y21819000D01*
X53250000Y21839000D01*
X53504000Y21839000D01*
X53504000Y21819000D01*
X55046915Y21819000D01*
X55168904Y22041039D01*
X55151367Y22123818D01*
X55040715Y22383646D01*
X54881500Y22616895D01*
X54820018Y22677172D01*
X58255000Y26112153D01*
X58255000Y21029147D01*
G37*
G04 #@! TD.AperFunction*
D24*
X23458446Y31789807D02*
X23481462Y31761762D01*
X23593380Y31669913D01*
X23721067Y31601663D01*
X23859615Y31559635D01*
X23864298Y31559174D01*
X23905068Y31482899D01*
X24084392Y31264392D01*
X24302899Y31085068D01*
X24435858Y31014000D01*
X24302899Y30942932D01*
X24084392Y30763608D01*
X23905068Y30545101D01*
X23771818Y30295808D01*
X23689764Y30025309D01*
X23662057Y29744000D01*
X23689764Y29462691D01*
X23771818Y29192192D01*
X23905068Y28942899D01*
X24084392Y28724392D01*
X24302899Y28545068D01*
X24430741Y28476735D01*
X24201161Y28326601D01*
X23999500Y28128895D01*
X23840285Y27895646D01*
X23729633Y27635818D01*
X23712096Y27553039D01*
X23834085Y27331000D01*
X25377000Y27331000D01*
X25377000Y27351000D01*
X25631000Y27351000D01*
X25631000Y27331000D01*
X27173915Y27331000D01*
X27295904Y27553039D01*
X27278367Y27635818D01*
X27167715Y27895646D01*
X27008500Y28128895D01*
X26806839Y28326601D01*
X26577259Y28476735D01*
X26705101Y28545068D01*
X26923608Y28724392D01*
X27102932Y28942899D01*
X27236182Y29192192D01*
X27263923Y29283644D01*
X27335535Y29269400D01*
X27453601Y29269400D01*
X27453601Y25246096D01*
X27414620Y25278087D01*
X27286933Y25346337D01*
X27148385Y25388365D01*
X27143702Y25388826D01*
X27102932Y25465101D01*
X26923608Y25683608D01*
X26705101Y25862932D01*
X26577259Y25931265D01*
X26806839Y26081399D01*
X27008500Y26279105D01*
X27167715Y26512354D01*
X27278367Y26772182D01*
X27295904Y26854961D01*
X27173915Y27077000D01*
X25631000Y27077000D01*
X25631000Y27057000D01*
X25377000Y27057000D01*
X25377000Y27077000D01*
X23834085Y27077000D01*
X23712096Y26854961D01*
X23729633Y26772182D01*
X23840285Y26512354D01*
X23999500Y26279105D01*
X24201161Y26081399D01*
X24430741Y25931265D01*
X24302899Y25862932D01*
X24084392Y25683608D01*
X23905068Y25465101D01*
X23771818Y25215808D01*
X23689764Y24945309D01*
X23662057Y24664000D01*
X23689764Y24382691D01*
X23771818Y24112192D01*
X23905068Y23862899D01*
X24084392Y23644392D01*
X24302899Y23465068D01*
X24435858Y23394000D01*
X24302899Y23322932D01*
X24084392Y23143608D01*
X24056962Y23110185D01*
X23119700Y24047446D01*
X23119700Y32128553D01*
X23458446Y31789807D01*
G04 #@! TA.AperFunction,Conductor*
D25*
G36*
X23458446Y31789807D02*
G01*
X23481462Y31761762D01*
X23593380Y31669913D01*
X23721067Y31601663D01*
X23859615Y31559635D01*
X23864298Y31559174D01*
X23905068Y31482899D01*
X24084392Y31264392D01*
X24302899Y31085068D01*
X24435858Y31014000D01*
X24302899Y30942932D01*
X24084392Y30763608D01*
X23905068Y30545101D01*
X23771818Y30295808D01*
X23689764Y30025309D01*
X23662057Y29744000D01*
X23689764Y29462691D01*
X23771818Y29192192D01*
X23905068Y28942899D01*
X24084392Y28724392D01*
X24302899Y28545068D01*
X24430741Y28476735D01*
X24201161Y28326601D01*
X23999500Y28128895D01*
X23840285Y27895646D01*
X23729633Y27635818D01*
X23712096Y27553039D01*
X23834085Y27331000D01*
X25377000Y27331000D01*
X25377000Y27351000D01*
X25631000Y27351000D01*
X25631000Y27331000D01*
X27173915Y27331000D01*
X27295904Y27553039D01*
X27278367Y27635818D01*
X27167715Y27895646D01*
X27008500Y28128895D01*
X26806839Y28326601D01*
X26577259Y28476735D01*
X26705101Y28545068D01*
X26923608Y28724392D01*
X27102932Y28942899D01*
X27236182Y29192192D01*
X27263923Y29283644D01*
X27335535Y29269400D01*
X27453601Y29269400D01*
X27453601Y25246096D01*
X27414620Y25278087D01*
X27286933Y25346337D01*
X27148385Y25388365D01*
X27143702Y25388826D01*
X27102932Y25465101D01*
X26923608Y25683608D01*
X26705101Y25862932D01*
X26577259Y25931265D01*
X26806839Y26081399D01*
X27008500Y26279105D01*
X27167715Y26512354D01*
X27278367Y26772182D01*
X27295904Y26854961D01*
X27173915Y27077000D01*
X25631000Y27077000D01*
X25631000Y27057000D01*
X25377000Y27057000D01*
X25377000Y27077000D01*
X23834085Y27077000D01*
X23712096Y26854961D01*
X23729633Y26772182D01*
X23840285Y26512354D01*
X23999500Y26279105D01*
X24201161Y26081399D01*
X24430741Y25931265D01*
X24302899Y25862932D01*
X24084392Y25683608D01*
X23905068Y25465101D01*
X23771818Y25215808D01*
X23689764Y24945309D01*
X23662057Y24664000D01*
X23689764Y24382691D01*
X23771818Y24112192D01*
X23905068Y23862899D01*
X24084392Y23644392D01*
X24302899Y23465068D01*
X24435858Y23394000D01*
X24302899Y23322932D01*
X24084392Y23143608D01*
X24056962Y23110185D01*
X23119700Y24047446D01*
X23119700Y32128553D01*
X23458446Y31789807D01*
G37*
G04 #@! TD.AperFunction*
D24*
X30800748Y45417142D02*
X30786605Y45403000D01*
X30800748Y45388857D01*
X30621143Y45209252D01*
X30607000Y45223395D01*
X30592858Y45209252D01*
X30413253Y45388857D01*
X30427395Y45403000D01*
X30413253Y45417142D01*
X30592858Y45596747D01*
X30607000Y45582605D01*
X30621143Y45596747D01*
X30800748Y45417142D01*
G04 #@! TA.AperFunction,Conductor*
D25*
G36*
X30800748Y45417142D02*
G01*
X30786605Y45403000D01*
X30800748Y45388857D01*
X30621143Y45209252D01*
X30607000Y45223395D01*
X30592858Y45209252D01*
X30413253Y45388857D01*
X30427395Y45403000D01*
X30413253Y45417142D01*
X30592858Y45596747D01*
X30607000Y45582605D01*
X30621143Y45596747D01*
X30800748Y45417142D01*
G37*
G04 #@! TD.AperFunction*
D24*
X56838068Y76284899D02*
X57017393Y76066392D01*
X57235900Y75887068D01*
X57485193Y75753818D01*
X57755692Y75671764D01*
X58037000Y75644057D01*
X58318309Y75671764D01*
X58572001Y75748720D01*
X58572000Y70088247D01*
X47643914Y59160160D01*
X47588671Y59263514D01*
X47344702Y59335097D01*
X46531605Y58522000D01*
X46545748Y58507857D01*
X46366143Y58328252D01*
X46352000Y58342395D01*
X45538903Y57529298D01*
X45610486Y57285329D01*
X45865996Y57164429D01*
X46140184Y57095700D01*
X46422512Y57081783D01*
X46600701Y57108185D01*
X46600700Y49102619D01*
X46527155Y49087990D01*
X46367067Y49021680D01*
X40182559Y55206187D01*
X40159538Y55234238D01*
X40047620Y55326087D01*
X39919933Y55394337D01*
X39781385Y55436365D01*
X39776702Y55436826D01*
X39735932Y55513101D01*
X39556608Y55731608D01*
X39338101Y55910932D01*
X39088808Y56044182D01*
X38818309Y56126236D01*
X38651056Y56142709D01*
X44462093Y61953746D01*
X44490138Y61976762D01*
X44581987Y62088680D01*
X44650237Y62216367D01*
X44687029Y62337655D01*
X44692265Y62354914D01*
X44706456Y62498999D01*
X44702900Y62535104D01*
X44702900Y65046570D01*
X44793641Y64985939D01*
X45036595Y64885304D01*
X45294514Y64834000D01*
X45557486Y64834000D01*
X45815405Y64885304D01*
X45841700Y64896196D01*
X45841700Y61692568D01*
X44087418Y59938285D01*
X43993335Y59957000D01*
X43710665Y59957000D01*
X43433426Y59901853D01*
X43172273Y59793680D01*
X42937241Y59636637D01*
X42737363Y59436759D01*
X42580320Y59201727D01*
X42472147Y58940574D01*
X42417000Y58663335D01*
X42417000Y58380665D01*
X42472147Y58103426D01*
X42580320Y57842273D01*
X42737363Y57607241D01*
X42937241Y57407363D01*
X43172273Y57250320D01*
X43433426Y57142147D01*
X43710665Y57087000D01*
X43993335Y57087000D01*
X44270574Y57142147D01*
X44531727Y57250320D01*
X44766759Y57407363D01*
X44966637Y57607241D01*
X45100692Y57807869D01*
X45115329Y57780486D01*
X45359298Y57708903D01*
X46172395Y58522000D01*
X46158253Y58536142D01*
X46337858Y58715747D01*
X46352000Y58701605D01*
X47165097Y59514702D01*
X47093514Y59758671D01*
X46838004Y59879571D01*
X46563816Y59948300D01*
X46464084Y59953216D01*
X47238128Y60727260D01*
X47269991Y60753409D01*
X47374336Y60880554D01*
X47451872Y61025613D01*
X47499618Y61183011D01*
X47507332Y61261336D01*
X47515740Y61346699D01*
X47511700Y61387718D01*
X47511700Y64895616D01*
X47536595Y64885304D01*
X47794514Y64834000D01*
X48057486Y64834000D01*
X48315405Y64885304D01*
X48558359Y64985939D01*
X48777013Y65132038D01*
X48962962Y65317987D01*
X49109061Y65536641D01*
X49209696Y65779595D01*
X49261000Y66037514D01*
X49261000Y66300486D01*
X49209696Y66558405D01*
X49109061Y66801359D01*
X48962962Y67020013D01*
X48777013Y67205962D01*
X48661000Y67283479D01*
X48661000Y68354521D01*
X48777013Y68432038D01*
X48962962Y68617987D01*
X49109061Y68836641D01*
X49209696Y69079595D01*
X49261000Y69337514D01*
X49261000Y69600486D01*
X49209696Y69858405D01*
X49109061Y70101359D01*
X48962962Y70320013D01*
X48777013Y70505962D01*
X48558359Y70652061D01*
X48315405Y70752696D01*
X48057486Y70804000D01*
X47794514Y70804000D01*
X47536595Y70752696D01*
X47511700Y70742384D01*
X47511700Y74339533D01*
X48438432Y75266263D01*
X48470291Y75292409D01*
X48500075Y75328700D01*
X48541440Y75379105D01*
X48574636Y75419554D01*
X48652172Y75564613D01*
X48677459Y75647973D01*
X48801482Y75660188D01*
X48921180Y75696498D01*
X49031494Y75755463D01*
X49128185Y75834815D01*
X49207537Y75931506D01*
X49266502Y76041820D01*
X49302812Y76161518D01*
X49304581Y76179483D01*
X49397393Y76066392D01*
X49615900Y75887068D01*
X49865193Y75753818D01*
X50135692Y75671764D01*
X50417000Y75644057D01*
X50698309Y75671764D01*
X50968808Y75753818D01*
X51218101Y75887068D01*
X51436608Y76066392D01*
X51615932Y76284899D01*
X51687000Y76417858D01*
X51758068Y76284899D01*
X51937393Y76066392D01*
X52155900Y75887068D01*
X52405193Y75753818D01*
X52675692Y75671764D01*
X52957000Y75644057D01*
X53238309Y75671764D01*
X53508808Y75753818D01*
X53758101Y75887068D01*
X53976608Y76066392D01*
X54155932Y76284899D01*
X54227000Y76417858D01*
X54298068Y76284899D01*
X54477393Y76066392D01*
X54695900Y75887068D01*
X54945193Y75753818D01*
X55215692Y75671764D01*
X55497000Y75644057D01*
X55778309Y75671764D01*
X56048808Y75753818D01*
X56298101Y75887068D01*
X56516608Y76066392D01*
X56695932Y76284899D01*
X56767000Y76417858D01*
X56838068Y76284899D01*
G04 #@! TA.AperFunction,Conductor*
D25*
G36*
X56838068Y76284899D02*
G01*
X57017393Y76066392D01*
X57235900Y75887068D01*
X57485193Y75753818D01*
X57755692Y75671764D01*
X58037000Y75644057D01*
X58318309Y75671764D01*
X58572001Y75748720D01*
X58572000Y70088247D01*
X47643914Y59160160D01*
X47588671Y59263514D01*
X47344702Y59335097D01*
X46531605Y58522000D01*
X46545748Y58507857D01*
X46366143Y58328252D01*
X46352000Y58342395D01*
X45538903Y57529298D01*
X45610486Y57285329D01*
X45865996Y57164429D01*
X46140184Y57095700D01*
X46422512Y57081783D01*
X46600701Y57108185D01*
X46600700Y49102619D01*
X46527155Y49087990D01*
X46367067Y49021680D01*
X40182559Y55206187D01*
X40159538Y55234238D01*
X40047620Y55326087D01*
X39919933Y55394337D01*
X39781385Y55436365D01*
X39776702Y55436826D01*
X39735932Y55513101D01*
X39556608Y55731608D01*
X39338101Y55910932D01*
X39088808Y56044182D01*
X38818309Y56126236D01*
X38651056Y56142709D01*
X44462093Y61953746D01*
X44490138Y61976762D01*
X44581987Y62088680D01*
X44650237Y62216367D01*
X44687029Y62337655D01*
X44692265Y62354914D01*
X44706456Y62498999D01*
X44702900Y62535104D01*
X44702900Y65046570D01*
X44793641Y64985939D01*
X45036595Y64885304D01*
X45294514Y64834000D01*
X45557486Y64834000D01*
X45815405Y64885304D01*
X45841700Y64896196D01*
X45841700Y61692568D01*
X44087418Y59938285D01*
X43993335Y59957000D01*
X43710665Y59957000D01*
X43433426Y59901853D01*
X43172273Y59793680D01*
X42937241Y59636637D01*
X42737363Y59436759D01*
X42580320Y59201727D01*
X42472147Y58940574D01*
X42417000Y58663335D01*
X42417000Y58380665D01*
X42472147Y58103426D01*
X42580320Y57842273D01*
X42737363Y57607241D01*
X42937241Y57407363D01*
X43172273Y57250320D01*
X43433426Y57142147D01*
X43710665Y57087000D01*
X43993335Y57087000D01*
X44270574Y57142147D01*
X44531727Y57250320D01*
X44766759Y57407363D01*
X44966637Y57607241D01*
X45100692Y57807869D01*
X45115329Y57780486D01*
X45359298Y57708903D01*
X46172395Y58522000D01*
X46158253Y58536142D01*
X46337858Y58715747D01*
X46352000Y58701605D01*
X47165097Y59514702D01*
X47093514Y59758671D01*
X46838004Y59879571D01*
X46563816Y59948300D01*
X46464084Y59953216D01*
X47238128Y60727260D01*
X47269991Y60753409D01*
X47374336Y60880554D01*
X47451872Y61025613D01*
X47499618Y61183011D01*
X47507332Y61261336D01*
X47515740Y61346699D01*
X47511700Y61387718D01*
X47511700Y64895616D01*
X47536595Y64885304D01*
X47794514Y64834000D01*
X48057486Y64834000D01*
X48315405Y64885304D01*
X48558359Y64985939D01*
X48777013Y65132038D01*
X48962962Y65317987D01*
X49109061Y65536641D01*
X49209696Y65779595D01*
X49261000Y66037514D01*
X49261000Y66300486D01*
X49209696Y66558405D01*
X49109061Y66801359D01*
X48962962Y67020013D01*
X48777013Y67205962D01*
X48661000Y67283479D01*
X48661000Y68354521D01*
X48777013Y68432038D01*
X48962962Y68617987D01*
X49109061Y68836641D01*
X49209696Y69079595D01*
X49261000Y69337514D01*
X49261000Y69600486D01*
X49209696Y69858405D01*
X49109061Y70101359D01*
X48962962Y70320013D01*
X48777013Y70505962D01*
X48558359Y70652061D01*
X48315405Y70752696D01*
X48057486Y70804000D01*
X47794514Y70804000D01*
X47536595Y70752696D01*
X47511700Y70742384D01*
X47511700Y74339533D01*
X48438432Y75266263D01*
X48470291Y75292409D01*
X48500075Y75328700D01*
X48541440Y75379105D01*
X48574636Y75419554D01*
X48652172Y75564613D01*
X48677459Y75647973D01*
X48801482Y75660188D01*
X48921180Y75696498D01*
X49031494Y75755463D01*
X49128185Y75834815D01*
X49207537Y75931506D01*
X49266502Y76041820D01*
X49302812Y76161518D01*
X49304581Y76179483D01*
X49397393Y76066392D01*
X49615900Y75887068D01*
X49865193Y75753818D01*
X50135692Y75671764D01*
X50417000Y75644057D01*
X50698309Y75671764D01*
X50968808Y75753818D01*
X51218101Y75887068D01*
X51436608Y76066392D01*
X51615932Y76284899D01*
X51687000Y76417858D01*
X51758068Y76284899D01*
X51937393Y76066392D01*
X52155900Y75887068D01*
X52405193Y75753818D01*
X52675692Y75671764D01*
X52957000Y75644057D01*
X53238309Y75671764D01*
X53508808Y75753818D01*
X53758101Y75887068D01*
X53976608Y76066392D01*
X54155932Y76284899D01*
X54227000Y76417858D01*
X54298068Y76284899D01*
X54477393Y76066392D01*
X54695900Y75887068D01*
X54945193Y75753818D01*
X55215692Y75671764D01*
X55497000Y75644057D01*
X55778309Y75671764D01*
X56048808Y75753818D01*
X56298101Y75887068D01*
X56516608Y76066392D01*
X56695932Y76284899D01*
X56767000Y76417858D01*
X56838068Y76284899D01*
G37*
G04 #@! TD.AperFunction*
D24*
X30927748Y73928142D02*
X30913605Y73914000D01*
X31726702Y73100903D01*
X31970671Y73172486D01*
X31997104Y73228350D01*
X34390700Y70834753D01*
X34390701Y68598654D01*
X34341423Y68524905D01*
X34274710Y68363845D01*
X34240700Y68192865D01*
X34240700Y68018535D01*
X34274710Y67847555D01*
X34341423Y67686495D01*
X34438276Y67541545D01*
X34561545Y67418276D01*
X34706495Y67321423D01*
X34867555Y67254710D01*
X34941001Y67240101D01*
X34941001Y65107248D01*
X34928256Y65094503D01*
X34778500Y65313895D01*
X34576839Y65511601D01*
X34340483Y65666166D01*
X34078514Y65771650D01*
X33801000Y65824000D01*
X33401000Y65824000D01*
X33401000Y64516000D01*
X33421000Y64516000D01*
X33421000Y64262000D01*
X33401000Y64262000D01*
X33401000Y64242000D01*
X33147000Y64242000D01*
X33147000Y64262000D01*
X31604085Y64262000D01*
X31482096Y64039961D01*
X31499633Y63957182D01*
X31610285Y63697354D01*
X31769500Y63464105D01*
X31776346Y63457393D01*
X30078208Y61759254D01*
X30069000Y61751697D01*
X30069000Y62173206D01*
X30072555Y62209301D01*
X30069000Y62245396D01*
X30069000Y62245405D01*
X30058365Y62353385D01*
X30016337Y62491933D01*
X29948087Y62619620D01*
X29903036Y62674514D01*
X29879253Y62703494D01*
X29879250Y62703497D01*
X29856237Y62731538D01*
X29828197Y62754550D01*
X27844708Y64738039D01*
X31482096Y64738039D01*
X31604085Y64516000D01*
X33147000Y64516000D01*
X33147000Y65824000D01*
X32747000Y65824000D01*
X32469486Y65771650D01*
X32207517Y65666166D01*
X31971161Y65511601D01*
X31769500Y65313895D01*
X31610285Y65080646D01*
X31499633Y64820818D01*
X31482096Y64738039D01*
X27844708Y64738039D01*
X27699558Y64883188D01*
X27676538Y64911238D01*
X27564620Y65003087D01*
X27436933Y65071337D01*
X27298385Y65113365D01*
X27293702Y65113826D01*
X27252932Y65190101D01*
X27073608Y65408608D01*
X26855101Y65587932D01*
X26605808Y65721182D01*
X26335309Y65803236D01*
X26124492Y65824000D01*
X25183508Y65824000D01*
X24972691Y65803236D01*
X24702192Y65721182D01*
X24452899Y65587932D01*
X24234392Y65408608D01*
X24055068Y65190101D01*
X23936244Y64967797D01*
X23953000Y65052035D01*
X23953000Y65226365D01*
X23918990Y65397345D01*
X23852277Y65558405D01*
X23755424Y65703355D01*
X23718413Y65740366D01*
X29978198Y72000151D01*
X30006237Y72023162D01*
X30029250Y72051203D01*
X30029253Y72051206D01*
X30062251Y72091414D01*
X30098087Y72135080D01*
X30166337Y72262767D01*
X30195616Y72359286D01*
X30208365Y72401314D01*
X30222556Y72545399D01*
X30220173Y72569594D01*
X30247996Y72556429D01*
X30522184Y72487700D01*
X30804512Y72473783D01*
X31084130Y72515213D01*
X31350292Y72610397D01*
X31475514Y72677329D01*
X31547097Y72921298D01*
X30734000Y73734395D01*
X30719858Y73720252D01*
X30540253Y73899857D01*
X30554395Y73914000D01*
X30540253Y73928142D01*
X30719858Y74107747D01*
X30734000Y74093605D01*
X30748143Y74107747D01*
X30927748Y73928142D01*
G04 #@! TA.AperFunction,Conductor*
D25*
G36*
X30927748Y73928142D02*
G01*
X30913605Y73914000D01*
X31726702Y73100903D01*
X31970671Y73172486D01*
X31997104Y73228350D01*
X34390700Y70834753D01*
X34390701Y68598654D01*
X34341423Y68524905D01*
X34274710Y68363845D01*
X34240700Y68192865D01*
X34240700Y68018535D01*
X34274710Y67847555D01*
X34341423Y67686495D01*
X34438276Y67541545D01*
X34561545Y67418276D01*
X34706495Y67321423D01*
X34867555Y67254710D01*
X34941001Y67240101D01*
X34941001Y65107248D01*
X34928256Y65094503D01*
X34778500Y65313895D01*
X34576839Y65511601D01*
X34340483Y65666166D01*
X34078514Y65771650D01*
X33801000Y65824000D01*
X33401000Y65824000D01*
X33401000Y64516000D01*
X33421000Y64516000D01*
X33421000Y64262000D01*
X33401000Y64262000D01*
X33401000Y64242000D01*
X33147000Y64242000D01*
X33147000Y64262000D01*
X31604085Y64262000D01*
X31482096Y64039961D01*
X31499633Y63957182D01*
X31610285Y63697354D01*
X31769500Y63464105D01*
X31776346Y63457393D01*
X30078208Y61759254D01*
X30069000Y61751697D01*
X30069000Y62173206D01*
X30072555Y62209301D01*
X30069000Y62245396D01*
X30069000Y62245405D01*
X30058365Y62353385D01*
X30016337Y62491933D01*
X29948087Y62619620D01*
X29903036Y62674514D01*
X29879253Y62703494D01*
X29879250Y62703497D01*
X29856237Y62731538D01*
X29828197Y62754550D01*
X27844708Y64738039D01*
X31482096Y64738039D01*
X31604085Y64516000D01*
X33147000Y64516000D01*
X33147000Y65824000D01*
X32747000Y65824000D01*
X32469486Y65771650D01*
X32207517Y65666166D01*
X31971161Y65511601D01*
X31769500Y65313895D01*
X31610285Y65080646D01*
X31499633Y64820818D01*
X31482096Y64738039D01*
X27844708Y64738039D01*
X27699558Y64883188D01*
X27676538Y64911238D01*
X27564620Y65003087D01*
X27436933Y65071337D01*
X27298385Y65113365D01*
X27293702Y65113826D01*
X27252932Y65190101D01*
X27073608Y65408608D01*
X26855101Y65587932D01*
X26605808Y65721182D01*
X26335309Y65803236D01*
X26124492Y65824000D01*
X25183508Y65824000D01*
X24972691Y65803236D01*
X24702192Y65721182D01*
X24452899Y65587932D01*
X24234392Y65408608D01*
X24055068Y65190101D01*
X23936244Y64967797D01*
X23953000Y65052035D01*
X23953000Y65226365D01*
X23918990Y65397345D01*
X23852277Y65558405D01*
X23755424Y65703355D01*
X23718413Y65740366D01*
X29978198Y72000151D01*
X30006237Y72023162D01*
X30029250Y72051203D01*
X30029253Y72051206D01*
X30062251Y72091414D01*
X30098087Y72135080D01*
X30166337Y72262767D01*
X30195616Y72359286D01*
X30208365Y72401314D01*
X30222556Y72545399D01*
X30220173Y72569594D01*
X30247996Y72556429D01*
X30522184Y72487700D01*
X30804512Y72473783D01*
X31084130Y72515213D01*
X31350292Y72610397D01*
X31475514Y72677329D01*
X31547097Y72921298D01*
X30734000Y73734395D01*
X30719858Y73720252D01*
X30540253Y73899857D01*
X30554395Y73914000D01*
X30540253Y73928142D01*
X30719858Y74107747D01*
X30734000Y74093605D01*
X30748143Y74107747D01*
X30927748Y73928142D01*
G37*
G04 #@! TD.AperFunction*
D24*
X24497899Y93912932D02*
X24279392Y93733608D01*
X24100068Y93515101D01*
X23966818Y93265808D01*
X23884764Y92995309D01*
X23857057Y92714000D01*
X23884764Y92432691D01*
X23966818Y92162192D01*
X24100068Y91912899D01*
X24279392Y91694392D01*
X24497899Y91515068D01*
X24630858Y91444000D01*
X24497899Y91372932D01*
X24279392Y91193608D01*
X24100068Y90975101D01*
X23966818Y90725808D01*
X23884764Y90455309D01*
X23857057Y90174000D01*
X23884764Y89892691D01*
X23966818Y89622192D01*
X24100068Y89372899D01*
X24279392Y89154392D01*
X24497899Y88975068D01*
X24630858Y88904000D01*
X24497899Y88832932D01*
X24279392Y88653608D01*
X24100068Y88435101D01*
X23966818Y88185808D01*
X23884764Y87915309D01*
X23857057Y87634000D01*
X23884764Y87352691D01*
X23966818Y87082192D01*
X24100068Y86832899D01*
X24279392Y86614392D01*
X24497899Y86435068D01*
X24630858Y86364000D01*
X24497899Y86292932D01*
X24279392Y86113608D01*
X24100068Y85895101D01*
X23966818Y85645808D01*
X23884764Y85375309D01*
X23857057Y85094000D01*
X23884764Y84812691D01*
X23966818Y84542192D01*
X24100068Y84292899D01*
X24279392Y84074392D01*
X24497899Y83895068D01*
X24630858Y83824000D01*
X24497899Y83752932D01*
X24279392Y83573608D01*
X24100068Y83355101D01*
X23966818Y83105808D01*
X23884764Y82835309D01*
X23857057Y82554000D01*
X23884764Y82272691D01*
X23966818Y82002192D01*
X24100068Y81752899D01*
X24279392Y81534392D01*
X24497899Y81355068D01*
X24630858Y81284000D01*
X24497899Y81212932D01*
X24279392Y81033608D01*
X24100068Y80815101D01*
X23966818Y80565808D01*
X23884764Y80295309D01*
X23857057Y80014000D01*
X23884764Y79732691D01*
X23966818Y79462192D01*
X24100068Y79212899D01*
X24279392Y78994392D01*
X24497899Y78815068D01*
X24630858Y78744000D01*
X24497899Y78672932D01*
X24279392Y78493608D01*
X24100068Y78275101D01*
X23966818Y78025808D01*
X23884764Y77755309D01*
X23857057Y77474000D01*
X23884764Y77192691D01*
X23966818Y76922192D01*
X24100068Y76672899D01*
X24279392Y76454392D01*
X24497899Y76275068D01*
X24747192Y76141818D01*
X25017691Y76059764D01*
X25187038Y76043085D01*
X20998954Y71855000D01*
X20435748Y71855000D01*
X20477932Y71956842D01*
X20535000Y72243740D01*
X20535000Y72536260D01*
X20477932Y72823158D01*
X20365990Y73093411D01*
X20203475Y73336632D01*
X19996632Y73543475D01*
X19822240Y73660000D01*
X19996632Y73776525D01*
X20203475Y73983368D01*
X20365990Y74226589D01*
X20477932Y74496842D01*
X20535000Y74783740D01*
X20535000Y75076260D01*
X20477932Y75363158D01*
X20365990Y75633411D01*
X20203475Y75876632D01*
X19996632Y76083475D01*
X19822240Y76200000D01*
X19996632Y76316525D01*
X20203475Y76523368D01*
X20365990Y76766589D01*
X20477932Y77036842D01*
X20535000Y77323740D01*
X20535000Y77616260D01*
X20477932Y77903158D01*
X20365990Y78173411D01*
X20203475Y78416632D01*
X19996632Y78623475D01*
X19822240Y78740000D01*
X19996632Y78856525D01*
X20203475Y79063368D01*
X20365990Y79306589D01*
X20477932Y79576842D01*
X20535000Y79863740D01*
X20535000Y80156260D01*
X20477932Y80443158D01*
X20365990Y80713411D01*
X20203475Y80956632D01*
X19996632Y81163475D01*
X19753411Y81325990D01*
X19483158Y81437932D01*
X19196260Y81495000D01*
X18903740Y81495000D01*
X18616842Y81437932D01*
X18346589Y81325990D01*
X18103368Y81163475D01*
X17896525Y80956632D01*
X17778900Y80780594D01*
X17607588Y81010269D01*
X17391355Y81205178D01*
X17141252Y81354157D01*
X16866891Y81451481D01*
X16637000Y81330814D01*
X16637000Y80137000D01*
X16657000Y80137000D01*
X16657000Y79883000D01*
X16637000Y79883000D01*
X16637000Y77597000D01*
X16657000Y77597000D01*
X16657000Y77343000D01*
X16637000Y77343000D01*
X16637000Y77323000D01*
X16383000Y77323000D01*
X16383000Y77343000D01*
X15189845Y77343000D01*
X15068524Y77113110D01*
X15113175Y76965901D01*
X15238359Y76703080D01*
X15412412Y76469731D01*
X15628645Y76274822D01*
X15745534Y76205195D01*
X15563368Y76083475D01*
X15356525Y75876632D01*
X15194010Y75633411D01*
X15082068Y75363158D01*
X15025000Y75076260D01*
X15025000Y74783740D01*
X15080028Y74507100D01*
X13407647Y74507100D01*
X12490558Y75424188D01*
X12467538Y75452238D01*
X12355620Y75544087D01*
X12227933Y75612337D01*
X12098922Y75651472D01*
X11948475Y75876632D01*
X11741632Y76083475D01*
X11567240Y76200000D01*
X11741632Y76316525D01*
X11948475Y76523368D01*
X12110990Y76766589D01*
X12222932Y77036842D01*
X12280000Y77323740D01*
X12280000Y77616260D01*
X12222932Y77903158D01*
X12110990Y78173411D01*
X11948475Y78416632D01*
X11741632Y78623475D01*
X11567240Y78740000D01*
X11741632Y78856525D01*
X11948475Y79063368D01*
X12110990Y79306589D01*
X12222932Y79576842D01*
X12238102Y79653110D01*
X15068524Y79653110D01*
X15113175Y79505901D01*
X15238359Y79243080D01*
X15412412Y79009731D01*
X15628645Y78814822D01*
X15754255Y78740000D01*
X15628645Y78665178D01*
X15412412Y78470269D01*
X15238359Y78236920D01*
X15113175Y77974099D01*
X15068524Y77826890D01*
X15189845Y77597000D01*
X16383000Y77597000D01*
X16383000Y79883000D01*
X15189845Y79883000D01*
X15068524Y79653110D01*
X12238102Y79653110D01*
X12280000Y79863740D01*
X12280000Y80156260D01*
X12238103Y80366890D01*
X15068524Y80366890D01*
X15189845Y80137000D01*
X16383000Y80137000D01*
X16383000Y81330814D01*
X16153109Y81451481D01*
X15878748Y81354157D01*
X15628645Y81205178D01*
X15412412Y81010269D01*
X15238359Y80776920D01*
X15113175Y80514099D01*
X15068524Y80366890D01*
X12238103Y80366890D01*
X12222932Y80443158D01*
X12110990Y80713411D01*
X11948475Y80956632D01*
X11741632Y81163475D01*
X11498411Y81325990D01*
X11228158Y81437932D01*
X10941260Y81495000D01*
X10648740Y81495000D01*
X10361842Y81437932D01*
X10091589Y81325990D01*
X9848368Y81163475D01*
X9641525Y80956632D01*
X9525000Y80782240D01*
X9408475Y80956632D01*
X9201632Y81163475D01*
X8958411Y81325990D01*
X8688158Y81437932D01*
X8401260Y81495000D01*
X8108740Y81495000D01*
X7821842Y81437932D01*
X7551589Y81325990D01*
X7308368Y81163475D01*
X7101525Y80956632D01*
X6983900Y80780594D01*
X6812588Y81010269D01*
X6596355Y81205178D01*
X6398550Y81323004D01*
X18997547Y93922000D01*
X24514864Y93922000D01*
X24497899Y93912932D01*
G04 #@! TA.AperFunction,Conductor*
D25*
G36*
X24497899Y93912932D02*
G01*
X24279392Y93733608D01*
X24100068Y93515101D01*
X23966818Y93265808D01*
X23884764Y92995309D01*
X23857057Y92714000D01*
X23884764Y92432691D01*
X23966818Y92162192D01*
X24100068Y91912899D01*
X24279392Y91694392D01*
X24497899Y91515068D01*
X24630858Y91444000D01*
X24497899Y91372932D01*
X24279392Y91193608D01*
X24100068Y90975101D01*
X23966818Y90725808D01*
X23884764Y90455309D01*
X23857057Y90174000D01*
X23884764Y89892691D01*
X23966818Y89622192D01*
X24100068Y89372899D01*
X24279392Y89154392D01*
X24497899Y88975068D01*
X24630858Y88904000D01*
X24497899Y88832932D01*
X24279392Y88653608D01*
X24100068Y88435101D01*
X23966818Y88185808D01*
X23884764Y87915309D01*
X23857057Y87634000D01*
X23884764Y87352691D01*
X23966818Y87082192D01*
X24100068Y86832899D01*
X24279392Y86614392D01*
X24497899Y86435068D01*
X24630858Y86364000D01*
X24497899Y86292932D01*
X24279392Y86113608D01*
X24100068Y85895101D01*
X23966818Y85645808D01*
X23884764Y85375309D01*
X23857057Y85094000D01*
X23884764Y84812691D01*
X23966818Y84542192D01*
X24100068Y84292899D01*
X24279392Y84074392D01*
X24497899Y83895068D01*
X24630858Y83824000D01*
X24497899Y83752932D01*
X24279392Y83573608D01*
X24100068Y83355101D01*
X23966818Y83105808D01*
X23884764Y82835309D01*
X23857057Y82554000D01*
X23884764Y82272691D01*
X23966818Y82002192D01*
X24100068Y81752899D01*
X24279392Y81534392D01*
X24497899Y81355068D01*
X24630858Y81284000D01*
X24497899Y81212932D01*
X24279392Y81033608D01*
X24100068Y80815101D01*
X23966818Y80565808D01*
X23884764Y80295309D01*
X23857057Y80014000D01*
X23884764Y79732691D01*
X23966818Y79462192D01*
X24100068Y79212899D01*
X24279392Y78994392D01*
X24497899Y78815068D01*
X24630858Y78744000D01*
X24497899Y78672932D01*
X24279392Y78493608D01*
X24100068Y78275101D01*
X23966818Y78025808D01*
X23884764Y77755309D01*
X23857057Y77474000D01*
X23884764Y77192691D01*
X23966818Y76922192D01*
X24100068Y76672899D01*
X24279392Y76454392D01*
X24497899Y76275068D01*
X24747192Y76141818D01*
X25017691Y76059764D01*
X25187038Y76043085D01*
X20998954Y71855000D01*
X20435748Y71855000D01*
X20477932Y71956842D01*
X20535000Y72243740D01*
X20535000Y72536260D01*
X20477932Y72823158D01*
X20365990Y73093411D01*
X20203475Y73336632D01*
X19996632Y73543475D01*
X19822240Y73660000D01*
X19996632Y73776525D01*
X20203475Y73983368D01*
X20365990Y74226589D01*
X20477932Y74496842D01*
X20535000Y74783740D01*
X20535000Y75076260D01*
X20477932Y75363158D01*
X20365990Y75633411D01*
X20203475Y75876632D01*
X19996632Y76083475D01*
X19822240Y76200000D01*
X19996632Y76316525D01*
X20203475Y76523368D01*
X20365990Y76766589D01*
X20477932Y77036842D01*
X20535000Y77323740D01*
X20535000Y77616260D01*
X20477932Y77903158D01*
X20365990Y78173411D01*
X20203475Y78416632D01*
X19996632Y78623475D01*
X19822240Y78740000D01*
X19996632Y78856525D01*
X20203475Y79063368D01*
X20365990Y79306589D01*
X20477932Y79576842D01*
X20535000Y79863740D01*
X20535000Y80156260D01*
X20477932Y80443158D01*
X20365990Y80713411D01*
X20203475Y80956632D01*
X19996632Y81163475D01*
X19753411Y81325990D01*
X19483158Y81437932D01*
X19196260Y81495000D01*
X18903740Y81495000D01*
X18616842Y81437932D01*
X18346589Y81325990D01*
X18103368Y81163475D01*
X17896525Y80956632D01*
X17778900Y80780594D01*
X17607588Y81010269D01*
X17391355Y81205178D01*
X17141252Y81354157D01*
X16866891Y81451481D01*
X16637000Y81330814D01*
X16637000Y80137000D01*
X16657000Y80137000D01*
X16657000Y79883000D01*
X16637000Y79883000D01*
X16637000Y77597000D01*
X16657000Y77597000D01*
X16657000Y77343000D01*
X16637000Y77343000D01*
X16637000Y77323000D01*
X16383000Y77323000D01*
X16383000Y77343000D01*
X15189845Y77343000D01*
X15068524Y77113110D01*
X15113175Y76965901D01*
X15238359Y76703080D01*
X15412412Y76469731D01*
X15628645Y76274822D01*
X15745534Y76205195D01*
X15563368Y76083475D01*
X15356525Y75876632D01*
X15194010Y75633411D01*
X15082068Y75363158D01*
X15025000Y75076260D01*
X15025000Y74783740D01*
X15080028Y74507100D01*
X13407647Y74507100D01*
X12490558Y75424188D01*
X12467538Y75452238D01*
X12355620Y75544087D01*
X12227933Y75612337D01*
X12098922Y75651472D01*
X11948475Y75876632D01*
X11741632Y76083475D01*
X11567240Y76200000D01*
X11741632Y76316525D01*
X11948475Y76523368D01*
X12110990Y76766589D01*
X12222932Y77036842D01*
X12280000Y77323740D01*
X12280000Y77616260D01*
X12222932Y77903158D01*
X12110990Y78173411D01*
X11948475Y78416632D01*
X11741632Y78623475D01*
X11567240Y78740000D01*
X11741632Y78856525D01*
X11948475Y79063368D01*
X12110990Y79306589D01*
X12222932Y79576842D01*
X12238102Y79653110D01*
X15068524Y79653110D01*
X15113175Y79505901D01*
X15238359Y79243080D01*
X15412412Y79009731D01*
X15628645Y78814822D01*
X15754255Y78740000D01*
X15628645Y78665178D01*
X15412412Y78470269D01*
X15238359Y78236920D01*
X15113175Y77974099D01*
X15068524Y77826890D01*
X15189845Y77597000D01*
X16383000Y77597000D01*
X16383000Y79883000D01*
X15189845Y79883000D01*
X15068524Y79653110D01*
X12238102Y79653110D01*
X12280000Y79863740D01*
X12280000Y80156260D01*
X12238103Y80366890D01*
X15068524Y80366890D01*
X15189845Y80137000D01*
X16383000Y80137000D01*
X16383000Y81330814D01*
X16153109Y81451481D01*
X15878748Y81354157D01*
X15628645Y81205178D01*
X15412412Y81010269D01*
X15238359Y80776920D01*
X15113175Y80514099D01*
X15068524Y80366890D01*
X12238103Y80366890D01*
X12222932Y80443158D01*
X12110990Y80713411D01*
X11948475Y80956632D01*
X11741632Y81163475D01*
X11498411Y81325990D01*
X11228158Y81437932D01*
X10941260Y81495000D01*
X10648740Y81495000D01*
X10361842Y81437932D01*
X10091589Y81325990D01*
X9848368Y81163475D01*
X9641525Y80956632D01*
X9525000Y80782240D01*
X9408475Y80956632D01*
X9201632Y81163475D01*
X8958411Y81325990D01*
X8688158Y81437932D01*
X8401260Y81495000D01*
X8108740Y81495000D01*
X7821842Y81437932D01*
X7551589Y81325990D01*
X7308368Y81163475D01*
X7101525Y80956632D01*
X6983900Y80780594D01*
X6812588Y81010269D01*
X6596355Y81205178D01*
X6398550Y81323004D01*
X18997547Y93922000D01*
X24514864Y93922000D01*
X24497899Y93912932D01*
G37*
G04 #@! TD.AperFunction*
D24*
X5842000Y80137000D02*
X5862000Y80137000D01*
X5862000Y79883000D01*
X5842000Y79883000D01*
X5842000Y77597000D01*
X5862000Y77597000D01*
X5862000Y77343000D01*
X5842000Y77343000D01*
X5842000Y77323000D01*
X5588000Y77323000D01*
X5588000Y77343000D01*
X5568000Y77343000D01*
X5568000Y77597000D01*
X5588000Y77597000D01*
X5588000Y79883000D01*
X5568000Y79883000D01*
X5568000Y80137000D01*
X5588000Y80137000D01*
X5588000Y80157000D01*
X5842000Y80157000D01*
X5842000Y80137000D01*
G04 #@! TA.AperFunction,Conductor*
D25*
G36*
X5842000Y80137000D02*
G01*
X5862000Y80137000D01*
X5862000Y79883000D01*
X5842000Y79883000D01*
X5842000Y77597000D01*
X5862000Y77597000D01*
X5862000Y77343000D01*
X5842000Y77343000D01*
X5842000Y77323000D01*
X5588000Y77323000D01*
X5588000Y77343000D01*
X5568000Y77343000D01*
X5568000Y77597000D01*
X5588000Y77597000D01*
X5588000Y79883000D01*
X5568000Y79883000D01*
X5568000Y80137000D01*
X5588000Y80137000D01*
X5588000Y80157000D01*
X5842000Y80157000D01*
X5842000Y80137000D01*
G37*
G04 #@! TD.AperFunction*
D24*
X41189546Y85059507D02*
X41212562Y85031462D01*
X41324480Y84939613D01*
X41452167Y84871363D01*
X41590715Y84829335D01*
X41698695Y84818700D01*
X41698704Y84818700D01*
X41734799Y84815145D01*
X41770894Y84818700D01*
X42767012Y84818700D01*
X42709429Y84697004D01*
X42640700Y84422816D01*
X42626783Y84140488D01*
X42668213Y83860870D01*
X42763397Y83594708D01*
X42830329Y83469486D01*
X43074298Y83397903D01*
X43887395Y84211000D01*
X43873253Y84225142D01*
X44052858Y84404747D01*
X44067000Y84390605D01*
X44081143Y84404747D01*
X44260748Y84225142D01*
X44246605Y84211000D01*
X45059702Y83397903D01*
X45303671Y83469486D01*
X45424571Y83724996D01*
X45493300Y83999184D01*
X45507217Y84281512D01*
X45465787Y84561130D01*
X45373676Y84818700D01*
X47719095Y84818700D01*
X47755200Y84815144D01*
X47791305Y84818700D01*
X47899285Y84829335D01*
X48037833Y84871363D01*
X48165520Y84939613D01*
X48198682Y84966828D01*
X42569254Y79337400D01*
X34984479Y79337400D01*
X35051182Y79462192D01*
X35133236Y79732691D01*
X35160943Y80014000D01*
X35133236Y80295309D01*
X35051182Y80565808D01*
X34917932Y80815101D01*
X34738608Y81033608D01*
X34520101Y81212932D01*
X34387142Y81284000D01*
X34520101Y81355068D01*
X34738608Y81534392D01*
X34917932Y81752899D01*
X35051182Y82002192D01*
X35133236Y82272691D01*
X35160943Y82554000D01*
X35133236Y82835309D01*
X35051182Y83105808D01*
X34991055Y83218298D01*
X43253903Y83218298D01*
X43325486Y82974329D01*
X43580996Y82853429D01*
X43855184Y82784700D01*
X44137512Y82770783D01*
X44417130Y82812213D01*
X44683292Y82907397D01*
X44808514Y82974329D01*
X44880097Y83218298D01*
X44067000Y84031395D01*
X43253903Y83218298D01*
X34991055Y83218298D01*
X34917932Y83355101D01*
X34738608Y83573608D01*
X34520101Y83752932D01*
X34387142Y83824000D01*
X34520101Y83895068D01*
X34738608Y84074392D01*
X34917932Y84292899D01*
X35051182Y84542192D01*
X35133236Y84812691D01*
X35160943Y85094000D01*
X35133236Y85375309D01*
X35105362Y85467200D01*
X40781854Y85467200D01*
X41189546Y85059507D01*
G04 #@! TA.AperFunction,Conductor*
D25*
G36*
X41189546Y85059507D02*
G01*
X41212562Y85031462D01*
X41324480Y84939613D01*
X41452167Y84871363D01*
X41590715Y84829335D01*
X41698695Y84818700D01*
X41698704Y84818700D01*
X41734799Y84815145D01*
X41770894Y84818700D01*
X42767012Y84818700D01*
X42709429Y84697004D01*
X42640700Y84422816D01*
X42626783Y84140488D01*
X42668213Y83860870D01*
X42763397Y83594708D01*
X42830329Y83469486D01*
X43074298Y83397903D01*
X43887395Y84211000D01*
X43873253Y84225142D01*
X44052858Y84404747D01*
X44067000Y84390605D01*
X44081143Y84404747D01*
X44260748Y84225142D01*
X44246605Y84211000D01*
X45059702Y83397903D01*
X45303671Y83469486D01*
X45424571Y83724996D01*
X45493300Y83999184D01*
X45507217Y84281512D01*
X45465787Y84561130D01*
X45373676Y84818700D01*
X47719095Y84818700D01*
X47755200Y84815144D01*
X47791305Y84818700D01*
X47899285Y84829335D01*
X48037833Y84871363D01*
X48165520Y84939613D01*
X48198682Y84966828D01*
X42569254Y79337400D01*
X34984479Y79337400D01*
X35051182Y79462192D01*
X35133236Y79732691D01*
X35160943Y80014000D01*
X35133236Y80295309D01*
X35051182Y80565808D01*
X34917932Y80815101D01*
X34738608Y81033608D01*
X34520101Y81212932D01*
X34387142Y81284000D01*
X34520101Y81355068D01*
X34738608Y81534392D01*
X34917932Y81752899D01*
X35051182Y82002192D01*
X35133236Y82272691D01*
X35160943Y82554000D01*
X35133236Y82835309D01*
X35051182Y83105808D01*
X34991055Y83218298D01*
X43253903Y83218298D01*
X43325486Y82974329D01*
X43580996Y82853429D01*
X43855184Y82784700D01*
X44137512Y82770783D01*
X44417130Y82812213D01*
X44683292Y82907397D01*
X44808514Y82974329D01*
X44880097Y83218298D01*
X44067000Y84031395D01*
X43253903Y83218298D01*
X34991055Y83218298D01*
X34917932Y83355101D01*
X34738608Y83573608D01*
X34520101Y83752932D01*
X34387142Y83824000D01*
X34520101Y83895068D01*
X34738608Y84074392D01*
X34917932Y84292899D01*
X35051182Y84542192D01*
X35133236Y84812691D01*
X35160943Y85094000D01*
X35133236Y85375309D01*
X35105362Y85467200D01*
X40781854Y85467200D01*
X41189546Y85059507D01*
G37*
G04 #@! TD.AperFunction*
D24*
X32016161Y93836601D02*
X31814500Y93638895D01*
X31655285Y93405646D01*
X31544633Y93145818D01*
X31527096Y93063039D01*
X31649085Y92841000D01*
X33192000Y92841000D01*
X33192000Y92861000D01*
X33446000Y92861000D01*
X33446000Y92841000D01*
X34988915Y92841000D01*
X35110904Y93063039D01*
X35093367Y93145818D01*
X34982715Y93405646D01*
X34823500Y93638895D01*
X34621839Y93836601D01*
X34491250Y93922000D01*
X46675342Y93922000D01*
X46544818Y93677807D01*
X46462764Y93407308D01*
X46442000Y93196491D01*
X46442000Y92255508D01*
X46462764Y92044691D01*
X46488242Y91960700D01*
X45059718Y91960700D01*
X45018699Y91964740D01*
X44977681Y91960700D01*
X44855011Y91948618D01*
X44697613Y91900872D01*
X44552554Y91823336D01*
X44425409Y91718991D01*
X44399258Y91687126D01*
X43721133Y91009000D01*
X34890112Y91009000D01*
X34738608Y91193608D01*
X34520101Y91372932D01*
X34392259Y91441265D01*
X34621839Y91591399D01*
X34823500Y91789105D01*
X34982715Y92022354D01*
X35093367Y92282182D01*
X35110904Y92364961D01*
X34988915Y92587000D01*
X33446000Y92587000D01*
X33446000Y92567000D01*
X33192000Y92567000D01*
X33192000Y92587000D01*
X31649085Y92587000D01*
X31527096Y92364961D01*
X31544633Y92282182D01*
X31655285Y92022354D01*
X31814500Y91789105D01*
X32016161Y91591399D01*
X32245741Y91441265D01*
X32117899Y91372932D01*
X31899392Y91193608D01*
X31748773Y91010078D01*
X31718700Y91013040D01*
X31677681Y91009000D01*
X31555011Y90996918D01*
X31397613Y90949172D01*
X31252554Y90871636D01*
X31125409Y90767291D01*
X31021064Y90640146D01*
X30943528Y90495087D01*
X30895782Y90337689D01*
X30879660Y90174000D01*
X30883700Y90132981D01*
X30883700Y89859268D01*
X27127367Y86102935D01*
X27118608Y86113608D01*
X26900101Y86292932D01*
X26767142Y86364000D01*
X26900101Y86435068D01*
X27118608Y86614392D01*
X27297932Y86832899D01*
X27431182Y87082192D01*
X27513236Y87352691D01*
X27540943Y87634000D01*
X27513236Y87915309D01*
X27431182Y88185808D01*
X27297932Y88435101D01*
X27118608Y88653608D01*
X26900101Y88832932D01*
X26767142Y88904000D01*
X26900101Y88975068D01*
X27118608Y89154392D01*
X27297932Y89372899D01*
X27431182Y89622192D01*
X27513236Y89892691D01*
X27540943Y90174000D01*
X27513236Y90455309D01*
X27431182Y90725808D01*
X27297932Y90975101D01*
X27118608Y91193608D01*
X26900101Y91372932D01*
X26767142Y91444000D01*
X26900101Y91515068D01*
X27118608Y91694392D01*
X27297932Y91912899D01*
X27431182Y92162192D01*
X27513236Y92432691D01*
X27540943Y92714000D01*
X27513236Y92995309D01*
X27431182Y93265808D01*
X27297932Y93515101D01*
X27118608Y93733608D01*
X26900101Y93912932D01*
X26883136Y93922000D01*
X32146750Y93922000D01*
X32016161Y93836601D01*
G04 #@! TA.AperFunction,Conductor*
D25*
G36*
X32016161Y93836601D02*
G01*
X31814500Y93638895D01*
X31655285Y93405646D01*
X31544633Y93145818D01*
X31527096Y93063039D01*
X31649085Y92841000D01*
X33192000Y92841000D01*
X33192000Y92861000D01*
X33446000Y92861000D01*
X33446000Y92841000D01*
X34988915Y92841000D01*
X35110904Y93063039D01*
X35093367Y93145818D01*
X34982715Y93405646D01*
X34823500Y93638895D01*
X34621839Y93836601D01*
X34491250Y93922000D01*
X46675342Y93922000D01*
X46544818Y93677807D01*
X46462764Y93407308D01*
X46442000Y93196491D01*
X46442000Y92255508D01*
X46462764Y92044691D01*
X46488242Y91960700D01*
X45059718Y91960700D01*
X45018699Y91964740D01*
X44977681Y91960700D01*
X44855011Y91948618D01*
X44697613Y91900872D01*
X44552554Y91823336D01*
X44425409Y91718991D01*
X44399258Y91687126D01*
X43721133Y91009000D01*
X34890112Y91009000D01*
X34738608Y91193608D01*
X34520101Y91372932D01*
X34392259Y91441265D01*
X34621839Y91591399D01*
X34823500Y91789105D01*
X34982715Y92022354D01*
X35093367Y92282182D01*
X35110904Y92364961D01*
X34988915Y92587000D01*
X33446000Y92587000D01*
X33446000Y92567000D01*
X33192000Y92567000D01*
X33192000Y92587000D01*
X31649085Y92587000D01*
X31527096Y92364961D01*
X31544633Y92282182D01*
X31655285Y92022354D01*
X31814500Y91789105D01*
X32016161Y91591399D01*
X32245741Y91441265D01*
X32117899Y91372932D01*
X31899392Y91193608D01*
X31748773Y91010078D01*
X31718700Y91013040D01*
X31677681Y91009000D01*
X31555011Y90996918D01*
X31397613Y90949172D01*
X31252554Y90871636D01*
X31125409Y90767291D01*
X31021064Y90640146D01*
X30943528Y90495087D01*
X30895782Y90337689D01*
X30879660Y90174000D01*
X30883700Y90132981D01*
X30883700Y89859268D01*
X27127367Y86102935D01*
X27118608Y86113608D01*
X26900101Y86292932D01*
X26767142Y86364000D01*
X26900101Y86435068D01*
X27118608Y86614392D01*
X27297932Y86832899D01*
X27431182Y87082192D01*
X27513236Y87352691D01*
X27540943Y87634000D01*
X27513236Y87915309D01*
X27431182Y88185808D01*
X27297932Y88435101D01*
X27118608Y88653608D01*
X26900101Y88832932D01*
X26767142Y88904000D01*
X26900101Y88975068D01*
X27118608Y89154392D01*
X27297932Y89372899D01*
X27431182Y89622192D01*
X27513236Y89892691D01*
X27540943Y90174000D01*
X27513236Y90455309D01*
X27431182Y90725808D01*
X27297932Y90975101D01*
X27118608Y91193608D01*
X26900101Y91372932D01*
X26767142Y91444000D01*
X26900101Y91515068D01*
X27118608Y91694392D01*
X27297932Y91912899D01*
X27431182Y92162192D01*
X27513236Y92432691D01*
X27540943Y92714000D01*
X27513236Y92995309D01*
X27431182Y93265808D01*
X27297932Y93515101D01*
X27118608Y93733608D01*
X26900101Y93912932D01*
X26883136Y93922000D01*
X32146750Y93922000D01*
X32016161Y93836601D01*
G37*
G04 #@! TD.AperFunction*
M02*
